<svg width="66" height="67" viewBox="0 0 66 67" fill="none" xmlns="http://www.w3.org/2000/svg">
<mask id="mask0" mask-type="alpha" maskUnits="userSpaceOnUse" x="0" y="0" width="66" height="67">
<circle cx="33" cy="33.5898" r="33" fill="#64D47F"/>
</mask>
<g mask="url(#mask0)">
<g filter="url(#filter0_di)">
<path fill-rule="evenodd" clip-rule="evenodd" d="M33.5537 10.0366C31.827 9.264 29.8009 10.0375 29.0283 11.7642L12.4644 48.7837C11.6918 50.5104 12.4653 52.5364 14.192 53.309L51.316 69.9197C53.0427 70.6923 55.0688 69.9189 55.8414 68.1922L72.4053 31.1727C73.1779 29.446 72.4045 27.4199 70.6778 26.6473L33.5537 10.0366ZM40.0555 20.9461C40.4418 20.0827 40.0551 19.0697 39.1917 18.6834C38.3284 18.2971 37.3153 18.6838 36.9291 19.5472L35.0342 23.7821L30.7984 21.8869C29.9351 21.5006 28.922 21.8873 28.5357 22.7507C28.1495 23.614 28.5362 24.6271 29.3995 25.0134L33.6353 26.9086L31.7399 31.1446C31.3536 32.0079 31.7404 33.0209 32.6037 33.4072C33.4671 33.7935 34.4801 33.4068 34.8664 32.5435L36.7617 28.3075L40.9969 30.2025C41.8603 30.5888 42.8733 30.202 43.2596 29.3387C43.6459 28.4753 43.2592 27.4623 42.3958 27.076L38.1606 25.181L40.0555 20.9461ZM24.0543 38.552C24.9379 38.2147 25.9277 38.6575 26.265 39.5412L27.9198 43.876L32.2543 42.2212C33.138 41.8839 34.1277 42.3268 34.4651 43.2104C34.8024 44.094 34.3595 45.0838 33.4759 45.4212L29.1414 47.0759L30.7963 51.411C31.1337 52.2946 30.6908 53.2844 29.8072 53.6218C28.9235 53.9591 27.9337 53.5162 27.5964 52.6326L25.9415 48.2974L21.606 49.9525C20.7224 50.2898 19.7326 49.847 19.3953 48.9633C19.058 48.0797 19.5008 47.0899 20.3845 46.7526L24.7199 45.0975L23.0651 40.7627C22.7278 39.8791 23.1706 38.8893 24.0543 38.552ZM62.0978 39.6443C62.9612 40.0306 63.9742 39.6439 64.3605 38.7805C64.7468 37.9172 64.3601 36.9041 63.4967 36.5178L51.8993 31.3287C51.036 30.9424 50.0229 31.3291 49.6367 32.1925C49.2504 33.0558 49.6371 34.0689 50.5004 34.4552L62.0978 39.6443ZM57.0844 55.5294C56.6981 56.3927 55.685 56.7795 54.8217 56.3932L43.2243 51.2041C42.361 50.8178 41.9742 49.8047 42.3605 48.9414C42.7468 48.078 43.7599 47.6913 44.6232 48.0776L56.2206 53.2667C57.0839 53.653 57.4707 54.666 57.0844 55.5294ZM51.6304 63.5264C52.4937 63.9127 53.5068 63.5259 53.8931 62.6626C54.2794 61.7992 53.8926 60.7862 53.0293 60.3999L41.4319 55.2108C40.5685 54.8245 39.5555 55.2112 39.1692 56.0746C38.7829 56.9379 39.1696 57.9509 40.033 58.3372L51.6304 63.5264Z" fill="white"/>
<path fill-rule="evenodd" clip-rule="evenodd" d="M33.5537 10.0366C31.827 9.264 29.8009 10.0375 29.0283 11.7642L12.4644 48.7837C11.6918 50.5104 12.4653 52.5364 14.192 53.309L51.316 69.9197C53.0427 70.6923 55.0688 69.9189 55.8414 68.1922L72.4053 31.1727C73.1779 29.446 72.4045 27.4199 70.6778 26.6473L33.5537 10.0366ZM40.0555 20.9461C40.4418 20.0827 40.0551 19.0697 39.1917 18.6834C38.3284 18.2971 37.3153 18.6838 36.9291 19.5472L35.0342 23.7821L30.7984 21.8869C29.9351 21.5006 28.922 21.8873 28.5357 22.7507C28.1495 23.614 28.5362 24.6271 29.3995 25.0134L33.6353 26.9086L31.7399 31.1446C31.3536 32.0079 31.7404 33.0209 32.6037 33.4072C33.4671 33.7935 34.4801 33.4068 34.8664 32.5435L36.7617 28.3075L40.9969 30.2025C41.8603 30.5888 42.8733 30.202 43.2596 29.3387C43.6459 28.4753 43.2592 27.4623 42.3958 27.076L38.1606 25.181L40.0555 20.9461ZM24.0543 38.552C24.9379 38.2147 25.9277 38.6575 26.265 39.5412L27.9198 43.876L32.2543 42.2212C33.138 41.8839 34.1277 42.3268 34.4651 43.2104C34.8024 44.094 34.3595 45.0838 33.4759 45.4212L29.1414 47.0759L30.7963 51.411C31.1337 52.2946 30.6908 53.2844 29.8072 53.6218C28.9235 53.9591 27.9337 53.5162 27.5964 52.6326L25.9415 48.2974L21.606 49.9525C20.7224 50.2898 19.7326 49.847 19.3953 48.9633C19.058 48.0797 19.5008 47.0899 20.3845 46.7526L24.7199 45.0975L23.0651 40.7627C22.7278 39.8791 23.1706 38.8893 24.0543 38.552ZM62.0978 39.6443C62.9612 40.0306 63.9742 39.6439 64.3605 38.7805C64.7468 37.9172 64.3601 36.9041 63.4967 36.5178L51.8993 31.3287C51.036 30.9424 50.0229 31.3291 49.6367 32.1925C49.2504 33.0558 49.6371 34.0689 50.5004 34.4552L62.0978 39.6443ZM57.0844 55.5294C56.6981 56.3927 55.685 56.7795 54.8217 56.3932L43.2243 51.2041C42.361 50.8178 41.9742 49.8047 42.3605 48.9414C42.7468 48.078 43.7599 47.6913 44.6232 48.0776L56.2206 53.2667C57.0839 53.653 57.4707 54.666 57.0844 55.5294ZM51.6304 63.5264C52.4937 63.9127 53.5068 63.5259 53.8931 62.6626C54.2794 61.7992 53.8926 60.7862 53.0293 60.3999L41.4319 55.2108C40.5685 54.8245 39.5555 55.2112 39.1692 56.0746C38.7829 56.9379 39.1696 57.9509 40.033 58.3372L51.6304 63.5264Z" fill="url(#paint0_linear)"/>
</g>
</g>
<defs>
<filter id="filter0_di" x="8.73989" y="4.02872" width="74.2406" height="74.1828" filterUnits="userSpaceOnUse" color-interpolation-filters="sRGB">
<feFlood flood-opacity="0" result="BackgroundImageFix"/>
<feColorMatrix in="SourceAlpha" type="matrix" values="0 0 0 0 0 0 0 0 0 0 0 0 0 0 0 0 0 0 127 0"/>
<feOffset dx="3.42515" dy="1.14172"/>
<feGaussianBlur stdDeviation="3.42515"/>
<feColorMatrix type="matrix" values="0 0 0 0 0.191667 0 0 0 0 0.464828 0 0 0 0 1 0 0 0 1 0"/>
<feBlend mode="normal" in2="BackgroundImageFix" result="effect1_dropShadow"/>
<feBlend mode="normal" in="SourceGraphic" in2="effect1_dropShadow" result="shape"/>
<feColorMatrix in="SourceAlpha" type="matrix" values="0 0 0 0 0 0 0 0 0 0 0 0 0 0 0 0 0 0 127 0" result="hardAlpha"/>
<feOffset dx="2.28343"/>
<feGaussianBlur stdDeviation="1.71257"/>
<feComposite in2="hardAlpha" operator="arithmetic" k2="-1" k3="1"/>
<feColorMatrix type="matrix" values="0 0 0 0 0.6875 0 0 0 0 0.793478 0 0 0 0 1 0 0 0 1 0"/>
<feBlend mode="normal" in2="shape" result="effect2_innerShadow"/>
</filter>
<linearGradient id="paint0_linear" x1="32.5739" y1="13.3962" x2="51.5382" y2="62.9079" gradientUnits="userSpaceOnUse">
<stop stop-color="white"/>
<stop offset="1" stop-color="#6E9FFF"/>
</linearGradient>
</defs>
</svg>
