<svg width="110" height="82" viewBox="0 0 110 82" fill="none" xmlns="http://www.w3.org/2000/svg">
<g style="mix-blend-mode:multiply" opacity="0.2">
<path d="M109.971 44.6699H83.3618C83.8167 25.2772 89.317 23.0759 96.2252 22.4476L98.8892 22.1173V0.793182L95.8185 0.957741C86.7976 1.46527 76.8242 3.09148 70.1703 11.3057C64.3376 18.5064 61.7661 30.2706 61.7661 48.3296V81.793H109.971V44.6699Z" fill="#AFCAFF"/>
<path d="M48.4688 81.793V44.6699H22.215C22.6699 25.2772 27.9923 23.0759 34.9005 22.4476L37.3872 22.1173V0.793182L34.4938 0.957741C25.4729 1.46527 15.4104 3.09148 8.75647 11.3057C2.92426 18.5064 0.264149 30.2706 0.264149 48.3296V81.793H48.4688Z" fill="#AFCAFF"/>
</g>
</svg>
