<svg width="125" height="125" viewBox="0 0 125 125" fill="none" xmlns="http://www.w3.org/2000/svg">
<g filter="url(#filter0_ii)">
<rect x="0.127441" y="0.40918" width="124" height="123.008" rx="26.9565" fill="url(#paint0_linear)"/>
<rect x="0.127441" y="0.40918" width="124" height="123.008" rx="26.9565" fill="#3E51FF"/>
</g>
<mask id="mask0" mask-type="alpha" maskUnits="userSpaceOnUse" x="0" y="1" width="125" height="124">
<rect x="0.126953" y="1.40137" width="124" height="123.008" rx="27.4961" fill="url(#paint1_linear)"/>
<rect x="0.126953" y="1.40137" width="124" height="123.008" rx="27.4961" fill="url(#paint2_linear)" fill-opacity="0.2"/>
</mask>
<g mask="url(#mask0)">
<g filter="url(#filter1_di)">
<path d="M129.325 91.216L111.567 96.0707L117.826 118.969L93.214 125.698L86.9547 102.799L28.2285 118.854L23.5872 101.875L56.0862 18.658L82.5675 11.4185L52.8277 90.0303L82.1129 82.0242L76.5348 61.6179L100.368 55.1023L105.946 75.5086L123.704 70.6539L129.325 91.216Z" fill="white"/>
<path d="M129.325 91.216L111.567 96.0707L117.826 118.969L93.214 125.698L86.9547 102.799L28.2285 118.854L23.5872 101.875L56.0862 18.658L82.5675 11.4185L52.8277 90.0303L82.1129 82.0242L76.5348 61.6179L100.368 55.1023L105.946 75.5086L123.704 70.6539L129.325 91.216Z" fill="url(#paint3_linear)"/>
</g>
<g filter="url(#filter2_di)">
<path d="M34.0479 117.453L31.8342 118.092L33.7599 124.767L27.188 126.663L21.78 107.916L28.3519 106.02L30.3475 112.938L32.6996 112.259L35.3044 104.014L42.2568 102.008L38.5558 112.818L48.0799 120.636L40.3319 122.871L34.0479 117.453ZM63.944 95.7514L69.352 114.499L62.78 116.395L58.8787 102.87L54.14 104.238L54.8298 107.148C55.4426 109.619 55.7826 111.707 55.8495 113.411C55.9165 115.115 55.63 116.547 54.9901 117.706C54.3436 118.841 53.2363 119.635 51.6682 120.088C50.8612 120.321 49.7572 120.477 48.3563 120.556L47.0865 115.115C47.5148 115.041 47.7982 114.985 47.9366 114.945C48.6514 114.738 49.1268 114.352 49.3627 113.784C49.5986 113.216 49.676 112.532 49.5948 111.731C49.507 110.907 49.2999 109.843 48.9736 108.538L46.9953 100.641L63.944 95.7514ZM75.9151 91.9605C79.0281 91.0624 81.6094 91.092 83.6591 92.0493C85.7021 92.9836 87.146 94.9151 87.9908 97.8437L90.9941 108.255L84.8718 110.021L84.1733 107.6C83.7534 109.695 82.1714 111.138 79.4273 111.929C77.9746 112.349 76.6446 112.457 75.4376 112.256C74.2305 112.055 73.2272 111.607 72.4276 110.914C71.6445 110.191 71.0933 109.276 70.774 108.169C70.2618 106.393 70.5462 104.825 71.6274 103.464C72.7019 102.08 74.6573 100.979 77.4936 100.16L81.2292 99.0825C80.5419 97.1326 78.9299 96.5236 76.3934 97.2554C75.494 97.5148 74.6264 97.9275 73.7905 98.4934C72.948 99.0362 72.277 99.6544 71.7777 100.348L68.2768 96.5246C69.115 95.5335 70.2187 94.6405 71.5881 93.8458C72.9739 93.0213 74.4162 92.3929 75.9151 91.9605ZM80.0632 107.25C80.8242 107.03 81.4397 106.653 81.9097 106.118C82.3798 105.582 82.6385 104.921 82.686 104.133L82.217 102.507L79.3807 103.325C77.4668 103.877 76.6927 104.788 77.0586 106.056C77.2249 106.632 77.577 107.03 78.1149 107.25C78.6528 107.469 79.3022 107.469 80.0632 107.25ZM104.446 104.711C102.371 105.31 100.395 105.431 98.5178 105.073C96.6411 104.715 95.0287 103.931 93.6806 102.722C92.3556 101.505 91.4237 99.9631 90.8848 98.0953C90.346 96.2275 90.3168 94.4374 90.797 92.7252C91.2937 90.9833 92.2442 89.4726 93.6486 88.1932C95.0464 86.8907 96.7829 85.94 98.8583 85.3413C100.98 84.7292 102.946 84.6615 104.757 85.1382C106.562 85.5918 108.019 86.5326 109.131 87.9605L104.794 92.0216C103.456 90.5844 101.968 90.102 100.33 90.5743C99.1543 90.9136 98.2874 91.5884 97.7295 92.5986C97.1947 93.6021 97.1269 94.7957 97.526 96.1793C97.9318 97.586 98.6315 98.5831 99.6253 99.1706C100.635 99.7284 101.729 99.8377 102.905 99.4984C104.542 99.0261 105.544 97.8252 105.912 95.8956L111.745 97.0229C111.565 98.8234 110.835 100.408 109.556 101.776C108.271 103.121 106.567 104.099 104.446 104.711ZM125.186 98.7279C123.111 99.3267 121.135 99.4471 119.258 99.0893C117.381 98.7315 115.769 97.9478 114.421 96.7381C113.096 95.5217 112.164 93.9796 111.625 92.1117C111.086 90.2439 111.057 88.4539 111.537 86.7417C112.034 84.9997 112.984 83.489 114.389 82.2096C115.786 80.9071 117.523 79.9565 119.598 79.3577C121.72 78.7457 123.686 78.678 125.497 79.1546C127.302 79.6082 128.759 80.549 129.871 81.9769L125.534 86.0381C124.196 84.6008 122.708 84.1184 121.07 84.5908C119.894 84.93 119.027 85.6048 118.47 86.615C117.935 87.6186 117.867 88.8122 118.266 90.1958C118.672 91.6024 119.372 92.5995 120.365 93.1871C121.376 93.7449 122.469 93.8542 123.645 93.5149C125.282 93.0425 126.284 91.8416 126.652 89.9121L132.485 91.0394C132.305 92.8398 131.575 94.4241 130.296 95.7923C129.011 97.1373 127.307 98.1159 125.186 98.7279Z" fill="white"/>
<path d="M34.0479 117.453L31.8342 118.092L33.7599 124.767L27.188 126.663L21.78 107.916L28.3519 106.02L30.3475 112.938L32.6996 112.259L35.3044 104.014L42.2568 102.008L38.5558 112.818L48.0799 120.636L40.3319 122.871L34.0479 117.453ZM63.944 95.7514L69.352 114.499L62.78 116.395L58.8787 102.87L54.14 104.238L54.8298 107.148C55.4426 109.619 55.7826 111.707 55.8495 113.411C55.9165 115.115 55.63 116.547 54.9901 117.706C54.3436 118.841 53.2363 119.635 51.6682 120.088C50.8612 120.321 49.7572 120.477 48.3563 120.556L47.0865 115.115C47.5148 115.041 47.7982 114.985 47.9366 114.945C48.6514 114.738 49.1268 114.352 49.3627 113.784C49.5986 113.216 49.676 112.532 49.5948 111.731C49.507 110.907 49.2999 109.843 48.9736 108.538L46.9953 100.641L63.944 95.7514ZM75.9151 91.9605C79.0281 91.0624 81.6094 91.092 83.6591 92.0493C85.7021 92.9836 87.146 94.9151 87.9908 97.8437L90.9941 108.255L84.8718 110.021L84.1733 107.6C83.7534 109.695 82.1714 111.138 79.4273 111.929C77.9746 112.349 76.6446 112.457 75.4376 112.256C74.2305 112.055 73.2272 111.607 72.4276 110.914C71.6445 110.191 71.0933 109.276 70.774 108.169C70.2618 106.393 70.5462 104.825 71.6274 103.464C72.7019 102.08 74.6573 100.979 77.4936 100.16L81.2292 99.0825C80.5419 97.1326 78.9299 96.5236 76.3934 97.2554C75.494 97.5148 74.6264 97.9275 73.7905 98.4934C72.948 99.0362 72.277 99.6544 71.7777 100.348L68.2768 96.5246C69.115 95.5335 70.2187 94.6405 71.5881 93.8458C72.9739 93.0213 74.4162 92.3929 75.9151 91.9605ZM80.0632 107.25C80.8242 107.03 81.4397 106.653 81.9097 106.118C82.3798 105.582 82.6385 104.921 82.686 104.133L82.217 102.507L79.3807 103.325C77.4668 103.877 76.6927 104.788 77.0586 106.056C77.2249 106.632 77.577 107.03 78.1149 107.25C78.6528 107.469 79.3022 107.469 80.0632 107.25ZM104.446 104.711C102.371 105.31 100.395 105.431 98.5178 105.073C96.6411 104.715 95.0287 103.931 93.6806 102.722C92.3556 101.505 91.4237 99.9631 90.8848 98.0953C90.346 96.2275 90.3168 94.4374 90.797 92.7252C91.2937 90.9833 92.2442 89.4726 93.6486 88.1932C95.0464 86.8907 96.7829 85.94 98.8583 85.3413C100.98 84.7292 102.946 84.6615 104.757 85.1382C106.562 85.5918 108.019 86.5326 109.131 87.9605L104.794 92.0216C103.456 90.5844 101.968 90.102 100.33 90.5743C99.1543 90.9136 98.2874 91.5884 97.7295 92.5986C97.1947 93.6021 97.1269 94.7957 97.526 96.1793C97.9318 97.586 98.6315 98.5831 99.6253 99.1706C100.635 99.7284 101.729 99.8377 102.905 99.4984C104.542 99.0261 105.544 97.8252 105.912 95.8956L111.745 97.0229C111.565 98.8234 110.835 100.408 109.556 101.776C108.271 103.121 106.567 104.099 104.446 104.711ZM125.186 98.7279C123.111 99.3267 121.135 99.4471 119.258 99.0893C117.381 98.7315 115.769 97.9478 114.421 96.7381C113.096 95.5217 112.164 93.9796 111.625 92.1117C111.086 90.2439 111.057 88.4539 111.537 86.7417C112.034 84.9997 112.984 83.489 114.389 82.2096C115.786 80.9071 117.523 79.9565 119.598 79.3577C121.72 78.7457 123.686 78.678 125.497 79.1546C127.302 79.6082 128.759 80.549 129.871 81.9769L125.534 86.0381C124.196 84.6008 122.708 84.1184 121.07 84.5908C119.894 84.93 119.027 85.6048 118.47 86.615C117.935 87.6186 117.867 88.8122 118.266 90.1958C118.672 91.6024 119.372 92.5995 120.365 93.1871C121.376 93.7449 122.469 93.8542 123.645 93.5149C125.282 93.0425 126.284 91.8416 126.652 89.9121L132.485 91.0394C132.305 92.8398 131.575 94.4241 130.296 95.7923C129.011 97.1373 127.307 98.1159 125.186 98.7279Z" fill="url(#paint4_linear)"/>
</g>
</g>
<defs>
<filter id="filter0_ii" x="-0.840288" y="-0.558549" width="125.935" height="124.943" filterUnits="userSpaceOnUse" color-interpolation-filters="sRGB">
<feFlood flood-opacity="0" result="BackgroundImageFix"/>
<feBlend mode="normal" in="SourceGraphic" in2="BackgroundImageFix" result="shape"/>
<feColorMatrix in="SourceAlpha" type="matrix" values="0 0 0 0 0 0 0 0 0 0 0 0 0 0 0 0 0 0 127 0" result="hardAlpha"/>
<feOffset dx="0.967729" dy="0.967729"/>
<feGaussianBlur stdDeviation="0.483864"/>
<feComposite in2="hardAlpha" operator="arithmetic" k2="-1" k3="1"/>
<feColorMatrix type="matrix" values="0 0 0 0 1 0 0 0 0 1 0 0 0 0 1 0 0 0 0.2 0"/>
<feBlend mode="normal" in2="shape" result="effect1_innerShadow"/>
<feColorMatrix in="SourceAlpha" type="matrix" values="0 0 0 0 0 0 0 0 0 0 0 0 0 0 0 0 0 0 127 0" result="hardAlpha"/>
<feOffset dx="-0.967729" dy="-0.967729"/>
<feGaussianBlur stdDeviation="0.483864"/>
<feComposite in2="hardAlpha" operator="arithmetic" k2="-1" k3="1"/>
<feColorMatrix type="matrix" values="0 0 0 0 0 0 0 0 0 0 0 0 0 0 0 0 0 0 0.05 0"/>
<feBlend mode="normal" in2="effect1_innerShadow" result="effect2_innerShadow"/>
</filter>
<filter id="filter1_di" x="13.5217" y="6.84327" width="125.868" height="134.41" filterUnits="userSpaceOnUse" color-interpolation-filters="sRGB">
<feFlood flood-opacity="0" result="BackgroundImageFix"/>
<feColorMatrix in="SourceAlpha" type="matrix" values="0 0 0 0 0 0 0 0 0 0 0 0 0 0 0 0 0 0 127 0"/>
<feOffset dy="5.49023"/>
<feGaussianBlur stdDeviation="5.03271"/>
<feColorMatrix type="matrix" values="0 0 0 0 0.1375 0 0 0 0 0.222409 0 0 0 0 1 0 0 0 1 0"/>
<feBlend mode="normal" in2="BackgroundImageFix" result="effect1_dropShadow"/>
<feBlend mode="normal" in="SourceGraphic" in2="effect1_dropShadow" result="shape"/>
<feColorMatrix in="SourceAlpha" type="matrix" values="0 0 0 0 0 0 0 0 0 0 0 0 0 0 0 0 0 0 127 0" result="hardAlpha"/>
<feOffset dx="3.94654"/>
<feGaussianBlur stdDeviation="2.28759"/>
<feComposite in2="hardAlpha" operator="arithmetic" k2="-1" k3="1"/>
<feColorMatrix type="matrix" values="0 0 0 0 0.641667 0 0 0 0 0.677801 0 0 0 0 1 0 0 0 1 0"/>
<feBlend mode="normal" in2="shape" result="effect2_innerShadow"/>
</filter>
<filter id="filter2_di" x="14.5632" y="75.5612" width="125.139" height="62.2554" filterUnits="userSpaceOnUse" color-interpolation-filters="sRGB">
<feFlood flood-opacity="0" result="BackgroundImageFix"/>
<feColorMatrix in="SourceAlpha" type="matrix" values="0 0 0 0 0 0 0 0 0 0 0 0 0 0 0 0 0 0 127 0"/>
<feOffset dy="3.93645"/>
<feGaussianBlur stdDeviation="3.60841"/>
<feColorMatrix type="matrix" values="0 0 0 0 0.243137 0 0 0 0 0.317647 0 0 0 0 1 0 0 0 1 0"/>
<feBlend mode="normal" in2="BackgroundImageFix" result="effect1_dropShadow"/>
<feBlend mode="normal" in="SourceGraphic" in2="effect1_dropShadow" result="shape"/>
<feColorMatrix in="SourceAlpha" type="matrix" values="0 0 0 0 0 0 0 0 0 0 0 0 0 0 0 0 0 0 127 0" result="hardAlpha"/>
<feOffset dx="0.5"/>
<feGaussianBlur stdDeviation="1.64019"/>
<feComposite in2="hardAlpha" operator="arithmetic" k2="-1" k3="1"/>
<feColorMatrix type="matrix" values="0 0 0 0 0.937255 0 0 0 0 0.941176 0 0 0 0 1 0 0 0 1 0"/>
<feBlend mode="normal" in2="shape" result="effect2_innerShadow"/>
</filter>
<linearGradient id="paint0_linear" x1="62.1274" y1="0.40918" x2="62.1274" y2="123.417" gradientUnits="userSpaceOnUse">
<stop stop-color="#387CFF"/>
<stop offset="1" stop-color="#1967FF"/>
</linearGradient>
<linearGradient id="paint1_linear" x1="62.127" y1="1.40137" x2="62.127" y2="124.409" gradientUnits="userSpaceOnUse">
<stop stop-color="#FADB7E"/>
<stop offset="1" stop-color="#FADB7E"/>
</linearGradient>
<linearGradient id="paint2_linear" x1="62.127" y1="1.40137" x2="62.127" y2="124.409" gradientUnits="userSpaceOnUse">
<stop offset="0.328125" stop-color="white"/>
<stop offset="1" stop-opacity="0.1"/>
</linearGradient>
<linearGradient id="paint3_linear" x1="36.5858" y1="27.5916" x2="95.4017" y2="127.852" gradientUnits="userSpaceOnUse">
<stop stop-color="white"/>
<stop offset="1" stop-color="#3E51FF"/>
</linearGradient>
<linearGradient id="paint4_linear" x1="81.1272" y1="90.9054" x2="88.2551" y2="115.225" gradientUnits="userSpaceOnUse">
<stop stop-color="white"/>
<stop offset="1" stop-color="#747FEE"/>
</linearGradient>
</defs>
</svg>
