<svg width="125" height="125" viewBox="0 0 125 125" fill="none" xmlns="http://www.w3.org/2000/svg">
<g filter="url(#filter0_ii)">
<rect x="0.126953" y="0.407227" width="124" height="123.008" rx="26.9565" fill="url(#paint0_linear)"/>
<rect x="0.126953" y="0.407227" width="124" height="123.008" rx="26.9565" fill="#FCB8A3"/>
</g>
<mask id="mask0" mask-type="alpha" maskUnits="userSpaceOnUse" x="0" y="1" width="125" height="124">
<rect x="0.126953" y="1.39917" width="124" height="123.008" rx="27.4961" fill="url(#paint1_linear)"/>
<rect x="0.126953" y="1.39917" width="124" height="123.008" rx="27.4961" fill="url(#paint2_linear)" fill-opacity="0.2"/>
</mask>
<g mask="url(#mask0)">
<g filter="url(#filter1_di)">
<path d="M48.2552 87.6322L50.8603 97.1625L11.1264 108.025L-2.90122 56.7078L35.8797 46.1058L38.4848 55.6361L11.5068 63.0115L14.5528 74.1547L38.3785 67.6411L40.9034 76.8782L17.0777 83.3918L20.3241 95.2681L48.2552 87.6322ZM85.2124 43.0192L60.8002 49.693L72.2559 91.3133L60.453 94.5401L46.4254 43.2227L82.6405 33.3221L85.2124 43.0192ZM106.062 25.9735C111.145 24.5839 116.004 24.4899 120.64 25.6913C125.311 26.8305 129.349 29.1144 132.755 32.5429C136.148 35.9226 138.539 40.1539 139.928 45.2367C141.318 50.3196 141.418 55.2033 140.23 59.8877C139.028 64.5234 136.713 68.5442 133.285 71.9502C129.892 75.294 125.654 77.6607 120.571 79.0503C116.026 80.2928 111.707 80.6332 107.614 80.0713C103.57 79.4961 99.9182 78.0519 96.6596 75.7386L102.287 66.6365C107.012 69.7043 111.99 70.5234 117.219 69.0937C120.982 68.0649 123.858 66.0968 125.848 63.1893C127.886 60.2685 128.788 56.844 128.554 52.9159L107.734 58.6077L105.25 49.5172L125.923 43.8654C124.13 40.5737 121.652 38.2311 118.487 36.8377C115.322 35.4442 111.907 35.2486 108.241 36.2507C103.012 37.6803 99.1434 40.9177 96.6356 45.963L87.1609 40.9895C88.7896 37.3401 91.1986 34.2391 94.3877 31.6864C97.6256 29.1204 101.517 27.2161 106.062 25.9735Z" fill="white"/>
<path d="M48.2552 87.6322L50.8603 97.1625L11.1264 108.025L-2.90122 56.7078L35.8797 46.1058L38.4848 55.6361L11.5068 63.0115L14.5528 74.1547L38.3785 67.6411L40.9034 76.8782L17.0777 83.3918L20.3241 95.2681L48.2552 87.6322ZM85.2124 43.0192L60.8002 49.693L72.2559 91.3133L60.453 94.5401L46.4254 43.2227L82.6405 33.3221L85.2124 43.0192ZM106.062 25.9735C111.145 24.5839 116.004 24.4899 120.64 25.6913C125.311 26.8305 129.349 29.1144 132.755 32.5429C136.148 35.9226 138.539 40.1539 139.928 45.2367C141.318 50.3196 141.418 55.2033 140.23 59.8877C139.028 64.5234 136.713 68.5442 133.285 71.9502C129.892 75.294 125.654 77.6607 120.571 79.0503C116.026 80.2928 111.707 80.6332 107.614 80.0713C103.57 79.4961 99.9182 78.0519 96.6596 75.7386L102.287 66.6365C107.012 69.7043 111.99 70.5234 117.219 69.0937C120.982 68.0649 123.858 66.0968 125.848 63.1893C127.886 60.2685 128.788 56.844 128.554 52.9159L107.734 58.6077L105.25 49.5172L125.923 43.8654C124.13 40.5737 121.652 38.2311 118.487 36.8377C115.322 35.4442 111.907 35.2486 108.241 36.2507C103.012 37.6803 99.1434 40.9177 96.6356 45.963L87.1609 40.9895C88.7896 37.3401 91.1986 34.2391 94.3877 31.6864C97.6256 29.1204 101.517 27.2161 106.062 25.9735Z" fill="url(#paint3_linear)"/>
</g>
</g>
<defs>
<filter id="filter0_ii" x="-0.840776" y="-0.560502" width="125.935" height="124.943" filterUnits="userSpaceOnUse" color-interpolation-filters="sRGB">
<feFlood flood-opacity="0" result="BackgroundImageFix"/>
<feBlend mode="normal" in="SourceGraphic" in2="BackgroundImageFix" result="shape"/>
<feColorMatrix in="SourceAlpha" type="matrix" values="0 0 0 0 0 0 0 0 0 0 0 0 0 0 0 0 0 0 127 0" result="hardAlpha"/>
<feOffset dx="0.967729" dy="0.967729"/>
<feGaussianBlur stdDeviation="0.483864"/>
<feComposite in2="hardAlpha" operator="arithmetic" k2="-1" k3="1"/>
<feColorMatrix type="matrix" values="0 0 0 0 1 0 0 0 0 1 0 0 0 0 1 0 0 0 0.2 0"/>
<feBlend mode="normal" in2="shape" result="effect1_innerShadow"/>
<feColorMatrix in="SourceAlpha" type="matrix" values="0 0 0 0 0 0 0 0 0 0 0 0 0 0 0 0 0 0 127 0" result="hardAlpha"/>
<feOffset dx="-0.967729" dy="-0.967729"/>
<feGaussianBlur stdDeviation="0.483864"/>
<feComposite in2="hardAlpha" operator="arithmetic" k2="-1" k3="1"/>
<feColorMatrix type="matrix" values="0 0 0 0 0 0 0 0 0 0 0 0 0 0 0 0 0 0 0.05 0"/>
<feBlend mode="normal" in2="effect1_innerShadow" result="effect2_innerShadow"/>
</filter>
<filter id="filter1_di" x="-12.9665" y="20.2805" width="164.084" height="103.3" filterUnits="userSpaceOnUse" color-interpolation-filters="sRGB">
<feFlood flood-opacity="0" result="BackgroundImageFix"/>
<feColorMatrix in="SourceAlpha" type="matrix" values="0 0 0 0 0 0 0 0 0 0 0 0 0 0 0 0 0 0 127 0"/>
<feOffset dy="5.49023"/>
<feGaussianBlur stdDeviation="5.03271"/>
<feColorMatrix type="matrix" values="0 0 0 0 0.8375 0 0 0 0 0.554883 0 0 0 0 0.467604 0 0 0 1 0"/>
<feBlend mode="normal" in2="BackgroundImageFix" result="effect1_dropShadow"/>
<feBlend mode="normal" in="SourceGraphic" in2="effect1_dropShadow" result="shape"/>
<feColorMatrix in="SourceAlpha" type="matrix" values="0 0 0 0 0 0 0 0 0 0 0 0 0 0 0 0 0 0 127 0" result="hardAlpha"/>
<feOffset dx="3.94654"/>
<feGaussianBlur stdDeviation="2.28759"/>
<feComposite in2="hardAlpha" operator="arithmetic" k2="-1" k3="1"/>
<feColorMatrix type="matrix" values="0 0 0 0 0.992157 0 0 0 0 0.839216 0 0 0 0 0.792157 0 0 0 1 0"/>
<feBlend mode="normal" in2="shape" result="effect2_innerShadow"/>
</filter>
<linearGradient id="paint0_linear" x1="62.127" y1="0.407227" x2="62.127" y2="123.415" gradientUnits="userSpaceOnUse">
<stop stop-color="#387CFF"/>
<stop offset="1" stop-color="#1967FF"/>
</linearGradient>
<linearGradient id="paint1_linear" x1="62.127" y1="1.39917" x2="62.127" y2="124.407" gradientUnits="userSpaceOnUse">
<stop stop-color="#FADB7E"/>
<stop offset="1" stop-color="#FADB7E"/>
</linearGradient>
<linearGradient id="paint2_linear" x1="62.127" y1="1.39917" x2="62.127" y2="124.407" gradientUnits="userSpaceOnUse">
<stop offset="0.328125" stop-color="white"/>
<stop offset="1" stop-opacity="0.1"/>
</linearGradient>
<linearGradient id="paint3_linear" x1="37.3819" y1="18.3606" x2="88.4174" y2="125.295" gradientUnits="userSpaceOnUse">
<stop stop-color="white"/>
<stop offset="1" stop-color="#FCB8A3"/>
</linearGradient>
</defs>
</svg>
