<svg width="125" height="125" viewBox="0 0 125 125" fill="none" xmlns="http://www.w3.org/2000/svg">
<g filter="url(#filter0_ii)">
<rect x="0.126953" y="0.408936" width="124" height="123.008" rx="27.1739" fill="url(#paint0_linear)"/>
<rect x="0.126953" y="0.408936" width="124" height="123.008" rx="27.1739" fill="#6E9FFF"/>
</g>
<mask id="mask0" mask-type="alpha" maskUnits="userSpaceOnUse" x="0" y="1" width="125" height="124">
<rect x="0.126953" y="1.40088" width="124" height="123.008" rx="27.7178" fill="url(#paint1_linear)"/>
<rect x="0.126953" y="1.40088" width="124" height="123.008" rx="27.7178" fill="url(#paint2_linear)" fill-opacity="0.2"/>
</mask>
<g mask="url(#mask0)">
<g filter="url(#filter1_di)">
<path d="M75.6553 60.172C84.6378 59.2233 92.1089 60.6466 98.0687 64.4419C104.003 68.1438 107.979 73.6868 109.998 81.0709C111.557 86.7725 111.505 92.4624 109.842 98.1405C108.154 103.725 104.622 108.809 99.2452 113.393C93.9617 117.952 86.8802 121.445 78.0006 123.872C71.0838 125.763 64.0178 126.74 56.8025 126.804C49.6551 126.749 43.2848 125.677 37.6914 123.59L41.7717 103.79C46.2771 105.572 51.1771 106.593 56.4719 106.854C61.8347 106.995 67.0864 106.363 72.2273 104.958C77.9289 103.399 82.1216 101.097 84.8054 98.0534C87.4636 94.9158 88.2433 91.3374 87.1446 87.3182C84.9472 79.2798 77.7262 76.9343 65.4817 80.2815L55.1065 83.1177L51.0055 68.1158L64.9476 39.7434L23.1667 51.1649L18.1841 32.9383L86.8843 14.158L90.9087 28.8794L75.6553 60.172Z" fill="white"/>
<path d="M75.6553 60.172C84.6378 59.2233 92.1089 60.6466 98.0687 64.4419C104.003 68.1438 107.979 73.6868 109.998 81.0709C111.557 86.7725 111.505 92.4624 109.842 98.1405C108.154 103.725 104.622 108.809 99.2452 113.393C93.9617 117.952 86.8802 121.445 78.0006 123.872C71.0838 125.763 64.0178 126.74 56.8025 126.804C49.6551 126.749 43.2848 125.677 37.6914 123.59L41.7717 103.79C46.2771 105.572 51.1771 106.593 56.4719 106.854C61.8347 106.995 67.0864 106.363 72.2273 104.958C77.9289 103.399 82.1216 101.097 84.8054 98.0534C87.4636 94.9158 88.2433 91.3374 87.1446 87.3182C84.9472 79.2798 77.7262 76.9343 65.4817 80.2815L55.1065 83.1177L51.0055 68.1158L64.9476 39.7434L23.1667 51.1649L18.1841 32.9383L86.8843 14.158L90.9087 28.8794L75.6553 60.172Z" fill="url(#paint3_linear)"/>
</g>
<g filter="url(#filter2_di)">
<path d="M36.9765 116.964L34.7628 117.602L36.6886 124.278L30.1166 126.174L24.7083 107.426L31.2803 105.53L33.276 112.448L35.628 111.77L38.2328 103.525L45.1852 101.519L41.4844 112.328L51.0086 120.147L43.2606 122.382L36.9765 116.964ZM66.8725 95.2626L72.2809 114.01L65.7089 115.906L61.8073 102.382L57.0685 103.749L57.7584 106.659C58.3713 109.13 58.7113 111.218 58.7782 112.922C58.8452 114.626 58.5588 116.058 57.9189 117.217C57.2724 118.352 56.1651 119.146 54.597 119.599C53.7899 119.832 52.686 119.988 51.2851 120.067L50.0151 114.626C50.4435 114.552 50.7269 114.495 50.8652 114.456C51.5801 114.249 52.0555 113.862 52.2914 113.295C52.5273 112.727 52.6046 112.043 52.5235 111.242C52.4357 110.418 52.2285 109.354 51.9021 108.049L49.9237 100.152L66.8725 95.2626ZM78.8437 91.472C81.9567 90.5739 84.5381 90.6036 86.5877 91.5609C88.6308 92.4953 90.0747 94.4267 90.9195 97.3553L93.9231 107.767L87.8007 109.533L87.1022 107.112C86.6823 109.206 85.1003 110.649 82.3562 111.441C80.9035 111.86 79.5735 111.969 78.3664 111.767C77.1593 111.566 76.156 111.119 75.3565 110.425C74.5733 109.702 74.0221 108.787 73.7027 107.68C73.1905 105.904 73.475 104.336 74.5561 102.975C75.6306 101.591 77.586 100.49 80.4223 99.6717L84.158 98.594C83.4706 96.6441 81.8586 96.0351 79.322 96.7668C78.4227 97.0263 77.5551 97.4389 76.7192 98.0048C75.8766 98.5476 75.2057 99.1658 74.7064 99.8594L71.2054 96.036C72.0435 95.0448 73.1473 94.1519 74.5167 93.3572C75.9024 92.5328 77.3448 91.9044 78.8437 91.472ZM82.992 106.761C83.753 106.542 84.3685 106.164 84.8386 105.629C85.3086 105.094 85.5674 104.432 85.6148 103.644L85.1458 102.018L82.3095 102.837C80.3955 103.389 79.6215 104.299 79.9874 105.567C80.1537 106.144 80.5058 106.542 81.0437 106.761C81.5816 106.981 82.2311 106.981 82.992 106.761ZM107.375 104.223C105.3 104.822 103.324 104.942 101.447 104.585C99.5701 104.227 97.9577 103.443 96.6095 102.233C95.2845 101.017 94.3525 99.4748 93.8137 97.607C93.2748 95.7391 93.2455 93.9491 93.7258 92.2369C94.2224 90.495 95.1729 88.9843 96.5773 87.7049C97.9751 86.4025 99.7116 85.4519 101.787 84.8532C103.908 84.2412 105.875 84.1735 107.686 84.6502C109.49 85.1038 110.948 86.0446 112.06 87.4725L107.723 91.5335C106.384 90.0963 104.896 89.6139 103.259 90.0862C102.083 90.4254 101.216 91.1002 100.658 92.1104C100.124 93.1139 100.056 94.3075 100.455 95.6911C100.861 97.0977 101.56 98.0948 102.554 98.6824C103.564 99.2402 104.658 99.3495 105.834 99.0103C107.471 98.5379 108.473 97.337 108.841 95.4076L114.674 96.5349C114.494 98.3354 113.764 99.9196 112.485 101.288C111.2 102.633 109.496 103.611 107.375 104.223ZM128.115 98.2401C126.04 98.8388 124.064 98.9592 122.187 98.6014C120.31 98.2436 118.698 97.4598 117.35 96.2501C116.025 95.0337 115.093 93.4916 114.554 91.6238C114.015 89.7559 113.986 87.9659 114.466 86.2537C114.963 84.5118 115.913 83.0012 117.317 81.7218C118.715 80.4193 120.452 79.4687 122.527 78.87C124.649 78.258 126.615 78.1903 128.426 78.667C130.23 79.1206 131.688 80.0614 132.8 81.4893L128.463 85.5503C127.125 84.1131 125.637 83.6307 123.999 84.103C122.823 84.4423 121.956 85.117 121.398 86.1272C120.864 87.1308 120.796 88.3243 121.195 89.7079C121.601 91.1145 122.301 92.1116 123.294 92.6992C124.305 93.257 125.398 93.3663 126.574 93.0271C128.211 92.5548 129.213 91.3538 129.581 89.4244L135.414 90.5517C135.234 92.3522 134.505 93.9364 133.226 95.3045C131.94 96.6496 130.237 97.6281 128.115 98.2401Z" fill="white"/>
<path d="M36.9765 116.964L34.7628 117.602L36.6886 124.278L30.1166 126.174L24.7083 107.426L31.2803 105.53L33.276 112.448L35.628 111.77L38.2328 103.525L45.1852 101.519L41.4844 112.328L51.0086 120.147L43.2606 122.382L36.9765 116.964ZM66.8725 95.2626L72.2809 114.01L65.7089 115.906L61.8073 102.382L57.0685 103.749L57.7584 106.659C58.3713 109.13 58.7113 111.218 58.7782 112.922C58.8452 114.626 58.5588 116.058 57.9189 117.217C57.2724 118.352 56.1651 119.146 54.597 119.599C53.7899 119.832 52.686 119.988 51.2851 120.067L50.0151 114.626C50.4435 114.552 50.7269 114.495 50.8652 114.456C51.5801 114.249 52.0555 113.862 52.2914 113.295C52.5273 112.727 52.6046 112.043 52.5235 111.242C52.4357 110.418 52.2285 109.354 51.9021 108.049L49.9237 100.152L66.8725 95.2626ZM78.8437 91.472C81.9567 90.5739 84.5381 90.6036 86.5877 91.5609C88.6308 92.4953 90.0747 94.4267 90.9195 97.3553L93.9231 107.767L87.8007 109.533L87.1022 107.112C86.6823 109.206 85.1003 110.649 82.3562 111.441C80.9035 111.86 79.5735 111.969 78.3664 111.767C77.1593 111.566 76.156 111.119 75.3565 110.425C74.5733 109.702 74.0221 108.787 73.7027 107.68C73.1905 105.904 73.475 104.336 74.5561 102.975C75.6306 101.591 77.586 100.49 80.4223 99.6717L84.158 98.594C83.4706 96.6441 81.8586 96.0351 79.322 96.7668C78.4227 97.0263 77.5551 97.4389 76.7192 98.0048C75.8766 98.5476 75.2057 99.1658 74.7064 99.8594L71.2054 96.036C72.0435 95.0448 73.1473 94.1519 74.5167 93.3572C75.9024 92.5328 77.3448 91.9044 78.8437 91.472ZM82.992 106.761C83.753 106.542 84.3685 106.164 84.8386 105.629C85.3086 105.094 85.5674 104.432 85.6148 103.644L85.1458 102.018L82.3095 102.837C80.3955 103.389 79.6215 104.299 79.9874 105.567C80.1537 106.144 80.5058 106.542 81.0437 106.761C81.5816 106.981 82.2311 106.981 82.992 106.761ZM107.375 104.223C105.3 104.822 103.324 104.942 101.447 104.585C99.5701 104.227 97.9577 103.443 96.6095 102.233C95.2845 101.017 94.3525 99.4748 93.8137 97.607C93.2748 95.7391 93.2455 93.9491 93.7258 92.2369C94.2224 90.495 95.1729 88.9843 96.5773 87.7049C97.9751 86.4025 99.7116 85.4519 101.787 84.8532C103.908 84.2412 105.875 84.1735 107.686 84.6502C109.49 85.1038 110.948 86.0446 112.06 87.4725L107.723 91.5335C106.384 90.0963 104.896 89.6139 103.259 90.0862C102.083 90.4254 101.216 91.1002 100.658 92.1104C100.124 93.1139 100.056 94.3075 100.455 95.6911C100.861 97.0977 101.56 98.0948 102.554 98.6824C103.564 99.2402 104.658 99.3495 105.834 99.0103C107.471 98.5379 108.473 97.337 108.841 95.4076L114.674 96.5349C114.494 98.3354 113.764 99.9196 112.485 101.288C111.2 102.633 109.496 103.611 107.375 104.223ZM128.115 98.2401C126.04 98.8388 124.064 98.9592 122.187 98.6014C120.31 98.2436 118.698 97.4598 117.35 96.2501C116.025 95.0337 115.093 93.4916 114.554 91.6238C114.015 89.7559 113.986 87.9659 114.466 86.2537C114.963 84.5118 115.913 83.0012 117.317 81.7218C118.715 80.4193 120.452 79.4687 122.527 78.87C124.649 78.258 126.615 78.1903 128.426 78.667C130.23 79.1206 131.688 80.0614 132.8 81.4893L128.463 85.5503C127.125 84.1131 125.637 83.6307 123.999 84.103C122.823 84.4423 121.956 85.117 121.398 86.1272C120.864 87.1308 120.796 88.3243 121.195 89.7079C121.601 91.1145 122.301 92.1116 123.294 92.6992C124.305 93.257 125.398 93.3663 126.574 93.0271C128.211 92.5548 129.213 91.3538 129.581 89.4244L135.414 90.5517C135.234 92.3522 134.505 93.9364 133.226 95.3045C131.94 96.6496 130.237 97.6281 128.115 98.2401Z" fill="url(#paint4_linear)"/>
</g>
</g>
<defs>
<filter id="filter0_ii" x="-0.84858" y="-0.566598" width="125.951" height="124.959" filterUnits="userSpaceOnUse" color-interpolation-filters="sRGB">
<feFlood flood-opacity="0" result="BackgroundImageFix"/>
<feBlend mode="normal" in="SourceGraphic" in2="BackgroundImageFix" result="shape"/>
<feColorMatrix in="SourceAlpha" type="matrix" values="0 0 0 0 0 0 0 0 0 0 0 0 0 0 0 0 0 0 127 0" result="hardAlpha"/>
<feOffset dx="0.975533" dy="0.975533"/>
<feGaussianBlur stdDeviation="0.487767"/>
<feComposite in2="hardAlpha" operator="arithmetic" k2="-1" k3="1"/>
<feColorMatrix type="matrix" values="0 0 0 0 1 0 0 0 0 1 0 0 0 0 1 0 0 0 0.2 0"/>
<feBlend mode="normal" in2="shape" result="effect1_innerShadow"/>
<feColorMatrix in="SourceAlpha" type="matrix" values="0 0 0 0 0 0 0 0 0 0 0 0 0 0 0 0 0 0 127 0" result="hardAlpha"/>
<feOffset dx="-0.975533" dy="-0.975533"/>
<feGaussianBlur stdDeviation="0.487767"/>
<feComposite in2="hardAlpha" operator="arithmetic" k2="-1" k3="1"/>
<feColorMatrix type="matrix" values="0 0 0 0 0 0 0 0 0 0 0 0 0 0 0 0 0 0 0.05 0"/>
<feBlend mode="normal" in2="effect1_innerShadow" result="effect2_innerShadow"/>
</filter>
<filter id="filter1_di" x="10.9673" y="10.8776" width="107.379" height="127.08" filterUnits="userSpaceOnUse" color-interpolation-filters="sRGB">
<feFlood flood-opacity="0" result="BackgroundImageFix"/>
<feColorMatrix in="SourceAlpha" type="matrix" values="0 0 0 0 0 0 0 0 0 0 0 0 0 0 0 0 0 0 127 0"/>
<feOffset dy="3.93645"/>
<feGaussianBlur stdDeviation="3.60841"/>
<feColorMatrix type="matrix" values="0 0 0 0 0.191667 0 0 0 0 0.464828 0 0 0 0 1 0 0 0 1 0"/>
<feBlend mode="normal" in2="BackgroundImageFix" result="effect1_dropShadow"/>
<feBlend mode="normal" in="SourceGraphic" in2="effect1_dropShadow" result="shape"/>
<feColorMatrix in="SourceAlpha" type="matrix" values="0 0 0 0 0 0 0 0 0 0 0 0 0 0 0 0 0 0 127 0" result="hardAlpha"/>
<feOffset dx="2.82963"/>
<feGaussianBlur stdDeviation="1.64019"/>
<feComposite in2="hardAlpha" operator="arithmetic" k2="-1" k3="1"/>
<feColorMatrix type="matrix" values="0 0 0 0 0.6875 0 0 0 0 0.793478 0 0 0 0 1 0 0 0 1 0"/>
<feBlend mode="normal" in2="shape" result="effect2_innerShadow"/>
</filter>
<filter id="filter2_di" x="17.4914" y="75.0736" width="125.139" height="62.2535" filterUnits="userSpaceOnUse" color-interpolation-filters="sRGB">
<feFlood flood-opacity="0" result="BackgroundImageFix"/>
<feColorMatrix in="SourceAlpha" type="matrix" values="0 0 0 0 0 0 0 0 0 0 0 0 0 0 0 0 0 0 127 0"/>
<feOffset dy="3.93645"/>
<feGaussianBlur stdDeviation="3.60841"/>
<feColorMatrix type="matrix" values="0 0 0 0 0.191667 0 0 0 0 0.464828 0 0 0 0 1 0 0 0 1 0"/>
<feBlend mode="normal" in2="BackgroundImageFix" result="effect1_dropShadow"/>
<feBlend mode="normal" in="SourceGraphic" in2="effect1_dropShadow" result="shape"/>
<feColorMatrix in="SourceAlpha" type="matrix" values="0 0 0 0 0 0 0 0 0 0 0 0 0 0 0 0 0 0 127 0" result="hardAlpha"/>
<feOffset dx="0.5"/>
<feGaussianBlur stdDeviation="1.64019"/>
<feComposite in2="hardAlpha" operator="arithmetic" k2="-1" k3="1"/>
<feColorMatrix type="matrix" values="0 0 0 0 0.6875 0 0 0 0 0.793478 0 0 0 0 1 0 0 0 1 0"/>
<feBlend mode="normal" in2="shape" result="effect2_innerShadow"/>
</filter>
<linearGradient id="paint0_linear" x1="62.127" y1="0.408936" x2="62.127" y2="123.417" gradientUnits="userSpaceOnUse">
<stop stop-color="#387CFF"/>
<stop offset="1" stop-color="#1967FF"/>
</linearGradient>
<linearGradient id="paint1_linear" x1="62.127" y1="1.40088" x2="62.127" y2="124.409" gradientUnits="userSpaceOnUse">
<stop stop-color="#FADB7E"/>
<stop offset="1" stop-color="#FADB7E"/>
</linearGradient>
<linearGradient id="paint2_linear" x1="62.127" y1="1.40088" x2="62.127" y2="124.409" gradientUnits="userSpaceOnUse">
<stop offset="0.328125" stop-color="white"/>
<stop offset="1" stop-opacity="0.1"/>
</linearGradient>
<linearGradient id="paint3_linear" x1="53.7561" y1="17.7655" x2="82.6518" y2="123.468" gradientUnits="userSpaceOnUse">
<stop stop-color="white"/>
<stop offset="1" stop-color="#5C94FF"/>
</linearGradient>
<linearGradient id="paint4_linear" x1="83.4547" y1="90.1828" x2="90.5247" y2="114.306" gradientUnits="userSpaceOnUse">
<stop stop-color="white"/>
<stop offset="1" stop-color="#5C94FF"/>
</linearGradient>
</defs>
</svg>
