<svg width="125" height="125" viewBox="0 0 125 125" fill="none" xmlns="http://www.w3.org/2000/svg">
<g filter="url(#filter0_ii)">
<rect x="0.126953" y="0.40918" width="124" height="123.347" rx="27.1739" fill="url(#paint0_linear)"/>
<rect x="0.126953" y="0.40918" width="124" height="123.347" rx="27.1739" fill="url(#paint1_linear)" fill-opacity="0.2" style="mix-blend-mode:soft-light"/>
</g>
<mask id="mask0" mask-type="alpha" maskUnits="userSpaceOnUse" x="0" y="1" width="125" height="124">
<rect x="0.126953" y="1.06079" width="124" height="123.347" rx="27.7178" fill="url(#paint2_linear)"/>
<rect x="0.126953" y="1.06079" width="124" height="123.347" rx="27.7178" fill="url(#paint3_linear)" fill-opacity="0.2"/>
</mask>
<g mask="url(#mask0)">
<g filter="url(#filter1_di)">
<path d="M46.6796 19.5459C60.2879 15.3374 72.2072 16.2155 82.4373 22.1801C92.6392 28.0521 100.117 38.7728 104.871 54.3424C108.238 65.3708 109.041 75.4679 107.28 84.6337C105.612 93.7709 101.651 101.538 95.3977 107.934C89.1443 114.331 81.1111 119.047 71.2984 122.082C66.1143 123.685 60.9918 124.66 55.931 125.008C50.8419 125.264 46.3057 124.841 42.3223 123.74L45.6032 104.621C51.3147 106.404 57.8735 106.151 65.2793 103.861C73.5184 101.313 79.3091 96.8846 82.6516 90.5768C85.9658 84.1762 86.4074 76.3312 83.9765 67.0418C79.9269 74.684 72.7643 80.094 62.4887 83.2719C56.2863 85.19 50.2573 85.6853 44.4018 84.7576C38.5463 83.83 33.4441 81.5536 29.0953 77.9287C24.7182 74.211 21.6101 69.3402 19.7709 63.3162C17.7902 56.8289 17.6701 50.6283 19.4105 44.7145C21.151 38.8006 24.4022 33.6874 29.1644 29.3747C33.9908 24.9407 39.8292 21.6645 46.6796 19.5459ZM62.3521 64.9052C67.2585 63.3879 70.8288 60.813 73.0632 57.1806C75.3618 53.427 75.8604 49.4186 74.5588 45.1555C73.2572 40.8924 70.6687 37.8894 66.7932 36.1466C63.0103 34.3751 58.4805 34.3053 53.2038 35.9372C48.39 37.4259 44.8518 39.9401 42.5891 43.4798C40.419 46.9908 40.0131 50.9706 41.3712 55.419C42.7294 59.8675 45.2999 62.9774 49.0829 64.7489C52.93 66.3991 57.3531 66.4512 62.3521 64.9052Z" fill="white"/>
<path d="M46.6796 19.5459C60.2879 15.3374 72.2072 16.2155 82.4373 22.1801C92.6392 28.0521 100.117 38.7728 104.871 54.3424C108.238 65.3708 109.041 75.4679 107.28 84.6337C105.612 93.7709 101.651 101.538 95.3977 107.934C89.1443 114.331 81.1111 119.047 71.2984 122.082C66.1143 123.685 60.9918 124.66 55.931 125.008C50.8419 125.264 46.3057 124.841 42.3223 123.74L45.6032 104.621C51.3147 106.404 57.8735 106.151 65.2793 103.861C73.5184 101.313 79.3091 96.8846 82.6516 90.5768C85.9658 84.1762 86.4074 76.3312 83.9765 67.0418C79.9269 74.684 72.7643 80.094 62.4887 83.2719C56.2863 85.19 50.2573 85.6853 44.4018 84.7576C38.5463 83.83 33.4441 81.5536 29.0953 77.9287C24.7182 74.211 21.6101 69.3402 19.7709 63.3162C17.7902 56.8289 17.6701 50.6283 19.4105 44.7145C21.151 38.8006 24.4022 33.6874 29.1644 29.3747C33.9908 24.9407 39.8292 21.6645 46.6796 19.5459ZM62.3521 64.9052C67.2585 63.3879 70.8288 60.813 73.0632 57.1806C75.3618 53.427 75.8604 49.4186 74.5588 45.1555C73.2572 40.8924 70.6687 37.8894 66.7932 36.1466C63.0103 34.3751 58.4805 34.3053 53.2038 35.9372C48.39 37.4259 44.8518 39.9401 42.5891 43.4798C40.419 46.9908 40.0131 50.9706 41.3712 55.419C42.7294 59.8675 45.2999 62.9774 49.0829 64.7489C52.93 66.3991 57.3531 66.4512 62.3521 64.9052Z" fill="url(#paint4_linear)"/>
</g>
<g filter="url(#filter2_di)">
<path d="M32.5269 116.643L30.3299 117.336L32.3982 123.969L25.8758 126.029L20.0675 107.402L26.5899 105.342L28.7332 112.216L31.0675 111.478L33.4899 103.163L40.3899 100.983L36.9284 111.892L46.6102 119.481L38.9206 121.909L32.5269 116.643ZM61.9136 94.1852L67.7219 112.813L61.1995 114.873L57.0094 101.435L52.3064 102.92L53.0585 105.816C53.7243 108.274 54.1091 110.354 54.213 112.058C54.3169 113.762 54.0619 115.202 53.448 116.377C52.8269 117.53 51.7383 118.352 50.1821 118.843C49.3811 119.096 48.2819 119.28 46.8845 119.394L45.4981 113.98C45.9243 113.896 46.2061 113.832 46.3434 113.789C47.0529 113.565 47.5193 113.166 47.7425 112.592C47.9658 112.018 48.0282 111.331 47.9298 110.532C47.8242 109.709 47.5942 108.649 47.2399 107.352L45.0926 99.498L61.9136 94.1852ZM73.787 90.0953C76.8766 89.1195 79.4553 89.0852 81.5231 89.9925C83.5838 90.877 85.0678 92.7741 85.9751 95.6839L89.2008 106.029L83.1246 107.948L82.3745 105.542C82.0006 107.648 80.4519 109.132 77.7285 109.992C76.2867 110.447 74.9609 110.589 73.751 110.418C72.5411 110.246 71.5293 109.823 70.7157 109.149C69.9179 108.444 69.3475 107.542 69.0045 106.443C68.4544 104.678 68.7045 103.102 69.7547 101.713C70.7977 100.301 72.7267 99.151 75.5416 98.262L79.2491 97.091C78.5203 95.1567 76.8971 94.5871 74.3797 95.3822C73.4872 95.6641 72.6296 96.0986 71.8071 96.6856C70.9774 97.2496 70.3207 97.8849 69.8371 98.5914L66.2577 94.8518C67.0732 93.8392 68.1561 92.9183 69.5065 92.089C70.8726 91.2297 72.2994 90.5651 73.787 90.0953ZM78.262 105.293C79.0172 105.055 79.6237 104.662 80.0816 104.114C80.5394 103.567 80.7834 102.898 80.8137 102.109L80.31 100.493L77.4951 101.382C75.5956 101.982 74.8423 102.912 75.2352 104.173C75.4139 104.745 75.7742 105.135 76.3161 105.341C76.8581 105.548 77.5067 105.532 78.262 105.293ZM102.558 102.149C100.499 102.8 98.5279 102.97 96.6458 102.658C94.7637 102.346 93.1363 101.602 91.7637 100.425C90.4139 99.2401 89.4497 97.72 88.871 95.8641C88.2923 94.0082 88.2242 92.2176 88.6666 90.4923C89.1248 88.7368 90.0413 87.2014 91.4161 85.8863C92.7838 84.5483 94.4975 83.554 96.5572 82.9034C98.6627 82.2384 100.625 82.122 102.444 82.5542C104.256 82.9635 105.733 83.8688 106.873 85.2703L102.631 89.4417C101.263 88.0366 99.766 87.5906 98.1411 88.1038C96.9739 88.4725 96.1227 89.1692 95.5875 90.194C95.0752 91.2115 95.0334 92.4076 95.462 93.7823C95.8978 95.18 96.6184 96.1605 97.6237 96.7239C98.6447 97.2571 99.7388 97.3394 100.906 96.9708C102.531 96.4576 103.506 95.231 103.831 93.2909L109.681 94.2747C109.54 96.0809 108.846 97.6844 107.599 99.0852C106.344 100.463 104.664 101.484 102.558 102.149ZM123.142 95.6483C121.082 96.2988 119.112 96.4683 117.229 96.1567C115.347 95.845 113.72 95.1006 112.347 93.9234C110.998 92.7389 110.033 91.2187 109.455 89.3629C108.876 87.507 108.808 85.7164 109.25 83.991C109.708 82.2355 110.625 80.7002 112 79.3851C113.367 78.047 115.081 77.0528 117.141 76.4022C119.246 75.7372 121.209 75.6208 123.028 76.053C124.84 76.4622 126.316 77.3676 127.457 78.7691L123.215 82.9405C121.846 81.5354 120.35 81.0894 118.725 81.6026C117.558 81.9713 116.706 82.668 116.171 83.6927C115.659 84.7103 115.617 85.9064 116.046 87.2811C116.481 88.6788 117.202 89.6593 118.207 90.2226C119.228 90.7559 120.322 90.8382 121.49 90.4695C123.114 89.9563 124.09 88.7297 124.415 86.7897L130.265 87.7735C130.124 89.5797 129.43 91.1832 128.182 92.584C126.928 93.9618 125.248 94.9833 123.142 95.6483Z" fill="white"/>
<path d="M32.5269 116.643L30.3299 117.336L32.3982 123.969L25.8758 126.029L20.0675 107.402L26.5899 105.342L28.7332 112.216L31.0675 111.478L33.4899 103.163L40.3899 100.983L36.9284 111.892L46.6102 119.481L38.9206 121.909L32.5269 116.643ZM61.9136 94.1852L67.7219 112.813L61.1995 114.873L57.0094 101.435L52.3064 102.92L53.0585 105.816C53.7243 108.274 54.1091 110.354 54.213 112.058C54.3169 113.762 54.0619 115.202 53.448 116.377C52.8269 117.53 51.7383 118.352 50.1821 118.843C49.3811 119.096 48.2819 119.28 46.8845 119.394L45.4981 113.98C45.9243 113.896 46.2061 113.832 46.3434 113.789C47.0529 113.565 47.5193 113.166 47.7425 112.592C47.9658 112.018 48.0282 111.331 47.9298 110.532C47.8242 109.709 47.5942 108.649 47.2399 107.352L45.0926 99.498L61.9136 94.1852ZM73.787 90.0953C76.8766 89.1195 79.4553 89.0852 81.5231 89.9925C83.5838 90.877 85.0678 92.7741 85.9751 95.6839L89.2008 106.029L83.1246 107.948L82.3745 105.542C82.0006 107.648 80.4519 109.132 77.7285 109.992C76.2867 110.447 74.9609 110.589 73.751 110.418C72.5411 110.246 71.5293 109.823 70.7157 109.149C69.9179 108.444 69.3475 107.542 69.0045 106.443C68.4544 104.678 68.7045 103.102 69.7547 101.713C70.7977 100.301 72.7267 99.151 75.5416 98.262L79.2491 97.091C78.5203 95.1567 76.8971 94.5871 74.3797 95.3822C73.4872 95.6641 72.6296 96.0986 71.8071 96.6856C70.9774 97.2496 70.3207 97.8849 69.8371 98.5914L66.2577 94.8518C67.0732 93.8392 68.1561 92.9183 69.5065 92.089C70.8726 91.2297 72.2994 90.5651 73.787 90.0953ZM78.262 105.293C79.0172 105.055 79.6237 104.662 80.0816 104.114C80.5394 103.567 80.7834 102.898 80.8137 102.109L80.31 100.493L77.4951 101.382C75.5956 101.982 74.8423 102.912 75.2352 104.173C75.4139 104.745 75.7742 105.135 76.3161 105.341C76.8581 105.548 77.5067 105.532 78.262 105.293ZM102.558 102.149C100.499 102.8 98.5279 102.97 96.6458 102.658C94.7637 102.346 93.1363 101.602 91.7637 100.425C90.4139 99.2401 89.4497 97.72 88.871 95.8641C88.2923 94.0082 88.2242 92.2176 88.6666 90.4923C89.1248 88.7368 90.0413 87.2014 91.4161 85.8863C92.7838 84.5483 94.4975 83.554 96.5572 82.9034C98.6627 82.2384 100.625 82.122 102.444 82.5542C104.256 82.9635 105.733 83.8688 106.873 85.2703L102.631 89.4417C101.263 88.0366 99.766 87.5906 98.1411 88.1038C96.9739 88.4725 96.1227 89.1692 95.5875 90.194C95.0752 91.2115 95.0334 92.4076 95.462 93.7823C95.8978 95.18 96.6184 96.1605 97.6237 96.7239C98.6447 97.2571 99.7388 97.3394 100.906 96.9708C102.531 96.4576 103.506 95.231 103.831 93.2909L109.681 94.2747C109.54 96.0809 108.846 97.6844 107.599 99.0852C106.344 100.463 104.664 101.484 102.558 102.149ZM123.142 95.6483C121.082 96.2988 119.112 96.4683 117.229 96.1567C115.347 95.845 113.72 95.1006 112.347 93.9234C110.998 92.7389 110.033 91.2187 109.455 89.3629C108.876 87.507 108.808 85.7164 109.25 83.991C109.708 82.2355 110.625 80.7002 112 79.3851C113.367 78.047 115.081 77.0528 117.141 76.4022C119.246 75.7372 121.209 75.6208 123.028 76.053C124.84 76.4622 126.316 77.3676 127.457 78.7691L123.215 82.9405C121.846 81.5354 120.35 81.0894 118.725 81.6026C117.558 81.9713 116.706 82.668 116.171 83.6927C115.659 84.7103 115.617 85.9064 116.046 87.2811C116.481 88.6788 117.202 89.6593 118.207 90.2226C119.228 90.7559 120.322 90.8382 121.49 90.4695C123.114 89.9563 124.09 88.7297 124.415 86.7897L130.265 87.7735C130.124 89.5797 129.43 91.1832 128.182 92.584C126.928 93.9618 125.248 94.9833 123.142 95.6483Z" fill="url(#paint5_linear)"/>
</g>
</g>
<defs>
<filter id="filter0_ii" x="-0.84858" y="-0.566353" width="125.951" height="125.298" filterUnits="userSpaceOnUse" color-interpolation-filters="sRGB">
<feFlood flood-opacity="0" result="BackgroundImageFix"/>
<feBlend mode="normal" in="SourceGraphic" in2="BackgroundImageFix" result="shape"/>
<feColorMatrix in="SourceAlpha" type="matrix" values="0 0 0 0 0 0 0 0 0 0 0 0 0 0 0 0 0 0 127 0" result="hardAlpha"/>
<feOffset dx="0.975533" dy="0.975533"/>
<feGaussianBlur stdDeviation="0.487767"/>
<feComposite in2="hardAlpha" operator="arithmetic" k2="-1" k3="1"/>
<feColorMatrix type="matrix" values="0 0 0 0 1 0 0 0 0 1 0 0 0 0 1 0 0 0 0.2 0"/>
<feBlend mode="normal" in2="shape" result="effect1_innerShadow"/>
<feColorMatrix in="SourceAlpha" type="matrix" values="0 0 0 0 0 0 0 0 0 0 0 0 0 0 0 0 0 0 127 0" result="hardAlpha"/>
<feOffset dx="-0.975533" dy="-0.975533"/>
<feGaussianBlur stdDeviation="0.487767"/>
<feComposite in2="hardAlpha" operator="arithmetic" k2="-1" k3="1"/>
<feColorMatrix type="matrix" values="0 0 0 0 0 0 0 0 0 0 0 0 0 0 0 0 0 0 0.05 0"/>
<feBlend mode="normal" in2="effect1_innerShadow" result="effect2_innerShadow"/>
</filter>
<filter id="filter1_di" x="9.48671" y="12.9785" width="107.403" height="125.552" filterUnits="userSpaceOnUse" color-interpolation-filters="sRGB">
<feFlood flood-opacity="0" result="BackgroundImageFix"/>
<feColorMatrix in="SourceAlpha" type="matrix" values="0 0 0 0 0 0 0 0 0 0 0 0 0 0 0 0 0 0 127 0"/>
<feOffset dy="4.74695"/>
<feGaussianBlur stdDeviation="4.35137"/>
<feColorMatrix type="matrix" values="0 0 0 0 0.419392 0 0 0 0 0.772309 0 0 0 0 0.845833 0 0 0 1 0"/>
<feBlend mode="normal" in2="BackgroundImageFix" result="effect1_dropShadow"/>
<feBlend mode="normal" in="SourceGraphic" in2="effect1_dropShadow" result="shape"/>
<feColorMatrix in="SourceAlpha" type="matrix" values="0 0 0 0 0 0 0 0 0 0 0 0 0 0 0 0 0 0 127 0" result="hardAlpha"/>
<feOffset dx="3.41225"/>
<feGaussianBlur stdDeviation="1.9779"/>
<feComposite in2="hardAlpha" operator="arithmetic" k2="-1" k3="1"/>
<feColorMatrix type="matrix" values="0 0 0 0 0.898039 0 0 0 0 0.980392 0 0 0 0 0.996078 0 0 0 1 0"/>
<feBlend mode="normal" in2="shape" result="effect2_innerShadow"/>
</filter>
<filter id="filter2_di" x="11.3646" y="71.8418" width="127.603" height="67.6374" filterUnits="userSpaceOnUse" color-interpolation-filters="sRGB">
<feFlood flood-opacity="0" result="BackgroundImageFix"/>
<feColorMatrix in="SourceAlpha" type="matrix" values="0 0 0 0 0 0 0 0 0 0 0 0 0 0 0 0 0 0 127 0"/>
<feOffset dy="4.74695"/>
<feGaussianBlur stdDeviation="4.35137"/>
<feColorMatrix type="matrix" values="0 0 0 0 0.443177 0 0 0 0 0.769513 0 0 0 0 0.8375 0 0 0 1 0"/>
<feBlend mode="normal" in2="BackgroundImageFix" result="effect1_dropShadow"/>
<feBlend mode="normal" in="SourceGraphic" in2="effect1_dropShadow" result="shape"/>
<feColorMatrix in="SourceAlpha" type="matrix" values="0 0 0 0 0 0 0 0 0 0 0 0 0 0 0 0 0 0 127 0" result="hardAlpha"/>
<feOffset dx="-0.59"/>
<feGaussianBlur stdDeviation="1.9779"/>
<feComposite in2="hardAlpha" operator="arithmetic" k2="-1" k3="1"/>
<feColorMatrix type="matrix" values="0 0 0 0 0.843137 0 0 0 0 0.968627 0 0 0 0 0.992157 0 0 0 1 0"/>
<feBlend mode="normal" in2="shape" result="effect2_innerShadow"/>
</filter>
<linearGradient id="paint0_linear" x1="62.127" y1="0.40918" x2="62.127" y2="123.756" gradientUnits="userSpaceOnUse">
<stop stop-color="#99E9FB"/>
<stop offset="1" stop-color="#99E9FB"/>
</linearGradient>
<linearGradient id="paint1_linear" x1="62.127" y1="0.40918" x2="62.127" y2="123.756" gradientUnits="userSpaceOnUse">
<stop offset="0.328125" stop-color="white"/>
<stop offset="1" stop-opacity="0.1"/>
</linearGradient>
<linearGradient id="paint2_linear" x1="62.127" y1="1.06079" x2="62.127" y2="124.408" gradientUnits="userSpaceOnUse">
<stop stop-color="#FADB7E"/>
<stop offset="1" stop-color="#FADB7E"/>
</linearGradient>
<linearGradient id="paint3_linear" x1="62.127" y1="1.06079" x2="62.127" y2="124.408" gradientUnits="userSpaceOnUse">
<stop offset="0.328125" stop-color="white"/>
<stop offset="1" stop-opacity="0.1"/>
</linearGradient>
<linearGradient id="paint4_linear" x1="46.7378" y1="15.8522" x2="79.3042" y2="121.157" gradientUnits="userSpaceOnUse">
<stop stop-color="white"/>
<stop offset="1" stop-color="#A5EDFC"/>
</linearGradient>
<linearGradient id="paint5_linear" x1="75.3138" y1="87.2664" x2="86.2301" y2="113.007" gradientUnits="userSpaceOnUse">
<stop stop-color="white"/>
<stop offset="1" stop-color="#A5EDFC"/>
</linearGradient>
</defs>
</svg>
