<svg width="125" height="125" viewBox="0 0 125 125" fill="none" xmlns="http://www.w3.org/2000/svg">
<g filter="url(#filter0_ii)">
<rect x="0.126953" y="0.407227" width="124" height="123.008" rx="26.9565" fill="url(#paint0_linear)"/>
<rect x="0.126953" y="0.407227" width="124" height="123.008" rx="26.9565" fill="#C2F092"/>
</g>
<mask id="mask0" mask-type="alpha" maskUnits="userSpaceOnUse" x="0" y="1" width="125" height="124">
<rect x="0.126953" y="1.39917" width="124" height="123.008" rx="27.4961" fill="url(#paint1_linear)"/>
<rect x="0.126953" y="1.39917" width="124" height="123.008" rx="27.4961" fill="url(#paint2_linear)" fill-opacity="0.2"/>
</mask>
<g mask="url(#mask0)">
<g filter="url(#filter1_di)">
<path d="M39.9263 34.1263L62.6288 117.179L43.4081 122.434L24.9218 54.8051L8.31138 59.3461L4.09521 43.922L39.9263 34.1263ZM113.039 104.928C106.158 106.809 99.563 106.785 93.2546 104.854C86.9463 102.923 81.3741 99.1758 76.5379 93.6122C71.7593 87.9479 68.1483 80.6466 65.7051 71.7086C63.2619 62.7705 62.6675 54.6871 63.9219 47.4584C65.2337 40.129 68.1141 34.0285 72.563 29.1569C77.0119 24.2852 82.6771 20.9087 89.5586 19.0275C96.44 17.1462 103.035 17.1709 109.343 19.1017C115.652 21.0325 121.195 24.83 125.974 30.4944C130.81 36.058 134.45 43.3088 136.893 52.2469C139.336 61.185 139.902 69.3188 138.59 76.6481C137.335 83.8768 134.484 89.927 130.035 94.7986C125.586 99.6703 119.921 103.047 113.039 104.928ZM108.596 88.6734C113.658 87.2894 117.019 84.033 118.677 78.9042C120.414 73.7537 120.04 66.6303 117.553 57.534C115.067 48.4377 111.766 42.1144 107.65 38.5641C103.613 34.9922 99.064 33.8982 94.0018 35.2821C89.0186 36.6444 85.6583 39.9008 83.9209 45.0513C82.2626 50.1802 82.6766 57.2928 85.1631 66.389C87.6495 75.4853 90.9111 81.8194 94.9478 85.3914C99.0636 88.9417 103.613 90.0357 108.596 88.6734Z" fill="white"/>
<path d="M39.9263 34.1263L62.6288 117.179L43.4081 122.434L24.9218 54.8051L8.31138 59.3461L4.09521 43.922L39.9263 34.1263ZM113.039 104.928C106.158 106.809 99.563 106.785 93.2546 104.854C86.9463 102.923 81.3741 99.1758 76.5379 93.6122C71.7593 87.9479 68.1483 80.6466 65.7051 71.7086C63.2619 62.7705 62.6675 54.6871 63.9219 47.4584C65.2337 40.129 68.1141 34.0285 72.563 29.1569C77.0119 24.2852 82.6771 20.9087 89.5586 19.0275C96.44 17.1462 103.035 17.1709 109.343 19.1017C115.652 21.0325 121.195 24.83 125.974 30.4944C130.81 36.058 134.45 43.3088 136.893 52.2469C139.336 61.185 139.902 69.3188 138.59 76.6481C137.335 83.8768 134.484 89.927 130.035 94.7986C125.586 99.6703 119.921 103.047 113.039 104.928ZM108.596 88.6734C113.658 87.2894 117.019 84.033 118.677 78.9042C120.414 73.7537 120.04 66.6303 117.553 57.534C115.067 48.4377 111.766 42.1144 107.65 38.5641C103.613 34.9922 99.064 33.8982 94.0018 35.2821C89.0186 36.6444 85.6583 39.9008 83.9209 45.0513C82.2626 50.1802 82.6766 57.2928 85.1631 66.389C87.6495 75.4853 90.9111 81.8194 94.9478 85.3914C99.0636 88.9417 103.613 90.0357 108.596 88.6734Z" fill="url(#paint3_linear)"/>
</g>
<g filter="url(#filter2_di)">
<path d="M36.0477 117.45L33.8339 118.089L35.7597 124.765L29.1877 126.661L23.7797 107.913L30.3517 106.017L32.3473 112.935L34.6993 112.256L37.3041 104.011L44.2566 102.005L40.5556 112.815L50.0796 120.633L42.3316 122.869L36.0477 117.45ZM65.9438 95.7487L71.3518 114.496L64.7798 116.392L60.8785 102.868L56.1397 104.235L56.8295 107.146C57.4424 109.617 57.7823 111.704 57.8493 113.408C57.9163 115.113 57.6298 116.544 56.9899 117.703C56.3433 118.839 55.2361 119.633 53.668 120.085C52.8609 120.318 51.7569 120.474 50.3561 120.554L49.0862 115.112C49.5146 115.039 49.798 114.982 49.9363 114.942C50.6512 114.736 51.1265 114.349 51.3625 113.781C51.5984 113.214 51.6758 112.529 51.5946 111.728C51.5068 110.904 51.2997 109.84 50.9733 108.536L48.995 100.638L65.9438 95.7487ZM77.9148 91.9578C81.0279 91.0597 83.6092 91.0893 85.6588 92.0466C87.7018 92.9809 89.1457 94.9124 89.9905 97.841L92.9938 108.252L86.8715 110.019L86.1731 107.597C85.7532 109.692 84.1711 111.135 81.4271 111.927C79.9743 112.346 78.6444 112.455 77.4373 112.253C76.2302 112.052 75.2269 111.605 74.4274 110.911C73.6442 110.188 73.093 109.273 72.7737 108.166C72.2615 106.39 72.546 104.822 73.6271 103.461C74.7016 102.077 76.657 100.976 79.4933 100.158L83.229 99.0798C82.5416 97.1299 80.9297 96.5209 78.3931 97.2527C77.4938 97.5122 76.6262 97.9248 75.7903 98.4907C74.9477 99.0335 74.2768 99.6517 73.7774 100.345L70.2766 96.5219C71.1147 95.5308 72.2185 94.6378 73.5878 93.8431C74.9736 93.0186 76.416 92.3902 77.9148 91.9578ZM82.0629 107.247C82.8239 107.028 83.4394 106.65 83.9095 106.115C84.3795 105.58 84.6383 104.918 84.6857 104.13L84.2168 102.504L81.3805 103.322C79.4665 103.875 78.6925 104.785 79.0583 106.053C79.2246 106.63 79.5767 107.028 80.1146 107.247C80.6525 107.467 81.302 107.467 82.0629 107.247ZM106.446 104.709C104.37 105.308 102.394 105.428 100.518 105.07C98.6409 104.712 97.0285 103.929 95.6804 102.719C94.3553 101.503 93.4234 99.9605 92.8846 98.0926C92.3458 96.2248 92.3165 94.4347 92.7968 92.7225C93.2934 90.9806 94.244 89.4699 95.6484 88.1905C97.0461 86.888 98.7827 85.9374 100.858 85.3386C102.98 84.7266 104.946 84.6589 106.757 85.1355C108.561 85.5891 110.019 86.5299 111.13 87.9578L106.794 92.0189C105.455 90.5817 103.967 90.0993 102.33 90.5716C101.154 90.9109 100.287 91.5857 99.7293 92.5959C99.1945 93.5995 99.1266 94.793 99.5257 96.1766C99.9315 97.5833 100.631 98.5804 101.625 99.1679C102.635 99.7258 103.728 99.835 104.904 99.4957C106.542 99.0234 107.544 97.8225 107.912 95.893L113.745 97.0203C113.565 98.8207 112.835 100.405 111.556 101.773C110.271 103.118 108.567 104.097 106.446 104.709ZM127.186 98.7252C125.11 99.324 123.134 99.4445 121.258 99.0867C119.381 98.7288 117.769 97.9451 116.42 96.7354C115.095 95.519 114.163 93.9769 113.625 92.1091C113.086 90.2412 113.057 88.4512 113.537 86.739C114.033 84.997 114.984 83.4863 116.388 82.2069C117.786 80.9044 119.523 79.9538 121.598 79.3551C123.72 78.743 125.686 78.6753 127.497 79.152C129.301 79.6056 130.759 80.5463 131.87 81.9742L127.534 86.0354C126.195 84.5982 124.707 84.1157 123.07 84.5881C121.894 84.9274 121.027 85.6021 120.469 86.6123C119.935 87.6159 119.867 88.8095 120.266 90.1931C120.672 91.5997 121.371 92.5968 122.365 93.1844C123.375 93.7422 124.468 93.8515 125.644 93.5122C127.282 93.0398 128.284 91.8389 128.652 89.9094L134.485 91.0367C134.305 92.8372 133.575 94.4215 132.296 95.7896C131.011 97.1346 129.307 98.1132 127.186 98.7252Z" fill="white"/>
<path d="M36.0477 117.45L33.8339 118.089L35.7597 124.765L29.1877 126.661L23.7797 107.913L30.3517 106.017L32.3473 112.935L34.6993 112.256L37.3041 104.011L44.2566 102.005L40.5556 112.815L50.0796 120.633L42.3316 122.869L36.0477 117.45ZM65.9438 95.7487L71.3518 114.496L64.7798 116.392L60.8785 102.868L56.1397 104.235L56.8295 107.146C57.4424 109.617 57.7823 111.704 57.8493 113.408C57.9163 115.113 57.6298 116.544 56.9899 117.703C56.3433 118.839 55.2361 119.633 53.668 120.085C52.8609 120.318 51.7569 120.474 50.3561 120.554L49.0862 115.112C49.5146 115.039 49.798 114.982 49.9363 114.942C50.6512 114.736 51.1265 114.349 51.3625 113.781C51.5984 113.214 51.6758 112.529 51.5946 111.728C51.5068 110.904 51.2997 109.84 50.9733 108.536L48.995 100.638L65.9438 95.7487ZM77.9148 91.9578C81.0279 91.0597 83.6092 91.0893 85.6588 92.0466C87.7018 92.9809 89.1457 94.9124 89.9905 97.841L92.9938 108.252L86.8715 110.019L86.1731 107.597C85.7532 109.692 84.1711 111.135 81.4271 111.927C79.9743 112.346 78.6444 112.455 77.4373 112.253C76.2302 112.052 75.2269 111.605 74.4274 110.911C73.6442 110.188 73.093 109.273 72.7737 108.166C72.2615 106.39 72.546 104.822 73.6271 103.461C74.7016 102.077 76.657 100.976 79.4933 100.158L83.229 99.0798C82.5416 97.1299 80.9297 96.5209 78.3931 97.2527C77.4938 97.5122 76.6262 97.9248 75.7903 98.4907C74.9477 99.0335 74.2768 99.6517 73.7774 100.345L70.2766 96.5219C71.1147 95.5308 72.2185 94.6378 73.5878 93.8431C74.9736 93.0186 76.416 92.3902 77.9148 91.9578ZM82.0629 107.247C82.8239 107.028 83.4394 106.65 83.9095 106.115C84.3795 105.58 84.6383 104.918 84.6857 104.13L84.2168 102.504L81.3805 103.322C79.4665 103.875 78.6925 104.785 79.0583 106.053C79.2246 106.63 79.5767 107.028 80.1146 107.247C80.6525 107.467 81.302 107.467 82.0629 107.247ZM106.446 104.709C104.37 105.308 102.394 105.428 100.518 105.07C98.6409 104.712 97.0285 103.929 95.6804 102.719C94.3553 101.503 93.4234 99.9605 92.8846 98.0926C92.3458 96.2248 92.3165 94.4347 92.7968 92.7225C93.2934 90.9806 94.244 89.4699 95.6484 88.1905C97.0461 86.888 98.7827 85.9374 100.858 85.3386C102.98 84.7266 104.946 84.6589 106.757 85.1355C108.561 85.5891 110.019 86.5299 111.13 87.9578L106.794 92.0189C105.455 90.5817 103.967 90.0993 102.33 90.5716C101.154 90.9109 100.287 91.5857 99.7293 92.5959C99.1945 93.5995 99.1266 94.793 99.5257 96.1766C99.9315 97.5833 100.631 98.5804 101.625 99.1679C102.635 99.7258 103.728 99.835 104.904 99.4957C106.542 99.0234 107.544 97.8225 107.912 95.893L113.745 97.0203C113.565 98.8207 112.835 100.405 111.556 101.773C110.271 103.118 108.567 104.097 106.446 104.709ZM127.186 98.7252C125.11 99.324 123.134 99.4445 121.258 99.0867C119.381 98.7288 117.769 97.9451 116.42 96.7354C115.095 95.519 114.163 93.9769 113.625 92.1091C113.086 90.2412 113.057 88.4512 113.537 86.739C114.033 84.997 114.984 83.4863 116.388 82.2069C117.786 80.9044 119.523 79.9538 121.598 79.3551C123.72 78.743 125.686 78.6753 127.497 79.152C129.301 79.6056 130.759 80.5463 131.87 81.9742L127.534 86.0354C126.195 84.5982 124.707 84.1157 123.07 84.5881C121.894 84.9274 121.027 85.6021 120.469 86.6123C119.935 87.6159 119.867 88.8095 120.266 90.1931C120.672 91.5997 121.371 92.5968 122.365 93.1844C123.375 93.7422 124.468 93.8515 125.644 93.5122C127.282 93.0398 128.284 91.8389 128.652 89.9094L134.485 91.0367C134.305 92.8372 133.575 94.4215 132.296 95.7896C131.011 97.1346 129.307 98.1132 127.186 98.7252Z" fill="url(#paint4_linear)"/>
</g>
</g>
<defs>
<filter id="filter0_ii" x="-0.840776" y="-0.560502" width="125.935" height="124.943" filterUnits="userSpaceOnUse" color-interpolation-filters="sRGB">
<feFlood flood-opacity="0" result="BackgroundImageFix"/>
<feBlend mode="normal" in="SourceGraphic" in2="BackgroundImageFix" result="shape"/>
<feColorMatrix in="SourceAlpha" type="matrix" values="0 0 0 0 0 0 0 0 0 0 0 0 0 0 0 0 0 0 127 0" result="hardAlpha"/>
<feOffset dx="0.967729" dy="0.967729"/>
<feGaussianBlur stdDeviation="0.483864"/>
<feComposite in2="hardAlpha" operator="arithmetic" k2="-1" k3="1"/>
<feColorMatrix type="matrix" values="0 0 0 0 1 0 0 0 0 1 0 0 0 0 1 0 0 0 0.2 0"/>
<feBlend mode="normal" in2="shape" result="effect1_innerShadow"/>
<feColorMatrix in="SourceAlpha" type="matrix" values="0 0 0 0 0 0 0 0 0 0 0 0 0 0 0 0 0 0 127 0" result="hardAlpha"/>
<feOffset dx="-0.967729" dy="-0.967729"/>
<feGaussianBlur stdDeviation="0.483864"/>
<feComposite in2="hardAlpha" operator="arithmetic" k2="-1" k3="1"/>
<feColorMatrix type="matrix" values="0 0 0 0 0 0 0 0 0 0 0 0 0 0 0 0 0 0 0.05 0"/>
<feBlend mode="normal" in2="effect1_innerShadow" result="effect2_innerShadow"/>
</filter>
<filter id="filter1_di" x="-5.9702" y="13.0596" width="155.313" height="124.93" filterUnits="userSpaceOnUse" color-interpolation-filters="sRGB">
<feFlood flood-opacity="0" result="BackgroundImageFix"/>
<feColorMatrix in="SourceAlpha" type="matrix" values="0 0 0 0 0 0 0 0 0 0 0 0 0 0 0 0 0 0 127 0"/>
<feOffset dy="5.49023"/>
<feGaussianBlur stdDeviation="5.03271"/>
<feColorMatrix type="matrix" values="0 0 0 0 0.582212 0 0 0 0 0.775 0 0 0 0 0.381042 0 0 0 1 0"/>
<feBlend mode="normal" in2="BackgroundImageFix" result="effect1_dropShadow"/>
<feBlend mode="normal" in="SourceGraphic" in2="effect1_dropShadow" result="shape"/>
<feColorMatrix in="SourceAlpha" type="matrix" values="0 0 0 0 0 0 0 0 0 0 0 0 0 0 0 0 0 0 127 0" result="hardAlpha"/>
<feOffset dx="3.94654"/>
<feGaussianBlur stdDeviation="2.28759"/>
<feComposite in2="hardAlpha" operator="arithmetic" k2="-1" k3="1"/>
<feColorMatrix type="matrix" values="0 0 0 0 0.894118 0 0 0 0 0.972549 0 0 0 0 0.811765 0 0 0 1 0"/>
<feBlend mode="normal" in2="shape" result="effect2_innerShadow"/>
</filter>
<filter id="filter2_di" x="16.563" y="75.5585" width="125.139" height="62.2554" filterUnits="userSpaceOnUse" color-interpolation-filters="sRGB">
<feFlood flood-opacity="0" result="BackgroundImageFix"/>
<feColorMatrix in="SourceAlpha" type="matrix" values="0 0 0 0 0 0 0 0 0 0 0 0 0 0 0 0 0 0 127 0"/>
<feOffset dy="3.93645"/>
<feGaussianBlur stdDeviation="3.60841"/>
<feColorMatrix type="matrix" values="0 0 0 0 0.580641 0 0 0 0 0.766667 0 0 0 0 0.386528 0 0 0 1 0"/>
<feBlend mode="normal" in2="BackgroundImageFix" result="effect1_dropShadow"/>
<feBlend mode="normal" in="SourceGraphic" in2="effect1_dropShadow" result="shape"/>
<feColorMatrix in="SourceAlpha" type="matrix" values="0 0 0 0 0 0 0 0 0 0 0 0 0 0 0 0 0 0 127 0" result="hardAlpha"/>
<feOffset dx="0.5"/>
<feGaussianBlur stdDeviation="1.64019"/>
<feComposite in2="hardAlpha" operator="arithmetic" k2="-1" k3="1"/>
<feColorMatrix type="matrix" values="0 0 0 0 0.901961 0 0 0 0 0.976471 0 0 0 0 0.827451 0 0 0 1 0"/>
<feBlend mode="normal" in2="shape" result="effect2_innerShadow"/>
</filter>
<linearGradient id="paint0_linear" x1="62.127" y1="0.407227" x2="62.127" y2="123.415" gradientUnits="userSpaceOnUse">
<stop stop-color="#387CFF"/>
<stop offset="1" stop-color="#1967FF"/>
</linearGradient>
<linearGradient id="paint1_linear" x1="62.127" y1="1.39917" x2="62.127" y2="124.407" gradientUnits="userSpaceOnUse">
<stop stop-color="#FADB7E"/>
<stop offset="1" stop-color="#FADB7E"/>
</linearGradient>
<linearGradient id="paint2_linear" x1="62.127" y1="1.39917" x2="62.127" y2="124.407" gradientUnits="userSpaceOnUse">
<stop offset="0.328125" stop-color="white"/>
<stop offset="1" stop-opacity="0.1"/>
</linearGradient>
<linearGradient id="paint3_linear" x1="54.3819" y1="20.3601" x2="105.417" y2="127.294" gradientUnits="userSpaceOnUse">
<stop stop-color="white"/>
<stop offset="1" stop-color="#C2F092"/>
</linearGradient>
<linearGradient id="paint4_linear" x1="83.1269" y1="90.9027" x2="90.2548" y2="115.222" gradientUnits="userSpaceOnUse">
<stop stop-color="white"/>
<stop offset="1" stop-color="#C2F092"/>
</linearGradient>
</defs>
</svg>
