<svg width="125" height="125" viewBox="0 0 125 125" fill="none" xmlns="http://www.w3.org/2000/svg">
<g filter="url(#filter0_ii)">
<rect x="0.126953" y="0.40918" width="124" height="124" rx="27.1337" fill="url(#paint0_linear)"/>
<rect x="0.126953" y="0.40918" width="124" height="124" rx="27.1337" fill="url(#paint1_linear)" fill-opacity="0.2" style="mix-blend-mode:soft-light"/>
</g>
<mask id="mask0" mask-type="alpha" maskUnits="userSpaceOnUse" x="0" y="0" width="125" height="125">
<rect x="0.126953" y="0.40918" width="124" height="124" rx="27.1337" fill="url(#paint2_linear)"/>
<rect x="0.126953" y="0.40918" width="124" height="124" rx="27.1337" fill="url(#paint3_linear)" fill-opacity="0.2"/>
</mask>
<g mask="url(#mask0)">
<g filter="url(#filter1_di)">
<path d="M59.3993 60.6109C74.4309 56.5018 86.3205 56.4716 95.0682 60.5205C103.917 64.5415 109.716 71.5795 112.465 81.6345C114.242 88.1346 114.241 94.5204 112.463 100.792C110.656 106.962 106.846 112.588 101.031 117.67C95.2898 122.624 87.5442 126.433 77.794 129.098C70.2782 131.153 62.6001 132.215 54.7599 132.284C46.9935 132.224 40.0714 131.06 33.9937 128.792L38.5797 107.235C43.4753 109.172 48.7997 110.281 54.5531 110.564C60.2787 110.746 65.9345 110.073 71.5206 108.546C77.7161 106.852 82.258 104.3 85.1465 100.891C88.0349 97.4819 88.8822 93.5936 87.6883 89.2263C86.4389 84.6558 83.6159 81.7163 79.2195 80.4076C74.9245 79.0711 68.2066 79.6522 59.0658 82.151L31.7956 89.6058L20.8713 28.0816L85.9237 10.2985L91.3378 30.1036L46.8523 42.2645L50.7155 62.9848L59.3993 60.6109Z" fill="white"/>
<path d="M59.3993 60.6109C74.4309 56.5018 86.3205 56.4716 95.0682 60.5205C103.917 64.5415 109.716 71.5795 112.465 81.6345C114.242 88.1346 114.241 94.5204 112.463 100.792C110.656 106.962 106.846 112.588 101.031 117.67C95.2898 122.624 87.5442 126.433 77.794 129.098C70.2782 131.153 62.6001 132.215 54.7599 132.284C46.9935 132.224 40.0714 131.06 33.9937 128.792L38.5797 107.235C43.4753 109.172 48.7997 110.281 54.5531 110.564C60.2787 110.746 65.9345 110.073 71.5206 108.546C77.7161 106.852 82.258 104.3 85.1465 100.891C88.0349 97.4819 88.8822 93.5936 87.6883 89.2263C86.4389 84.6558 83.6159 81.7163 79.2195 80.4076C74.9245 79.0711 68.2066 79.6522 59.0658 82.151L31.7956 89.6058L20.8713 28.0816L85.9237 10.2985L91.3378 30.1036L46.8523 42.2645L50.7155 62.9848L59.3993 60.6109Z" fill="url(#paint4_linear)"/>
</g>
<g filter="url(#filter2_di)">
<path d="M31.1985 114.403L28.9848 115.042L30.9106 121.718L24.3386 123.614L18.9303 104.866L25.5023 102.97L27.498 109.888L29.8501 109.209L32.4548 100.964L39.4073 98.9588L35.7064 109.768L45.2307 117.587L37.4826 119.822L31.1985 114.403ZM61.0946 92.7023L66.5029 111.45L59.9309 113.346L56.0293 99.8213L51.2906 101.188L51.9804 104.099C52.5933 106.57 52.9333 108.658 53.0003 110.362C53.0673 112.066 52.7808 113.498 52.141 114.656C51.4944 115.792 50.3871 116.586 48.8191 117.038C48.012 117.271 46.908 117.427 45.5071 117.507L44.2372 112.066C44.6655 111.992 44.9489 111.935 45.0873 111.895C45.8021 111.689 46.2775 111.302 46.5134 110.734C46.7493 110.167 46.8267 109.483 46.7455 108.682C46.6577 107.858 46.4506 106.793 46.1242 105.489L44.1457 97.5918L61.0946 92.7023ZM73.0657 88.9117C76.1787 88.0136 78.7601 88.0433 80.8098 89.0007C82.8528 89.935 84.2967 91.8664 85.1416 94.795L88.1451 105.206L82.0228 106.973L81.3243 104.551C80.9044 106.646 79.3224 108.089 76.5783 108.88C75.1255 109.3 73.7956 109.408 72.5885 109.207C71.3814 109.006 70.3781 108.558 69.5785 107.865C68.7953 107.142 68.2441 106.227 67.9248 105.12C67.4126 103.344 67.697 101.776 68.7781 100.415C69.8526 99.0308 71.808 97.9296 74.6443 97.1114L78.38 96.0337C77.6926 94.0838 76.0806 93.4748 73.5441 94.2065C72.6447 94.466 71.7771 94.8786 70.9412 95.4445C70.0987 95.9873 69.4277 96.6055 68.9284 97.2991L65.4274 93.4757C66.2656 92.4845 67.3693 91.5916 68.7387 90.7969C70.1245 89.9725 71.5668 89.3441 73.0657 88.9117ZM77.2141 104.201C77.9751 103.981 78.5906 103.604 79.0606 103.069C79.5307 102.533 79.7894 101.872 79.8368 101.084L79.3679 99.4581L76.5315 100.276C74.6176 100.828 73.8435 101.739 74.2094 103.007C74.3757 103.583 74.7278 103.981 75.2658 104.201C75.8037 104.42 76.4531 104.42 77.2141 104.201ZM101.597 101.663C99.5216 102.262 97.5456 102.382 95.6688 102.024C93.7921 101.666 92.1797 100.883 90.8316 99.673C89.5065 98.4566 88.5745 96.9145 88.0357 95.0467C87.4969 93.1788 87.4676 91.3888 87.9478 89.6766C88.4444 87.9347 89.3949 86.4241 90.7994 85.1447C92.1971 83.8422 93.9337 82.8916 96.009 82.2929C98.1305 81.6809 100.097 81.6132 101.908 82.0899C103.712 82.5435 105.17 83.4843 106.282 84.9122L101.945 88.9733C100.606 87.536 99.1184 87.0536 97.4812 87.5259C96.3051 87.8652 95.4382 88.5399 94.8804 89.5501C94.3456 90.5537 94.2777 91.7472 94.6769 93.1308C95.0827 94.5374 95.7825 95.5345 96.7763 96.1221C97.7865 96.68 98.8796 96.7892 100.056 96.45C101.693 95.9777 102.695 94.7768 103.063 92.8473L108.896 93.9746C108.716 95.7751 107.986 97.3593 106.708 98.7274C105.422 100.072 103.718 101.051 101.597 101.663ZM122.337 95.6798C120.262 96.2785 118.286 96.399 116.409 96.0411C114.532 95.6833 112.92 94.8995 111.572 93.6898C110.247 92.4734 109.315 90.9313 108.776 89.0635C108.237 87.1957 108.208 85.4056 108.688 83.6934C109.185 81.9515 110.135 80.4409 111.54 79.1615C112.937 77.859 114.674 76.9084 116.749 76.3097C118.871 75.6977 120.837 75.63 122.648 76.1067C124.452 76.5603 125.91 77.5011 127.022 78.929L122.685 82.9901C121.347 81.5529 119.859 81.0704 118.221 81.5427C117.045 81.882 116.178 82.5567 115.621 83.5669C115.086 84.5705 115.018 85.764 115.417 87.1476C115.823 88.5543 116.523 89.5514 117.516 90.1389C118.527 90.6968 119.62 90.8061 120.796 90.4668C122.433 89.9945 123.435 88.7936 123.803 86.8641L129.636 87.9915C129.456 89.7919 128.727 91.3762 127.448 92.7443C126.162 94.0893 124.459 95.0678 122.337 95.6798Z" fill="white"/>
<path d="M31.1985 114.403L28.9848 115.042L30.9106 121.718L24.3386 123.614L18.9303 104.866L25.5023 102.97L27.498 109.888L29.8501 109.209L32.4548 100.964L39.4073 98.9588L35.7064 109.768L45.2307 117.587L37.4826 119.822L31.1985 114.403ZM61.0946 92.7023L66.5029 111.45L59.9309 113.346L56.0293 99.8213L51.2906 101.188L51.9804 104.099C52.5933 106.57 52.9333 108.658 53.0003 110.362C53.0673 112.066 52.7808 113.498 52.141 114.656C51.4944 115.792 50.3871 116.586 48.8191 117.038C48.012 117.271 46.908 117.427 45.5071 117.507L44.2372 112.066C44.6655 111.992 44.9489 111.935 45.0873 111.895C45.8021 111.689 46.2775 111.302 46.5134 110.734C46.7493 110.167 46.8267 109.483 46.7455 108.682C46.6577 107.858 46.4506 106.793 46.1242 105.489L44.1457 97.5918L61.0946 92.7023ZM73.0657 88.9117C76.1787 88.0136 78.7601 88.0433 80.8098 89.0007C82.8528 89.935 84.2967 91.8664 85.1416 94.795L88.1451 105.206L82.0228 106.973L81.3243 104.551C80.9044 106.646 79.3224 108.089 76.5783 108.88C75.1255 109.3 73.7956 109.408 72.5885 109.207C71.3814 109.006 70.3781 108.558 69.5785 107.865C68.7953 107.142 68.2441 106.227 67.9248 105.12C67.4126 103.344 67.697 101.776 68.7781 100.415C69.8526 99.0308 71.808 97.9296 74.6443 97.1114L78.38 96.0337C77.6926 94.0838 76.0806 93.4748 73.5441 94.2065C72.6447 94.466 71.7771 94.8786 70.9412 95.4445C70.0987 95.9873 69.4277 96.6055 68.9284 97.2991L65.4274 93.4757C66.2656 92.4845 67.3693 91.5916 68.7387 90.7969C70.1245 89.9725 71.5668 89.3441 73.0657 88.9117ZM77.2141 104.201C77.9751 103.981 78.5906 103.604 79.0606 103.069C79.5307 102.533 79.7894 101.872 79.8368 101.084L79.3679 99.4581L76.5315 100.276C74.6176 100.828 73.8435 101.739 74.2094 103.007C74.3757 103.583 74.7278 103.981 75.2658 104.201C75.8037 104.42 76.4531 104.42 77.2141 104.201ZM101.597 101.663C99.5216 102.262 97.5456 102.382 95.6688 102.024C93.7921 101.666 92.1797 100.883 90.8316 99.673C89.5065 98.4566 88.5745 96.9145 88.0357 95.0467C87.4969 93.1788 87.4676 91.3888 87.9478 89.6766C88.4444 87.9347 89.3949 86.4241 90.7994 85.1447C92.1971 83.8422 93.9337 82.8916 96.009 82.2929C98.1305 81.6809 100.097 81.6132 101.908 82.0899C103.712 82.5435 105.17 83.4843 106.282 84.9122L101.945 88.9733C100.606 87.536 99.1184 87.0536 97.4812 87.5259C96.3051 87.8652 95.4382 88.5399 94.8804 89.5501C94.3456 90.5537 94.2777 91.7472 94.6769 93.1308C95.0827 94.5374 95.7825 95.5345 96.7763 96.1221C97.7865 96.68 98.8796 96.7892 100.056 96.45C101.693 95.9777 102.695 94.7768 103.063 92.8473L108.896 93.9746C108.716 95.7751 107.986 97.3593 106.708 98.7274C105.422 100.072 103.718 101.051 101.597 101.663ZM122.337 95.6798C120.262 96.2785 118.286 96.399 116.409 96.0411C114.532 95.6833 112.92 94.8995 111.572 93.6898C110.247 92.4734 109.315 90.9313 108.776 89.0635C108.237 87.1957 108.208 85.4056 108.688 83.6934C109.185 81.9515 110.135 80.4409 111.54 79.1615C112.937 77.859 114.674 76.9084 116.749 76.3097C118.871 75.6977 120.837 75.63 122.648 76.1067C124.452 76.5603 125.91 77.5011 127.022 78.929L122.685 82.9901C121.347 81.5529 119.859 81.0704 118.221 81.5427C117.045 81.882 116.178 82.5567 115.621 83.5669C115.086 84.5705 115.018 85.764 115.417 87.1476C115.823 88.5543 116.523 89.5514 117.516 90.1389C118.527 90.6968 119.62 90.8061 120.796 90.4668C122.433 89.9945 123.435 88.7936 123.803 86.8641L129.636 87.9915C129.456 89.7919 128.727 91.3762 127.448 92.7443C126.162 94.0893 124.459 95.0678 122.337 95.6798Z" fill="url(#paint5_linear)"/>
</g>
</g>
<defs>
<filter id="filter0_ii" x="-0.847137" y="-0.56491" width="125.948" height="125.948" filterUnits="userSpaceOnUse" color-interpolation-filters="sRGB">
<feFlood flood-opacity="0" result="BackgroundImageFix"/>
<feBlend mode="normal" in="SourceGraphic" in2="BackgroundImageFix" result="shape"/>
<feColorMatrix in="SourceAlpha" type="matrix" values="0 0 0 0 0 0 0 0 0 0 0 0 0 0 0 0 0 0 127 0" result="hardAlpha"/>
<feOffset dx="0.97409" dy="0.97409"/>
<feGaussianBlur stdDeviation="0.487045"/>
<feComposite in2="hardAlpha" operator="arithmetic" k2="-1" k3="1"/>
<feColorMatrix type="matrix" values="0 0 0 0 1 0 0 0 0 1 0 0 0 0 1 0 0 0 0.2 0"/>
<feBlend mode="normal" in2="shape" result="effect1_innerShadow"/>
<feColorMatrix in="SourceAlpha" type="matrix" values="0 0 0 0 0 0 0 0 0 0 0 0 0 0 0 0 0 0 127 0" result="hardAlpha"/>
<feOffset dx="-0.97409" dy="-0.97409"/>
<feGaussianBlur stdDeviation="0.487045"/>
<feComposite in2="hardAlpha" operator="arithmetic" k2="-1" k3="1"/>
<feColorMatrix type="matrix" values="0 0 0 0 0 0 0 0 0 0 0 0 0 0 0 0 0 0 0.05 0"/>
<feBlend mode="normal" in2="effect1_innerShadow" result="effect2_innerShadow"/>
</filter>
<filter id="filter1_di" x="9.98458" y="5.34981" width="114.699" height="143.759" filterUnits="userSpaceOnUse" color-interpolation-filters="sRGB">
<feFlood flood-opacity="0" result="BackgroundImageFix"/>
<feColorMatrix in="SourceAlpha" type="matrix" values="0 0 0 0 0 0 0 0 0 0 0 0 0 0 0 0 0 0 127 0"/>
<feOffset dy="5.93823"/>
<feGaussianBlur stdDeviation="5.44338"/>
<feColorMatrix type="matrix" values="0 0 0 0 0.280729 0 0 0 0 0.6875 0 0 0 0 0.376009 0 0 0 1 0"/>
<feBlend mode="normal" in2="BackgroundImageFix" result="effect1_dropShadow"/>
<feBlend mode="normal" in="SourceGraphic" in2="effect1_dropShadow" result="shape"/>
<feColorMatrix in="SourceAlpha" type="matrix" values="0 0 0 0 0 0 0 0 0 0 0 0 0 0 0 0 0 0 127 0" result="hardAlpha"/>
<feOffset dx="4.26858"/>
<feGaussianBlur stdDeviation="2.47426"/>
<feComposite in2="hardAlpha" operator="arithmetic" k2="-1" k3="1"/>
<feColorMatrix type="matrix" values="0 0 0 0 0.651267 0 0 0 0 0.970833 0 0 0 0 0.726121 0 0 0 1 0"/>
<feBlend mode="normal" in2="shape" result="effect2_innerShadow"/>
</filter>
<filter id="filter2_di" x="8.04366" y="70.8452" width="132.479" height="69.5934" filterUnits="userSpaceOnUse" color-interpolation-filters="sRGB">
<feFlood flood-opacity="0" result="BackgroundImageFix"/>
<feColorMatrix in="SourceAlpha" type="matrix" values="0 0 0 0 0 0 0 0 0 0 0 0 0 0 0 0 0 0 127 0"/>
<feOffset dy="5.93823"/>
<feGaussianBlur stdDeviation="5.44338"/>
<feColorMatrix type="matrix" values="0 0 0 0 0.317647 0 0 0 0 0.745098 0 0 0 0 0.411765 0 0 0 1 0"/>
<feBlend mode="normal" in2="BackgroundImageFix" result="effect1_dropShadow"/>
<feBlend mode="normal" in="SourceGraphic" in2="effect1_dropShadow" result="shape"/>
<feColorMatrix in="SourceAlpha" type="matrix" values="0 0 0 0 0 0 0 0 0 0 0 0 0 0 0 0 0 0 127 0" result="hardAlpha"/>
<feOffset dx="0.27"/>
<feGaussianBlur stdDeviation="0.975"/>
<feComposite in2="hardAlpha" operator="arithmetic" k2="-1" k3="1"/>
<feColorMatrix type="matrix" values="0 0 0 0 0.827451 0 0 0 0 0.980392 0 0 0 0 0.862745 0 0 0 1 0"/>
<feBlend mode="normal" in2="shape" result="effect2_innerShadow"/>
</filter>
<linearGradient id="paint0_linear" x1="62.127" y1="0.40918" x2="62.127" y2="124.409" gradientUnits="userSpaceOnUse">
<stop stop-color="#59CC72"/>
<stop offset="1" stop-color="#58CC71"/>
</linearGradient>
<linearGradient id="paint1_linear" x1="62.127" y1="0.40918" x2="62.127" y2="124.409" gradientUnits="userSpaceOnUse">
<stop offset="0.328125" stop-color="white"/>
<stop offset="1" stop-opacity="0.1"/>
</linearGradient>
<linearGradient id="paint2_linear" x1="62.127" y1="0.40918" x2="62.127" y2="124.409" gradientUnits="userSpaceOnUse">
<stop stop-color="#FADB7E"/>
<stop offset="1" stop-color="#FADB7E"/>
</linearGradient>
<linearGradient id="paint3_linear" x1="62.127" y1="0.40918" x2="62.127" y2="124.409" gradientUnits="userSpaceOnUse">
<stop offset="0.328125" stop-color="white"/>
<stop offset="1" stop-opacity="0.1"/>
</linearGradient>
<linearGradient id="paint4_linear" x1="36.0857" y1="24.4991" x2="64.4144" y2="128.128" gradientUnits="userSpaceOnUse">
<stop stop-color="white"/>
<stop offset="1" stop-color="#65D47F"/>
</linearGradient>
<linearGradient id="paint5_linear" x1="65.9379" y1="94.8777" x2="72.1554" y2="113.659" gradientUnits="userSpaceOnUse">
<stop stop-color="white"/>
<stop offset="1" stop-color="#58CC71"/>
</linearGradient>
</defs>
</svg>
