<svg width="125" height="125" viewBox="0 0 125 125" fill="none" xmlns="http://www.w3.org/2000/svg">
<g filter="url(#filter0_ii)">
<rect x="0.126953" y="0.40918" width="124" height="123.008" rx="26.9565" fill="url(#paint0_linear)"/>
<rect x="0.126953" y="0.40918" width="124" height="123.008" rx="26.9565" fill="#8BEED6"/>
</g>
<mask id="mask0" mask-type="alpha" maskUnits="userSpaceOnUse" x="0" y="1" width="125" height="124">
<rect x="0.126953" y="1.40112" width="124" height="123.008" rx="27.4961" fill="url(#paint1_linear)"/>
<rect x="0.126953" y="1.40112" width="124" height="123.008" rx="27.4961" fill="url(#paint2_linear)" fill-opacity="0.2"/>
</mask>
<g mask="url(#mask0)">
<g filter="url(#filter1_di)">
<path d="M89.0555 64.5202C94.5289 65.6115 99.0473 67.76 102.611 70.9658C106.267 74.1463 108.791 78.2831 110.183 83.3762C111.828 89.3954 111.558 95.1421 109.372 100.616C107.161 105.998 103.295 110.787 97.7739 114.983C92.2277 119.087 85.3801 122.253 77.2312 124.481C69.0822 126.709 61.5765 127.467 54.714 126.755C47.9189 125.926 42.2006 123.757 37.5594 120.249C32.9854 116.623 29.8757 111.8 28.2304 105.781C26.8382 100.688 26.8606 95.8547 28.2977 91.2818C29.8274 86.6837 32.6246 82.5352 36.6891 78.8364C32.4702 77.6013 28.9327 75.5827 26.0768 72.7806C23.1956 69.8859 21.1601 66.2624 19.9704 61.9101C18.4264 56.2613 18.659 50.923 20.6684 45.8952C22.6778 40.8673 26.2031 36.47 31.2443 32.7033C36.2602 28.8439 42.4259 25.9143 49.7415 23.9143C57.1496 21.889 63.9944 21.2618 70.276 22.0326C76.6248 22.6855 81.943 24.6651 86.2305 27.9715C90.5181 31.2779 93.4339 35.7554 94.978 41.4042C96.1677 45.7565 96.2585 49.9117 95.2504 53.8696C94.217 57.7349 92.1521 61.2851 89.0555 64.5202ZM54.2598 40.4439C49.7223 41.6844 46.3683 43.7956 44.1977 46.7775C42.0945 49.6416 41.5618 52.9719 42.5996 56.7686C43.6121 60.4727 45.7522 63.0226 49.0198 64.4183C52.2875 65.814 56.2363 65.879 60.8664 64.6132C65.4965 63.3474 68.9095 61.2698 71.1054 58.3805C73.3012 55.4912 73.8929 52.1944 72.8804 48.4903C71.8426 44.6936 69.6435 42.1101 66.2833 40.7397C62.8977 39.2767 58.8899 39.1781 54.2598 40.4439ZM72.7128 107.951C78.3616 106.407 82.4647 103.942 85.0223 100.555C87.6472 97.0511 88.3775 93.1691 87.2131 88.9094C86.0487 84.6497 83.458 81.7254 79.4409 80.1365C75.5163 78.5223 70.7297 78.4873 65.081 80.0316C59.5249 81.5505 55.468 84.0032 52.9104 87.3895C50.3528 90.7758 49.6562 94.5988 50.8206 98.8586C52.0103 103.211 54.5674 106.194 58.4919 107.808C62.4164 109.423 67.1567 109.47 72.7128 107.951Z" fill="white"/>
<path d="M89.0555 64.5202C94.5289 65.6115 99.0473 67.76 102.611 70.9658C106.267 74.1463 108.791 78.2831 110.183 83.3762C111.828 89.3954 111.558 95.1421 109.372 100.616C107.161 105.998 103.295 110.787 97.7739 114.983C92.2277 119.087 85.3801 122.253 77.2312 124.481C69.0822 126.709 61.5765 127.467 54.714 126.755C47.9189 125.926 42.2006 123.757 37.5594 120.249C32.9854 116.623 29.8757 111.8 28.2304 105.781C26.8382 100.688 26.8606 95.8547 28.2977 91.2818C29.8274 86.6837 32.6246 82.5352 36.6891 78.8364C32.4702 77.6013 28.9327 75.5827 26.0768 72.7806C23.1956 69.8859 21.1601 66.2624 19.9704 61.9101C18.4264 56.2613 18.659 50.923 20.6684 45.8952C22.6778 40.8673 26.2031 36.47 31.2443 32.7033C36.2602 28.8439 42.4259 25.9143 49.7415 23.9143C57.1496 21.889 63.9944 21.2618 70.276 22.0326C76.6248 22.6855 81.943 24.6651 86.2305 27.9715C90.5181 31.2779 93.4339 35.7554 94.978 41.4042C96.1677 45.7565 96.2585 49.9117 95.2504 53.8696C94.217 57.7349 92.1521 61.2851 89.0555 64.5202ZM54.2598 40.4439C49.7223 41.6844 46.3683 43.7956 44.1977 46.7775C42.0945 49.6416 41.5618 52.9719 42.5996 56.7686C43.6121 60.4727 45.7522 63.0226 49.0198 64.4183C52.2875 65.814 56.2363 65.879 60.8664 64.6132C65.4965 63.3474 68.9095 61.2698 71.1054 58.3805C73.3012 55.4912 73.8929 52.1944 72.8804 48.4903C71.8426 44.6936 69.6435 42.1101 66.2833 40.7397C62.8977 39.2767 58.8899 39.1781 54.2598 40.4439ZM72.7128 107.951C78.3616 106.407 82.4647 103.942 85.0223 100.555C87.6472 97.0511 88.3775 93.1691 87.2131 88.9094C86.0487 84.6497 83.458 81.7254 79.4409 80.1365C75.5163 78.5223 70.7297 78.4873 65.081 80.0316C59.5249 81.5505 55.468 84.0032 52.9104 87.3895C50.3528 90.7758 49.6562 94.5988 50.8206 98.8586C52.0103 103.211 54.5674 106.194 58.4919 107.808C62.4164 109.423 67.1567 109.47 72.7128 107.951Z" fill="url(#paint3_linear)"/>
</g>
<g filter="url(#filter2_di)">
<path d="M36.0477 117.452L33.8339 118.091L35.7597 124.767L29.1877 126.663L23.7797 107.915L30.3517 106.019L32.3473 112.937L34.6993 112.258L37.3041 104.013L44.2566 102.007L40.5556 112.817L50.0796 120.635L42.3316 122.871L36.0477 117.452ZM65.9438 95.7506L71.3518 114.498L64.7798 116.394L60.8785 102.87L56.1397 104.237L56.8295 107.148C57.4424 109.619 57.7823 111.706 57.8493 113.41C57.9163 115.115 57.6298 116.546 56.9899 117.705C56.3433 118.841 55.2361 119.635 53.668 120.087C52.8609 120.32 51.7569 120.476 50.3561 120.556L49.0862 115.114C49.5146 115.041 49.798 114.984 49.9363 114.944C50.6512 114.738 51.1265 114.351 51.3625 113.783C51.5984 113.216 51.6758 112.531 51.5946 111.73C51.5068 110.906 51.2997 109.842 50.9733 108.537L48.995 100.64L65.9438 95.7506ZM77.9148 91.9597C81.0279 91.0616 83.6092 91.0912 85.6588 92.0486C87.7018 92.9829 89.1457 94.9143 89.9905 97.8429L92.9938 108.254L86.8715 110.021L86.1731 107.599C85.7532 109.694 84.1711 111.137 81.4271 111.929C79.9743 112.348 78.6444 112.457 77.4373 112.255C76.2302 112.054 75.2269 111.607 74.4274 110.913C73.6442 110.19 73.093 109.275 72.7737 108.168C72.2615 106.392 72.546 104.824 73.6271 103.463C74.7016 102.079 76.657 100.978 79.4933 100.16L83.229 99.0818C82.5416 97.1319 80.9297 96.5228 78.3931 97.2546C77.4938 97.5141 76.6262 97.9268 75.7903 98.4927C74.9477 99.0355 74.2768 99.6537 73.7774 100.347L70.2766 96.5239C71.1147 95.5327 72.2185 94.6398 73.5878 93.845C74.9736 93.0206 76.416 92.3922 77.9148 91.9597ZM82.0629 107.249C82.8239 107.029 83.4394 106.652 83.9095 106.117C84.3795 105.582 84.6383 104.92 84.6857 104.132L84.2168 102.506L81.3805 103.324C79.4665 103.877 78.6925 104.787 79.0583 106.055C79.2246 106.632 79.5767 107.03 80.1146 107.249C80.6525 107.469 81.302 107.469 82.0629 107.249ZM106.446 104.711C104.37 105.31 102.394 105.43 100.518 105.072C98.6409 104.714 97.0285 103.931 95.6804 102.721C94.3553 101.505 93.4234 99.9624 92.8846 98.0946C92.3458 96.2267 92.3165 94.4367 92.7968 92.7245C93.2934 90.9825 94.244 89.4719 95.6484 88.1924C97.0461 86.8899 98.7827 85.9393 100.858 85.3406C102.98 84.7285 104.946 84.6608 106.757 85.1375C108.561 85.5911 110.019 86.5318 111.13 87.9597L106.794 92.0209C105.455 90.5837 103.967 90.1012 102.33 90.5736C101.154 90.9129 100.287 91.5876 99.7293 92.5978C99.1945 93.6014 99.1266 94.795 99.5257 96.1786C99.9315 97.5852 100.631 98.5823 101.625 99.1699C102.635 99.7277 103.728 99.837 104.904 99.4977C106.542 99.0254 107.544 97.8244 107.912 95.8949L113.745 97.0222C113.565 98.8227 112.835 100.407 111.556 101.775C110.271 103.12 108.567 104.099 106.446 104.711ZM127.186 98.7272C125.11 99.3259 123.134 99.4464 121.258 99.0886C119.381 98.7308 117.769 97.947 116.42 96.7373C115.095 95.521 114.163 93.9788 113.625 92.111C113.086 90.2432 113.057 88.4531 113.537 86.7409C114.033 84.999 114.984 83.4883 116.388 82.2089C117.786 80.9064 119.523 79.9558 121.598 79.357C123.72 78.745 125.686 78.6773 127.497 79.1539C129.301 79.6075 130.759 80.5483 131.87 81.9762L127.534 86.0373C126.195 84.6001 124.707 84.1177 123.07 84.59C121.894 84.9293 121.027 85.6041 120.469 86.6143C119.935 87.6179 119.867 88.8114 120.266 90.195C120.672 91.6017 121.371 92.5988 122.365 93.1863C123.375 93.7442 124.468 93.8534 125.644 93.5141C127.282 93.0418 128.284 91.8409 128.652 89.9114L134.485 91.0387C134.305 92.8391 133.575 94.4234 132.296 95.7915C131.011 97.1366 129.307 98.1151 127.186 98.7272Z" fill="white"/>
<path d="M36.0477 117.452L33.8339 118.091L35.7597 124.767L29.1877 126.663L23.7797 107.915L30.3517 106.019L32.3473 112.937L34.6993 112.258L37.3041 104.013L44.2566 102.007L40.5556 112.817L50.0796 120.635L42.3316 122.871L36.0477 117.452ZM65.9438 95.7506L71.3518 114.498L64.7798 116.394L60.8785 102.87L56.1397 104.237L56.8295 107.148C57.4424 109.619 57.7823 111.706 57.8493 113.41C57.9163 115.115 57.6298 116.546 56.9899 117.705C56.3433 118.841 55.2361 119.635 53.668 120.087C52.8609 120.32 51.7569 120.476 50.3561 120.556L49.0862 115.114C49.5146 115.041 49.798 114.984 49.9363 114.944C50.6512 114.738 51.1265 114.351 51.3625 113.783C51.5984 113.216 51.6758 112.531 51.5946 111.73C51.5068 110.906 51.2997 109.842 50.9733 108.537L48.995 100.64L65.9438 95.7506ZM77.9148 91.9597C81.0279 91.0616 83.6092 91.0912 85.6588 92.0486C87.7018 92.9829 89.1457 94.9143 89.9905 97.8429L92.9938 108.254L86.8715 110.021L86.1731 107.599C85.7532 109.694 84.1711 111.137 81.4271 111.929C79.9743 112.348 78.6444 112.457 77.4373 112.255C76.2302 112.054 75.2269 111.607 74.4274 110.913C73.6442 110.19 73.093 109.275 72.7737 108.168C72.2615 106.392 72.546 104.824 73.6271 103.463C74.7016 102.079 76.657 100.978 79.4933 100.16L83.229 99.0818C82.5416 97.1319 80.9297 96.5228 78.3931 97.2546C77.4938 97.5141 76.6262 97.9268 75.7903 98.4927C74.9477 99.0355 74.2768 99.6537 73.7774 100.347L70.2766 96.5239C71.1147 95.5327 72.2185 94.6398 73.5878 93.845C74.9736 93.0206 76.416 92.3922 77.9148 91.9597ZM82.0629 107.249C82.8239 107.029 83.4394 106.652 83.9095 106.117C84.3795 105.582 84.6383 104.92 84.6857 104.132L84.2168 102.506L81.3805 103.324C79.4665 103.877 78.6925 104.787 79.0583 106.055C79.2246 106.632 79.5767 107.03 80.1146 107.249C80.6525 107.469 81.302 107.469 82.0629 107.249ZM106.446 104.711C104.37 105.31 102.394 105.43 100.518 105.072C98.6409 104.714 97.0285 103.931 95.6804 102.721C94.3553 101.505 93.4234 99.9624 92.8846 98.0946C92.3458 96.2267 92.3165 94.4367 92.7968 92.7245C93.2934 90.9825 94.244 89.4719 95.6484 88.1924C97.0461 86.8899 98.7827 85.9393 100.858 85.3406C102.98 84.7285 104.946 84.6608 106.757 85.1375C108.561 85.5911 110.019 86.5318 111.13 87.9597L106.794 92.0209C105.455 90.5837 103.967 90.1012 102.33 90.5736C101.154 90.9129 100.287 91.5876 99.7293 92.5978C99.1945 93.6014 99.1266 94.795 99.5257 96.1786C99.9315 97.5852 100.631 98.5823 101.625 99.1699C102.635 99.7277 103.728 99.837 104.904 99.4977C106.542 99.0254 107.544 97.8244 107.912 95.8949L113.745 97.0222C113.565 98.8227 112.835 100.407 111.556 101.775C110.271 103.12 108.567 104.099 106.446 104.711ZM127.186 98.7272C125.11 99.3259 123.134 99.4464 121.258 99.0886C119.381 98.7308 117.769 97.947 116.42 96.7373C115.095 95.521 114.163 93.9788 113.625 92.111C113.086 90.2432 113.057 88.4531 113.537 86.7409C114.033 84.999 114.984 83.4883 116.388 82.2089C117.786 80.9064 119.523 79.9558 121.598 79.357C123.72 78.745 125.686 78.6773 127.497 79.1539C129.301 79.6075 130.759 80.5483 131.87 81.9762L127.534 86.0373C126.195 84.6001 124.707 84.1177 123.07 84.59C121.894 84.9293 121.027 85.6041 120.469 86.6143C119.935 87.6179 119.867 88.8114 120.266 90.195C120.672 91.6017 121.371 92.5988 122.365 93.1863C123.375 93.7442 124.468 93.8534 125.644 93.5141C127.282 93.0418 128.284 91.8409 128.652 89.9114L134.485 91.0387C134.305 92.8391 133.575 94.4234 132.296 95.7915C131.011 97.1366 129.307 98.1151 127.186 98.7272Z" fill="url(#paint4_linear)"/>
</g>
</g>
<defs>
<filter id="filter0_ii" x="-0.840776" y="-0.558549" width="125.935" height="124.943" filterUnits="userSpaceOnUse" color-interpolation-filters="sRGB">
<feFlood flood-opacity="0" result="BackgroundImageFix"/>
<feBlend mode="normal" in="SourceGraphic" in2="BackgroundImageFix" result="shape"/>
<feColorMatrix in="SourceAlpha" type="matrix" values="0 0 0 0 0 0 0 0 0 0 0 0 0 0 0 0 0 0 127 0" result="hardAlpha"/>
<feOffset dx="0.967729" dy="0.967729"/>
<feGaussianBlur stdDeviation="0.483864"/>
<feComposite in2="hardAlpha" operator="arithmetic" k2="-1" k3="1"/>
<feColorMatrix type="matrix" values="0 0 0 0 1 0 0 0 0 1 0 0 0 0 1 0 0 0 0.2 0"/>
<feBlend mode="normal" in2="shape" result="effect1_innerShadow"/>
<feColorMatrix in="SourceAlpha" type="matrix" values="0 0 0 0 0 0 0 0 0 0 0 0 0 0 0 0 0 0 127 0" result="hardAlpha"/>
<feOffset dx="-0.967729" dy="-0.967729"/>
<feGaussianBlur stdDeviation="0.483864"/>
<feComposite in2="hardAlpha" operator="arithmetic" k2="-1" k3="1"/>
<feColorMatrix type="matrix" values="0 0 0 0 0 0 0 0 0 0 0 0 0 0 0 0 0 0 0.05 0"/>
<feBlend mode="normal" in2="effect1_innerShadow" result="effect2_innerShadow"/>
</filter>
<filter id="filter1_di" x="8.89869" y="17.1387" width="112.41" height="125.431" filterUnits="userSpaceOnUse" color-interpolation-filters="sRGB">
<feFlood flood-opacity="0" result="BackgroundImageFix"/>
<feColorMatrix in="SourceAlpha" type="matrix" values="0 0 0 0 0 0 0 0 0 0 0 0 0 0 0 0 0 0 127 0"/>
<feOffset dy="5.49023"/>
<feGaussianBlur stdDeviation="5.03271"/>
<feColorMatrix type="matrix" values="0 0 0 0 0.362934 0 0 0 0 0.770833 0 0 0 0 0.671949 0 0 0 1 0"/>
<feBlend mode="normal" in2="BackgroundImageFix" result="effect1_dropShadow"/>
<feBlend mode="normal" in="SourceGraphic" in2="effect1_dropShadow" result="shape"/>
<feColorMatrix in="SourceAlpha" type="matrix" values="0 0 0 0 0 0 0 0 0 0 0 0 0 0 0 0 0 0 127 0" result="hardAlpha"/>
<feOffset dx="3.94654"/>
<feGaussianBlur stdDeviation="2.28759"/>
<feComposite in2="hardAlpha" operator="arithmetic" k2="-1" k3="1"/>
<feColorMatrix type="matrix" values="0 0 0 0 0.839216 0 0 0 0 0.976471 0 0 0 0 0.941176 0 0 0 1 0"/>
<feBlend mode="normal" in2="shape" result="effect2_innerShadow"/>
</filter>
<filter id="filter2_di" x="16.563" y="75.5604" width="125.139" height="62.2554" filterUnits="userSpaceOnUse" color-interpolation-filters="sRGB">
<feFlood flood-opacity="0" result="BackgroundImageFix"/>
<feColorMatrix in="SourceAlpha" type="matrix" values="0 0 0 0 0 0 0 0 0 0 0 0 0 0 0 0 0 0 127 0"/>
<feOffset dy="3.93645"/>
<feGaussianBlur stdDeviation="3.60841"/>
<feColorMatrix type="matrix" values="0 0 0 0 0.381337 0 0 0 0 0.795833 0 0 0 0 0.695349 0 0 0 1 0"/>
<feBlend mode="normal" in2="BackgroundImageFix" result="effect1_dropShadow"/>
<feBlend mode="normal" in="SourceGraphic" in2="effect1_dropShadow" result="shape"/>
<feColorMatrix in="SourceAlpha" type="matrix" values="0 0 0 0 0 0 0 0 0 0 0 0 0 0 0 0 0 0 127 0" result="hardAlpha"/>
<feOffset dx="0.5"/>
<feGaussianBlur stdDeviation="1.64019"/>
<feComposite in2="hardAlpha" operator="arithmetic" k2="-1" k3="1"/>
<feColorMatrix type="matrix" values="0 0 0 0 0.819608 0 0 0 0 0.972549 0 0 0 0 0.937255 0 0 0 1 0"/>
<feBlend mode="normal" in2="shape" result="effect2_innerShadow"/>
</filter>
<linearGradient id="paint0_linear" x1="62.127" y1="0.40918" x2="62.127" y2="123.417" gradientUnits="userSpaceOnUse">
<stop stop-color="#387CFF"/>
<stop offset="1" stop-color="#1967FF"/>
</linearGradient>
<linearGradient id="paint1_linear" x1="62.127" y1="1.40112" x2="62.127" y2="124.409" gradientUnits="userSpaceOnUse">
<stop stop-color="#FADB7E"/>
<stop offset="1" stop-color="#FADB7E"/>
</linearGradient>
<linearGradient id="paint2_linear" x1="62.127" y1="1.40112" x2="62.127" y2="124.409" gradientUnits="userSpaceOnUse">
<stop offset="0.328125" stop-color="white"/>
<stop offset="1" stop-opacity="0.1"/>
</linearGradient>
<linearGradient id="paint3_linear" x1="39.5856" y1="25.6137" x2="98.4015" y2="125.874" gradientUnits="userSpaceOnUse">
<stop stop-color="white"/>
<stop offset="1" stop-color="#8BEED6"/>
</linearGradient>
<linearGradient id="paint4_linear" x1="83.1269" y1="90.9047" x2="90.2548" y2="115.224" gradientUnits="userSpaceOnUse">
<stop stop-color="white"/>
<stop offset="1" stop-color="#8BEED6"/>
</linearGradient>
</defs>
</svg>
