<svg width="125" height="125" viewBox="0 0 125 125" fill="none" xmlns="http://www.w3.org/2000/svg">
<g filter="url(#filter0_ii)">
<rect x="0.126953" y="0.408936" width="124" height="124" rx="27.1337" fill="url(#paint0_linear)"/>
<rect x="0.126953" y="0.408936" width="124" height="124" rx="27.1337" fill="url(#paint1_linear)" fill-opacity="0.2" style="mix-blend-mode:soft-light"/>
</g>
<mask id="mask0" mask-type="alpha" maskUnits="userSpaceOnUse" x="0" y="0" width="125" height="125">
<rect x="0.126953" y="0.408936" width="124" height="124" rx="27.1337" fill="url(#paint2_linear)"/>
<rect x="0.126953" y="0.408936" width="124" height="124" rx="27.1337" fill="url(#paint3_linear)" fill-opacity="0.2"/>
</mask>
<g mask="url(#mask0)">
<g filter="url(#filter1_di)">
<path d="M67.919 19.2939L97.0717 125.937L72.3914 132.684L48.6527 45.8458L27.3241 51.6764L21.91 31.8712L67.919 19.2939Z" fill="white"/>
<path d="M67.919 19.2939L97.0717 125.937L72.3914 132.684L48.6527 45.8458L27.3241 51.6764L21.91 31.8712L67.919 19.2939Z" fill="url(#paint4_linear)"/>
</g>
<g filter="url(#filter2_di)">
<path d="M31.1985 114.403L28.9848 115.042L30.9106 121.717L24.3386 123.613L18.9303 104.866L25.5023 102.97L27.498 109.888L29.8501 109.209L32.4548 100.964L39.4073 98.9585L35.7064 109.768L45.2307 117.586L37.4826 119.821L31.1985 114.403ZM61.0946 92.7021L66.5029 111.45L59.9309 113.345L56.0293 99.821L51.2906 101.188L51.9804 104.099C52.5933 106.57 52.9333 108.657 53.0003 110.362C53.0673 112.066 52.7808 113.497 52.141 114.656C51.4944 115.792 50.3871 116.586 48.8191 117.038C48.012 117.271 46.908 117.427 45.5071 117.507L44.2372 112.065C44.6655 111.992 44.9489 111.935 45.0873 111.895C45.8021 111.689 46.2775 111.302 46.5134 110.734C46.7493 110.167 46.8267 109.482 46.7455 108.681C46.6577 107.858 46.4506 106.793 46.1242 105.489L44.1457 97.5916L61.0946 92.7021ZM73.0657 88.9114C76.1787 88.0134 78.7601 88.043 80.8098 89.0004C82.8528 89.9347 84.2967 91.8662 85.1416 94.7948L88.1451 105.206L82.0228 106.972L81.3243 104.551C80.9044 106.646 79.3224 108.089 76.5783 108.88C75.1255 109.299 73.7956 109.408 72.5885 109.207C71.3814 109.006 70.3781 108.558 69.5785 107.865C68.7953 107.141 68.2441 106.226 67.9248 105.119C67.4126 103.344 67.697 101.776 68.7781 100.415C69.8526 99.0305 71.808 97.9294 74.6443 97.1111L78.38 96.0335C77.6926 94.0836 76.0806 93.4745 73.5441 94.2063C72.6447 94.4657 71.7771 94.8784 70.9412 95.4443C70.0987 95.9871 69.4277 96.6053 68.9284 97.2988L65.4274 93.4754C66.2656 92.4843 67.3693 91.5914 68.7387 90.7967C70.1245 89.9722 71.5668 89.3438 73.0657 88.9114ZM77.2141 104.201C77.9751 103.981 78.5906 103.604 79.0606 103.068C79.5307 102.533 79.7894 101.872 79.8368 101.084L79.3679 99.4578L76.5315 100.276C74.6176 100.828 73.8435 101.738 74.2094 103.007C74.3757 103.583 74.7278 103.981 75.2658 104.201C75.8037 104.42 76.4531 104.42 77.2141 104.201ZM101.597 101.663C99.5216 102.261 97.5456 102.382 95.6688 102.024C93.7921 101.666 92.1797 100.882 90.8316 99.6727C89.5065 98.4564 88.5745 96.9143 88.0357 95.0464C87.4969 93.1786 87.4676 91.3886 87.9478 89.6764C88.4444 87.9345 89.3949 86.4238 90.7994 85.1444C92.1971 83.842 93.9337 82.8914 96.009 82.2927C98.1305 81.6807 100.097 81.613 101.908 82.0897C103.712 82.5433 105.17 83.4841 106.282 84.912L101.945 88.973C100.606 87.5358 99.1184 87.0533 97.4812 87.5257C96.3051 87.8649 95.4382 88.5397 94.8804 89.5499C94.3456 90.5534 94.2777 91.747 94.6769 93.1306C95.0827 94.5372 95.7825 95.5343 96.7763 96.1219C97.7865 96.6797 98.8796 96.789 100.056 96.4497C101.693 95.9774 102.695 94.7765 103.063 92.847L108.896 93.9744C108.716 95.7748 107.986 97.3591 106.708 98.7272C105.422 100.072 103.718 101.051 101.597 101.663ZM122.337 95.6796C120.262 96.2783 118.286 96.3987 116.409 96.0409C114.532 95.6831 112.92 94.8993 111.572 93.6896C110.247 92.4732 109.315 90.9311 108.776 89.0632C108.237 87.1954 108.208 85.4054 108.688 83.6932C109.185 81.9513 110.135 80.4406 111.54 79.1612C112.937 77.8588 114.674 76.9082 116.749 76.3095C118.871 75.6975 120.837 75.6298 122.648 76.1065C124.452 76.5601 125.91 77.5009 127.022 78.9288L122.685 82.9898C121.347 81.5526 119.859 81.0702 118.221 81.5425C117.045 81.8817 116.178 82.5565 115.621 83.5667C115.086 84.5702 115.018 85.7638 115.417 87.1474C115.823 88.554 116.523 89.5511 117.516 90.1387C118.527 90.6965 119.62 90.8058 120.796 90.4665C122.433 89.9942 123.435 88.7933 123.803 86.8638L129.636 87.9912C129.456 89.7917 128.727 91.3759 127.448 92.744C126.162 94.089 124.459 95.0676 122.337 95.6796Z" fill="white"/>
<path d="M31.1985 114.403L28.9848 115.042L30.9106 121.717L24.3386 123.613L18.9303 104.866L25.5023 102.97L27.498 109.888L29.8501 109.209L32.4548 100.964L39.4073 98.9585L35.7064 109.768L45.2307 117.586L37.4826 119.821L31.1985 114.403ZM61.0946 92.7021L66.5029 111.45L59.9309 113.345L56.0293 99.821L51.2906 101.188L51.9804 104.099C52.5933 106.57 52.9333 108.657 53.0003 110.362C53.0673 112.066 52.7808 113.497 52.141 114.656C51.4944 115.792 50.3871 116.586 48.8191 117.038C48.012 117.271 46.908 117.427 45.5071 117.507L44.2372 112.065C44.6655 111.992 44.9489 111.935 45.0873 111.895C45.8021 111.689 46.2775 111.302 46.5134 110.734C46.7493 110.167 46.8267 109.482 46.7455 108.681C46.6577 107.858 46.4506 106.793 46.1242 105.489L44.1457 97.5916L61.0946 92.7021ZM73.0657 88.9114C76.1787 88.0134 78.7601 88.043 80.8098 89.0004C82.8528 89.9347 84.2967 91.8662 85.1416 94.7948L88.1451 105.206L82.0228 106.972L81.3243 104.551C80.9044 106.646 79.3224 108.089 76.5783 108.88C75.1255 109.299 73.7956 109.408 72.5885 109.207C71.3814 109.006 70.3781 108.558 69.5785 107.865C68.7953 107.141 68.2441 106.226 67.9248 105.119C67.4126 103.344 67.697 101.776 68.7781 100.415C69.8526 99.0305 71.808 97.9294 74.6443 97.1111L78.38 96.0335C77.6926 94.0836 76.0806 93.4745 73.5441 94.2063C72.6447 94.4657 71.7771 94.8784 70.9412 95.4443C70.0987 95.9871 69.4277 96.6053 68.9284 97.2988L65.4274 93.4754C66.2656 92.4843 67.3693 91.5914 68.7387 90.7967C70.1245 89.9722 71.5668 89.3438 73.0657 88.9114ZM77.2141 104.201C77.9751 103.981 78.5906 103.604 79.0606 103.068C79.5307 102.533 79.7894 101.872 79.8368 101.084L79.3679 99.4578L76.5315 100.276C74.6176 100.828 73.8435 101.738 74.2094 103.007C74.3757 103.583 74.7278 103.981 75.2658 104.201C75.8037 104.42 76.4531 104.42 77.2141 104.201ZM101.597 101.663C99.5216 102.261 97.5456 102.382 95.6688 102.024C93.7921 101.666 92.1797 100.882 90.8316 99.6727C89.5065 98.4564 88.5745 96.9143 88.0357 95.0464C87.4969 93.1786 87.4676 91.3886 87.9478 89.6764C88.4444 87.9345 89.3949 86.4238 90.7994 85.1444C92.1971 83.842 93.9337 82.8914 96.009 82.2927C98.1305 81.6807 100.097 81.613 101.908 82.0897C103.712 82.5433 105.17 83.4841 106.282 84.912L101.945 88.973C100.606 87.5358 99.1184 87.0533 97.4812 87.5257C96.3051 87.8649 95.4382 88.5397 94.8804 89.5499C94.3456 90.5534 94.2777 91.747 94.6769 93.1306C95.0827 94.5372 95.7825 95.5343 96.7763 96.1219C97.7865 96.6797 98.8796 96.789 100.056 96.4497C101.693 95.9774 102.695 94.7765 103.063 92.847L108.896 93.9744C108.716 95.7748 107.986 97.3591 106.708 98.7272C105.422 100.072 103.718 101.051 101.597 101.663ZM122.337 95.6796C120.262 96.2783 118.286 96.3987 116.409 96.0409C114.532 95.6831 112.92 94.8993 111.572 93.6896C110.247 92.4732 109.315 90.9311 108.776 89.0632C108.237 87.1954 108.208 85.4054 108.688 83.6932C109.185 81.9513 110.135 80.4406 111.54 79.1612C112.937 77.8588 114.674 76.9082 116.749 76.3095C118.871 75.6975 120.837 75.6298 122.648 76.1065C124.452 76.5601 125.91 77.5009 127.022 78.9288L122.685 82.9898C121.347 81.5526 119.859 81.0702 118.221 81.5425C117.045 81.8817 116.178 82.5565 115.621 83.5667C115.086 84.5702 115.018 85.7638 115.417 87.1474C115.823 88.554 116.523 89.5511 117.516 90.1387C118.527 90.6965 119.62 90.8058 120.796 90.4665C122.433 89.9942 123.435 88.7933 123.803 86.8638L129.636 87.9912C129.456 89.7917 128.727 91.3759 127.448 92.744C126.162 94.089 124.459 95.0676 122.337 95.6796Z" fill="url(#paint5_linear)"/>
</g>
</g>
<defs>
<filter id="filter0_ii" x="-0.847137" y="-0.565154" width="125.948" height="125.948" filterUnits="userSpaceOnUse" color-interpolation-filters="sRGB">
<feFlood flood-opacity="0" result="BackgroundImageFix"/>
<feBlend mode="normal" in="SourceGraphic" in2="BackgroundImageFix" result="shape"/>
<feColorMatrix in="SourceAlpha" type="matrix" values="0 0 0 0 0 0 0 0 0 0 0 0 0 0 0 0 0 0 127 0" result="hardAlpha"/>
<feOffset dx="0.97409" dy="0.97409"/>
<feGaussianBlur stdDeviation="0.487045"/>
<feComposite in2="hardAlpha" operator="arithmetic" k2="-1" k3="1"/>
<feColorMatrix type="matrix" values="0 0 0 0 1 0 0 0 0 1 0 0 0 0 1 0 0 0 0.2 0"/>
<feBlend mode="normal" in2="shape" result="effect1_innerShadow"/>
<feColorMatrix in="SourceAlpha" type="matrix" values="0 0 0 0 0 0 0 0 0 0 0 0 0 0 0 0 0 0 127 0" result="hardAlpha"/>
<feOffset dx="-0.97409" dy="-0.97409"/>
<feGaussianBlur stdDeviation="0.487045"/>
<feComposite in2="hardAlpha" operator="arithmetic" k2="-1" k3="1"/>
<feColorMatrix type="matrix" values="0 0 0 0 0 0 0 0 0 0 0 0 0 0 0 0 0 0 0.05 0"/>
<feBlend mode="normal" in2="effect1_innerShadow" result="effect2_innerShadow"/>
</filter>
<filter id="filter1_di" x="11.0232" y="14.3454" width="96.9352" height="135.164" filterUnits="userSpaceOnUse" color-interpolation-filters="sRGB">
<feFlood flood-opacity="0" result="BackgroundImageFix"/>
<feColorMatrix in="SourceAlpha" type="matrix" values="0 0 0 0 0 0 0 0 0 0 0 0 0 0 0 0 0 0 127 0"/>
<feOffset dy="5.93823"/>
<feGaussianBlur stdDeviation="5.44338"/>
<feColorMatrix type="matrix" values="0 0 0 0 0.95 0 0 0 0 0.685762 0 0 0 0 0 0 0 0 1 0"/>
<feBlend mode="normal" in2="BackgroundImageFix" result="effect1_dropShadow"/>
<feBlend mode="normal" in="SourceGraphic" in2="effect1_dropShadow" result="shape"/>
<feColorMatrix in="SourceAlpha" type="matrix" values="0 0 0 0 0 0 0 0 0 0 0 0 0 0 0 0 0 0 127 0" result="hardAlpha"/>
<feOffset dx="4.26858"/>
<feGaussianBlur stdDeviation="2.47426"/>
<feComposite in2="hardAlpha" operator="arithmetic" k2="-1" k3="1"/>
<feColorMatrix type="matrix" values="0 0 0 0 1 0 0 0 0 0.883987 0 0 0 0 0.583333 0 0 0 1 0"/>
<feBlend mode="normal" in2="shape" result="effect2_innerShadow"/>
</filter>
<filter id="filter2_di" x="8.04366" y="70.8449" width="132.479" height="69.5934" filterUnits="userSpaceOnUse" color-interpolation-filters="sRGB">
<feFlood flood-opacity="0" result="BackgroundImageFix"/>
<feColorMatrix in="SourceAlpha" type="matrix" values="0 0 0 0 0 0 0 0 0 0 0 0 0 0 0 0 0 0 127 0"/>
<feOffset dy="5.93823"/>
<feGaussianBlur stdDeviation="5.44338"/>
<feColorMatrix type="matrix" values="0 0 0 0 0.95 0 0 0 0 0.685762 0 0 0 0 0 0 0 0 1 0"/>
<feBlend mode="normal" in2="BackgroundImageFix" result="effect1_dropShadow"/>
<feBlend mode="normal" in="SourceGraphic" in2="effect1_dropShadow" result="shape"/>
<feColorMatrix in="SourceAlpha" type="matrix" values="0 0 0 0 0 0 0 0 0 0 0 0 0 0 0 0 0 0 127 0" result="hardAlpha"/>
<feOffset dx="0.27"/>
<feGaussianBlur stdDeviation="0.975"/>
<feComposite in2="hardAlpha" operator="arithmetic" k2="-1" k3="1"/>
<feColorMatrix type="matrix" values="0 0 0 0 1 0 0 0 0 0.883987 0 0 0 0 0.583333 0 0 0 1 0"/>
<feBlend mode="normal" in2="shape" result="effect2_innerShadow"/>
</filter>
<linearGradient id="paint0_linear" x1="62.127" y1="0.408936" x2="62.127" y2="124.409" gradientUnits="userSpaceOnUse">
<stop stop-color="#FADB7E"/>
<stop offset="1" stop-color="#FADB7E"/>
</linearGradient>
<linearGradient id="paint1_linear" x1="62.127" y1="0.408936" x2="62.127" y2="124.409" gradientUnits="userSpaceOnUse">
<stop offset="0.328125" stop-color="white"/>
<stop offset="1" stop-opacity="0.1"/>
</linearGradient>
<linearGradient id="paint2_linear" x1="62.127" y1="0.408936" x2="62.127" y2="124.409" gradientUnits="userSpaceOnUse">
<stop stop-color="#FADB7E"/>
<stop offset="1" stop-color="#FADB7E"/>
</linearGradient>
<linearGradient id="paint3_linear" x1="62.127" y1="0.408936" x2="62.127" y2="124.409" gradientUnits="userSpaceOnUse">
<stop offset="0.328125" stop-color="white"/>
<stop offset="1" stop-opacity="0.1"/>
</linearGradient>
<linearGradient id="paint4_linear" x1="50.9881" y1="24.4988" x2="79.3167" y2="128.128" gradientUnits="userSpaceOnUse">
<stop stop-color="white"/>
<stop offset="1" stop-color="#FFD568"/>
</linearGradient>
<linearGradient id="paint5_linear" x1="65.9379" y1="94.8774" x2="74.0392" y2="113.642" gradientUnits="userSpaceOnUse">
<stop stop-color="white"/>
<stop offset="1" stop-color="#FFD568"/>
</linearGradient>
</defs>
</svg>
