<svg width="125" height="125" viewBox="0 0 125 125" fill="none" xmlns="http://www.w3.org/2000/svg">
<g filter="url(#filter0_ii)">
<rect x="0.126953" y="0.40918" width="124" height="123.347" rx="27.1739" fill="url(#paint0_linear)"/>
<rect x="0.126953" y="0.40918" width="124" height="123.347" rx="27.1739" fill="url(#paint1_linear)" fill-opacity="0.2" style="mix-blend-mode:soft-light"/>
</g>
<mask id="mask0" mask-type="alpha" maskUnits="userSpaceOnUse" x="0" y="1" width="125" height="124">
<rect x="0.126953" y="1.06079" width="124" height="123.347" rx="27.7178" fill="url(#paint2_linear)"/>
<rect x="0.126953" y="1.06079" width="124" height="123.347" rx="27.7178" fill="url(#paint3_linear)" fill-opacity="0.2"/>
</mask>
<g mask="url(#mask0)">
<g filter="url(#filter1_di)">
<path d="M94.0847 14.3564L98.5412 28.9529L87.691 122.832L63.2516 130.39L73.998 40.6508L41.7825 50.6138L46.6209 66.4614L26.6251 72.6453L16.1842 38.4478L94.0847 14.3564Z" fill="white"/>
<path d="M94.0847 14.3564L98.5412 28.9529L87.691 122.832L63.2516 130.39L73.998 40.6508L41.7825 50.6138L46.6209 66.4614L26.6251 72.6453L16.1842 38.4478L94.0847 14.3564Z" fill="url(#paint4_linear)"/>
</g>
<g filter="url(#filter2_di)">
<path d="M32.527 116.644L30.3299 117.338L32.3982 123.971L25.8758 126.031L20.0675 107.404L26.5899 105.344L28.7332 112.218L31.0675 111.48L33.4899 103.165L40.3899 100.985L36.9284 111.894L46.6102 119.483L38.9206 121.911L32.527 116.644ZM61.9136 94.1872L67.7219 112.815L61.1995 114.875L57.0094 101.437L52.3064 102.922L53.0585 105.818C53.7243 108.276 54.1091 110.356 54.213 112.06C54.3169 113.764 54.0619 115.204 53.448 116.379C52.827 117.532 51.7383 118.354 50.1821 118.845C49.3811 119.098 48.2819 119.282 46.8846 119.396L45.4981 113.982C45.9244 113.898 46.2061 113.834 46.3434 113.791C47.0529 113.567 47.5193 113.168 47.7426 112.594C47.9658 112.02 48.0283 111.333 47.9298 110.534C47.8242 109.711 47.5943 108.651 47.2399 107.354L45.0926 99.5L61.9136 94.1872ZM73.787 90.0972C76.8766 89.1214 79.4553 89.0872 81.5231 89.9945C83.5838 90.8789 85.0678 92.7761 85.9751 95.6859L89.2008 106.031L83.1247 107.95L82.3745 105.544C82.0006 107.65 80.452 109.134 77.7286 109.994C76.2868 110.449 74.9609 110.591 73.751 110.42C72.5411 110.248 71.5293 109.825 70.7157 109.151C69.9179 108.446 69.3475 107.544 69.0046 106.445C68.4545 104.68 68.7045 103.104 69.7547 101.715C70.7977 100.303 72.7267 99.153 75.5416 98.2639L79.2491 97.093C78.5203 95.1587 76.8971 94.5891 74.3797 95.3842C73.4872 95.6661 72.6296 96.1005 71.8071 96.6875C70.9774 97.2516 70.3207 97.8869 69.8371 98.5933L66.2577 94.8538C67.0732 93.8411 68.1561 92.9202 69.5065 92.091C70.8726 91.2317 72.2995 90.5671 73.787 90.0972ZM78.262 105.295C79.0172 105.057 79.6237 104.664 80.0816 104.116C80.5394 103.569 80.7835 102.9 80.8137 102.111L80.3101 100.495L77.4951 101.384C75.5956 101.984 74.8423 102.914 75.2353 104.175C75.4139 104.747 75.7742 105.137 76.3162 105.343C76.8582 105.55 77.5068 105.534 78.262 105.295ZM102.558 102.151C100.499 102.802 98.5279 102.971 96.6458 102.66C94.7637 102.348 93.1364 101.604 91.7637 100.427C90.4139 99.2421 89.4497 97.7219 88.871 95.8661C88.2923 94.0102 88.2242 92.2196 88.6666 90.4942C89.1248 88.7387 90.0413 87.2034 91.4162 85.8883C92.7838 84.5503 94.4975 83.556 96.5572 82.9054C98.6627 82.2404 100.625 82.124 102.444 82.5562C104.256 82.9655 105.733 83.8708 106.873 85.2723L102.631 89.4437C101.263 88.0386 99.766 87.5926 98.1411 88.1058C96.9739 88.4745 96.1228 89.1712 95.5876 90.1959C95.0752 91.2135 95.0334 92.4096 95.4621 93.7843C95.8979 95.182 96.6184 96.1625 97.6237 96.7258C98.6447 97.2591 99.7388 97.3414 100.906 96.9728C102.531 96.4595 103.506 95.2329 103.831 93.2929L109.681 94.2767C109.54 96.0829 108.846 97.6864 107.599 99.0872C106.344 100.465 104.664 101.486 102.558 102.151ZM123.142 95.6503C121.082 96.3008 119.112 96.4703 117.229 96.1586C115.347 95.847 113.72 95.1026 112.347 93.9253C110.998 92.7409 110.033 91.2207 109.455 89.3648C108.876 87.509 108.808 85.7184 109.25 83.993C109.708 82.2375 110.625 80.7022 112 79.3871C113.367 78.049 115.081 77.0547 117.141 76.4042C119.246 75.7392 121.209 75.6228 123.028 76.055C124.84 76.4642 126.316 77.3696 127.457 78.771L123.215 82.9425C121.846 81.5373 120.35 81.0914 118.725 81.6046C117.558 81.9732 116.706 82.6699 116.171 83.6947C115.659 84.7123 115.617 85.9084 116.046 87.2831C116.482 88.6807 117.202 89.6612 118.207 90.2246C119.228 90.7579 120.322 90.8402 121.49 90.4715C123.114 89.9583 124.09 88.7317 124.415 86.7917L130.265 87.7754C130.124 89.5817 129.43 91.1852 128.182 92.586C126.928 93.9638 125.248 94.9852 123.142 95.6503Z" fill="white"/>
<path d="M32.527 116.644L30.3299 117.338L32.3982 123.971L25.8758 126.031L20.0675 107.404L26.5899 105.344L28.7332 112.218L31.0675 111.48L33.4899 103.165L40.3899 100.985L36.9284 111.894L46.6102 119.483L38.9206 121.911L32.527 116.644ZM61.9136 94.1872L67.7219 112.815L61.1995 114.875L57.0094 101.437L52.3064 102.922L53.0585 105.818C53.7243 108.276 54.1091 110.356 54.213 112.06C54.3169 113.764 54.0619 115.204 53.448 116.379C52.827 117.532 51.7383 118.354 50.1821 118.845C49.3811 119.098 48.2819 119.282 46.8846 119.396L45.4981 113.982C45.9244 113.898 46.2061 113.834 46.3434 113.791C47.0529 113.567 47.5193 113.168 47.7426 112.594C47.9658 112.02 48.0283 111.333 47.9298 110.534C47.8242 109.711 47.5943 108.651 47.2399 107.354L45.0926 99.5L61.9136 94.1872ZM73.787 90.0972C76.8766 89.1214 79.4553 89.0872 81.5231 89.9945C83.5838 90.8789 85.0678 92.7761 85.9751 95.6859L89.2008 106.031L83.1247 107.95L82.3745 105.544C82.0006 107.65 80.452 109.134 77.7286 109.994C76.2868 110.449 74.9609 110.591 73.751 110.42C72.5411 110.248 71.5293 109.825 70.7157 109.151C69.9179 108.446 69.3475 107.544 69.0046 106.445C68.4545 104.68 68.7045 103.104 69.7547 101.715C70.7977 100.303 72.7267 99.153 75.5416 98.2639L79.2491 97.093C78.5203 95.1587 76.8971 94.5891 74.3797 95.3842C73.4872 95.6661 72.6296 96.1005 71.8071 96.6875C70.9774 97.2516 70.3207 97.8869 69.8371 98.5933L66.2577 94.8538C67.0732 93.8411 68.1561 92.9202 69.5065 92.091C70.8726 91.2317 72.2995 90.5671 73.787 90.0972ZM78.262 105.295C79.0172 105.057 79.6237 104.664 80.0816 104.116C80.5394 103.569 80.7835 102.9 80.8137 102.111L80.3101 100.495L77.4951 101.384C75.5956 101.984 74.8423 102.914 75.2353 104.175C75.4139 104.747 75.7742 105.137 76.3162 105.343C76.8582 105.55 77.5068 105.534 78.262 105.295ZM102.558 102.151C100.499 102.802 98.5279 102.971 96.6458 102.66C94.7637 102.348 93.1364 101.604 91.7637 100.427C90.4139 99.2421 89.4497 97.7219 88.871 95.8661C88.2923 94.0102 88.2242 92.2196 88.6666 90.4942C89.1248 88.7387 90.0413 87.2034 91.4162 85.8883C92.7838 84.5503 94.4975 83.556 96.5572 82.9054C98.6627 82.2404 100.625 82.124 102.444 82.5562C104.256 82.9655 105.733 83.8708 106.873 85.2723L102.631 89.4437C101.263 88.0386 99.766 87.5926 98.1411 88.1058C96.9739 88.4745 96.1228 89.1712 95.5876 90.1959C95.0752 91.2135 95.0334 92.4096 95.4621 93.7843C95.8979 95.182 96.6184 96.1625 97.6237 96.7258C98.6447 97.2591 99.7388 97.3414 100.906 96.9728C102.531 96.4595 103.506 95.2329 103.831 93.2929L109.681 94.2767C109.54 96.0829 108.846 97.6864 107.599 99.0872C106.344 100.465 104.664 101.486 102.558 102.151ZM123.142 95.6503C121.082 96.3008 119.112 96.4703 117.229 96.1586C115.347 95.847 113.72 95.1026 112.347 93.9253C110.998 92.7409 110.033 91.2207 109.455 89.3648C108.876 87.509 108.808 85.7184 109.25 83.993C109.708 82.2375 110.625 80.7022 112 79.3871C113.367 78.049 115.081 77.0547 117.141 76.4042C119.246 75.7392 121.209 75.6228 123.028 76.055C124.84 76.4642 126.316 77.3696 127.457 78.771L123.215 82.9425C121.846 81.5373 120.35 81.0914 118.725 81.6046C117.558 81.9732 116.706 82.6699 116.171 83.6947C115.659 84.7123 115.617 85.9084 116.046 87.2831C116.482 88.6807 117.202 89.6612 118.207 90.2246C119.228 90.7579 120.322 90.8402 121.49 90.4715C123.114 89.9583 124.09 88.7317 124.415 86.7917L130.265 87.7754C130.124 89.5817 129.43 91.1852 128.182 92.586C126.928 93.9638 125.248 94.9852 123.142 95.6503Z" fill="url(#paint5_linear)"/>
</g>
</g>
<defs>
<filter id="filter0_ii" x="-0.84858" y="-0.566353" width="125.951" height="125.298" filterUnits="userSpaceOnUse" color-interpolation-filters="sRGB">
<feFlood flood-opacity="0" result="BackgroundImageFix"/>
<feBlend mode="normal" in="SourceGraphic" in2="BackgroundImageFix" result="shape"/>
<feColorMatrix in="SourceAlpha" type="matrix" values="0 0 0 0 0 0 0 0 0 0 0 0 0 0 0 0 0 0 127 0" result="hardAlpha"/>
<feOffset dx="0.975533" dy="0.975533"/>
<feGaussianBlur stdDeviation="0.487767"/>
<feComposite in2="hardAlpha" operator="arithmetic" k2="-1" k3="1"/>
<feColorMatrix type="matrix" values="0 0 0 0 1 0 0 0 0 1 0 0 0 0 1 0 0 0 0.2 0"/>
<feBlend mode="normal" in2="shape" result="effect1_innerShadow"/>
<feColorMatrix in="SourceAlpha" type="matrix" values="0 0 0 0 0 0 0 0 0 0 0 0 0 0 0 0 0 0 127 0" result="hardAlpha"/>
<feOffset dx="-0.975533" dy="-0.975533"/>
<feGaussianBlur stdDeviation="0.487767"/>
<feComposite in2="hardAlpha" operator="arithmetic" k2="-1" k3="1"/>
<feColorMatrix type="matrix" values="0 0 0 0 0 0 0 0 0 0 0 0 0 0 0 0 0 0 0.05 0"/>
<feBlend mode="normal" in2="effect1_innerShadow" result="effect2_innerShadow"/>
</filter>
<filter id="filter1_di" x="7.48134" y="10.4007" width="99.7625" height="133.439" filterUnits="userSpaceOnUse" color-interpolation-filters="sRGB">
<feFlood flood-opacity="0" result="BackgroundImageFix"/>
<feColorMatrix in="SourceAlpha" type="matrix" values="0 0 0 0 0 0 0 0 0 0 0 0 0 0 0 0 0 0 127 0"/>
<feOffset dy="4.74695"/>
<feGaussianBlur stdDeviation="4.35137"/>
<feColorMatrix type="matrix" values="0 0 0 0 0.904167 0 0 0 0 0.478455 0 0 0 0 0.478455 0 0 0 1 0"/>
<feBlend mode="normal" in2="BackgroundImageFix" result="effect1_dropShadow"/>
<feBlend mode="normal" in="SourceGraphic" in2="effect1_dropShadow" result="shape"/>
<feColorMatrix in="SourceAlpha" type="matrix" values="0 0 0 0 0 0 0 0 0 0 0 0 0 0 0 0 0 0 127 0" result="hardAlpha"/>
<feOffset dx="3.41225"/>
<feGaussianBlur stdDeviation="1.9779"/>
<feComposite in2="hardAlpha" operator="arithmetic" k2="-1" k3="1"/>
<feColorMatrix type="matrix" values="0 0 0 0 0.992157 0 0 0 0 0.811765 0 0 0 0 0.811765 0 0 0 1 0"/>
<feBlend mode="normal" in2="shape" result="effect2_innerShadow"/>
</filter>
<filter id="filter2_di" x="11.3646" y="71.8438" width="127.603" height="67.6373" filterUnits="userSpaceOnUse" color-interpolation-filters="sRGB">
<feFlood flood-opacity="0" result="BackgroundImageFix"/>
<feColorMatrix in="SourceAlpha" type="matrix" values="0 0 0 0 0 0 0 0 0 0 0 0 0 0 0 0 0 0 127 0"/>
<feOffset dy="4.74695"/>
<feGaussianBlur stdDeviation="4.35137"/>
<feColorMatrix type="matrix" values="0 0 0 0 0.8375 0 0 0 0 0.467604 0 0 0 0 0.467604 0 0 0 1 0"/>
<feBlend mode="normal" in2="BackgroundImageFix" result="effect1_dropShadow"/>
<feBlend mode="normal" in="SourceGraphic" in2="effect1_dropShadow" result="shape"/>
<feColorMatrix in="SourceAlpha" type="matrix" values="0 0 0 0 0 0 0 0 0 0 0 0 0 0 0 0 0 0 127 0" result="hardAlpha"/>
<feOffset dx="-0.59"/>
<feGaussianBlur stdDeviation="1.9779"/>
<feComposite in2="hardAlpha" operator="arithmetic" k2="-1" k3="1"/>
<feColorMatrix type="matrix" values="0 0 0 0 0.996078 0 0 0 0 0.870588 0 0 0 0 0.870588 0 0 0 1 0"/>
<feBlend mode="normal" in2="shape" result="effect2_innerShadow"/>
</filter>
<linearGradient id="paint0_linear" x1="62.127" y1="0.40918" x2="62.127" y2="123.756" gradientUnits="userSpaceOnUse">
<stop stop-color="#FC9B9B"/>
<stop offset="1" stop-color="#FC9B9B"/>
</linearGradient>
<linearGradient id="paint1_linear" x1="62.127" y1="0.40918" x2="62.127" y2="123.756" gradientUnits="userSpaceOnUse">
<stop offset="0.328125" stop-color="white"/>
<stop offset="1" stop-opacity="0.1"/>
</linearGradient>
<linearGradient id="paint2_linear" x1="62.127" y1="1.06079" x2="62.127" y2="124.408" gradientUnits="userSpaceOnUse">
<stop stop-color="#FADB7E"/>
<stop offset="1" stop-color="#FADB7E"/>
</linearGradient>
<linearGradient id="paint3_linear" x1="62.127" y1="1.06079" x2="62.127" y2="124.408" gradientUnits="userSpaceOnUse">
<stop offset="0.328125" stop-color="white"/>
<stop offset="1" stop-opacity="0.1"/>
</linearGradient>
<linearGradient id="paint4_linear" x1="51.6977" y1="21.9636" x2="84.2641" y2="127.268" gradientUnits="userSpaceOnUse">
<stop stop-color="white"/>
<stop offset="1" stop-color="#FC9B9B"/>
</linearGradient>
<linearGradient id="paint5_linear" x1="75.3138" y1="87.2684" x2="86.2301" y2="113.009" gradientUnits="userSpaceOnUse">
<stop stop-color="white"/>
<stop offset="1" stop-color="#FDA7A7"/>
</linearGradient>
</defs>
</svg>
