<svg width="125" height="125" viewBox="0 0 125 125" fill="none" xmlns="http://www.w3.org/2000/svg">
<g filter="url(#filter0_ii)">
<rect x="0.126953" y="0.40918" width="124" height="123.008" rx="27.1739" fill="url(#paint0_linear)"/>
<rect x="0.126953" y="0.40918" width="124" height="123.008" rx="27.1739" fill="#F289BC"/>
</g>
<mask id="mask0" mask-type="alpha" maskUnits="userSpaceOnUse" x="0" y="1" width="125" height="124">
<rect x="0.126953" y="1.40112" width="124" height="123.008" rx="27.7178" fill="url(#paint1_linear)"/>
<rect x="0.126953" y="1.40112" width="124" height="123.008" rx="27.7178" fill="url(#paint2_linear)" fill-opacity="0.2"/>
</mask>
<g mask="url(#mask0)">
<g filter="url(#filter1_di)">
<path d="M64.2332 58.4091C70.4957 56.6972 76.5423 56.4004 82.373 57.5187C88.2037 58.6371 93.2534 61.1242 97.522 64.98C101.765 68.7424 104.717 73.6613 106.378 79.7369C108.166 86.2797 108.102 92.4753 106.185 98.3235C104.268 104.172 100.829 109.23 95.8681 113.5C90.9754 117.65 85.0706 120.67 78.1539 122.561C64.4138 126.317 52.515 125.05 42.4574 118.758C32.3998 112.467 25.2374 101.516 20.9703 85.9067C17.9297 74.7838 17.4265 64.675 19.4607 55.5802C21.495 46.4855 25.6888 38.8597 32.0421 32.7029C38.4889 26.5206 46.6661 22.0752 56.5739 19.3668C61.8082 17.9359 66.975 17.1764 72.0741 17.0884C77.2411 16.8814 81.8009 17.3928 85.7535 18.6228L81.9022 37.6067C76.1475 35.664 69.5781 35.7019 62.194 37.7204C53.8752 39.9945 47.9499 44.2261 44.4181 50.4152C40.8864 56.6043 40.1984 64.3767 42.3541 73.7324C46.565 66.3531 53.8581 61.2453 64.2332 58.4091ZM72.2544 105.941C77.1149 104.613 80.6829 102.231 82.9585 98.7962C85.3275 95.3359 85.8988 91.3624 84.6723 86.8759C83.4459 82.3893 80.9327 79.2591 77.1327 77.4851C73.4007 75.5921 69.011 75.3355 63.9636 76.7153C59.0097 78.0696 55.3271 80.5831 52.9157 84.2559C50.4787 87.8353 49.8479 91.7748 51.0233 96.0744C52.1986 100.374 54.6991 103.458 58.5245 105.325C62.35 107.192 66.9267 107.398 72.2544 105.941Z" fill="white"/>
<path d="M64.2332 58.4091C70.4957 56.6972 76.5423 56.4004 82.373 57.5187C88.2037 58.6371 93.2534 61.1242 97.522 64.98C101.765 68.7424 104.717 73.6613 106.378 79.7369C108.166 86.2797 108.102 92.4753 106.185 98.3235C104.268 104.172 100.829 109.23 95.8681 113.5C90.9754 117.65 85.0706 120.67 78.1539 122.561C64.4138 126.317 52.515 125.05 42.4574 118.758C32.3998 112.467 25.2374 101.516 20.9703 85.9067C17.9297 74.7838 17.4265 64.675 19.4607 55.5802C21.495 46.4855 25.6888 38.8597 32.0421 32.7029C38.4889 26.5206 46.6661 22.0752 56.5739 19.3668C61.8082 17.9359 66.975 17.1764 72.0741 17.0884C77.2411 16.8814 81.8009 17.3928 85.7535 18.6228L81.9022 37.6067C76.1475 35.664 69.5781 35.7019 62.194 37.7204C53.8752 39.9945 47.9499 44.2261 44.4181 50.4152C40.8864 56.6043 40.1984 64.3767 42.3541 73.7324C46.565 66.3531 53.8581 61.2453 64.2332 58.4091ZM72.2544 105.941C77.1149 104.613 80.6829 102.231 82.9585 98.7962C85.3275 95.3359 85.8988 91.3624 84.6723 86.8759C83.4459 82.3893 80.9327 79.2591 77.1327 77.4851C73.4007 75.5921 69.011 75.3355 63.9636 76.7153C59.0097 78.0696 55.3271 80.5831 52.9157 84.2559C50.4787 87.8353 49.8479 91.7748 51.0233 96.0744C52.1986 100.374 54.6991 103.458 58.5245 105.325C62.35 107.192 66.9267 107.398 72.2544 105.941Z" fill="url(#paint3_linear)"/>
</g>
<g filter="url(#filter2_di)">
<path d="M36.9765 116.964L34.7628 117.602L36.6886 124.278L30.1166 126.174L24.7083 107.427L31.2803 105.531L33.276 112.449L35.628 111.77L38.2328 103.525L45.1852 101.519L41.4844 112.329L51.0086 120.147L43.2606 122.382L36.9765 116.964ZM66.8725 95.2629L72.2809 114.01L65.7089 115.906L61.8073 102.382L57.0685 103.749L57.7584 106.66C58.3713 109.131 58.7113 111.218 58.7782 112.922C58.8452 114.627 58.5588 116.058 57.9189 117.217C57.2724 118.353 56.1651 119.147 54.597 119.599C53.7899 119.832 52.686 119.988 51.2851 120.067L50.0151 114.626C50.4435 114.552 50.7269 114.496 50.8652 114.456C51.5801 114.25 52.0555 113.863 52.2914 113.295C52.5273 112.727 52.6046 112.043 52.5235 111.242C52.4357 110.418 52.2285 109.354 51.9021 108.049L49.9237 100.152L66.8725 95.2629ZM78.8437 91.4722C81.9567 90.5741 84.5381 90.6038 86.5877 91.5612C88.6308 92.4955 90.0747 94.427 90.9195 97.3555L93.9231 107.767L87.8007 109.533L87.1022 107.112C86.6823 109.206 85.1003 110.649 82.3562 111.441C80.9035 111.86 79.5735 111.969 78.3664 111.768C77.1593 111.566 76.156 111.119 75.3565 110.425C74.5733 109.702 74.0221 108.787 73.7027 107.68C73.1905 105.905 73.475 104.336 74.5561 102.975C75.6306 101.591 77.586 100.49 80.4223 99.6719L84.158 98.5942C83.4706 96.6444 81.8586 96.0353 79.322 96.7671C78.4227 97.0265 77.5551 97.4392 76.7192 98.005C75.8766 98.5479 75.2057 99.166 74.7064 99.8596L71.2054 96.0362C72.0435 95.0451 73.1473 94.1521 74.5167 93.3574C75.9024 92.533 77.3448 91.9046 78.8437 91.4722ZM82.992 106.761C83.753 106.542 84.3685 106.164 84.8386 105.629C85.3086 105.094 85.5674 104.432 85.6148 103.644L85.1458 102.019L82.3095 102.837C80.3955 103.389 79.6215 104.299 79.9874 105.567C80.1537 106.144 80.5058 106.542 81.0437 106.761C81.5816 106.981 82.2311 106.981 82.992 106.761ZM107.375 104.224C105.3 104.822 103.324 104.943 101.447 104.585C99.5701 104.227 97.9577 103.443 96.6095 102.234C95.2845 101.017 94.3525 99.475 93.8137 97.6072C93.2748 95.7394 93.2455 93.9494 93.7258 92.2372C94.2224 90.4952 95.1729 88.9846 96.5773 87.7052C97.9751 86.4027 99.7116 85.4521 101.787 84.8534C103.908 84.2414 105.875 84.1738 107.686 84.6504C109.49 85.1041 110.948 86.0448 112.06 87.4727L107.723 91.5338C106.384 90.0966 104.896 89.6141 103.259 90.0864C102.083 90.4257 101.216 91.1004 100.658 92.1106C100.124 93.1142 100.056 94.3078 100.455 95.6913C100.861 97.098 101.56 98.0951 102.554 98.6826C103.564 99.2405 104.658 99.3498 105.834 99.0105C107.471 98.5382 108.473 97.3373 108.841 95.4078L114.674 96.5352C114.494 98.3356 113.764 99.9199 112.485 101.288C111.2 102.633 109.496 103.612 107.375 104.224ZM128.115 98.2403C126.04 98.839 124.064 98.9595 122.187 98.6017C120.31 98.2438 118.698 97.46 117.35 96.2503C116.025 95.0339 115.093 93.4918 114.554 91.624C114.015 89.7562 113.986 87.9662 114.466 86.254C114.963 84.5121 115.913 83.0014 117.317 81.722C118.715 80.4195 120.452 79.469 122.527 78.8702C124.649 78.2582 126.615 78.1906 128.426 78.6672C130.23 79.1209 131.688 80.0616 132.8 81.4895L128.463 85.5506C127.125 84.1134 125.637 83.6309 123.999 84.1032C122.823 84.4425 121.956 85.1172 121.398 86.1274C120.864 87.131 120.796 88.3246 121.195 89.7081C121.601 91.1148 122.301 92.1119 123.294 92.6994C124.305 93.2573 125.398 93.3666 126.574 93.0273C128.211 92.555 129.213 91.3541 129.581 89.4246L135.414 90.552C135.234 92.3524 134.505 93.9367 133.226 95.3048C131.94 96.6498 130.237 97.6283 128.115 98.2403Z" fill="white"/>
<path d="M36.9765 116.964L34.7628 117.602L36.6886 124.278L30.1166 126.174L24.7083 107.427L31.2803 105.531L33.276 112.449L35.628 111.77L38.2328 103.525L45.1852 101.519L41.4844 112.329L51.0086 120.147L43.2606 122.382L36.9765 116.964ZM66.8725 95.2629L72.2809 114.01L65.7089 115.906L61.8073 102.382L57.0685 103.749L57.7584 106.66C58.3713 109.131 58.7113 111.218 58.7782 112.922C58.8452 114.627 58.5588 116.058 57.9189 117.217C57.2724 118.353 56.1651 119.147 54.597 119.599C53.7899 119.832 52.686 119.988 51.2851 120.067L50.0151 114.626C50.4435 114.552 50.7269 114.496 50.8652 114.456C51.5801 114.25 52.0555 113.863 52.2914 113.295C52.5273 112.727 52.6046 112.043 52.5235 111.242C52.4357 110.418 52.2285 109.354 51.9021 108.049L49.9237 100.152L66.8725 95.2629ZM78.8437 91.4722C81.9567 90.5741 84.5381 90.6038 86.5877 91.5612C88.6308 92.4955 90.0747 94.427 90.9195 97.3555L93.9231 107.767L87.8007 109.533L87.1022 107.112C86.6823 109.206 85.1003 110.649 82.3562 111.441C80.9035 111.86 79.5735 111.969 78.3664 111.768C77.1593 111.566 76.156 111.119 75.3565 110.425C74.5733 109.702 74.0221 108.787 73.7027 107.68C73.1905 105.905 73.475 104.336 74.5561 102.975C75.6306 101.591 77.586 100.49 80.4223 99.6719L84.158 98.5942C83.4706 96.6444 81.8586 96.0353 79.322 96.7671C78.4227 97.0265 77.5551 97.4392 76.7192 98.005C75.8766 98.5479 75.2057 99.166 74.7064 99.8596L71.2054 96.0362C72.0435 95.0451 73.1473 94.1521 74.5167 93.3574C75.9024 92.533 77.3448 91.9046 78.8437 91.4722ZM82.992 106.761C83.753 106.542 84.3685 106.164 84.8386 105.629C85.3086 105.094 85.5674 104.432 85.6148 103.644L85.1458 102.019L82.3095 102.837C80.3955 103.389 79.6215 104.299 79.9874 105.567C80.1537 106.144 80.5058 106.542 81.0437 106.761C81.5816 106.981 82.2311 106.981 82.992 106.761ZM107.375 104.224C105.3 104.822 103.324 104.943 101.447 104.585C99.5701 104.227 97.9577 103.443 96.6095 102.234C95.2845 101.017 94.3525 99.475 93.8137 97.6072C93.2748 95.7394 93.2455 93.9494 93.7258 92.2372C94.2224 90.4952 95.1729 88.9846 96.5773 87.7052C97.9751 86.4027 99.7116 85.4521 101.787 84.8534C103.908 84.2414 105.875 84.1738 107.686 84.6504C109.49 85.1041 110.948 86.0448 112.06 87.4727L107.723 91.5338C106.384 90.0966 104.896 89.6141 103.259 90.0864C102.083 90.4257 101.216 91.1004 100.658 92.1106C100.124 93.1142 100.056 94.3078 100.455 95.6913C100.861 97.098 101.56 98.0951 102.554 98.6826C103.564 99.2405 104.658 99.3498 105.834 99.0105C107.471 98.5382 108.473 97.3373 108.841 95.4078L114.674 96.5352C114.494 98.3356 113.764 99.9199 112.485 101.288C111.2 102.633 109.496 103.612 107.375 104.224ZM128.115 98.2403C126.04 98.839 124.064 98.9595 122.187 98.6017C120.31 98.2438 118.698 97.46 117.35 96.2503C116.025 95.0339 115.093 93.4918 114.554 91.624C114.015 89.7562 113.986 87.9662 114.466 86.254C114.963 84.5121 115.913 83.0014 117.317 81.722C118.715 80.4195 120.452 79.469 122.527 78.8702C124.649 78.2582 126.615 78.1906 128.426 78.6672C130.23 79.1209 131.688 80.0616 132.8 81.4895L128.463 85.5506C127.125 84.1134 125.637 83.6309 123.999 84.1032C122.823 84.4425 121.956 85.1172 121.398 86.1274C120.864 87.131 120.796 88.3246 121.195 89.7081C121.601 91.1148 122.301 92.1119 123.294 92.6994C124.305 93.2573 125.398 93.3666 126.574 93.0273C128.211 92.555 129.213 91.3541 129.581 89.4246L135.414 90.552C135.234 92.3524 134.505 93.9367 133.226 95.3048C131.94 96.6498 130.237 97.6283 128.115 98.2403Z" fill="url(#paint4_linear)"/>
</g>
</g>
<defs>
<filter id="filter0_ii" x="-0.84858" y="-0.566353" width="125.951" height="124.959" filterUnits="userSpaceOnUse" color-interpolation-filters="sRGB">
<feFlood flood-opacity="0" result="BackgroundImageFix"/>
<feBlend mode="normal" in="SourceGraphic" in2="BackgroundImageFix" result="shape"/>
<feColorMatrix in="SourceAlpha" type="matrix" values="0 0 0 0 0 0 0 0 0 0 0 0 0 0 0 0 0 0 127 0" result="hardAlpha"/>
<feOffset dx="0.975533" dy="0.975533"/>
<feGaussianBlur stdDeviation="0.487767"/>
<feComposite in2="hardAlpha" operator="arithmetic" k2="-1" k3="1"/>
<feColorMatrix type="matrix" values="0 0 0 0 1 0 0 0 0 1 0 0 0 0 1 0 0 0 0.2 0"/>
<feBlend mode="normal" in2="shape" result="effect1_innerShadow"/>
<feColorMatrix in="SourceAlpha" type="matrix" values="0 0 0 0 0 0 0 0 0 0 0 0 0 0 0 0 0 0 127 0" result="hardAlpha"/>
<feOffset dx="-0.975533" dy="-0.975533"/>
<feGaussianBlur stdDeviation="0.487767"/>
<feComposite in2="hardAlpha" operator="arithmetic" k2="-1" k3="1"/>
<feColorMatrix type="matrix" values="0 0 0 0 0 0 0 0 0 0 0 0 0 0 0 0 0 0 0.05 0"/>
<feBlend mode="normal" in2="effect1_innerShadow" result="effect2_innerShadow"/>
</filter>
<filter id="filter1_di" x="11.0207" y="13.7633" width="103.869" height="122.057" filterUnits="userSpaceOnUse" color-interpolation-filters="sRGB">
<feFlood flood-opacity="0" result="BackgroundImageFix"/>
<feColorMatrix in="SourceAlpha" type="matrix" values="0 0 0 0 0 0 0 0 0 0 0 0 0 0 0 0 0 0 127 0"/>
<feOffset dy="3.93645"/>
<feGaussianBlur stdDeviation="3.60841"/>
<feColorMatrix type="matrix" values="0 0 0 0 0.825 0 0 0 0 0.3575 0 0 0 0 0.584571 0 0 0 1 0"/>
<feBlend mode="normal" in2="BackgroundImageFix" result="effect1_dropShadow"/>
<feBlend mode="normal" in="SourceGraphic" in2="effect1_dropShadow" result="shape"/>
<feColorMatrix in="SourceAlpha" type="matrix" values="0 0 0 0 0 0 0 0 0 0 0 0 0 0 0 0 0 0 127 0" result="hardAlpha"/>
<feOffset dx="2.82963"/>
<feGaussianBlur stdDeviation="1.64019"/>
<feComposite in2="hardAlpha" operator="arithmetic" k2="-1" k3="1"/>
<feColorMatrix type="matrix" values="0 0 0 0 0.972549 0 0 0 0 0.760784 0 0 0 0 0.862745 0 0 0 1 0"/>
<feBlend mode="normal" in2="shape" result="effect2_innerShadow"/>
</filter>
<filter id="filter2_di" x="17.4914" y="75.0739" width="125.139" height="62.2535" filterUnits="userSpaceOnUse" color-interpolation-filters="sRGB">
<feFlood flood-opacity="0" result="BackgroundImageFix"/>
<feColorMatrix in="SourceAlpha" type="matrix" values="0 0 0 0 0 0 0 0 0 0 0 0 0 0 0 0 0 0 127 0"/>
<feOffset dy="3.93645"/>
<feGaussianBlur stdDeviation="3.60841"/>
<feColorMatrix type="matrix" values="0 0 0 0 0.866667 0 0 0 0 0.419608 0 0 0 0 0.639216 0 0 0 1 0"/>
<feBlend mode="normal" in2="BackgroundImageFix" result="effect1_dropShadow"/>
<feBlend mode="normal" in="SourceGraphic" in2="effect1_dropShadow" result="shape"/>
<feColorMatrix in="SourceAlpha" type="matrix" values="0 0 0 0 0 0 0 0 0 0 0 0 0 0 0 0 0 0 127 0" result="hardAlpha"/>
<feOffset dx="0.5"/>
<feGaussianBlur stdDeviation="1.64019"/>
<feComposite in2="hardAlpha" operator="arithmetic" k2="-1" k3="1"/>
<feColorMatrix type="matrix" values="0 0 0 0 0.972549 0 0 0 0 0.764706 0 0 0 0 0.866667 0 0 0 1 0"/>
<feBlend mode="normal" in2="shape" result="effect2_innerShadow"/>
</filter>
<linearGradient id="paint0_linear" x1="62.127" y1="0.40918" x2="62.127" y2="123.417" gradientUnits="userSpaceOnUse">
<stop stop-color="#387CFF"/>
<stop offset="1" stop-color="#1967FF"/>
</linearGradient>
<linearGradient id="paint1_linear" x1="62.127" y1="1.40112" x2="62.127" y2="124.409" gradientUnits="userSpaceOnUse">
<stop stop-color="#FADB7E"/>
<stop offset="1" stop-color="#FADB7E"/>
</linearGradient>
<linearGradient id="paint2_linear" x1="62.127" y1="1.40112" x2="62.127" y2="124.409" gradientUnits="userSpaceOnUse">
<stop offset="0.328125" stop-color="white"/>
<stop offset="1" stop-opacity="0.1"/>
</linearGradient>
<linearGradient id="paint3_linear" x1="41.8518" y1="19.7508" x2="70.7475" y2="125.454" gradientUnits="userSpaceOnUse">
<stop stop-color="white"/>
<stop offset="1" stop-color="#F289BC"/>
</linearGradient>
<linearGradient id="paint4_linear" x1="83.4547" y1="90.183" x2="90.5247" y2="114.307" gradientUnits="userSpaceOnUse">
<stop stop-color="white"/>
<stop offset="1" stop-color="#F289BC"/>
</linearGradient>
</defs>
</svg>
