<svg width="125" height="125" viewBox="0 0 125 125" fill="none" xmlns="http://www.w3.org/2000/svg">
<g filter="url(#filter0_ii)">
<rect x="0.126953" y="0.408936" width="124" height="123.347" rx="27.1739" fill="url(#paint0_linear)"/>
<rect x="0.126953" y="0.408936" width="124" height="123.347" rx="27.1739" fill="url(#paint1_linear)" fill-opacity="0.2" style="mix-blend-mode:soft-light"/>
</g>
<mask id="mask0" mask-type="alpha" maskUnits="userSpaceOnUse" x="0" y="1" width="125" height="124">
<rect x="0.126953" y="1.06177" width="124" height="123.347" rx="27.7178" fill="url(#paint2_linear)"/>
<rect x="0.126953" y="1.06177" width="124" height="123.347" rx="27.7178" fill="url(#paint3_linear)" fill-opacity="0.2"/>
</mask>
<g mask="url(#mask0)">
<g filter="url(#filter1_di)">
<path d="M115.511 85.2584L121.113 103.608L47.6562 126.325L43.1997 111.729L69.869 64.6856C72.6895 59.6548 74.3838 55.5809 74.9519 52.4639C75.4916 49.2541 75.3512 46.3055 74.5307 43.6179C73.3423 39.7255 71.0945 37.175 67.7874 35.9664C64.5445 34.6364 60.3773 34.7588 55.2858 36.3334C51.0274 37.6503 47.4403 39.6725 44.5244 42.3999C41.5802 45.0347 39.4461 48.3318 38.1221 52.2912L18.5109 46.7935C20.5804 39.9664 24.4668 33.9468 30.1701 28.7345C35.845 23.4295 42.9872 19.4458 51.5965 16.7833C58.8172 14.5502 65.48 13.8082 71.585 14.5573C77.7542 15.1851 82.9849 17.2188 87.2771 20.6585C91.6336 23.9768 94.7032 28.5553 96.4858 34.3938C98.0986 39.6764 98.5015 44.9781 97.6945 50.299C96.8875 55.6199 94.1957 62.2337 89.619 70.1403L73.7138 98.1844L115.511 85.2584Z" fill="white"/>
<path d="M115.511 85.2584L121.113 103.608L47.6562 126.325L43.1997 111.729L69.869 64.6856C72.6895 59.6548 74.3838 55.5809 74.9519 52.4639C75.4916 49.2541 75.3512 46.3055 74.5307 43.6179C73.3423 39.7255 71.0945 37.175 67.7874 35.9664C64.5445 34.6364 60.3773 34.7588 55.2858 36.3334C51.0274 37.6503 47.4403 39.6725 44.5244 42.3999C41.5802 45.0347 39.4461 48.3318 38.1221 52.2912L18.5109 46.7935C20.5804 39.9664 24.4668 33.9468 30.1701 28.7345C35.845 23.4295 42.9872 19.4458 51.5965 16.7833C58.8172 14.5502 65.48 13.8082 71.585 14.5573C77.7542 15.1851 82.9849 17.2188 87.2771 20.6585C91.6336 23.9768 94.7032 28.5553 96.4858 34.3938C98.0986 39.6764 98.5015 44.9781 97.6945 50.299C96.8875 55.6199 94.1957 62.2337 89.619 70.1403L73.7138 98.1844L115.511 85.2584Z" fill="url(#paint4_linear)"/>
</g>
<g filter="url(#filter2_di)">
<path d="M32.527 116.645L30.3299 117.339L32.3982 123.972L25.8758 126.032L20.0675 107.405L26.5899 105.345L28.7332 112.219L31.0675 111.481L33.4899 103.166L40.3899 100.986L36.9284 111.895L46.6102 119.484L38.9206 121.912L32.527 116.645ZM61.9136 94.1881L67.7219 112.816L61.1995 114.876L57.0094 101.438L52.3064 102.923L53.0585 105.819C53.7243 108.277 54.1091 110.357 54.213 112.061C54.3169 113.765 54.0619 115.205 53.448 116.38C52.8269 117.533 51.7383 118.355 50.1821 118.846C49.3811 119.099 48.2819 119.283 46.8846 119.397L45.4981 113.983C45.9244 113.899 46.2061 113.835 46.3434 113.792C47.0529 113.568 47.5193 113.169 47.7425 112.595C47.9658 112.021 48.0282 111.334 47.9298 110.535C47.8242 109.712 47.5943 108.652 47.2399 107.355L45.0926 99.5009L61.9136 94.1881ZM73.787 90.0982C76.8766 89.1224 79.4553 89.0882 81.5231 89.9955C83.5838 90.8799 85.0678 92.777 85.9751 95.6869L89.2008 106.032L83.1247 107.951L82.3745 105.545C82.0006 107.651 80.4519 109.135 77.7286 109.995C76.2868 110.45 74.9609 110.592 73.751 110.421C72.5411 110.249 71.5293 109.826 70.7157 109.152C69.9179 108.447 69.3475 107.545 69.0046 106.446C68.4544 104.681 68.7045 103.105 69.7547 101.716C70.7977 100.304 72.7267 99.154 75.5416 98.2649L79.2491 97.0939C78.5203 95.1596 76.8971 94.59 74.3797 95.3852C73.4872 95.6671 72.6296 96.1015 71.8071 96.6885C70.9774 97.2526 70.3207 97.8878 69.8371 98.5943L66.2577 94.8547C67.0732 93.8421 68.1561 92.9212 69.5065 92.092C70.8726 91.2326 72.2995 90.5681 73.787 90.0982ZM78.262 105.296C79.0172 105.057 79.6237 104.665 80.0816 104.117C80.5394 103.57 80.7835 102.901 80.8137 102.112L80.31 100.496L77.4951 101.385C75.5956 101.985 74.8423 102.915 75.2353 104.176C75.4139 104.748 75.7742 105.138 76.3162 105.344C76.8582 105.551 77.5068 105.535 78.262 105.296ZM102.558 102.152C100.499 102.803 98.5279 102.972 96.6458 102.661C94.7637 102.349 93.1364 101.605 91.7637 100.428C90.4139 99.2431 89.4497 97.7229 88.871 95.867C88.2923 94.0112 88.2242 92.2206 88.6666 90.4952C89.1248 88.7397 90.0413 87.2044 91.4162 85.8893C92.7838 84.5512 94.4975 83.5569 96.5572 82.9064C98.6627 82.2414 100.625 82.125 102.444 82.5572C104.256 82.9664 105.733 83.8718 106.873 85.2732L102.631 89.4447C101.263 88.0395 99.766 87.5936 98.1411 88.1068C96.9739 88.4754 96.1227 89.1721 95.5875 90.1969C95.0752 91.2144 95.0334 92.4106 95.4621 93.7853C95.8979 95.1829 96.6184 96.1634 97.6237 96.7268C98.6447 97.2601 99.7388 97.3424 100.906 96.9737C102.531 96.4605 103.506 95.2339 103.831 93.2939L109.681 94.2776C109.54 96.0839 108.846 97.6874 107.599 99.0881C106.344 100.466 104.664 101.487 102.558 102.152ZM123.142 95.6512C121.082 96.3018 119.112 96.4712 117.229 96.1596C115.347 95.848 113.72 95.1035 112.347 93.9263C110.998 92.7419 110.033 91.2217 109.455 89.3658C108.876 87.5099 108.808 85.7193 109.25 83.994C109.708 82.2385 110.625 80.7032 112 79.388C113.367 78.05 115.081 77.0557 117.141 76.4052C119.246 75.7402 121.209 75.6237 123.028 76.0559C124.84 76.4652 126.316 77.3706 127.457 78.772L123.215 82.9434C121.846 81.5383 120.35 81.0924 118.725 81.6056C117.558 81.9742 116.706 82.6709 116.171 83.6957C115.659 84.7132 115.617 85.9093 116.046 87.2841C116.482 88.6817 117.202 89.6622 118.207 90.2256C119.228 90.7588 120.322 90.8411 121.49 90.4725C123.114 89.9593 124.09 88.7327 124.415 86.7927L130.265 87.7764C130.124 89.5826 129.43 91.1861 128.182 92.5869C126.928 93.9648 125.248 94.9862 123.142 95.6512Z" fill="white"/>
<path d="M32.527 116.645L30.3299 117.339L32.3982 123.972L25.8758 126.032L20.0675 107.405L26.5899 105.345L28.7332 112.219L31.0675 111.481L33.4899 103.166L40.3899 100.986L36.9284 111.895L46.6102 119.484L38.9206 121.912L32.527 116.645ZM61.9136 94.1881L67.7219 112.816L61.1995 114.876L57.0094 101.438L52.3064 102.923L53.0585 105.819C53.7243 108.277 54.1091 110.357 54.213 112.061C54.3169 113.765 54.0619 115.205 53.448 116.38C52.8269 117.533 51.7383 118.355 50.1821 118.846C49.3811 119.099 48.2819 119.283 46.8846 119.397L45.4981 113.983C45.9244 113.899 46.2061 113.835 46.3434 113.792C47.0529 113.568 47.5193 113.169 47.7425 112.595C47.9658 112.021 48.0282 111.334 47.9298 110.535C47.8242 109.712 47.5943 108.652 47.2399 107.355L45.0926 99.5009L61.9136 94.1881ZM73.787 90.0982C76.8766 89.1224 79.4553 89.0882 81.5231 89.9955C83.5838 90.8799 85.0678 92.777 85.9751 95.6869L89.2008 106.032L83.1247 107.951L82.3745 105.545C82.0006 107.651 80.4519 109.135 77.7286 109.995C76.2868 110.45 74.9609 110.592 73.751 110.421C72.5411 110.249 71.5293 109.826 70.7157 109.152C69.9179 108.447 69.3475 107.545 69.0046 106.446C68.4544 104.681 68.7045 103.105 69.7547 101.716C70.7977 100.304 72.7267 99.154 75.5416 98.2649L79.2491 97.0939C78.5203 95.1596 76.8971 94.59 74.3797 95.3852C73.4872 95.6671 72.6296 96.1015 71.8071 96.6885C70.9774 97.2526 70.3207 97.8878 69.8371 98.5943L66.2577 94.8547C67.0732 93.8421 68.1561 92.9212 69.5065 92.092C70.8726 91.2326 72.2995 90.5681 73.787 90.0982ZM78.262 105.296C79.0172 105.057 79.6237 104.665 80.0816 104.117C80.5394 103.57 80.7835 102.901 80.8137 102.112L80.31 100.496L77.4951 101.385C75.5956 101.985 74.8423 102.915 75.2353 104.176C75.4139 104.748 75.7742 105.138 76.3162 105.344C76.8582 105.551 77.5068 105.535 78.262 105.296ZM102.558 102.152C100.499 102.803 98.5279 102.972 96.6458 102.661C94.7637 102.349 93.1364 101.605 91.7637 100.428C90.4139 99.2431 89.4497 97.7229 88.871 95.867C88.2923 94.0112 88.2242 92.2206 88.6666 90.4952C89.1248 88.7397 90.0413 87.2044 91.4162 85.8893C92.7838 84.5512 94.4975 83.5569 96.5572 82.9064C98.6627 82.2414 100.625 82.125 102.444 82.5572C104.256 82.9664 105.733 83.8718 106.873 85.2732L102.631 89.4447C101.263 88.0395 99.766 87.5936 98.1411 88.1068C96.9739 88.4754 96.1227 89.1721 95.5875 90.1969C95.0752 91.2144 95.0334 92.4106 95.4621 93.7853C95.8979 95.1829 96.6184 96.1634 97.6237 96.7268C98.6447 97.2601 99.7388 97.3424 100.906 96.9737C102.531 96.4605 103.506 95.2339 103.831 93.2939L109.681 94.2776C109.54 96.0839 108.846 97.6874 107.599 99.0881C106.344 100.466 104.664 101.487 102.558 102.152ZM123.142 95.6512C121.082 96.3018 119.112 96.4712 117.229 96.1596C115.347 95.848 113.72 95.1035 112.347 93.9263C110.998 92.7419 110.033 91.2217 109.455 89.3658C108.876 87.5099 108.808 85.7193 109.25 83.994C109.708 82.2385 110.625 80.7032 112 79.388C113.367 78.05 115.081 77.0557 117.141 76.4052C119.246 75.7402 121.209 75.6237 123.028 76.0559C124.84 76.4652 126.316 77.3706 127.457 78.772L123.215 82.9434C121.846 81.5383 120.35 81.0924 118.725 81.6056C117.558 81.9742 116.706 82.6709 116.171 83.6957C115.659 84.7132 115.617 85.9093 116.046 87.2841C116.482 88.6817 117.202 89.6622 118.207 90.2256C119.228 90.7588 120.322 90.8411 121.49 90.4725C123.114 89.9593 124.09 88.7327 124.415 86.7927L130.265 87.7764C130.124 89.5826 129.43 91.1861 128.182 92.5869C126.928 93.9648 125.248 94.9862 123.142 95.6512Z" fill="url(#paint5_linear)"/>
</g>
</g>
<defs>
<filter id="filter0_ii" x="-0.84858" y="-0.566598" width="125.951" height="125.298" filterUnits="userSpaceOnUse" color-interpolation-filters="sRGB">
<feFlood flood-opacity="0" result="BackgroundImageFix"/>
<feBlend mode="normal" in="SourceGraphic" in2="BackgroundImageFix" result="shape"/>
<feColorMatrix in="SourceAlpha" type="matrix" values="0 0 0 0 0 0 0 0 0 0 0 0 0 0 0 0 0 0 127 0" result="hardAlpha"/>
<feOffset dx="0.975533" dy="0.975533"/>
<feGaussianBlur stdDeviation="0.487767"/>
<feComposite in2="hardAlpha" operator="arithmetic" k2="-1" k3="1"/>
<feColorMatrix type="matrix" values="0 0 0 0 1 0 0 0 0 1 0 0 0 0 1 0 0 0 0.2 0"/>
<feBlend mode="normal" in2="shape" result="effect1_innerShadow"/>
<feColorMatrix in="SourceAlpha" type="matrix" values="0 0 0 0 0 0 0 0 0 0 0 0 0 0 0 0 0 0 127 0" result="hardAlpha"/>
<feOffset dx="-0.975533" dy="-0.975533"/>
<feGaussianBlur stdDeviation="0.487767"/>
<feComposite in2="hardAlpha" operator="arithmetic" k2="-1" k3="1"/>
<feColorMatrix type="matrix" values="0 0 0 0 0 0 0 0 0 0 0 0 0 0 0 0 0 0 0.05 0"/>
<feBlend mode="normal" in2="effect1_innerShadow" result="effect2_innerShadow"/>
</filter>
<filter id="filter1_di" x="9.80825" y="10.3194" width="120.008" height="129.456" filterUnits="userSpaceOnUse" color-interpolation-filters="sRGB">
<feFlood flood-opacity="0" result="BackgroundImageFix"/>
<feColorMatrix in="SourceAlpha" type="matrix" values="0 0 0 0 0 0 0 0 0 0 0 0 0 0 0 0 0 0 127 0"/>
<feOffset dy="4.74695"/>
<feGaussianBlur stdDeviation="4.35137"/>
<feColorMatrix type="matrix" values="0 0 0 0 0.945833 0 0 0 0 0.462182 0 0 0 0 0.0433507 0 0 0 1 0"/>
<feBlend mode="normal" in2="BackgroundImageFix" result="effect1_dropShadow"/>
<feBlend mode="normal" in="SourceGraphic" in2="effect1_dropShadow" result="shape"/>
<feColorMatrix in="SourceAlpha" type="matrix" values="0 0 0 0 0 0 0 0 0 0 0 0 0 0 0 0 0 0 127 0" result="hardAlpha"/>
<feOffset dx="3.41225"/>
<feGaussianBlur stdDeviation="1.9779"/>
<feComposite in2="hardAlpha" operator="arithmetic" k2="-1" k3="1"/>
<feColorMatrix type="matrix" values="0 0 0 0 1 0 0 0 0 0.807829 0 0 0 0 0.641667 0 0 0 1 0"/>
<feBlend mode="normal" in2="shape" result="effect2_innerShadow"/>
</filter>
<filter id="filter2_di" x="11.3646" y="71.8447" width="127.603" height="67.6373" filterUnits="userSpaceOnUse" color-interpolation-filters="sRGB">
<feFlood flood-opacity="0" result="BackgroundImageFix"/>
<feColorMatrix in="SourceAlpha" type="matrix" values="0 0 0 0 0 0 0 0 0 0 0 0 0 0 0 0 0 0 127 0"/>
<feOffset dy="4.74695"/>
<feGaussianBlur stdDeviation="4.35137"/>
<feColorMatrix type="matrix" values="0 0 0 0 0.945833 0 0 0 0 0.462182 0 0 0 0 0.0433507 0 0 0 1 0"/>
<feBlend mode="normal" in2="BackgroundImageFix" result="effect1_dropShadow"/>
<feBlend mode="normal" in="SourceGraphic" in2="effect1_dropShadow" result="shape"/>
<feColorMatrix in="SourceAlpha" type="matrix" values="0 0 0 0 0 0 0 0 0 0 0 0 0 0 0 0 0 0 127 0" result="hardAlpha"/>
<feOffset dx="-0.59"/>
<feGaussianBlur stdDeviation="1.9779"/>
<feComposite in2="hardAlpha" operator="arithmetic" k2="-1" k3="1"/>
<feColorMatrix type="matrix" values="0 0 0 0 1 0 0 0 0 0.807829 0 0 0 0 0.641667 0 0 0 1 0"/>
<feBlend mode="normal" in2="shape" result="effect2_innerShadow"/>
</filter>
<linearGradient id="paint0_linear" x1="62.127" y1="0.408936" x2="62.127" y2="123.756" gradientUnits="userSpaceOnUse">
<stop stop-color="#FFA25F"/>
<stop offset="1" stop-color="#FFA458"/>
</linearGradient>
<linearGradient id="paint1_linear" x1="62.127" y1="0.408936" x2="62.127" y2="123.756" gradientUnits="userSpaceOnUse">
<stop offset="0.328125" stop-color="white"/>
<stop offset="1" stop-opacity="0.1"/>
</linearGradient>
<linearGradient id="paint2_linear" x1="62.127" y1="1.06177" x2="62.127" y2="124.409" gradientUnits="userSpaceOnUse">
<stop stop-color="#FADB7E"/>
<stop offset="1" stop-color="#FADB7E"/>
</linearGradient>
<linearGradient id="paint3_linear" x1="62.127" y1="1.06177" x2="62.127" y2="124.409" gradientUnits="userSpaceOnUse">
<stop offset="0.328125" stop-color="white"/>
<stop offset="1" stop-opacity="0.1"/>
</linearGradient>
<linearGradient id="paint4_linear" x1="52.4878" y1="12.832" x2="85.0542" y2="118.137" gradientUnits="userSpaceOnUse">
<stop stop-color="white"/>
<stop offset="1" stop-color="#FF9E4A"/>
</linearGradient>
<linearGradient id="paint5_linear" x1="75.3138" y1="87.2694" x2="86.2301" y2="113.01" gradientUnits="userSpaceOnUse">
<stop stop-color="white"/>
<stop offset="1" stop-color="#FF9E4A"/>
</linearGradient>
</defs>
</svg>
