<svg width="94" height="94" viewBox="0 0 94 94" fill="none" xmlns="http://www.w3.org/2000/svg">
<path fill-rule="evenodd" clip-rule="evenodd" d="M54.0324 86.6642C32.0706 90.604 11.0733 75.9942 7.13356 54.0324C3.19383 32.0706 17.8036 11.0733 39.7654 7.13353C61.7272 3.19379 82.7245 17.8036 86.6643 39.7654C88.1603 48.105 86.9816 56.3056 83.7411 63.486L92.3898 79.7833L74.5333 76.3759C69.0304 81.5445 62.0173 85.2318 54.0324 86.6642Z" fill="#FF9E4A"/>
<g filter="url(#filter0_di)">
<path d="M38.0768 43.4617C42.231 43.5349 45.276 44.4168 47.2116 46.1075C49.1754 47.7987 50.1328 50.0338 50.0838 52.8126C50.0521 54.609 49.5741 56.2432 48.6497 57.715C47.7257 59.1588 46.3296 60.3135 44.4612 61.1791C42.6214 62.0171 40.3541 62.4123 37.6595 62.3648C35.5823 62.3282 33.538 62.0255 31.5264 61.4566C29.5434 60.8601 27.859 60.0442 26.4734 59.009L29.26 53.8356C30.3679 54.6974 31.6475 55.3798 33.0987 55.8827C34.5504 56.3575 36.0481 56.6085 37.5919 56.6357C39.3042 56.6659 40.6574 56.3528 41.6517 55.6965C42.646 55.0401 43.1538 54.1084 43.1751 52.9015C43.1973 51.6384 42.6948 50.6749 41.6677 50.011C40.6685 49.3476 38.9059 48.9936 36.3796 48.9491L28.843 48.8163L30.6511 32.2541L48.6294 32.5709L48.533 38.0444L36.2386 37.8277L35.6768 43.4194L38.0768 43.4617Z" fill="white"/>
<path d="M38.0768 43.4617C42.231 43.5349 45.276 44.4168 47.2116 46.1075C49.1754 47.7987 50.1328 50.0338 50.0838 52.8126C50.0521 54.609 49.5741 56.2432 48.6497 57.715C47.7257 59.1588 46.3296 60.3135 44.4612 61.1791C42.6214 62.0171 40.3541 62.4123 37.6595 62.3648C35.5823 62.3282 33.538 62.0255 31.5264 61.4566C29.5434 60.8601 27.859 60.0442 26.4734 59.009L29.26 53.8356C30.3679 54.6974 31.6475 55.3798 33.0987 55.8827C34.5504 56.3575 36.0481 56.6085 37.5919 56.6357C39.3042 56.6659 40.6574 56.3528 41.6517 55.6965C42.646 55.0401 43.1538 54.1084 43.1751 52.9015C43.1973 51.6384 42.6948 50.6749 41.6677 50.011C40.6685 49.3476 38.9059 48.9936 36.3796 48.9491L28.843 48.8163L30.6511 32.2541L48.6294 32.5709L48.533 38.0444L36.2386 37.8277L35.6768 43.4194L38.0768 43.4617Z" fill="url(#paint0_linear)"/>
<path d="M73.5496 47.1655L66.2235 47.0364L66.0974 54.194L60.666 54.0983L60.7921 46.9407L53.5082 46.8124L53.5987 41.6757L60.8826 41.804L61.0088 34.6464L66.4402 34.7421L66.314 41.8997L73.6401 42.0288L73.5496 47.1655Z" fill="white"/>
<path d="M73.5496 47.1655L66.2235 47.0364L66.0974 54.194L60.666 54.0983L60.7921 46.9407L53.5082 46.8124L53.5987 41.6757L60.8826 41.804L61.0088 34.6464L66.4402 34.7421L66.314 41.8997L73.6401 42.0288L73.5496 47.1655Z" fill="url(#paint1_linear)"/>
</g>
<defs>
<filter id="filter0_di" x="22.192" y="30.3078" width="55.7294" height="38.6772" filterUnits="userSpaceOnUse" color-interpolation-filters="sRGB">
<feFlood flood-opacity="0" result="BackgroundImageFix"/>
<feColorMatrix in="SourceAlpha" type="matrix" values="0 0 0 0 0 0 0 0 0 0 0 0 0 0 0 0 0 0 127 0"/>
<feOffset dy="2.33527"/>
<feGaussianBlur stdDeviation="2.14067"/>
<feColorMatrix type="matrix" values="0 0 0 0 0.945833 0 0 0 0 0.462182 0 0 0 0 0.0433507 0 0 0 1 0"/>
<feBlend mode="normal" in2="BackgroundImageFix" result="effect1_dropShadow"/>
<feBlend mode="normal" in="SourceGraphic" in2="effect1_dropShadow" result="shape"/>
<feColorMatrix in="SourceAlpha" type="matrix" values="0 0 0 0 0 0 0 0 0 0 0 0 0 0 0 0 0 0 127 0" result="hardAlpha"/>
<feOffset dx="1.67866"/>
<feGaussianBlur stdDeviation="0.97303"/>
<feComposite in2="hardAlpha" operator="arithmetic" k2="-1" k3="1"/>
<feColorMatrix type="matrix" values="0 0 0 0 1 0 0 0 0 0.807829 0 0 0 0 0.641667 0 0 0 1 0"/>
<feBlend mode="normal" in2="shape" result="effect2_innerShadow"/>
</filter>
<linearGradient id="paint0_linear" x1="30.8653" y1="33.8982" x2="42.7455" y2="67.7268" gradientUnits="userSpaceOnUse">
<stop stop-color="white"/>
<stop offset="1" stop-color="#FFCDA2"/>
</linearGradient>
<linearGradient id="paint1_linear" x1="56.4795" y1="32.9345" x2="70.1918" y2="62.8021" gradientUnits="userSpaceOnUse">
<stop stop-color="white"/>
<stop offset="1" stop-color="#FFCDA2"/>
</linearGradient>
</defs>
</svg>
