<svg width="113" height="16" viewBox="0 0 113 16" fill="none" xmlns="http://www.w3.org/2000/svg">
<path d="M11.1341 2.96691V12.7669H10.1401V4.92691L6.29006 11.5209H5.80005L1.95005 4.96891V12.7669H0.956055V2.96691H1.81005L6.06605 10.2329L10.2801 2.96691H11.1341Z" fill="white"/>
<path d="M15.8843 5.34691C16.8457 5.34691 17.583 5.58957 18.0963 6.07491C18.6097 6.55091 18.8663 7.26024 18.8663 8.20291V12.7669H17.9143V11.6189C17.6903 12.0016 17.359 12.3002 16.9203 12.5149C16.491 12.7296 15.9777 12.8369 15.3803 12.8369C14.559 12.8369 13.9057 12.6409 13.4203 12.2489C12.935 11.8569 12.6923 11.3389 12.6923 10.6949C12.6923 10.0696 12.9163 9.56557 13.3643 9.18291C13.8217 8.80024 14.545 8.60891 15.5343 8.60891H17.8723V8.16091C17.8723 7.52624 17.695 7.04557 17.3403 6.71891C16.9857 6.38291 16.4677 6.21491 15.7863 6.21491C15.3197 6.21491 14.8717 6.29424 14.4423 6.45291C14.013 6.60224 13.6443 6.81224 13.3363 7.08291L12.8883 6.34091C13.2617 6.02357 13.7097 5.78091 14.2323 5.61291C14.755 5.43557 15.3057 5.34691 15.8843 5.34691ZM15.5343 12.0529C16.0943 12.0529 16.575 11.9269 16.9763 11.6749C17.3777 11.4136 17.6763 11.0402 17.8723 10.5549V9.35091H15.5623C14.3023 9.35091 13.6723 9.78957 13.6723 10.6669C13.6723 11.0962 13.8357 11.4369 14.1623 11.6889C14.489 11.9316 14.9463 12.0529 15.5343 12.0529Z" fill="white"/>
<path d="M27.5047 2.37891V12.7669H26.5527V11.3109C26.254 11.8056 25.8574 12.1836 25.3627 12.4449C24.8774 12.7062 24.3267 12.8369 23.7107 12.8369C23.02 12.8369 22.3947 12.6782 21.8347 12.3609C21.2747 12.0436 20.836 11.6002 20.5187 11.0309C20.2014 10.4616 20.0427 9.81291 20.0427 9.08491C20.0427 8.35691 20.2014 7.70824 20.5187 7.13891C20.836 6.56957 21.2747 6.13091 21.8347 5.82291C22.3947 5.50557 23.02 5.34691 23.7107 5.34691C24.308 5.34691 24.8447 5.47291 25.3207 5.72491C25.806 5.96757 26.2027 6.32691 26.5107 6.80291V2.37891H27.5047ZM23.7947 11.9549C24.308 11.9549 24.77 11.8382 25.1807 11.6049C25.6007 11.3622 25.9274 11.0216 26.1607 10.5829C26.4034 10.1442 26.5247 9.64491 26.5247 9.08491C26.5247 8.52491 26.4034 8.02557 26.1607 7.58691C25.9274 7.14824 25.6007 6.81224 25.1807 6.57891C24.77 6.33624 24.308 6.21491 23.7947 6.21491C23.272 6.21491 22.8007 6.33624 22.3807 6.57891C21.97 6.81224 21.6434 7.14824 21.4007 7.58691C21.1674 8.02557 21.0507 8.52491 21.0507 9.08491C21.0507 9.64491 21.1674 10.1442 21.4007 10.5829C21.6434 11.0216 21.97 11.3622 22.3807 11.6049C22.8007 11.8382 23.272 11.9549 23.7947 11.9549Z" fill="white"/>
<path d="M35.8762 9.39291H29.7162C29.7722 10.1582 30.0662 10.7789 30.5982 11.2549C31.1302 11.7216 31.8022 11.9549 32.6142 11.9549C33.0715 11.9549 33.4915 11.8756 33.8742 11.7169C34.2568 11.5489 34.5882 11.3062 34.8682 10.9889L35.4282 11.6329C35.1015 12.0249 34.6908 12.3236 34.1962 12.5289C33.7108 12.7342 33.1742 12.8369 32.5862 12.8369C31.8302 12.8369 31.1582 12.6782 30.5702 12.3609C29.9915 12.0342 29.5388 11.5862 29.2122 11.0169C28.8855 10.4476 28.7222 9.80357 28.7222 9.08491C28.7222 8.36624 28.8762 7.72224 29.1842 7.15291C29.5015 6.58357 29.9308 6.14024 30.4722 5.82291C31.0228 5.50557 31.6388 5.34691 32.3202 5.34691C33.0015 5.34691 33.6128 5.50557 34.1542 5.82291C34.6955 6.14024 35.1202 6.58357 35.4282 7.15291C35.7362 7.71291 35.8902 8.35691 35.8902 9.08491L35.8762 9.39291ZM32.3202 6.20091C31.6108 6.20091 31.0135 6.42957 30.5282 6.88691C30.0522 7.33491 29.7815 7.92291 29.7162 8.65091H34.9382C34.8728 7.92291 34.5975 7.33491 34.1122 6.88691C33.6362 6.42957 33.0388 6.20091 32.3202 6.20091Z" fill="white"/>
<path d="M43.7538 5.34691C44.4445 5.34691 45.0698 5.50557 45.6298 5.82291C46.1898 6.13091 46.6285 6.56957 46.9458 7.13891C47.2632 7.70824 47.4218 8.35691 47.4218 9.08491C47.4218 9.81291 47.2632 10.4616 46.9458 11.0309C46.6285 11.6002 46.1898 12.0436 45.6298 12.3609C45.0698 12.6782 44.4445 12.8369 43.7538 12.8369C43.1378 12.8369 42.5825 12.7062 42.0878 12.4449C41.6025 12.1836 41.2105 11.8056 40.9118 11.3109V12.7669H39.9598V2.37891H40.9538V6.80291C41.2618 6.32691 41.6538 5.96757 42.1298 5.72491C42.6152 5.47291 43.1565 5.34691 43.7538 5.34691ZM43.6838 11.9549C44.1972 11.9549 44.6638 11.8382 45.0838 11.6049C45.5038 11.3622 45.8305 11.0216 46.0638 10.5829C46.3065 10.1442 46.4278 9.64491 46.4278 9.08491C46.4278 8.52491 46.3065 8.02557 46.0638 7.58691C45.8305 7.14824 45.5038 6.81224 45.0838 6.57891C44.6638 6.33624 44.1972 6.21491 43.6838 6.21491C43.1612 6.21491 42.6898 6.33624 42.2698 6.57891C41.8592 6.81224 41.5325 7.14824 41.2898 7.58691C41.0565 8.02557 40.9398 8.52491 40.9398 9.08491C40.9398 9.64491 41.0565 10.1442 41.2898 10.5829C41.5325 11.0216 41.8592 11.3622 42.2698 11.6049C42.6898 11.8382 43.1612 11.9549 43.6838 11.9549Z" fill="white"/>
<path d="M54.6222 5.40291L50.9402 13.6489C50.6416 14.3396 50.2962 14.8296 49.9042 15.1189C49.5122 15.4082 49.0409 15.5529 48.4902 15.5529C48.1356 15.5529 47.8042 15.4969 47.4962 15.3849C47.1882 15.2729 46.9222 15.1049 46.6982 14.8809L47.1602 14.1389C47.5336 14.5122 47.9816 14.6989 48.5042 14.6989C48.8402 14.6989 49.1249 14.6056 49.3582 14.4189C49.6009 14.2322 49.8249 13.9149 50.0302 13.4669L50.3522 12.7529L47.0622 5.40291H48.0982L50.8702 11.6609L53.6422 5.40291H54.6222Z" fill="white"/>
<path d="M70.6054 0.853516H61.3599V13.0191H63.7819V9.88958H68.556V7.5975H63.7819V3.12355H68.5095L68.556 3.10151L70.6054 1.14002L70.9315 0.853516H70.6054Z" fill="white"/>
<path d="M71.5734 2.39584L70.8281 3.12313V13.0187H73.2501V0.831055L71.5734 2.39584Z" fill="white"/>
<path d="M94.4219 3.07863V12.9963H96.8439V0.808594L94.4219 3.07863Z" fill="white"/>
<path d="M89.1871 8.01833V5.39567H90.6077L93.0297 3.1036H89.1871V0.811523H86.7651V8.01833C86.7651 9.58311 87.2076 10.7953 88.0693 11.6107C89.3734 12.8449 91.3529 12.9992 92.7502 12.9992V10.7071C91.2598 10.7071 90.2817 10.4647 89.7926 10.0019C89.3734 9.60515 89.1871 8.96601 89.1871 8.01833Z" fill="white"/>
<path d="M106.177 8.54783C107.411 7.37975 107.597 6.38799 107.597 5.35215C107.597 2.83968 105.431 0.790039 102.777 0.790039C100.122 0.790039 97.9559 2.83968 97.9559 5.35215C97.9559 6.89489 98.7477 8.28336 100.075 9.14289L101.845 7.46791C100.844 7.11528 100.355 6.21167 100.355 5.35215C100.355 4.09591 101.449 3.06007 102.777 3.06007C104.104 3.06007 105.152 4.09591 105.199 5.35215C105.222 6.07944 104.942 6.63042 102.241 9.07677L97.9326 13.0659H107.551V10.7958H103.731L106.177 8.54783Z" fill="white"/>
<path d="M111.02 4.60141C112.113 4.60141 112.999 3.74296 112.999 2.68401C112.999 1.62505 112.113 0.766602 111.02 0.766602C109.927 0.766602 109.041 1.62505 109.041 2.68401C109.041 3.74296 109.927 4.60141 111.02 4.60141Z" fill="white"/>
<path d="M85.3065 8.15189C85.3065 5.37495 82.9311 3.12695 79.9968 3.12695C77.0624 3.12695 74.687 5.37495 74.687 8.15189C74.687 10.9288 77.0624 13.1768 79.9968 13.1768C81.068 13.1768 82.0694 12.8683 82.8845 12.3614V13.0225H85.3065V8.26208C85.3065 8.218 85.3065 8.19596 85.3065 8.15189ZM79.9968 10.8847C78.3899 10.8847 77.109 9.65055 77.109 8.15189C77.109 6.65322 78.3899 5.39699 79.9968 5.39699C81.6037 5.39699 82.8845 6.63118 82.8845 8.12985C82.8845 9.62851 81.5804 10.8847 79.9968 10.8847Z" fill="white"/>
</svg>
