<svg width="276" height="175" viewBox="0 0 276 175" fill="none" xmlns="http://www.w3.org/2000/svg">
<path d="M11.9517 114.044C5.35098 91.8944 17.9555 68.588 40.1047 61.9872L205.945 12.5646C228.137 5.95115 251.488 18.58 258.102 40.7719C264.715 62.9638 252.086 86.3152 229.894 92.9287L87.923 135.238L74.5725 139.004L64.1624 142.15C41.9786 148.854 18.5705 136.253 11.9517 114.044Z" fill="#0C24FA"/>
<path d="M74.5725 139.004C78.8554 146.261 76.2659 159.356 67.5479 162.752C86.1274 157.511 90.9441 145.947 87.923 135.238L74.5725 139.004Z" fill="#0C24FA"/>
<path d="M63.7737 80.0514L66.9742 90.7844L64.5056 91.5205L61.9087 82.8115L57.0635 84.2563L59.6605 92.9653L57.1919 93.7014L53.9914 82.9685L63.7737 80.0514ZM74.8109 88.6479C73.6967 88.9801 72.6182 89.0402 71.5754 88.828C70.5428 88.6127 69.646 88.1622 68.885 87.4764C68.1311 86.7774 67.5972 85.9014 67.2833 84.8486C66.9693 83.7957 66.9378 82.7755 67.1887 81.788C67.4468 80.7871 67.9489 79.9139 68.6949 79.1683C69.4512 78.4196 70.3864 77.8792 71.5006 77.5469C72.6148 77.2147 73.6882 77.1562 74.7207 77.3714C75.7533 77.5867 76.6516 78.0423 77.4157 78.7383C78.1767 79.4241 78.7142 80.2934 79.0282 81.3463C79.3422 82.3991 79.3701 83.426 79.112 84.4268C78.8508 85.4174 78.3472 86.2855 77.6012 87.0311C76.8552 87.7767 75.925 88.3157 74.8109 88.6479ZM74.1799 86.532C74.8137 86.343 75.3434 86.0292 75.7692 85.5906C76.1919 85.1417 76.4686 84.614 76.5993 84.0073C76.7403 83.3976 76.7117 82.7605 76.5136 82.0961C76.3155 81.4317 75.9905 80.883 75.5386 80.4501C75.0969 80.0141 74.5779 79.7292 73.9814 79.5954C73.3819 79.4514 72.7653 79.4739 72.1316 79.6629C71.4978 79.8519 70.9696 80.1708 70.5469 80.6196C70.1211 81.0582 69.8378 81.5824 69.6968 82.1921C69.566 82.7988 69.5997 83.4343 69.7978 84.0987C69.996 84.7631 70.3159 85.3133 70.7575 85.7493C71.2094 86.1822 71.7351 86.4707 72.3346 86.6147C72.931 86.7485 73.5461 86.721 74.1799 86.532ZM92.7092 80.9064L93.9757 85.1536L91.6758 85.8394L91.0129 83.6162L83.4384 85.8748L84.1014 88.0981L81.8015 88.7839L80.5503 84.5322L80.9796 84.4041C81.6175 84.1917 81.9322 83.5858 81.9236 82.5866C81.9151 81.5874 81.6869 80.2251 81.2392 78.4998L80.3606 75.1053L88.6096 72.6455L91.2066 81.3545L92.7092 80.9064ZM83.5004 78.0759C83.8303 79.3689 84.043 80.4742 84.1386 81.3918C84.2311 82.2992 84.1696 83.0077 83.9542 83.5171L88.7534 82.086L86.7599 75.4009L83.08 76.4983L83.5004 78.0759ZM100.161 81.0886C99.0467 81.4209 97.9682 81.4809 96.9255 81.2687C95.8929 81.0535 94.9961 80.6029 94.2351 79.9172C93.4812 79.2181 92.9473 78.3421 92.6333 77.2893C92.3194 76.2364 92.2878 75.2162 92.5388 74.2287C92.7969 73.2279 93.2989 72.3546 94.045 71.609C94.8012 70.8604 95.7365 70.3199 96.8507 69.9877C97.9648 69.6554 99.0382 69.5969 100.071 69.8122C101.103 70.0274 102.002 70.483 102.766 71.179C103.527 71.8648 104.064 72.7341 104.378 73.787C104.692 74.8398 104.72 75.8667 104.462 76.8675C104.201 77.8581 103.697 78.7262 102.951 79.4718C102.205 80.2174 101.275 80.7564 100.161 81.0886ZM99.53 78.9727C100.164 78.7837 100.693 78.4699 101.119 78.0313C101.542 77.5824 101.819 77.0547 101.949 76.448C102.09 75.8383 102.062 75.2013 101.864 74.5368C101.666 73.8724 101.341 73.3237 100.889 72.8908C100.447 72.4549 99.9279 72.17 99.3315 72.0362C98.732 71.8921 98.1154 71.9146 97.4816 72.1036C96.8479 72.2926 96.3196 72.6115 95.8969 73.0603C95.4712 73.4989 95.1878 74.0231 95.0468 74.6328C94.9161 75.2395 94.9498 75.875 95.1479 76.5394C95.346 77.2039 95.6659 77.7541 96.1076 78.19C96.5595 78.623 97.0852 78.9114 97.6847 79.0555C98.2811 79.1893 98.8962 79.1617 99.53 78.9727ZM104.691 67.8499L107.16 67.1138L109.245 74.1056L112.281 65.5867L114.612 64.8917L117.812 75.6247L115.359 76.3562L113.279 69.3798L110.238 77.8833L107.892 78.5829L104.691 67.8499ZM109.438 65.6831C107.476 66.2684 106.251 65.7821 105.764 64.2242L107.466 63.7167C107.709 64.4568 108.244 64.7034 109.072 64.4565C109.481 64.3346 109.766 64.1496 109.925 63.9016C110.082 63.6434 110.111 63.3288 110.011 62.9577L111.713 62.4502C111.932 63.2199 111.855 63.8772 111.483 64.4222C111.111 64.9671 110.43 65.3875 109.438 65.6831ZM130.877 69.5251L132.143 73.7723L129.843 74.4581L129.18 72.2348L121.606 74.4935L122.269 76.7168L119.969 77.4026L118.718 73.1508L119.147 73.0228C119.785 72.8103 120.1 72.2045 120.091 71.2053C120.082 70.206 119.854 68.8438 119.407 67.1184L118.528 63.724L126.777 61.2641L129.374 69.9732L130.877 69.5251ZM121.668 66.6946C121.998 67.9876 122.21 69.0929 122.306 70.0105C122.398 70.9179 122.337 71.6263 122.122 72.1358L126.921 70.7047L124.927 64.0196L121.247 65.1169L121.668 66.6946ZM140.868 66.579L141.463 68.5723L133.152 71.0504L129.952 60.3174L138.063 57.8987L138.657 59.892L133.015 61.5746L133.71 63.9052L138.693 62.4192L139.269 64.3511L134.286 65.8371L135.026 68.321L140.868 66.579ZM149.075 56.8188L145.64 57.843L148.237 66.5521L145.784 67.2836L143.187 58.5746L139.768 59.5942L139.164 57.5702L148.471 54.7949L149.075 56.8188ZM163.941 50.1819L167.142 60.9149L164.688 61.6465L162.091 52.9374L158.411 54.0347L159.002 56.2962C159.405 57.8345 159.652 59.1079 159.741 60.1165C159.827 61.1148 159.716 61.9381 159.409 62.5864C159.108 63.2213 158.549 63.6608 157.732 63.9046C157.394 64.0052 156.969 64.0709 156.455 64.1017L155.982 61.9554C156.127 61.9567 156.281 61.9329 156.445 61.8841C157.037 61.7074 157.348 61.2364 157.376 60.4712C157.4 59.6958 157.221 58.5527 156.837 57.042L155.692 52.6418L163.941 50.1819ZM166.622 49.3826L169.09 48.6465L171.175 55.6382L174.211 47.1194L176.542 46.4244L179.743 57.1574L177.289 57.8889L175.209 50.9125L172.168 59.416L169.822 60.1156L166.622 49.3826ZM73.2456 111.872L71.3146 105.452L69.7334 111.683L68.6294 112.013L63.9301 107.787L65.8092 114.089L63.4786 114.784L60.2781 104.051L62.3327 103.438L68.3388 108.91L70.3058 101.061L72.3604 100.448L75.5762 111.177L73.2456 111.872ZM83.4185 109.038C82.3043 109.371 81.2258 109.431 80.183 109.219C79.1505 109.003 78.2537 108.553 77.4926 107.867C76.7388 107.168 76.2049 106.292 75.8909 105.239C75.5769 104.186 75.5454 103.166 75.7964 102.178C76.0544 101.178 76.5565 100.304 77.3026 99.5588C78.0588 98.8102 78.9941 98.2697 80.1082 97.9375C81.2224 97.6052 82.2958 97.5467 83.3284 97.762C84.3609 97.9772 85.2593 98.4328 86.0233 99.1289C86.7844 99.8146 87.3219 100.684 87.6358 101.737C87.9498 102.79 87.9777 103.817 87.7196 104.817C87.4585 105.808 86.9549 106.676 86.2088 107.422C85.4628 108.167 84.5327 108.706 83.4185 109.038ZM82.7875 106.923C83.4213 106.734 83.951 106.42 84.3768 105.981C84.7995 105.532 85.0762 105.005 85.207 104.398C85.348 103.788 85.3194 103.151 85.1213 102.487C84.9231 101.822 84.5981 101.274 84.1462 100.841C83.7046 100.405 83.1855 100.12 82.5891 99.986C81.9896 99.8419 81.373 99.8644 80.7392 100.053C80.1054 100.242 79.5772 100.561 79.1545 101.01C78.7288 101.449 78.4454 101.973 78.3044 102.583C78.1737 103.189 78.2073 103.825 78.4055 104.489C78.6036 105.154 78.9235 105.704 79.3652 106.14C79.8171 106.573 80.3427 106.861 80.9422 107.005C81.5387 107.139 82.1538 107.111 82.7875 106.923ZM98.8656 102.061L99.46 104.055L91.1496 106.533L87.9491 95.7997L96.0601 93.3811L96.6545 95.3743L91.012 97.0569L91.707 99.3875L96.6902 97.9015L97.2663 99.8334L92.2831 101.319L93.0238 103.803L98.8656 102.061ZM111.233 100.544L109.302 94.124L107.721 100.356L106.617 100.685L101.918 96.4596L103.797 102.761L101.466 103.456L98.2658 92.7233L100.32 92.1107L106.326 97.5825L108.293 89.7331L110.348 89.1205L113.564 99.8489L111.233 100.544ZM122.72 85.4312L120.684 95.2881C120.488 96.2369 120.141 97.0138 119.642 97.6189C119.154 98.2209 118.547 98.6301 117.821 98.8465C117.259 99.0141 116.64 99.0652 115.964 98.9997L115.999 96.9355C116.468 96.9403 116.846 96.9001 117.132 96.8147C117.439 96.7233 117.693 96.5694 117.896 96.3532C118.095 96.1267 118.25 95.8245 118.36 95.4467L118.416 95.2966L111.834 88.6775L114.486 87.8865L119.057 92.8012L120.282 86.1582L122.72 85.4312ZM133.113 82.332C134.064 82.0486 134.934 81.9616 135.723 82.0712C136.523 82.1778 137.199 82.466 137.751 82.9359C138.303 83.4057 138.698 84.0393 138.936 84.8366C139.17 85.6237 139.187 86.3701 138.986 87.0757C138.781 87.7711 138.373 88.3825 137.763 88.9097C137.159 89.4236 136.382 89.8223 135.431 90.1058L133.269 90.7504L134.152 93.7097L131.668 94.4504L128.467 83.7174L133.113 82.332ZM134.69 88.123C135.436 87.9005 135.956 87.5729 136.25 87.1402C136.541 86.6972 136.598 86.1793 136.421 85.5865C136.241 84.9834 135.91 84.5813 135.427 84.3802C134.941 84.169 134.325 84.1746 133.579 84.3971L131.555 85.0006L132.666 88.7265L134.69 88.123ZM150.329 86.7151L150.924 88.7083L142.613 91.1864L139.413 80.4535L147.524 78.0348L148.118 80.028L142.476 81.7106L143.171 84.0412L148.154 82.5552L148.73 84.4872L143.747 85.9731L144.488 88.4571L150.329 86.7151ZM149.73 77.3771L158.393 74.7938L158.982 76.7717L152.788 78.6189L153.446 80.8268L156.421 79.9398C157.719 79.5527 158.786 79.5294 159.622 79.87C160.469 80.2075 161.044 80.8874 161.349 81.9096C161.669 82.9829 161.54 83.9288 160.96 84.7472C160.38 85.5656 159.4 86.1806 158.021 86.5921L152.93 88.11L149.73 77.3771ZM157.334 84.7933C157.968 84.6043 158.417 84.3369 158.681 83.9909C158.942 83.6348 159.001 83.2165 158.858 82.7361C158.577 81.7957 157.783 81.5206 156.474 81.9107L153.99 82.6514L154.85 85.534L157.334 84.7933ZM171.966 80.2631L172.56 82.2564L164.25 84.7345L161.049 74.0015L169.161 71.5828L169.755 73.5761L164.112 75.2587L164.807 77.5892L169.791 76.1033L170.367 78.0352L165.383 79.5212L166.124 82.0051L171.966 80.2631ZM181.21 67.9898L184.41 78.7227L181.926 79.4634L180.614 75.0629L175.738 76.5169L177.051 80.9174L174.567 81.6581L171.366 70.9251L173.85 70.1844L175.112 74.4163L179.988 72.9623L178.726 68.7305L181.21 67.9898ZM189.965 72.358L188.248 72.87L189.537 77.1939L187.069 77.93L183.868 67.197L186.337 66.4609L187.631 70.8001L189.409 70.2697L190.937 65.0893L193.559 64.3074L191.593 70.5369L196.866 75.0084L194.045 75.8497L189.965 72.358ZM204.715 60.9808L202.678 70.8377C202.483 71.7865 202.136 72.5634 201.637 73.1684C201.149 73.7704 200.542 74.1796 199.816 74.396C199.254 74.5637 198.634 74.6148 197.958 74.5493L197.994 72.485C198.463 72.4899 198.84 72.4496 199.127 72.3643C199.433 72.2729 199.688 72.119 199.89 71.9027C200.09 71.6763 200.245 71.3741 200.355 70.9963L200.41 70.8462L193.828 64.227L196.481 63.436L201.052 68.3507L202.277 61.7077L204.715 60.9808ZM210.202 66.9745C210.044 66.443 210.03 65.9684 210.162 65.5507C210.303 65.13 210.542 64.6416 210.877 64.0853C211.123 63.6781 211.292 63.3494 211.384 63.0992C211.484 62.8358 211.494 62.5712 211.415 62.3054C211.302 61.9272 211.06 61.6765 210.689 61.5533C210.326 61.4168 209.894 61.4232 209.393 61.5726C208.912 61.7158 208.514 61.9461 208.196 62.2633C207.886 62.5672 207.657 62.9362 207.508 63.3702L205.328 62.8348C205.562 62.0525 205.989 61.3743 206.608 60.8002C207.237 60.2229 208.053 59.785 209.055 59.4862C210.23 59.1357 211.245 59.1057 212.1 59.3963C212.965 59.6838 213.53 60.2722 213.795 61.1615C213.92 61.5806 213.958 61.9699 213.91 62.3294C213.871 62.686 213.783 63.0071 213.646 63.293C213.516 63.5655 213.335 63.8922 213.103 64.2729C212.826 64.723 212.635 65.0915 212.531 65.3784C212.425 65.6551 212.42 65.957 212.518 66.2841L210.202 66.9745ZM212.515 70.4756C212.096 70.6005 211.704 70.5728 211.338 70.3924C210.98 70.1987 210.743 69.9076 210.627 69.5192C210.511 69.1308 210.553 68.7676 210.753 68.4298C210.95 68.0817 211.263 67.8437 211.692 67.7157C212.122 67.5876 212.514 67.6154 212.869 67.7988C213.221 67.9721 213.455 68.2529 213.571 68.6414C213.687 69.0298 213.643 69.4047 213.439 69.766C213.242 70.1141 212.934 70.3506 212.515 70.4756Z" fill="white"/>
</svg>
