<svg width="153" height="179" viewBox="0 0 153 179" fill="none" xmlns="http://www.w3.org/2000/svg">
<mask id="mask0" mask-type="alpha" maskUnits="userSpaceOnUse" x="0" y="0" width="153" height="179">
<rect y="0.589844" width="153" height="178" fill="white"/>
</mask>
<g mask="url(#mask0)">
<path d="M120.201 142.682C126.247 140.33 126.915 133.186 126.357 129.336C126.348 129.275 126.338 129.214 126.326 129.151C124.236 118.35 120.942 101.223 118.593 88.7469L127.88 85.1351C129.626 84.456 130.376 82.3599 129.553 80.4529C128.731 78.5458 126.649 77.5512 124.902 78.2303L117.187 81.2309C116.46 77.295 115.959 74.4854 115.819 73.5141L115.661 72.4278C115.066 68.394 113.673 58.9456 117.222 57.565C120.514 56.2847 123.392 61.629 123.53 61.8879C124.487 63.7285 126.618 64.5711 128.288 63.7306C129.967 62.9082 130.553 60.7397 129.599 58.8918C127.489 54.7986 121.562 47.8124 114.243 50.6589C105.956 53.882 107.846 66.6896 108.755 72.8458L108.906 73.8852C109.078 75.1066 109.747 78.8156 110.668 83.7664L99.6042 88.0693C97.8575 88.7486 97.1085 90.8445 97.9309 92.7515C98.7532 94.6585 100.835 95.6534 102.582 94.9741L112.079 91.2804C115.032 106.921 119.014 127.517 119.453 129.784C119.517 130.398 119.877 134.745 117.225 135.776C113.175 137.351 108.745 131.827 108.711 131.786C107.435 130.144 105.229 129.765 103.778 130.953C102.33 132.137 102.188 134.427 103.464 136.07C106.37 139.812 113.165 145.418 120.201 142.682Z" fill="url(#paint0_linear)"/>
<path d="M164.11 114.144C165.988 113.415 166.938 111.349 165.938 109.035C165.474 107.96 164.66 107.143 163.355 106.392L153.157 100.673L156.044 89.9993C156.287 88.9619 156.359 87.9285 155.871 86.7983C154.986 84.7511 152.804 83.8396 150.828 84.6066C149.495 85.124 148.854 86.4409 148.476 87.9727L146.557 97.0108L138.599 91.8055C137.029 90.8454 135.667 90.4918 134.186 91.0668C132.307 91.7961 131.357 93.8637 132.357 96.1778C132.821 97.2527 133.636 98.0692 134.938 98.8189L144.461 104.173L141.461 115.519C141.167 116.575 141.145 117.589 141.634 118.72C142.518 120.766 144.699 121.677 146.674 120.911C148.008 120.393 148.649 119.076 149.026 117.546L151.057 107.835L159.692 113.406C161.265 114.368 162.628 114.719 164.11 114.144Z" fill="url(#paint1_linear)"/>
<g opacity="0.7">
<mask id="mask1" mask-type="alpha" maskUnits="userSpaceOnUse" x="-41" y="0" width="198" height="121">
<rect x="-41" y="0.589844" width="198" height="120" fill="white"/>
</mask>
<g mask="url(#mask1)">
<path d="M38.5591 80.1547C38.3822 78.6781 37.8537 77.3177 37.073 76.1568L49.9518 56.4322C51.9678 57.0372 54.1021 57.2872 56.278 57.1136C59.9107 56.8239 63.1511 55.397 65.7199 53.1934L74.9924 61.151C74.5073 62.5039 74.3195 64.0067 74.5066 65.5687C75.1346 70.8132 79.7271 74.7545 84.7439 74.3543C89.7606 73.9542 93.3313 69.3617 92.7032 64.1172C92.0752 58.8727 87.4827 54.9314 82.4657 55.3316C80.9086 55.4558 79.4914 55.9843 78.2956 56.8101L69.2304 49.0304C71.2341 45.7036 72.1827 41.6261 71.6671 37.3207C71.1697 33.1672 69.3855 29.437 66.7865 26.5328L82.1235 6.62236C83.4464 7.19045 84.8987 7.4576 86.3896 7.33869C91.4061 6.93835 94.9766 2.34577 94.3485 -2.89878C93.7205 -8.14332 89.128 -12.0846 84.1112 -11.6844C79.0945 -11.2843 75.5238 -6.69187 76.1518 -1.44732C76.3472 0.183877 76.9265 1.68884 77.7822 2.97638L62.4313 22.9048C59.3063 21.0055 55.652 20.0327 51.8732 20.3341C47.9172 20.6496 44.4266 22.3139 41.7619 24.8615L32.6046 17.0027C33.0897 15.6501 33.2776 14.147 33.0905 12.5851C32.4624 7.34055 27.8699 3.39908 22.8532 3.79924C17.8364 4.1994 14.2657 8.79181 14.8938 14.0365C15.5219 19.2813 20.1144 23.2224 25.1313 22.8222C26.6884 22.698 28.1057 22.1694 29.3015 21.3436L38.4697 29.2119C36.7774 32.3839 36.0091 36.159 36.4843 40.1272C36.5352 40.552 36.6007 40.9717 36.678 41.3872L22.1854 46.3028C20.4505 44.1487 17.7897 42.85 14.9799 43.0742C10.4924 43.4321 7.29913 47.5398 7.86092 52.2308C8.4227 56.9218 12.5305 60.4471 17.0176 60.0892C21.2673 59.7502 24.3546 56.0477 24.1925 51.6717L38.5348 46.807C40.0332 49.7104 42.2173 52.1702 44.826 53.9637L32.5945 72.6968C31.5843 72.3559 30.5048 72.2082 29.4019 72.2961C24.9144 72.6541 21.7211 76.7617 22.2829 81.4528C22.8447 86.144 26.9524 89.6691 31.4397 89.3111C35.927 88.9532 39.1208 84.8455 38.5591 80.1547Z" fill="url(#paint2_linear)"/>
</g>
</g>
</g>
<defs>
<linearGradient id="paint0_linear" x1="65.9123" y1="42.7701" x2="153.388" y2="112.852" gradientUnits="userSpaceOnUse">
<stop stop-color="white"/>
<stop offset="1" stop-color="#F7E9E1"/>
</linearGradient>
<linearGradient id="paint1_linear" x1="127.86" y1="83.7088" x2="158.585" y2="114.307" gradientUnits="userSpaceOnUse">
<stop stop-color="white"/>
<stop offset="1" stop-color="#F7E9E1"/>
</linearGradient>
<linearGradient id="paint2_linear" x1="119.837" y1="-9.93916" x2="6.94694" y2="43.3194" gradientUnits="userSpaceOnUse">
<stop stop-color="white"/>
<stop offset="1" stop-color="#F7E9E1"/>
</linearGradient>
</defs>
</svg>
