<svg width="153" height="179" viewBox="0 0 153 179" fill="none" xmlns="http://www.w3.org/2000/svg">
<mask id="mask0" mask-type="alpha" maskUnits="userSpaceOnUse" x="0" y="0" width="153" height="179">
<rect y="0.589844" width="153" height="178" fill="white"/>
</mask>
<g mask="url(#mask0)">
<g opacity="0.9">
<path d="M135.143 130.58C134.466 132.01 132.805 132.634 131.287 132.028C130.403 131.675 129.481 131.682 128.681 131.983C127.817 132.308 127.095 132.976 126.72 133.903C126.357 134.799 126.369 135.807 126.754 136.739C127.14 137.67 127.852 138.414 128.76 138.834L138.122 143.162L141.864 133.909C142.228 133.01 142.216 132.003 141.83 131.071C141.445 130.14 140.732 129.395 139.825 128.976C138.021 128.145 135.963 128.849 135.143 130.58Z" fill="white"/>
<path d="M135.143 130.58C134.466 132.01 132.805 132.634 131.287 132.028C130.403 131.675 129.481 131.682 128.681 131.983C127.817 132.308 127.095 132.976 126.72 133.903C126.357 134.799 126.369 135.807 126.754 136.739C127.14 137.67 127.852 138.414 128.76 138.834L138.122 143.162L141.864 133.909C142.228 133.01 142.216 132.003 141.83 131.071C141.445 130.14 140.732 129.395 139.825 128.976C138.021 128.145 135.963 128.849 135.143 130.58Z" fill="url(#paint0_linear)"/>
<path d="M150.597 103.165L139.046 107.507L136.983 102.52C135.39 98.6699 131.072 96.6739 127.357 98.0704L113.881 103.136C110.166 104.532 108.44 108.8 110.032 112.65L112.096 117.637L100.545 121.979C95.7687 123.775 93.5487 129.262 95.5966 134.212L108.802 166.13C110.85 171.08 116.402 173.646 121.178 171.851L171.23 153.037C176.006 151.242 178.226 145.754 176.178 140.804L162.973 108.886C160.925 103.936 155.373 101.37 150.597 103.165ZM115.807 110.479C115.58 109.929 115.827 109.32 116.357 109.12L129.833 104.055C130.363 103.856 130.98 104.141 131.208 104.691L133.271 109.678L117.871 115.467L115.807 110.479ZM147.835 136.71L142.931 148.831C142.609 149.627 141.991 150.197 141.252 150.475C140.513 150.753 139.653 150.739 138.848 150.366L126.583 144.697C124.118 143.559 122.183 141.539 121.137 139.009C120.09 136.479 120.057 133.744 121.044 131.307C122.681 127.265 126.748 125.043 130.954 125.579C133.644 122.457 138.207 121.435 142.293 123.318C144.761 124.458 146.696 126.478 147.743 129.008C148.789 131.538 148.822 134.273 147.835 136.71Z" fill="white"/>
<path d="M150.597 103.165L139.046 107.507L136.983 102.52C135.39 98.6699 131.072 96.6739 127.357 98.0704L113.881 103.136C110.166 104.532 108.44 108.8 110.032 112.65L112.096 117.637L100.545 121.979C95.7687 123.775 93.5487 129.262 95.5966 134.212L108.802 166.13C110.85 171.08 116.402 173.646 121.178 171.851L171.23 153.037C176.006 151.242 178.226 145.754 176.178 140.804L162.973 108.886C160.925 103.936 155.373 101.37 150.597 103.165ZM115.807 110.479C115.58 109.929 115.827 109.32 116.357 109.12L129.833 104.055C130.363 103.856 130.98 104.141 131.208 104.691L133.271 109.678L117.871 115.467L115.807 110.479ZM147.835 136.71L142.931 148.831C142.609 149.627 141.991 150.197 141.252 150.475C140.513 150.753 139.653 150.739 138.848 150.366L126.583 144.697C124.118 143.559 122.183 141.539 121.137 139.009C120.09 136.479 120.057 133.744 121.044 131.307C122.681 127.265 126.748 125.043 130.954 125.579C133.644 122.457 138.207 121.435 142.293 123.318C144.761 124.458 146.696 126.478 147.743 129.008C148.789 131.538 148.822 134.273 147.835 136.71Z" fill="url(#paint1_linear)"/>
<path d="M28.8812 -4.52841C32.7797 -8.42672 39.12 -8.36157 42.9375 -4.38377L63.8327 17.3902L114.825 0.515016L125.529 11.2194L83.0255 37.3898L104.532 59.8007L118.324 57.5364L128 67.2115L107.723 74.3134L100.621 94.5899L90.946 84.9148L93.2103 71.1227L70.7994 49.6161L44.629 92.1196L33.9246 81.4152L50.7996 30.4229L29.026 9.52787C25.048 5.71044 24.9829 -0.629894 28.8812 -4.52841Z" fill="white"/>
<path d="M28.8812 -4.52841C32.7797 -8.42672 39.12 -8.36157 42.9375 -4.38377L63.8327 17.3902L114.825 0.515016L125.529 11.2194L83.0255 37.3898L104.532 59.8007L118.324 57.5364L128 67.2115L107.723 74.3134L100.621 94.5899L90.946 84.9148L93.2103 71.1227L70.7994 49.6161L44.629 92.1196L33.9246 81.4152L50.7996 30.4229L29.026 9.52787C25.048 5.71044 24.9829 -0.629894 28.8812 -4.52841Z" fill="url(#paint2_linear)"/>
</g>
</g>
<defs>
<linearGradient id="paint0_linear" x1="124.535" y1="129.376" x2="136.247" y2="144.604" gradientUnits="userSpaceOnUse">
<stop stop-color="white"/>
<stop offset="1" stop-color="#F7E9E1"/>
</linearGradient>
<linearGradient id="paint1_linear" x1="82.892" y1="94.5711" x2="141.073" y2="166.589" gradientUnits="userSpaceOnUse">
<stop stop-color="white"/>
<stop offset="1" stop-color="#F7E9E1"/>
</linearGradient>
<linearGradient id="paint2_linear" x1="123.157" y1="-36.2625" x2="76.9995" y2="94.5899" gradientUnits="userSpaceOnUse">
<stop stop-color="white"/>
<stop offset="1" stop-color="#F7E9E1"/>
</linearGradient>
</defs>
</svg>
