<svg width="153" height="179" viewBox="0 0 153 179" fill="none" xmlns="http://www.w3.org/2000/svg">
<mask id="mask0" mask-type="alpha" maskUnits="userSpaceOnUse" x="0" y="0" width="153" height="179">
<rect y="0.589844" width="153" height="178" fill="white"/>
</mask>
<g mask="url(#mask0)">
<g opacity="0.9">
<path d="M155.151 85.387C151.441 78.0632 142.885 74.7442 136.041 77.9735C130.861 80.4177 127.975 86.0517 128.805 92.0991C116.963 91.8773 106.054 97.0423 98.9866 106.217C93.1215 100.48 84.2171 100.354 79.0982 105.935C73.9792 111.517 74.5841 120.692 80.4493 126.429C83.3216 129.238 87.0866 130.821 90.8859 130.816C91.0651 153.839 109.412 173.88 131.866 175.577C154.319 177.274 172.376 159.986 172.197 136.962C172.088 123.063 165.232 109.567 153.913 100.975C157.32 96.742 157.806 90.6302 155.151 85.387ZM93.4861 113.458C93.5369 116.404 92.3728 119.133 90.2808 120.974C90.1399 121.054 89.9924 121.124 89.84 121.182C89.2433 121.501 88.512 121.496 87.8679 121.171C85.1057 119.734 83.8197 116.355 84.9954 113.623C86.1711 110.891 89.3636 109.841 92.1258 111.277C92.9254 111.719 93.4503 112.568 93.4822 113.471L93.4861 113.458ZM134.127 112.819L134.152 112.784C136.492 111.676 139.421 112.809 140.694 115.314C141.967 117.819 141.101 120.748 138.761 121.856C136.42 122.964 133.491 121.832 132.218 119.327C130.965 116.838 131.816 113.937 134.127 112.819ZM112.7 122.963L112.724 122.929C115.065 121.821 117.994 122.953 119.267 125.459C120.54 127.964 119.674 130.893 117.333 132.001C114.993 133.109 112.064 131.977 110.791 129.472C109.538 126.983 110.389 124.082 112.7 122.963ZM146.449 163.231C137.126 167.645 125.967 164.308 121.63 155.772C117.726 148.088 120.661 138.798 128.108 133.775C126.001 135.796 125.474 139.071 126.794 141.949C128.637 145.578 133.34 147.031 137.273 145.169C141.205 143.307 142.894 138.828 141.05 135.199C139.508 132.443 136.523 130.839 133.588 131.192C142.257 128.573 151.634 132.045 155.533 139.72C159.87 148.256 155.773 158.817 146.449 163.231ZM147.893 92.8302L147.844 92.7969C147.716 93.4878 147.272 94.0487 146.646 94.3093C146.51 94.379 146.368 94.4386 146.222 94.4878C143.452 94.9627 140.519 94.1991 138.139 92.3837C137.429 91.8081 137.059 90.8971 137.182 90.0235C137.697 87.0359 140.511 85.2421 143.469 86.0172C146.427 86.7923 148.407 89.8426 147.893 92.8302Z" fill="white"/>
<path d="M155.151 85.387C151.441 78.0632 142.885 74.7442 136.041 77.9735C130.861 80.4177 127.975 86.0517 128.805 92.0991C116.963 91.8773 106.054 97.0423 98.9866 106.217C93.1215 100.48 84.2171 100.354 79.0982 105.935C73.9792 111.517 74.5841 120.692 80.4493 126.429C83.3216 129.238 87.0866 130.821 90.8859 130.816C91.0651 153.839 109.412 173.88 131.866 175.577C154.319 177.274 172.376 159.986 172.197 136.962C172.088 123.063 165.232 109.567 153.913 100.975C157.32 96.742 157.806 90.6302 155.151 85.387ZM93.4861 113.458C93.5369 116.404 92.3728 119.133 90.2808 120.974C90.1399 121.054 89.9924 121.124 89.84 121.182C89.2433 121.501 88.512 121.496 87.8679 121.171C85.1057 119.734 83.8197 116.355 84.9954 113.623C86.1711 110.891 89.3636 109.841 92.1258 111.277C92.9254 111.719 93.4503 112.568 93.4822 113.471L93.4861 113.458ZM134.127 112.819L134.152 112.784C136.492 111.676 139.421 112.809 140.694 115.314C141.967 117.819 141.101 120.748 138.761 121.856C136.42 122.964 133.491 121.832 132.218 119.327C130.965 116.838 131.816 113.937 134.127 112.819ZM112.7 122.963L112.724 122.929C115.065 121.821 117.994 122.953 119.267 125.459C120.54 127.964 119.674 130.893 117.333 132.001C114.993 133.109 112.064 131.977 110.791 129.472C109.538 126.983 110.389 124.082 112.7 122.963ZM146.449 163.231C137.126 167.645 125.967 164.308 121.63 155.772C117.726 148.088 120.661 138.798 128.108 133.775C126.001 135.796 125.474 139.071 126.794 141.949C128.637 145.578 133.34 147.031 137.273 145.169C141.205 143.307 142.894 138.828 141.05 135.199C139.508 132.443 136.523 130.839 133.588 131.192C142.257 128.573 151.634 132.045 155.533 139.72C159.87 148.256 155.773 158.817 146.449 163.231ZM147.893 92.8302L147.844 92.7969C147.716 93.4878 147.272 94.0487 146.646 94.3093C146.51 94.379 146.368 94.4386 146.222 94.4878C143.452 94.9627 140.519 94.1991 138.139 92.3837C137.429 91.8081 137.059 90.8971 137.182 90.0235C137.697 87.0359 140.511 85.2421 143.469 86.0172C146.427 86.7923 148.407 89.8426 147.893 92.8302Z" fill="url(#paint0_linear)"/>
<path d="M64.7782 19.86L70.7393 22.1631L70.527 14.5851L64.7782 19.86Z" fill="white"/>
<path d="M64.7782 19.86L70.7393 22.1631L70.527 14.5851L64.7782 19.86Z" fill="url(#paint1_linear)"/>
<path d="M94.1424 6.68054L59.5263 -6.69205C58.3305 -7.15401 56.9134 -6.48469 56.3581 -5.19558L41.2204 29.9436L80.1635 44.9878L95.3012 9.84857C95.8565 8.55946 95.3382 7.1425 94.1424 6.68054ZM73.5007 33.7845C73.1164 33.8299 72.7525 33.7823 72.4271 33.6566C71.6368 33.3513 71.0752 32.5845 71.0471 31.6199L70.9357 27.6397L60.6295 23.6583L57.6099 26.4289C56.8771 27.0996 55.9093 27.2756 55.1191 26.9703C54.7937 26.8446 54.4985 26.6376 54.2574 26.3505C53.4365 25.3613 53.609 23.7941 54.6378 22.8473L71.3295 7.53247C71.3501 7.51373 72.5153 6.50884 73.8166 7.0208C75.1139 7.52524 75.1994 9.00097 75.2002 9.02774L75.8165 31.0289C75.8524 32.387 74.818 33.6212 73.5007 33.7845Z" fill="white"/>
<path d="M94.1424 6.68054L59.5263 -6.69205C58.3305 -7.15401 56.9134 -6.48469 56.3581 -5.19558L41.2204 29.9436L80.1635 44.9878L95.3012 9.84857C95.8565 8.55946 95.3382 7.1425 94.1424 6.68054ZM73.5007 33.7845C73.1164 33.8299 72.7525 33.7823 72.4271 33.6566C71.6368 33.3513 71.0752 32.5845 71.0471 31.6199L70.9357 27.6397L60.6295 23.6583L57.6099 26.4289C56.8771 27.0996 55.9093 27.2756 55.1191 26.9703C54.7937 26.8446 54.4985 26.6376 54.2574 26.3505C53.4365 25.3613 53.609 23.7941 54.6378 22.8473L71.3295 7.53247C71.3501 7.51373 72.5153 6.50884 73.8166 7.0208C75.1139 7.52524 75.1994 9.00097 75.2002 9.02774L75.8165 31.0289C75.8524 32.387 74.818 33.6212 73.5007 33.7845Z" fill="url(#paint2_linear)"/>
<path d="M38.2904 48.1791C38.8508 46.8716 38.3209 45.4268 37.1128 44.9577L30.5327 42.4028L28.5012 47.1423L35.0813 49.6972C36.2894 50.1663 37.73 49.4865 38.2904 48.1791Z" fill="white"/>
<path d="M38.2904 48.1791C38.8508 46.8716 38.3209 45.4268 37.1128 44.9577L30.5327 42.4028L28.5012 47.1423L35.0813 49.6972C36.2894 50.1663 37.73 49.4865 38.2904 48.1791Z" fill="url(#paint3_linear)"/>
<path d="M57.3427 39.0502L24.8165 26.4698C23.6233 26.0082 22.2106 26.674 21.658 27.9583L7.59524 60.6428C7.04266 61.9271 7.56109 63.3398 8.75434 63.8014L41.2805 76.3818L57.3427 39.0502ZM29.2346 63.4114L20.5993 60.0714C19.4061 59.6099 18.8877 58.1972 19.4402 56.9129C19.6573 56.4085 27.7349 37.6345 27.438 38.3246C27.9906 37.0403 29.4033 36.3745 30.5966 36.836L39.2318 40.1759C42.8031 41.5572 44.3629 45.8078 42.7091 49.6515C41.9382 51.4433 40.5927 52.8116 39.0252 53.6471C39.529 55.2838 39.4811 57.154 38.7102 58.9457C37.0564 62.7895 32.8059 64.7927 29.2346 63.4114Z" fill="white"/>
<path d="M57.3427 39.0502L24.8165 26.4698C23.6233 26.0082 22.2106 26.674 21.658 27.9583L7.59524 60.6428C7.04266 61.9271 7.56109 63.3398 8.75434 63.8014L41.2805 76.3818L57.3427 39.0502ZM29.2346 63.4114L20.5993 60.0714C19.4061 59.6099 18.8877 58.1972 19.4402 56.9129C19.6573 56.4085 27.7349 37.6345 27.438 38.3246C27.9906 37.0403 29.4033 36.3745 30.5966 36.836L39.2318 40.1759C42.8031 41.5572 44.3629 45.8078 42.7091 49.6515C41.9382 51.4433 40.5927 52.8116 39.0252 53.6471C39.529 55.2838 39.4811 57.154 38.7102 58.9457C37.0564 62.7895 32.8059 64.7927 29.2346 63.4114Z" fill="url(#paint4_linear)"/>
<path d="M33.4546 53.9334L26.8745 51.3784L24.843 56.1182L31.4231 58.6732C32.6312 59.1423 34.0717 58.4626 34.6322 57.155C35.1926 55.8475 34.6627 54.4025 33.4546 53.9334Z" fill="white"/>
<path d="M33.4546 53.9334L26.8745 51.3784L24.843 56.1182L31.4231 58.6732C32.6312 59.1423 34.0717 58.4626 34.6322 57.155C35.1926 55.8475 34.6627 54.4025 33.4546 53.9334Z" fill="url(#paint5_linear)"/>
<path d="M95.7244 54.7392L63.1982 42.1587L47.136 79.4903L79.6622 92.0708C80.8555 92.5323 82.2682 91.8665 82.8208 90.5822L96.8835 57.8977C97.4361 56.6134 96.9177 55.2007 95.7244 54.7392ZM69.4718 74.3976C71.2048 75.0678 73.1395 74.9718 74.9244 74.1271C76.1601 73.541 77.5285 74.0757 77.9832 75.305C78.4368 76.5365 77.8032 78.0092 76.5737 78.5922C73.5922 80.0009 70.3606 80.1618 67.4724 79.0447C61.5188 76.7419 58.9208 69.6577 61.6769 63.252C64.433 56.8463 71.516 53.5065 77.4696 55.8092C80.3578 56.9263 82.5486 59.1844 83.6402 62.1685C84.0888 63.4006 83.4552 64.8733 82.2224 65.4526C80.9906 66.0295 79.6183 65.5039 79.1674 64.2657C78.515 62.4783 77.2031 61.1266 75.4702 60.4563C71.8989 59.075 67.6484 61.0782 65.9946 64.922C64.3407 68.7657 65.9006 73.0163 69.4718 74.3976Z" fill="white"/>
<path d="M95.7244 54.7392L63.1982 42.1587L47.136 79.4903L79.6622 92.0708C80.8555 92.5323 82.2682 91.8665 82.8208 90.5822L96.8835 57.8977C97.4361 56.6134 96.9177 55.2007 95.7244 54.7392ZM69.4718 74.3976C71.2048 75.0678 73.1395 74.9718 74.9244 74.1271C76.1601 73.541 77.5285 74.0757 77.9832 75.305C78.4368 76.5365 77.8032 78.0092 76.5737 78.5922C73.5922 80.0009 70.3606 80.1618 67.4724 79.0447C61.5188 76.7419 58.9208 69.6577 61.6769 63.252C64.433 56.8463 71.516 53.5065 77.4696 55.8092C80.3578 56.9263 82.5486 59.1844 83.6402 62.1685C84.0888 63.4006 83.4552 64.8733 82.2224 65.4526C80.9906 66.0295 79.6183 65.5039 79.1674 64.2657C78.515 62.4783 77.2031 61.1266 75.4702 60.4563C71.8989 59.075 67.6484 61.0782 65.9946 64.922C64.3407 68.7657 65.9006 73.0163 69.4718 74.3976Z" fill="url(#paint6_linear)"/>
</g>
</g>
<defs>
<linearGradient id="paint0_linear" x1="62.5599" y1="84.0955" x2="152.426" y2="170.606" gradientUnits="userSpaceOnUse">
<stop stop-color="white"/>
<stop offset="1" stop-color="#F7E9E1"/>
</linearGradient>
<linearGradient id="paint1_linear" x1="68.6124" y1="11.7251" x2="68.564" y2="21.0158" gradientUnits="userSpaceOnUse">
<stop stop-color="white"/>
<stop offset="1" stop-color="#F7E9E1"/>
</linearGradient>
<linearGradient id="paint2_linear" x1="63.7776" y1="-17.4131" x2="61.531" y2="37.5" gradientUnits="userSpaceOnUse">
<stop stop-color="white"/>
<stop offset="1" stop-color="#F7E9E1"/>
</linearGradient>
<linearGradient id="paint3_linear" x1="31.5238" y1="41.2239" x2="30.2199" y2="48.3579" gradientUnits="userSpaceOnUse">
<stop stop-color="white"/>
<stop offset="1" stop-color="#F7E9E1"/>
</linearGradient>
<linearGradient id="paint4_linear" x1="28.8477" y1="15.7118" x2="28.5175" y2="69.7021" gradientUnits="userSpaceOnUse">
<stop stop-color="white"/>
<stop offset="1" stop-color="#F7E9E1"/>
</linearGradient>
<linearGradient id="paint5_linear" x1="27.8656" y1="50.1994" x2="26.5615" y2="57.3338" gradientUnits="userSpaceOnUse">
<stop stop-color="white"/>
<stop offset="1" stop-color="#F7E9E1"/>
</linearGradient>
<linearGradient id="paint6_linear" x1="69.3882" y1="32.2357" x2="69.058" y2="86.226" gradientUnits="userSpaceOnUse">
<stop stop-color="white"/>
<stop offset="1" stop-color="#F7E9E1"/>
</linearGradient>
</defs>
</svg>
