<svg width="153" height="179" viewBox="0 0 153 179" fill="none" xmlns="http://www.w3.org/2000/svg">
<mask id="mask0" mask-type="alpha" maskUnits="userSpaceOnUse" x="0" y="0" width="153" height="179">
<rect y="0.589844" width="153" height="178" fill="white"/>
</mask>
<g mask="url(#mask0)">
<g opacity="0.9">
<path d="M133.064 141.65L165.789 87.2323L163.608 86.1577C154.867 81.8383 145.502 78.9171 135.855 77.5017L131.287 76.8212L98.6915 131.024L102.018 131.518C111.993 132.997 121.676 136.023 130.717 140.487L133.064 141.65Z" fill="white"/>
<path d="M133.064 141.65L165.789 87.2323L163.608 86.1577C154.867 81.8383 145.502 78.9171 135.855 77.5017L131.287 76.8212L98.6915 131.024L102.018 131.518C111.993 132.997 121.676 136.023 130.717 140.487L133.064 141.65Z" fill="url(#paint0_linear)"/>
<path d="M167.754 99.3683L163.672 96.9134L135.032 144.539C134.607 145.251 133.707 145.516 132.964 145.149L129.307 143.339C128.251 142.817 127.186 142.317 126.113 141.839C125.765 141.683 125.412 141.541 125.062 141.392C124.335 141.077 123.608 140.763 122.873 140.467C122.445 140.294 122.013 140.134 121.583 139.968C120.919 139.712 120.255 139.455 119.586 139.213C119.128 139.049 118.665 138.896 118.195 138.734C117.552 138.512 116.908 138.292 116.261 138.087C115.775 137.932 115.288 137.785 114.801 137.639C114.168 137.444 113.532 137.261 112.893 137.085C112.396 136.945 111.896 136.813 111.396 136.682C110.756 136.516 110.121 136.357 109.481 136.205C108.978 136.088 108.475 135.971 107.974 135.855C107.327 135.713 106.679 135.578 106.029 135.45C105.532 135.353 105.034 135.256 104.522 135.161C104.293 135.12 104.062 135.085 103.833 135.045L135.021 153.801L167.754 99.3683Z" fill="white"/>
<path d="M167.754 99.3683L163.672 96.9134L135.032 144.539C134.607 145.251 133.707 145.516 132.964 145.149L129.307 143.339C128.251 142.817 127.186 142.317 126.113 141.839C125.765 141.683 125.412 141.541 125.062 141.392C124.335 141.077 123.608 140.763 122.873 140.467C122.445 140.294 122.013 140.134 121.583 139.968C120.919 139.712 120.255 139.455 119.586 139.213C119.128 139.049 118.665 138.896 118.195 138.734C117.552 138.512 116.908 138.292 116.261 138.087C115.775 137.932 115.288 137.785 114.801 137.639C114.168 137.444 113.532 137.261 112.893 137.085C112.396 136.945 111.896 136.813 111.396 136.682C110.756 136.516 110.121 136.357 109.481 136.205C108.978 136.088 108.475 135.971 107.974 135.855C107.327 135.713 106.679 135.578 106.029 135.45C105.532 135.353 105.034 135.256 104.522 135.161C104.293 135.12 104.062 135.085 103.833 135.045L135.021 153.801L167.754 99.3683Z" fill="url(#paint1_linear)"/>
<path d="M105.166 51.0126L103.195 49.5898L70.4673 104.012L72.759 105.669C80.9326 111.564 88.1301 118.706 94.0883 126.834L95.9701 129.387L128.566 75.1843L125.827 71.4725C120.053 63.6138 113.082 56.7098 105.166 51.0126Z" fill="white"/>
<path d="M105.166 51.0126L103.195 49.5898L70.4673 104.012L72.759 105.669C80.9326 111.564 88.1301 118.706 94.0883 126.834L95.9701 129.387L128.566 75.1843L125.827 71.4725C120.053 63.6138 113.082 56.7098 105.166 51.0126Z" fill="url(#paint2_linear)"/>
<path d="M91.5532 53.543L58.8209 107.973L90.031 126.741C89.9031 126.575 89.778 126.404 89.6468 126.24C89.3465 125.857 89.039 125.48 88.7329 125.101C88.3007 124.568 87.8661 124.041 87.4216 123.519C87.1008 123.141 86.7764 122.766 86.4493 122.393C86.0062 121.88 85.5548 121.376 85.0959 120.883C84.7592 120.518 84.4235 120.152 84.0843 119.792C83.6179 119.301 83.1455 118.817 82.6701 118.335C82.3253 117.985 81.9798 117.634 81.6212 117.285C81.1331 116.806 80.6348 116.337 80.136 115.869C79.7812 115.535 79.4265 115.2 79.0677 114.873C78.5447 114.399 78.0118 113.936 77.4785 113.473C77.129 113.17 76.7791 112.867 76.4297 112.562C75.8347 112.062 75.228 111.577 74.6218 111.091C74.315 110.846 74.0161 110.594 73.706 110.356C72.7808 109.635 71.8447 108.932 70.8979 108.246L67.4215 105.733C66.7516 105.248 66.5661 104.331 66.9947 103.624L95.6354 55.9979L91.5532 53.543Z" fill="white"/>
<path d="M91.5532 53.543L58.8209 107.973L90.031 126.741C89.9031 126.575 89.778 126.404 89.6468 126.24C89.3465 125.857 89.039 125.48 88.7329 125.101C88.3007 124.568 87.8661 124.041 87.4216 123.519C87.1008 123.141 86.7764 122.766 86.4493 122.393C86.0062 121.88 85.5548 121.376 85.0959 120.883C84.7592 120.518 84.4235 120.152 84.0843 119.792C83.6179 119.301 83.1455 118.817 82.6701 118.335C82.3253 117.985 81.9798 117.634 81.6212 117.285C81.1331 116.806 80.6348 116.337 80.136 115.869C79.7812 115.535 79.4265 115.2 79.0677 114.873C78.5447 114.399 78.0118 113.936 77.4785 113.473C77.129 113.17 76.7791 112.867 76.4297 112.562C75.8347 112.062 75.228 111.577 74.6218 111.091C74.315 110.846 74.0161 110.594 73.706 110.356C72.7808 109.635 71.8447 108.932 70.8979 108.246L67.4215 105.733C66.7516 105.248 66.5661 104.331 66.9947 103.624L95.6354 55.9979L91.5532 53.543Z" fill="url(#paint3_linear)"/>
<path d="M54.797 79.273L61.3003 66.7065L57.7221 64.5624C56.6941 63.9464 56.2919 62.6134 56.8239 61.5854C57.3559 60.5574 58.6207 60.2234 59.6487 60.8394L63.227 62.9835L65.1536 59.2605L61.5754 57.1164C60.5474 56.5004 60.1452 55.1674 60.6772 54.1394C61.2093 53.1114 62.474 52.7774 63.502 53.3934L67.0803 55.5375L69.007 51.8143L65.4288 49.6702C64.4008 49.0542 63.9986 47.7212 64.5306 46.6932C65.0626 45.6652 66.3274 45.3312 67.3554 45.9472L70.9337 48.0913L72.8603 44.3683L69.2821 42.2242C68.2541 41.6082 67.8519 40.2752 68.3839 39.2472C68.9159 38.2192 70.1807 37.8852 71.2087 38.5012L74.787 40.6453L76.7136 36.9223L73.1354 34.7782C72.1074 34.1622 71.7052 32.8292 72.2372 31.8012C72.7692 30.7732 74.034 30.4392 75.062 31.0552L78.6403 33.1993L80.5669 29.4763L76.9887 27.3322C75.9606 26.716 75.5585 25.3832 76.0905 24.3552C76.6224 23.3271 77.8873 22.993 78.9153 23.6092L82.4936 25.753L84.4203 22.03L80.842 19.8858C79.814 19.2699 79.4118 17.9369 79.9438 16.9089C80.4758 15.8809 81.7407 15.5469 82.7687 16.1628L86.3469 18.307L88.2736 14.584L84.6953 12.4398C83.6673 11.8238 83.2652 10.4909 83.7971 9.46291C84.3291 8.4349 85.594 8.10084 86.622 8.71684L90.2002 10.861L96.7035 -1.70588C97.5515 -3.34443 95.9951 -5.35201 94.237 -4.88768L32.7941 11.3401C31.7043 11.6279 31.1016 12.7925 31.4481 13.941L50.9844 78.6923C51.5434 80.545 53.9491 80.9116 54.797 79.273ZM50.0911 25.1121C49.7446 23.9635 50.3472 22.799 51.4371 22.5112L64.5848 19.0387C66.343 18.5743 67.8993 20.5819 67.0515 22.2205L58.0843 39.5485C57.2364 41.1871 54.8307 40.8206 54.2717 38.9677L50.0913 25.112L50.0911 25.1121Z" fill="white"/>
<path d="M54.797 79.273L61.3003 66.7065L57.7221 64.5624C56.6941 63.9464 56.2919 62.6134 56.8239 61.5854C57.3559 60.5574 58.6207 60.2234 59.6487 60.8394L63.227 62.9835L65.1536 59.2605L61.5754 57.1164C60.5474 56.5004 60.1452 55.1674 60.6772 54.1394C61.2093 53.1114 62.474 52.7774 63.502 53.3934L67.0803 55.5375L69.007 51.8143L65.4288 49.6702C64.4008 49.0542 63.9986 47.7212 64.5306 46.6932C65.0626 45.6652 66.3274 45.3312 67.3554 45.9472L70.9337 48.0913L72.8603 44.3683L69.2821 42.2242C68.2541 41.6082 67.8519 40.2752 68.3839 39.2472C68.9159 38.2192 70.1807 37.8852 71.2087 38.5012L74.787 40.6453L76.7136 36.9223L73.1354 34.7782C72.1074 34.1622 71.7052 32.8292 72.2372 31.8012C72.7692 30.7732 74.034 30.4392 75.062 31.0552L78.6403 33.1993L80.5669 29.4763L76.9887 27.3322C75.9606 26.716 75.5585 25.3832 76.0905 24.3552C76.6224 23.3271 77.8873 22.993 78.9153 23.6092L82.4936 25.753L84.4203 22.03L80.842 19.8858C79.814 19.2699 79.4118 17.9369 79.9438 16.9089C80.4758 15.8809 81.7407 15.5469 82.7687 16.1628L86.3469 18.307L88.2736 14.584L84.6953 12.4398C83.6673 11.8238 83.2652 10.4909 83.7971 9.46291C84.3291 8.4349 85.594 8.10084 86.622 8.71684L90.2002 10.861L96.7035 -1.70588C97.5515 -3.34443 95.9951 -5.35201 94.237 -4.88768L32.7941 11.3401C31.7043 11.6279 31.1016 12.7925 31.4481 13.941L50.9844 78.6923C51.5434 80.545 53.9491 80.9116 54.797 79.273ZM50.0911 25.1121C49.7446 23.9635 50.3472 22.799 51.4371 22.5112L64.5848 19.0387C66.343 18.5743 67.8993 20.5819 67.0515 22.2205L58.0843 39.5485C57.2364 41.1871 54.8307 40.8206 54.2717 38.9677L50.0913 25.112L50.0911 25.1121Z" fill="url(#paint4_linear)"/>
</g>
</g>
<defs>
<linearGradient id="paint0_linear" x1="147.785" y1="52.6046" x2="155.17" y2="136.365" gradientUnits="userSpaceOnUse">
<stop stop-color="white"/>
<stop offset="1" stop-color="#F7E9E1"/>
</linearGradient>
<linearGradient id="paint1_linear" x1="147.306" y1="66.1061" x2="148.119" y2="144.124" gradientUnits="userSpaceOnUse">
<stop stop-color="white"/>
<stop offset="1" stop-color="#F7E9E1"/>
</linearGradient>
<linearGradient id="paint2_linear" x1="115.128" y1="32.965" x2="122.512" y2="116.726" gradientUnits="userSpaceOnUse">
<stop stop-color="white"/>
<stop offset="1" stop-color="#F7E9E1"/>
</linearGradient>
<linearGradient id="paint3_linear" x1="102.294" y1="39.0376" x2="103.081" y2="117.068" gradientUnits="userSpaceOnUse">
<stop stop-color="white"/>
<stop offset="1" stop-color="#F7E9E1"/>
</linearGradient>
<linearGradient id="paint4_linear" x1="119.784" y1="83.8184" x2="62.5575" y2="3.91323" gradientUnits="userSpaceOnUse">
<stop stop-color="white"/>
<stop offset="1" stop-color="#F7E9E1"/>
</linearGradient>
</defs>
</svg>
