<svg width="153" height="179" viewBox="0 0 153 179" fill="none" xmlns="http://www.w3.org/2000/svg">
<mask id="mask0" mask-type="alpha" maskUnits="userSpaceOnUse" x="0" y="0" width="153" height="179">
<rect y="0.589844" width="153" height="178" fill="white"/>
</mask>
<g mask="url(#mask0)">
<path fill-rule="evenodd" clip-rule="evenodd" d="M40.6957 77.6409C57.5232 74.8168 68.8753 58.8861 66.0512 42.0586C63.2272 25.231 47.2965 13.879 30.4689 16.703C13.6414 19.5271 2.28934 35.4578 5.11339 52.2853C7.93743 69.1129 23.8682 80.4649 40.6957 77.6409ZM46.5086 46.6874C47.6274 45.6421 47.3165 43.7895 45.9178 43.1666L30.6772 36.38C29.123 35.6879 27.427 37.0068 27.7091 38.6881L30.7596 56.8648C31.0417 58.546 33.0755 59.239 34.3186 58.0775L46.5086 46.6874Z" fill="white"/>
<path fill-rule="evenodd" clip-rule="evenodd" d="M40.6957 77.6409C57.5232 74.8168 68.8753 58.8861 66.0512 42.0586C63.2272 25.231 47.2965 13.879 30.4689 16.703C13.6414 19.5271 2.28934 35.4578 5.11339 52.2853C7.93743 69.1129 23.8682 80.4649 40.6957 77.6409ZM46.5086 46.6874C47.6274 45.6421 47.3165 43.7895 45.9178 43.1666L30.6772 36.38C29.123 35.6879 27.427 37.0068 27.7091 38.6881L30.7596 56.8648C31.0417 58.546 33.0755 59.239 34.3186 58.0775L46.5086 46.6874Z" fill="url(#paint0_linear)"/>
<path d="M108.765 130.743L153.313 118.807L156.705 131.467L112.158 143.403L108.765 130.743ZM152.026 60.4749L152.523 82.6072C155.624 86.321 157.995 90.734 159.333 95.6949L169.674 134.019C170.262 136.198 169.961 138.478 168.829 140.436C167.695 142.396 165.864 143.8 163.673 144.391L112.704 158.142L112.69 158.146C108.173 159.356 103.512 156.687 102.3 152.197L91.96 113.872C90.6181 108.899 90.4069 103.801 91.2787 98.8702L80.7131 79.5831C80.1636 78.5797 80.3629 77.3312 81.1987 76.5431L88.4054 69.7473C88.9767 69.2082 89.7664 68.9639 90.5425 69.0844C91.3186 69.2053 91.9937 69.6779 92.37 70.3642L98.9956 82.4595C100.218 81.0085 101.555 79.67 102.986 78.4458L102.526 76.7312C100.655 69.7506 104.843 62.5418 111.861 60.6613L115.59 59.6622C122.608 57.7817 129.839 61.9308 131.71 68.9115L132.184 70.6831C134.045 71.0366 135.868 71.5339 137.632 72.1757L137.321 58.3196C137.303 57.5372 137.651 56.7905 138.264 56.2976C138.875 55.8048 139.681 55.6221 140.446 55.8031L150.085 58.0851C151.203 58.35 152 59.3312 152.026 60.4749ZM107.384 75.2475C110.214 73.5112 113.308 72.1664 116.606 71.2769L116.666 71.2609C120.045 70.3553 123.443 69.9866 126.772 70.0896C125.564 65.8764 121.168 63.3867 116.895 64.5315L113.166 65.5306C108.905 66.6721 106.346 71.0058 107.384 75.2475ZM157.555 115.061C157.195 113.716 155.807 112.92 154.455 113.282L105.013 126.53C103.661 126.893 102.858 128.276 103.218 129.621L107.915 147.15C108.275 148.494 109.663 149.291 111.015 148.928L160.457 135.68C161.809 135.318 162.612 133.935 162.252 132.59L157.555 115.061ZM153.163 98.6697C149.171 83.7686 133.734 74.9115 118.753 78.9256C103.772 82.9398 94.8327 98.3284 98.8255 113.229C99.1857 114.574 100.574 115.37 101.925 115.008C103.277 114.646 104.081 113.262 103.721 111.918C100.447 99.7016 107.776 87.0861 120.058 83.7952C132.339 80.5043 144.994 87.7654 148.267 99.9816C148.628 101.326 150.015 102.122 151.367 101.76C152.719 101.398 153.524 100.014 153.163 98.6697Z" fill="white"/>
<path d="M108.765 130.743L153.313 118.807L156.705 131.467L112.158 143.403L108.765 130.743ZM152.026 60.4749L152.523 82.6072C155.624 86.321 157.995 90.734 159.333 95.6949L169.674 134.019C170.262 136.198 169.961 138.478 168.829 140.436C167.695 142.396 165.864 143.8 163.673 144.391L112.704 158.142L112.69 158.146C108.173 159.356 103.512 156.687 102.3 152.197L91.96 113.872C90.6181 108.899 90.4069 103.801 91.2787 98.8702L80.7131 79.5831C80.1636 78.5797 80.3629 77.3312 81.1987 76.5431L88.4054 69.7473C88.9767 69.2082 89.7664 68.9639 90.5425 69.0844C91.3186 69.2053 91.9937 69.6779 92.37 70.3642L98.9956 82.4595C100.218 81.0085 101.555 79.67 102.986 78.4458L102.526 76.7312C100.655 69.7506 104.843 62.5418 111.861 60.6613L115.59 59.6622C122.608 57.7817 129.839 61.9308 131.71 68.9115L132.184 70.6831C134.045 71.0366 135.868 71.5339 137.632 72.1757L137.321 58.3196C137.303 57.5372 137.651 56.7905 138.264 56.2976C138.875 55.8048 139.681 55.6221 140.446 55.8031L150.085 58.0851C151.203 58.35 152 59.3312 152.026 60.4749ZM107.384 75.2475C110.214 73.5112 113.308 72.1664 116.606 71.2769L116.666 71.2609C120.045 70.3553 123.443 69.9866 126.772 70.0896C125.564 65.8764 121.168 63.3867 116.895 64.5315L113.166 65.5306C108.905 66.6721 106.346 71.0058 107.384 75.2475ZM157.555 115.061C157.195 113.716 155.807 112.92 154.455 113.282L105.013 126.53C103.661 126.893 102.858 128.276 103.218 129.621L107.915 147.15C108.275 148.494 109.663 149.291 111.015 148.928L160.457 135.68C161.809 135.318 162.612 133.935 162.252 132.59L157.555 115.061ZM153.163 98.6697C149.171 83.7686 133.734 74.9115 118.753 78.9256C103.772 82.9398 94.8327 98.3284 98.8255 113.229C99.1857 114.574 100.574 115.37 101.925 115.008C103.277 114.646 104.081 113.262 103.721 111.918C100.447 99.7016 107.776 87.0861 120.058 83.7952C132.339 80.5043 144.994 87.7654 148.267 99.9816C148.628 101.326 150.015 102.122 151.367 101.76C152.719 101.398 153.524 100.014 153.163 98.6697Z" fill="url(#paint1_linear)"/>
</g>
<defs>
<linearGradient id="paint0_linear" x1="-3.23186e-07" y1="4.09367" x2="40.6957" y2="77.6409" gradientUnits="userSpaceOnUse">
<stop stop-color="white"/>
<stop offset="1" stop-color="#F7E9E1"/>
</linearGradient>
<linearGradient id="paint1_linear" x1="74.4824" y1="43.0389" x2="152.997" y2="139.203" gradientUnits="userSpaceOnUse">
<stop stop-color="white"/>
<stop offset="1" stop-color="#F7E9E1"/>
</linearGradient>
</defs>
</svg>
