<svg width="153" height="179" viewBox="0 0 153 179" fill="none" xmlns="http://www.w3.org/2000/svg">
<mask id="mask0" mask-type="alpha" maskUnits="userSpaceOnUse" x="0" y="0" width="153" height="179">
<rect y="0.589844" width="153" height="178" fill="white"/>
</mask>
<g mask="url(#mask0)">
<g opacity="0.9">
<path fill-rule="evenodd" clip-rule="evenodd" d="M65.5663 149.447C79.0324 147.187 88.1167 134.439 85.8568 120.973C83.5969 107.506 70.8485 98.4221 57.3824 100.682C43.9164 102.942 34.832 115.69 37.0919 129.156C39.3518 142.622 52.1003 151.707 65.5663 149.447ZM70.2181 124.677C71.1134 123.84 70.8646 122.358 69.7452 121.859L57.5492 116.428C56.3054 115.874 54.9482 116.93 55.174 118.275L57.6151 132.821C57.8409 134.166 59.4683 134.721 60.4631 133.791L70.2181 124.677Z" fill="white"/>
<path fill-rule="evenodd" clip-rule="evenodd" d="M65.5663 149.447C79.0324 147.187 88.1167 134.439 85.8568 120.973C83.5969 107.506 70.8485 98.4221 57.3824 100.682C43.9164 102.942 34.832 115.69 37.0919 129.156C39.3518 142.622 52.1003 151.707 65.5663 149.447ZM70.2181 124.677C71.1134 123.84 70.8646 122.358 69.7452 121.859L57.5492 116.428C56.3054 115.874 54.9482 116.93 55.174 118.275L57.6151 132.821C57.8409 134.166 59.4683 134.721 60.4631 133.791L70.2181 124.677Z" fill="url(#paint0_linear)"/>
<path d="M148.992 102.912C148.448 98.3981 146.651 93.5474 143.899 89.5009C142.131 86.9051 139.564 84.7301 136.474 83.2085C131.623 80.8162 126.728 81.151 121.999 81.4742C118.47 81.7156 115.137 81.9449 111.959 81.046L111.391 80.8871C109.519 80.3645 107.401 79.7694 106.329 78.7232C105.246 77.6633 103.515 77.6524 102.39 78.6325C101.257 79.6404 101.097 81.3485 102.026 82.5493L133.508 123.231C130.697 123.552 127.79 124.663 125.21 126.659C118.919 131.528 116.965 139.588 120.862 144.624C124.759 149.66 133.052 149.791 139.343 144.923C145.635 140.054 147.589 131.994 143.692 126.958L123.099 100.348C127.543 99.0046 135.737 97.9999 143.311 104.6C143.352 105.247 143.432 105.915 143.395 106.528C143.291 108.12 144.498 109.492 146.091 109.588C147.682 109.7 149.047 108.483 149.151 106.891C149.226 105.724 149.14 104.491 149.004 103.239C149.009 103.132 149.006 103.025 148.992 102.912Z" fill="url(#paint1_linear)"/>
<path d="M86 -16.4102C62.8423 -16.4102 44 2.43209 44 25.5898C44 48.7476 62.8423 67.5898 86 67.5898C109.158 67.5898 128 48.7476 128 25.5898C128 2.43209 109.158 -16.4102 86 -16.4102ZM88.667 -2.76541L99.4662 -8.57191C105.446 -6.20416 110.665 -2.32441 114.633 2.61059L112.061 14.4861L103.824 18.5233L88.667 7.48259V-2.76541ZM72.623 -8.60341L83.4222 -2.77591V7.48259L68.276 18.5233L59.9967 14.4808L57.4242 2.53184C61.4037 -2.39266 66.6328 -6.25141 72.623 -8.60341ZM55.7075 46.3483C52.2793 41.3608 50.048 35.4966 49.4337 29.1598L58.322 19.5051L66.428 23.4688L72.5338 40.8096L67.373 46.9941L55.7075 46.3483ZM95.3607 61.0851C92.363 61.8778 89.2393 62.3398 86 62.3398C82.0835 62.3398 78.314 61.7098 74.7703 60.5706L71.468 50.2911L76.7337 43.9648H95.2873L100.458 50.0863L95.3607 61.0851ZM104.554 46.8156L99.4768 40.8043L105.667 23.4688L113.736 19.5156L122.571 29.1651C122.041 34.6303 120.283 39.7281 117.61 44.2378L104.554 46.8156Z" fill="url(#paint2_linear)"/>
</g>
</g>
<defs>
<linearGradient id="paint0_linear" x1="33" y1="90.5915" x2="65.5663" y2="149.447" gradientUnits="userSpaceOnUse">
<stop stop-color="white"/>
<stop offset="1" stop-color="#F7E9E1"/>
</linearGradient>
<linearGradient id="paint1_linear" x1="70.96" y1="76.1061" x2="158.189" y2="117.299" gradientUnits="userSpaceOnUse">
<stop stop-color="white"/>
<stop offset="1" stop-color="#F7E9E1"/>
</linearGradient>
<linearGradient id="paint2_linear" x1="47.9876" y1="-40.1709" x2="86" y2="67.5898" gradientUnits="userSpaceOnUse">
<stop stop-color="white"/>
<stop offset="1" stop-color="#F7E9E1"/>
</linearGradient>
</defs>
</svg>
