<svg width="46" height="47" viewBox="0 0 46 47" fill="none" xmlns="http://www.w3.org/2000/svg">
<circle cx="23" cy="23.2578" r="23" fill="white"/>
<path d="M23.2231 19.7294C20.6066 19.7294 18.4387 21.8709 18.4387 24.5385C18.4387 27.206 20.5692 29.3475 23.2231 29.3475C25.8769 29.3475 28.0075 27.1684 28.0075 24.5385C28.0075 21.9085 25.8395 19.7294 23.2231 19.7294ZM23.2231 27.6193C21.541 27.6193 20.158 26.2291 20.158 24.5385C20.158 22.8478 21.541 21.4577 23.2231 21.4577C24.9051 21.4577 26.2881 22.8478 26.2881 24.5385C26.2881 26.2291 24.9051 27.6193 23.2231 27.6193Z" fill="#1A1A1A"/>
<path d="M28.1943 20.7022C28.7929 20.7022 29.2783 20.2144 29.2783 19.6127C29.2783 19.0109 28.7929 18.5231 28.1943 18.5231C27.5956 18.5231 27.1103 19.0109 27.1103 19.6127C27.1103 20.2144 27.5956 20.7022 28.1943 20.7022Z" fill="#1A1A1A"/>
<path d="M30.9976 16.7982C30.0257 15.7838 28.6427 15.2578 27.0729 15.2578H19.373C16.1211 15.2578 13.9531 17.4369 13.9531 20.7056V28.4076C13.9531 30.0231 14.4764 31.4132 15.523 32.4276C16.5322 33.4045 17.8778 33.8929 19.4103 33.8929H27.0355C28.6427 33.8929 29.9884 33.3669 30.9602 32.4276C31.9694 31.4508 32.4927 30.0607 32.4927 28.4451V20.7056C32.4927 19.1276 31.9694 17.7751 30.9976 16.7982ZM30.8481 28.4451C30.8481 29.6098 30.4369 30.5491 29.7641 31.1878C29.0913 31.8265 28.1568 32.1646 27.0355 32.1646H19.4103C18.289 32.1646 17.3545 31.8265 16.6817 31.1878C16.0089 30.5115 15.6725 29.5723 15.6725 28.4076V20.7056C15.6725 19.5784 16.0089 18.6392 16.6817 17.9629C17.3172 17.3242 18.289 16.9861 19.4103 16.9861H27.1102C28.2316 16.9861 29.166 17.3242 29.8388 18.0005C30.4743 18.6768 30.8481 19.616 30.8481 20.7056V28.4451Z" fill="#1A1A1A"/>
</svg>
