<svg width="166" height="28" viewBox="0 0 166 28" fill="none" xmlns="http://www.w3.org/2000/svg">
<g opacity="0.4">
<path fill-rule="evenodd" clip-rule="evenodd" d="M23.3721 6.83651C23.6671 6.99515 29.9092 12.7289 30.6128 13.4315C30.8398 13.6581 30.6128 13.4315 29.2055 14.9273C29.1374 14.9726 24.4389 19.2786 23.7125 19.7998L23.3948 20.1171V24.9897C23.5537 24.9897 36.1966 13.7261 36.1966 13.6808C36.2647 13.5221 32.2017 9.76006 32.179 9.76006C31.7251 9.4881 24.4616 2.66649 23.531 1.7373H23.3721V6.83651Z" fill="#9E9E9E"/>
<path fill-rule="evenodd" clip-rule="evenodd" d="M50.8372 9.62458C49.7477 11.7096 47.5459 11.2563 47.2963 11.3243L44.232 11.3696V6.15712L48.4085 6.24777H48.749C48.7717 6.27044 50.7464 6.13446 50.928 8.76338C50.928 9.10333 50.8826 9.32996 50.8372 9.62458ZM41.8714 2.87096C41.1677 3.0976 40.6683 3.39222 40.3733 4.11744L40.3052 4.34407V21.8627H44.3228V15.1317C45.8209 15.1317 49.2937 15.245 50.701 14.9731C51.2458 14.8598 51.8132 14.7011 52.2672 14.4292C52.2899 14.4065 52.7212 14.2932 53.4475 13.5453C53.9696 13.0014 54.2873 12.5255 54.537 11.6189C54.7867 10.6671 54.9683 10.0325 54.9229 8.8767C54.8775 7.78887 54.7867 6.58772 54.2192 5.65853C54.1512 5.54522 54.2646 5.61321 53.9015 5.11462C53.6291 4.72934 53.4248 4.45738 53.0389 4.16276C53.0389 4.16276 52.7212 3.89081 52.5623 3.77749C51.3366 2.89363 49.3618 2.87096 47.9318 2.82564C46.0706 2.75765 43.7553 2.82564 41.8714 2.87096Z" fill="#9E9E9E"/>
<path fill-rule="evenodd" clip-rule="evenodd" d="M0.605469 1.69182C1.46801 7.65222 1.64959 9.01201 4.78196 13.5446C6.9383 16.6722 10.6835 18.1906 14.2926 18.1906V25.0349H14.3607C15.5183 23.879 26.9809 13.9979 27.0944 13.7259C27.1171 13.6806 20.6481 7.33494 20.0125 6.94966C20.0125 6.94966 14.7011 2.12241 14.3607 1.7598H14.2926V9.46527C10.2977 9.03467 7.73275 9.41995 4.3053 5.99781C2.9434 4.66069 0.832452 1.1479 0.673564 0.989258H0.605469V1.69182Z" fill="#9E9E9E"/>
<path fill-rule="evenodd" clip-rule="evenodd" d="M118.274 12.6156C118.569 11.709 118.887 11.0745 119.681 10.4852C120.407 9.96398 122.586 10.0546 123.335 11.1198C123.699 11.6411 123.812 12.2076 123.926 12.9329C122.881 13.0235 119 12.9329 118.183 12.9329L118.274 12.6156ZM119.681 6.88179C117.91 7.13109 116.458 8.06028 115.436 9.46539C114.211 11.1651 113.961 15.3578 114.483 17.1709C114.846 18.44 115.164 18.9839 115.89 20.0038C116.503 20.865 117.91 21.6808 118.955 21.9754C121.247 22.5873 123.676 22.0888 125.56 20.729C125.764 20.593 126.604 19.7545 126.74 19.5505C126.967 19.2332 127.92 17.6015 127.603 17.2615C127.149 17.2615 124.402 17.1709 124.062 17.4202L123.267 17.9641C123.04 18.1907 122.904 18.2587 122.632 18.44C121.883 18.9839 120.407 18.9839 119.636 18.508C118.523 17.8281 118.274 16.6723 118.092 15.6071H127.716C127.943 15.3805 127.739 12.8422 127.648 12.2983C127.308 10.5985 126.581 9.01213 125.129 7.96962C124.357 7.42571 122.768 6.8138 121.837 6.79114C121.156 6.76848 120.407 6.76848 119.681 6.88179Z" fill="#9E9E9E"/>
<path fill-rule="evenodd" clip-rule="evenodd" d="M163.307 7.19895C154.977 7.62955 156.634 15.1537 156.77 21.8847L160.538 21.8167C159.993 12.5474 159.675 10.961 165.009 11.1423V7.1083C164.101 7.1083 164.215 7.08563 163.307 7.19895Z" fill="#9E9E9E"/>
<path fill-rule="evenodd" clip-rule="evenodd" d="M68.2012 7.51654C68.814 9.35225 73.785 22.3609 73.2402 23.1541C72.65 23.97 71.2881 23.8113 70.244 24.0153V27.1655C77.848 27.1655 75.9186 25.647 80.0724 14.4288C80.3221 13.7716 82.5011 7.47121 82.5011 7.13126C76.4861 7.13126 78.8467 6.90463 75.4192 17.1937C74.4659 14.3155 73.4445 9.94149 72.5139 7.13126H68.2012V7.51654Z" fill="#9E9E9E"/>
<path fill-rule="evenodd" clip-rule="evenodd" d="M63.8882 16.5363C63.5931 17.6695 63.2527 18.372 62.0724 18.8253C61.4141 19.0746 59.689 19.2106 59.167 18.3494C58.8038 17.7601 58.7357 16.355 59.8025 15.9244C60.597 15.6071 63.0257 14.8819 63.8882 14.6779C64.0017 15.6525 63.9563 15.4938 63.8882 16.5363ZM60.1884 6.88182C58.0094 7.10845 57.2149 7.74302 56.0119 9.39743C55.8076 9.69205 55.4671 10.4853 55.4671 10.9612H59.2351C61.0509 9.14814 64.6373 10.236 63.7974 11.5958C63.3435 12.3436 61.5503 12.5476 60.7332 12.7062C57.056 13.3408 54.7181 14.1794 55.2402 18.5307C55.4898 20.661 57.3284 21.9528 59.167 22.1341C60.2111 22.2474 62.9576 22.1794 64.206 21.6582C66.8617 20.5477 67.6562 18.7573 67.7469 15.9924C67.7696 15.1765 67.7923 10.9839 67.6789 10.2586C67.0433 6.88182 62.9122 6.60986 60.1884 6.88182Z" fill="#9E9E9E"/>
<path fill-rule="evenodd" clip-rule="evenodd" d="M104.45 12.8421C104.564 11.7996 105.404 10.3492 106.561 10.1679C107.061 10.0772 108.264 10.1452 108.74 10.4172C109.648 10.9384 109.921 11.8676 110.034 12.9328H104.541L104.45 12.8421ZM106.017 6.88171C105.29 6.97237 104.541 7.10835 103.883 7.51628L103.656 7.58427C102.998 7.92422 102.044 8.94406 101.613 9.55596C101.477 9.75993 101 10.7571 100.909 11.0517C100.138 13.6807 100.183 17.3747 101.863 19.6864C101.954 19.8224 102.793 20.7289 102.884 20.7969C103.996 21.5901 105.041 22.1113 106.584 22.202C107.832 22.27 109.853 22.0207 110.897 21.2501C110.897 21.2501 111.464 20.9329 111.691 20.7742C111.986 20.5703 112.713 19.845 112.94 19.5277C113.212 19.1425 113.847 18.0773 113.893 17.6467V17.2614C113.439 17.2614 110.692 17.1708 110.352 17.4201C109.807 17.8053 109.058 18.3719 108.468 18.5986C107.923 18.8025 108.082 18.9158 106.902 18.8252C106.175 18.7799 105.563 18.2813 105.177 17.7147C104.791 17.1708 104.632 16.2416 104.473 15.5844H114.052L114.12 15.5164C114.165 15.4257 114.052 13.59 114.052 13.386C113.734 10.0772 112.259 7.92422 109.104 6.9497C108.332 6.72307 106.834 6.7684 106.017 6.88171Z" fill="#9E9E9E"/>
<path fill-rule="evenodd" clip-rule="evenodd" d="M156.634 15.9248V18.3498L156.702 21.8852L156.793 21.8172V13.9531L156.679 14.9276L156.634 15.9248Z" fill="#9E9E9E"/>
<path fill-rule="evenodd" clip-rule="evenodd" d="M82.8643 2.8254L83.182 21.8171H87.1316C87.1316 20.344 86.9046 15.0635 87.3812 14.4063C87.8352 13.7944 89.0155 13.5451 89.81 14.6329C89.8554 14.6782 91.4442 16.5593 91.8528 17.1485C92.3749 17.8511 94.8036 21.4998 95.1441 21.8624H100.024C100.024 21.0012 92.0798 10.6215 91.762 10.6215C92.4203 9.51103 99.3206 3.41464 99.3206 2.84806H94.2815C93.6687 3.45997 87.4947 9.94162 87.2904 10.2362L87.1316 10.3949L87.0635 2.80273C85.7696 2.80273 84.2716 2.8254 82.8643 2.8254Z" fill="#9E9E9E"/>
<path fill-rule="evenodd" clip-rule="evenodd" d="M146.579 12.8425C146.715 12.0493 146.919 11.664 147.373 11.0294C147.6 10.7122 148.44 10.2136 148.78 10.1682C149.575 10.0323 150.71 10.1682 151.209 10.8708C151.663 11.5054 151.89 11.9813 152.072 12.7518L151.913 12.9105H146.715L146.579 12.8425ZM148.077 6.88209C146.896 7.04073 146.057 7.35802 145.08 8.06057C144.717 8.33253 144.059 9.10308 143.741 9.55634C143.423 9.98694 142.901 11.3014 142.788 11.7547C142.447 13.1598 142.447 15.8794 142.856 17.3298C142.992 17.7831 143.424 18.9615 143.719 19.3695C144.15 20.0267 144.717 20.6386 145.376 21.0919C145.693 21.3185 146.806 21.8398 147.26 21.9531C148.848 22.3384 150.687 22.2704 152.208 21.6358C152.957 21.3185 153.524 20.9106 154.182 20.4573C154.251 20.412 155.09 19.5055 155.136 19.4375L155.363 19.0522C155.408 18.9842 155.953 17.8511 155.998 17.6471V17.2618C155.544 17.2618 152.73 17.1712 152.389 17.4205C152.276 17.4884 151.89 17.8284 151.686 17.9644L151.368 18.191C151.141 18.3496 150.233 18.7802 149.961 18.8256C149.007 18.9389 147.963 18.6896 147.373 17.8737C147.078 17.4884 146.76 16.6272 146.669 16.1513L146.601 15.6074H156.18C156.18 13.3184 155.794 10.3949 154.046 8.46851C153.524 8.01525 153.048 7.62997 152.389 7.35802C151.005 6.79144 149.529 6.70079 148.077 6.88209Z" fill="#9E9E9E"/>
<path fill-rule="evenodd" clip-rule="evenodd" d="M138.248 15.8341C136.818 21.5679 130.826 18.3271 132.506 12.5253C133.641 8.67259 139.179 9.28449 138.248 15.8341ZM134.231 6.8822C130.145 7.47144 128.465 9.60177 128.329 13.6358V27.3017C132.733 27.3017 132.256 27.1657 132.256 20.2988C137.477 25.5113 144.286 19.3923 141.925 11.2562C140.881 7.67541 137.772 6.49692 134.231 6.8822Z" fill="#9E9E9E"/>
</g>
</svg>
