<svg width="66" height="67" viewBox="0 0 66 67" fill="none" xmlns="http://www.w3.org/2000/svg">
<circle cx="33" cy="33.5898" r="33" fill="#FFAE68"/>
<mask id="mask0" mask-type="alpha" maskUnits="userSpaceOnUse" x="0" y="0" width="66" height="67">
<circle cx="33" cy="33.5898" r="33" fill="#6E9FFF"/>
</mask>
<g mask="url(#mask0)">
<g filter="url(#filter0_di)">
<path d="M16.2694 57.1171C11.9684 55.5341 12.4847 50.9145 13.2804 48.8026C19.5039 51.0931 33.4968 56.2233 41.6296 59.2166C41.0735 60.8291 41.1457 62.1294 42.5192 63.387C42.1167 61.552 42.6861 59.439 44.104 58.2991L25.6851 51.4407L39.5037 13.8959C40.2436 11.8854 42.8178 8.76294 46.7342 10.2044L75.3204 20.7257C77.8464 21.6553 80.9635 24.3902 79.4189 28.5868C77.8744 32.7834 73.4277 32.5108 71.6986 31.8744C69.9696 31.238 66.6474 28.3363 68.0899 24.4171L52.94 65.5794C52.2342 67.4969 49.6684 69.4097 46.4252 68.216L16.2694 57.1171Z" fill="#C4C4C4"/>
<path d="M16.2694 57.1171C11.9684 55.5341 12.4847 50.9145 13.2804 48.8026C19.5039 51.0931 33.4968 56.2233 41.6296 59.2166C41.0735 60.8291 41.1457 62.1294 42.5192 63.387C42.1167 61.552 42.6861 59.439 44.104 58.2991L25.6851 51.4407L39.5037 13.8959C40.2436 11.8854 42.8178 8.76294 46.7342 10.2044L75.3204 20.7257C77.8464 21.6553 80.9635 24.3902 79.4189 28.5868C77.8744 32.7834 73.4277 32.5108 71.6986 31.8744C69.9696 31.238 66.6474 28.3363 68.0899 24.4171L52.94 65.5794C52.2342 67.4969 49.6684 69.4097 46.4252 68.216L16.2694 57.1171Z" fill="url(#paint0_linear)"/>
<path d="M16.2694 57.1171C11.9684 55.5341 12.4847 50.9145 13.2804 48.8026C19.5039 51.0931 33.4968 56.2233 41.6296 59.2166C41.0735 60.8291 41.1457 62.1294 42.5192 63.387C42.1167 61.552 42.6861 59.439 44.104 58.2991L25.6851 51.4407L39.5037 13.8959C40.2436 11.8854 42.8178 8.76294 46.7342 10.2044L75.3204 20.7257C77.8464 21.6553 80.9635 24.3902 79.4189 28.5868C77.8744 32.7834 73.4277 32.5108 71.6986 31.8744C69.9696 31.238 66.6474 28.3363 68.0899 24.4171L52.94 65.5794C52.2342 67.4969 49.6684 69.4097 46.4252 68.216L16.2694 57.1171Z" fill="url(#paint1_linear)"/>
</g>
<g filter="url(#filter1_di)">
<path d="M45.6684 23.8315C50.9897 32.0005 49.2012 39.5864 46.2589 40.7225C41.8773 41.4055 41.7455 37.6069 40.4081 34.5906C39.0707 31.5743 37.1991 31.8798 35.3022 30.7992C27.4195 25.4504 24.7173 16.6795 24.3499 13.3829C23.8491 8.4259 26.3648 10.7356 29.9897 13.853C34.8121 17.9989 41.3035 17.1308 45.6684 23.8315Z" fill="#C4C4C4"/>
<path d="M45.6684 23.8315C50.9897 32.0005 49.2012 39.5864 46.2589 40.7225C41.8773 41.4055 41.7455 37.6069 40.4081 34.5906C39.0707 31.5743 37.1991 31.8798 35.3022 30.7992C27.4195 25.4504 24.7173 16.6795 24.3499 13.3829C23.8491 8.4259 26.3648 10.7356 29.9897 13.853C34.8121 17.9989 41.3035 17.1308 45.6684 23.8315Z" fill="url(#paint2_linear)"/>
<path d="M45.6545 47.4687C45.6175 47.8116 45.8654 48.1196 46.2083 48.1566C46.5512 48.1937 46.8592 47.9458 46.8963 47.6029L45.6545 47.4687ZM45.6684 23.8315L46.1916 23.4907L45.6684 23.8315ZM29.9897 13.853L29.5825 14.3265L29.5826 14.3266L29.9897 13.853ZM24.3499 13.3829L23.7286 13.4456L23.7293 13.452L24.3499 13.3829ZM35.3022 30.7992L34.9516 31.316L34.9719 31.3297L34.9931 31.3418L35.3022 30.7992ZM40.4081 34.5906L39.8373 34.8437L39.8373 34.8437L40.4081 34.5906ZM46.8963 47.6029C47.0361 46.3092 47.2319 43.1008 46.877 40.6335L45.6408 40.8114C45.9737 43.1252 45.7903 46.2123 45.6545 47.4687L46.8963 47.6029ZM46.4838 41.305C47.4146 40.9456 48.1755 40.1126 48.715 39.0315C49.259 37.9413 49.608 36.5435 49.6862 34.9448C49.8429 31.7427 48.9176 27.6754 46.1916 23.4907L45.1451 24.1724C47.7404 28.1566 48.5815 31.9667 48.4388 34.8838C48.3673 36.3447 48.05 37.5669 47.5974 38.4739C47.1403 39.39 46.5743 39.9313 46.034 40.1399L46.4838 41.305ZM46.1916 23.4907C43.9098 19.9877 41.0615 18.4669 38.238 17.3066C35.3877 16.1353 32.708 15.3664 30.3968 13.3795L29.5826 14.3266C32.0939 16.4855 35.071 17.3555 37.7633 18.4618C40.4822 19.5791 43.0621 20.9746 45.1451 24.1724L46.1916 23.4907ZM30.3969 13.3796C29.4973 12.6059 28.646 11.8644 27.8937 11.2756C27.1564 10.6985 26.4443 10.2103 25.8242 9.99896C25.5086 9.89141 25.1473 9.83062 24.7912 9.92965C24.4081 10.0362 24.1307 10.2991 23.9548 10.6411C23.7888 10.9638 23.7075 11.3634 23.6768 11.809C23.6456 12.2617 23.6639 12.8057 23.7286 13.4456L24.9712 13.3201C24.9107 12.7208 24.8981 12.2526 24.9228 11.895C24.9479 11.5304 25.0093 11.3215 25.0655 11.2123C25.0913 11.162 25.111 11.1429 25.1166 11.1379C25.1204 11.1346 25.1214 11.1342 25.1258 11.1329C25.1431 11.1281 25.227 11.1149 25.4212 11.1811C25.8205 11.3172 26.3856 11.6812 27.1239 12.2591C27.8472 12.8252 28.6696 13.5414 29.5825 14.3265L30.3969 13.3796ZM23.7293 13.452C24.1101 16.8698 26.8738 25.8348 34.9516 31.316L35.6529 30.2825C27.9652 25.066 25.3244 16.4893 24.9705 13.3137L23.7293 13.452ZM34.9931 31.3418C35.5151 31.6392 36.0289 31.8373 36.4965 32.0094C36.9764 32.186 37.3887 32.3293 37.7859 32.5277C38.5276 32.8982 39.227 33.4675 39.8373 34.8437L40.979 34.3375C40.2518 32.6974 39.3468 31.9113 38.3441 31.4104C37.869 31.1731 37.3743 31.0016 36.9279 30.8373C36.4693 30.6685 36.0379 30.4996 35.6113 30.2566L34.9931 31.3418ZM39.8373 34.8437C40.1582 35.5675 40.4049 36.3335 40.6808 37.1232C40.9499 37.8933 41.2465 38.6846 41.6571 39.366C42.0732 40.0568 42.6245 40.6662 43.4173 41.0412C44.209 41.4157 45.1724 41.5238 46.3551 41.3395L46.1627 40.1054C45.1546 40.2626 44.4585 40.1521 43.9513 39.9122C43.4453 39.6728 43.0586 39.2721 42.7269 38.7215C42.3896 38.1617 42.1286 37.4805 41.8599 36.7113C41.598 35.9618 41.3268 35.1219 40.979 34.3375L39.8373 34.8437Z" fill="black"/>
<path d="M45.6545 47.4687C45.6175 47.8116 45.8654 48.1196 46.2083 48.1566C46.5512 48.1937 46.8592 47.9458 46.8963 47.6029L45.6545 47.4687ZM45.6684 23.8315L46.1916 23.4907L45.6684 23.8315ZM29.9897 13.853L29.5825 14.3265L29.5826 14.3266L29.9897 13.853ZM24.3499 13.3829L23.7286 13.4456L23.7293 13.452L24.3499 13.3829ZM35.3022 30.7992L34.9516 31.316L34.9719 31.3297L34.9931 31.3418L35.3022 30.7992ZM40.4081 34.5906L39.8373 34.8437L39.8373 34.8437L40.4081 34.5906ZM46.8963 47.6029C47.0361 46.3092 47.2319 43.1008 46.877 40.6335L45.6408 40.8114C45.9737 43.1252 45.7903 46.2123 45.6545 47.4687L46.8963 47.6029ZM46.4838 41.305C47.4146 40.9456 48.1755 40.1126 48.715 39.0315C49.259 37.9413 49.608 36.5435 49.6862 34.9448C49.8429 31.7427 48.9176 27.6754 46.1916 23.4907L45.1451 24.1724C47.7404 28.1566 48.5815 31.9667 48.4388 34.8838C48.3673 36.3447 48.05 37.5669 47.5974 38.4739C47.1403 39.39 46.5743 39.9313 46.034 40.1399L46.4838 41.305ZM46.1916 23.4907C43.9098 19.9877 41.0615 18.4669 38.238 17.3066C35.3877 16.1353 32.708 15.3664 30.3968 13.3795L29.5826 14.3266C32.0939 16.4855 35.071 17.3555 37.7633 18.4618C40.4822 19.5791 43.0621 20.9746 45.1451 24.1724L46.1916 23.4907ZM30.3969 13.3796C29.4973 12.6059 28.646 11.8644 27.8937 11.2756C27.1564 10.6985 26.4443 10.2103 25.8242 9.99896C25.5086 9.89141 25.1473 9.83062 24.7912 9.92965C24.4081 10.0362 24.1307 10.2991 23.9548 10.6411C23.7888 10.9638 23.7075 11.3634 23.6768 11.809C23.6456 12.2617 23.6639 12.8057 23.7286 13.4456L24.9712 13.3201C24.9107 12.7208 24.8981 12.2526 24.9228 11.895C24.9479 11.5304 25.0093 11.3215 25.0655 11.2123C25.0913 11.162 25.111 11.1429 25.1166 11.1379C25.1204 11.1346 25.1214 11.1342 25.1258 11.1329C25.1431 11.1281 25.227 11.1149 25.4212 11.1811C25.8205 11.3172 26.3856 11.6812 27.1239 12.2591C27.8472 12.8252 28.6696 13.5414 29.5825 14.3265L30.3969 13.3796ZM23.7293 13.452C24.1101 16.8698 26.8738 25.8348 34.9516 31.316L35.6529 30.2825C27.9652 25.066 25.3244 16.4893 24.9705 13.3137L23.7293 13.452ZM34.9931 31.3418C35.5151 31.6392 36.0289 31.8373 36.4965 32.0094C36.9764 32.186 37.3887 32.3293 37.7859 32.5277C38.5276 32.8982 39.227 33.4675 39.8373 34.8437L40.979 34.3375C40.2518 32.6974 39.3468 31.9113 38.3441 31.4104C37.869 31.1731 37.3743 31.0016 36.9279 30.8373C36.4693 30.6685 36.0379 30.4996 35.6113 30.2566L34.9931 31.3418ZM39.8373 34.8437C40.1582 35.5675 40.4049 36.3335 40.6808 37.1232C40.9499 37.8933 41.2465 38.6846 41.6571 39.366C42.0732 40.0568 42.6245 40.6662 43.4173 41.0412C44.209 41.4157 45.1724 41.5238 46.3551 41.3395L46.1627 40.1054C45.1546 40.2626 44.4585 40.1521 43.9513 39.9122C43.4453 39.6728 43.0586 39.2721 42.7269 38.7215C42.3896 38.1617 42.1286 37.4805 41.8599 36.7113C41.598 35.9618 41.3268 35.1219 40.979 34.3375L39.8373 34.8437Z" fill="url(#paint3_linear)"/>
</g>
</g>
<defs>
<filter id="filter0_di" x="7.30658" y="7.36614" width="77.9587" height="69.6188" filterUnits="userSpaceOnUse" color-interpolation-filters="sRGB">
<feFlood flood-opacity="0" result="BackgroundImageFix"/>
<feColorMatrix in="SourceAlpha" type="matrix" values="0 0 0 0 0 0 0 0 0 0 0 0 0 0 0 0 0 0 127 0"/>
<feOffset dy="2.96434"/>
<feGaussianBlur stdDeviation="2.71732"/>
<feColorMatrix type="matrix" values="0 0 0 0 0.945833 0 0 0 0 0.462182 0 0 0 0 0.0433507 0 0 0 1 0"/>
<feBlend mode="normal" in2="BackgroundImageFix" result="effect1_dropShadow"/>
<feBlend mode="normal" in="SourceGraphic" in2="effect1_dropShadow" result="shape"/>
<feColorMatrix in="SourceAlpha" type="matrix" values="0 0 0 0 0 0 0 0 0 0 0 0 0 0 0 0 0 0 127 0" result="hardAlpha"/>
<feOffset dx="2.13086"/>
<feGaussianBlur stdDeviation="1.23514"/>
<feComposite in2="hardAlpha" operator="arithmetic" k2="-1" k3="1"/>
<feColorMatrix type="matrix" values="0 0 0 0 1 0 0 0 0 0.807829 0 0 0 0 0.641667 0 0 0 1 0"/>
<feBlend mode="normal" in2="shape" result="effect2_innerShadow"/>
</filter>
<filter id="filter1_di" x="18.2275" y="7.40911" width="36.9103" height="49.15" filterUnits="userSpaceOnUse" color-interpolation-filters="sRGB">
<feFlood flood-opacity="0" result="BackgroundImageFix"/>
<feColorMatrix in="SourceAlpha" type="matrix" values="0 0 0 0 0 0 0 0 0 0 0 0 0 0 0 0 0 0 127 0"/>
<feOffset dy="2.96434"/>
<feGaussianBlur stdDeviation="2.71732"/>
<feColorMatrix type="matrix" values="0 0 0 0 0.945833 0 0 0 0 0.462182 0 0 0 0 0.0433507 0 0 0 1 0"/>
<feBlend mode="normal" in2="BackgroundImageFix" result="effect1_dropShadow"/>
<feBlend mode="normal" in="SourceGraphic" in2="effect1_dropShadow" result="shape"/>
<feColorMatrix in="SourceAlpha" type="matrix" values="0 0 0 0 0 0 0 0 0 0 0 0 0 0 0 0 0 0 127 0" result="hardAlpha"/>
<feOffset dx="-0.368439"/>
<feGaussianBlur stdDeviation="1.23514"/>
<feComposite in2="hardAlpha" operator="arithmetic" k2="-1" k3="1"/>
<feColorMatrix type="matrix" values="0 0 0 0 1 0 0 0 0 0.807829 0 0 0 0 0.641667 0 0 0 1 0"/>
<feBlend mode="normal" in2="shape" result="effect2_innerShadow"/>
</filter>
<linearGradient id="paint0_linear" x1="55.6304" y1="13.4787" x2="36.7894" y2="64.6696" gradientUnits="userSpaceOnUse">
<stop stop-color="#C7D9FF"/>
<stop offset="1" stop-color="#85AFFF"/>
</linearGradient>
<linearGradient id="paint1_linear" x1="55.6304" y1="13.4787" x2="36.7894" y2="64.6696" gradientUnits="userSpaceOnUse">
<stop stop-color="white"/>
<stop offset="1" stop-color="#FF9E4A"/>
</linearGradient>
<linearGradient id="paint2_linear" x1="40.2653" y1="15.9786" x2="30.7533" y2="41.8228" gradientUnits="userSpaceOnUse">
<stop stop-color="white"/>
<stop offset="1" stop-color="#FF9E4A"/>
</linearGradient>
<linearGradient id="paint3_linear" x1="40.2653" y1="15.9786" x2="30.7533" y2="41.8228" gradientUnits="userSpaceOnUse">
<stop stop-color="white"/>
<stop offset="1" stop-color="#FF9E4A"/>
</linearGradient>
</defs>
</svg>
