<svg width="17" height="18" viewBox="0 0 17 18" fill="none" xmlns="http://www.w3.org/2000/svg">
<path fill-rule="evenodd" clip-rule="evenodd" d="M8.33269 2.7793C6.99801 2.7793 5.91603 3.86128 5.91603 5.19596C5.91603 6.53065 6.99801 7.61263 8.33269 7.61263C9.66738 7.61263 10.7494 6.53065 10.7494 5.19596C10.7494 3.86128 9.66738 2.7793 8.33269 2.7793ZM3.41603 5.19596C3.41603 2.48056 5.61729 0.279297 8.33269 0.279297C11.0481 0.279297 13.2494 2.48056 13.2494 5.19596C13.2494 7.91136 11.0481 10.1126 8.33269 10.1126C5.61729 10.1126 3.41603 7.91136 3.41603 5.19596ZM3.24606 12.5825C4.73371 11.7263 6.52147 11.2793 8.3338 11.2793C10.1461 11.2793 11.9339 11.7263 13.4215 12.5825C14.9085 13.4382 16.0584 14.685 16.5944 16.1852C16.8266 16.8354 16.4879 17.5507 15.8378 17.7829C15.1877 18.0152 14.4724 17.6765 14.2401 17.0263C13.9405 16.1876 13.2491 15.3676 12.1746 14.7493C11.1008 14.1313 9.7501 13.7793 8.3338 13.7793C6.91749 13.7793 5.56683 14.1313 4.49304 14.7493C3.41852 15.3676 2.72712 16.1876 2.42747 17.0263C2.19521 17.6765 1.4799 18.0152 0.829791 17.7829C0.17968 17.5507 -0.159054 16.8354 0.0732091 16.1852C0.609192 14.685 1.75912 13.4382 3.24606 12.5825Z" fill="white"/>
</svg>
