<svg width="199" height="38" viewBox="0 0 199 38" fill="none" xmlns="http://www.w3.org/2000/svg">
<g clip-path="url(#clip0)">
<path d="M198.256 0.0153809H92.4517V37.0154H198.256V0.0153809Z" fill="#0C24FA"/>
<path d="M178.725 24.8941H186.607V22.985H180.992V19.2191H185.586V17.31H180.992V14.0532H186.412V12.144H178.725V24.8941ZM161.94 24.8941H164.095V19.3164C164.095 17.8939 163.922 16.3516 163.802 15.004H163.877L165.206 17.7143L169.177 24.8941H171.504V12.1366H169.349V17.6768C169.349 19.0993 169.522 20.7165 169.642 22.0267H169.567L168.238 19.3164L164.267 12.1366H161.94V24.8941ZM152.475 24.8941H154.742V12.1366H152.475V24.8941ZM138.7 24.8941H146.267V22.985H140.967V12.1366H138.7V24.8941ZM121.923 24.8941H124.077V19.3164C124.077 17.8939 123.905 16.3516 123.785 15.004H123.86L125.188 17.7143L129.159 24.8941H131.486V12.1366H129.332V17.6768C129.332 19.0993 129.505 20.7165 129.625 22.0267H129.55L128.221 19.3164L124.25 12.1366H121.923V24.8941ZM109.755 23.1572C107.743 23.1572 106.43 21.3229 106.43 18.4555C106.43 15.6104 107.743 13.8735 109.755 13.8735C111.752 13.8735 113.058 15.6104 113.058 18.4555C113.058 21.3229 111.752 23.1572 109.755 23.1572ZM109.755 25.1262C113.08 25.1262 115.385 22.5882 115.385 18.4555C115.385 14.3377 113.08 11.897 109.755 11.897C106.407 11.897 104.103 14.3377 104.103 18.4555C104.103 22.5957 106.407 25.1262 109.755 25.1262Z" fill="white"/>
<path d="M83.4969 12.945V12.9899L79.4208 23.9956H79.1205L75.0145 12.9899V12.945H75.8177L78.2273 19.4585L79.2632 22.5581L80.2991 19.4585L82.6937 12.945H83.4969ZM67.5229 23.2319V23.9581H62.0357V12.9525H67.4629V13.6787H62.7938V17.8938H67.2752V18.605H62.7938V23.2469H67.5229V23.2319ZM49.6198 24.0779C48.5389 24.0779 47.6832 23.7335 47.0376 23.0522C46.3995 22.3709 46.0768 21.4051 46.0768 20.1623V12.945H46.8349V20.1773C46.8349 21.218 47.0826 22.0041 47.5781 22.5431C48.0735 23.0822 48.7491 23.3517 49.6198 23.3517C50.4681 23.3517 51.1362 23.0822 51.6241 22.5506C52.112 22.019 52.3522 21.2254 52.3522 20.1773V12.945H53.1104V20.1623C53.1104 21.4201 52.7951 22.3859 52.1721 23.0672C51.549 23.741 50.7008 24.0779 49.6198 24.0779ZM34.3891 19.2714C35.2824 19.2714 35.973 19.0243 36.4759 18.5302C36.9713 18.036 37.2265 17.3473 37.2265 16.4713C37.2265 15.5804 36.9788 14.8916 36.4759 14.3974C35.9805 13.9033 35.2824 13.6562 34.3891 13.6562H31.8444V19.2714H34.3891ZM34.3891 12.945C35.5 12.945 36.3783 13.2594 37.0239 13.8883C37.6694 14.5172 37.9922 15.3707 37.9922 16.4488C37.9922 17.5419 37.6694 18.3954 37.0239 19.0243C36.3783 19.6532 35.5 19.9676 34.3891 19.9676H31.8444V23.9432H31.0862V12.9375H34.3891V12.945ZM18.6704 24.0779C17.5894 24.0779 16.7337 23.7335 16.0881 23.0522C15.4501 22.3709 15.1273 21.4051 15.1273 20.1623V12.945H15.8855V20.1773C15.8855 21.218 16.1332 22.0041 16.6286 22.5431C17.124 23.0822 17.7996 23.3517 18.6704 23.3517C19.5186 23.3517 20.1867 23.0822 20.6746 22.5506C21.1625 22.019 21.4028 21.2254 21.4028 20.1773V12.945H22.1609V20.1623C22.1609 21.4201 21.8456 22.3859 21.2226 23.0672C20.5996 23.741 19.7438 24.0779 18.6704 24.0779ZM7.20789 23.9057V23.9507H6.35965L3.37205 18.635C2.89163 18.7473 2.37368 18.8072 1.83321 18.8072H1.015V23.9507H0.256836V12.945H1.015V18.1184H1.75814C2.77903 18.1184 3.57473 17.9237 4.16774 17.5419C4.75325 17.1601 5.16611 16.5911 5.41383 15.8424C5.65404 15.0937 5.77414 14.1279 5.77414 12.9375H6.5323C6.5323 14.3825 6.34464 15.5579 5.96931 16.4713C5.59399 17.3772 4.97094 18.0211 4.1152 18.3954L7.20789 23.9057Z" fill="#0C24FA" stroke="#0C24FA"/>
</g>
<defs>
<clipPath id="clip0">
<rect width="198" height="37" fill="white" transform="translate(0.256836 0.0153809)"/>
</clipPath>
</defs>
</svg>
