<svg width="247" height="47" viewBox="0 0 247 47" fill="none" xmlns="http://www.w3.org/2000/svg">
<g clip-path="url(#clip0)">
<path fill-rule="evenodd" clip-rule="evenodd" d="M114.621 0.257812H246.162V46.2578H114.621V0.257812ZM231.678 31.1886H221.879V15.3371H231.436V17.7106H224.698V21.7596H230.409V24.1331H224.698V28.8151H231.678V31.1886ZM203.69 31.1886H201.012V15.3278H203.905L208.842 24.2541L210.494 27.6236H210.587C210.567 27.407 210.546 27.1836 210.525 26.955C210.384 25.4643 210.223 23.749 210.223 22.2157V15.3278H212.901V31.1886H210.008L205.071 22.2622L203.42 18.8928H203.326C203.352 19.1865 203.381 19.4877 203.409 19.7943C203.544 21.236 203.69 22.7957 203.69 24.2541V31.1886ZM192.062 31.1886H189.244V15.3278H192.062V31.1886ZM181.526 31.1886H172.119V15.3278H174.937V28.8151H181.526V31.1886ZM153.939 31.1886H151.261V15.3278H154.154L159.09 24.2541L160.742 27.6236H160.836C160.816 27.407 160.795 27.1837 160.773 26.9551C160.633 25.4643 160.472 23.7491 160.472 22.2157V15.3278H163.15V31.1886H160.257L155.32 22.2622L153.668 18.8928H153.575C153.601 19.1865 153.629 19.4877 153.658 19.7943C153.793 21.236 153.939 22.7957 153.939 24.2541V31.1886ZM131.998 23.1837C131.998 26.7487 133.632 29.0291 136.133 29.0291C138.615 29.0291 140.239 26.7487 140.239 23.1837C140.239 19.6467 138.615 17.4872 136.133 17.4872C133.632 17.4872 131.998 19.6467 131.998 23.1837ZM143.132 23.1837C143.132 28.3217 140.267 31.4771 136.133 31.4771C131.97 31.4771 129.105 28.331 129.105 23.1837C129.105 18.0643 131.97 15.0299 136.133 15.0299C140.267 15.0299 143.132 18.0643 143.132 23.1837Z" fill="white"/>
<path d="M103.488 16.3326V16.3884L98.4201 30.0711H98.0468L92.9419 16.3884V16.3326H93.9405L96.9362 24.4305L98.2241 28.284L99.512 24.4305L102.489 16.3326H103.488ZM83.6281 29.1217V30.0246H76.8061V16.3419H83.5535V17.2447H77.7487V22.4851H83.3202V23.3694H77.7487V29.1403H83.6281V29.1217ZM61.3702 30.1735C60.0263 30.1735 58.9624 29.7453 58.1599 28.8983C57.3666 28.0513 56.9653 26.8506 56.9653 25.3054V16.3326H57.9079V25.3241C57.9079 26.6179 58.2159 27.5952 58.8318 28.2654C59.4477 28.9355 60.2877 29.2706 61.3702 29.2706C62.4248 29.2706 63.2554 28.9355 63.862 28.2747C64.4686 27.6138 64.7672 26.6272 64.7672 25.3241V16.3326H65.7098V25.3054C65.7098 26.8692 65.3178 28.0699 64.5433 28.9169C63.7687 29.7546 62.7141 30.1735 61.3702 30.1735ZM42.4347 24.1978C43.5452 24.1978 44.4038 23.8906 45.0291 23.2763C45.645 22.662 45.9623 21.8056 45.9623 20.7166C45.9623 19.609 45.6544 18.7526 45.0291 18.1383C44.4132 17.524 43.5452 17.2168 42.4347 17.2168H39.271V24.1978H42.4347ZM42.4347 16.3326C43.8159 16.3326 44.9078 16.7235 45.7104 17.5054C46.513 18.2872 46.9142 19.3483 46.9142 20.6887C46.9142 22.0476 46.513 23.1088 45.7104 23.8906C44.9078 24.6725 43.8159 25.0634 42.4347 25.0634H39.271V30.006H38.3284V16.3232H42.4347V16.3326ZM22.8925 30.1735C21.5486 30.1735 20.4847 29.7453 19.6821 28.8983C18.8889 28.0513 18.4876 26.8506 18.4876 25.3054V16.3326H19.4302V25.3241C19.4302 26.6179 19.7381 27.5952 20.3541 28.2654C20.97 28.9355 21.8099 29.2706 22.8925 29.2706C23.9471 29.2706 24.7777 28.9355 25.3843 28.2747C25.9909 27.6138 26.2895 26.6272 26.2895 25.3241V16.3326H27.2321V25.3054C27.2321 26.8692 26.8401 28.0699 26.0655 28.9169C25.291 29.7546 24.2271 30.1735 22.8925 30.1735ZM8.64185 29.9594V30.0153H7.58729L3.87297 23.4066C3.27569 23.5462 2.63175 23.6207 1.95982 23.6207H0.942578V30.0153H0V16.3326H0.942578V22.7644H1.86649C3.1357 22.7644 4.12494 22.5224 4.86221 22.0476C5.59014 21.5729 6.10343 20.8655 6.4114 19.9347C6.71003 19.0039 6.85935 17.8032 6.85935 16.3232H7.80193C7.80193 18.1197 7.56862 19.581 7.102 20.7166C6.63538 21.8429 5.86078 22.6434 4.79688 23.1088L8.64185 29.9594Z" fill="white" stroke="white"/>
</g>
<defs>
<clipPath id="clip0">
<rect width="246.162" height="46" fill="white" transform="translate(0 0.257812)"/>
</clipPath>
</defs>
</svg>
