<svg width="117" height="117" viewBox="0 0 117 117" fill="none" xmlns="http://www.w3.org/2000/svg">
<rect x="0.733398" y="18.0181" width="100.39" height="99.4628" rx="49.7314" transform="rotate(-9.56881 0.733398 18.0181)" fill="#F9401D"/>
<path d="M71.5635 52.3816C74.457 53.4349 75.1252 57.2255 72.7663 59.2046L56.5896 72.7775C54.2307 74.7566 50.6139 73.4401 50.0793 70.4076L46.4133 49.6118C45.8787 46.5793 48.8273 44.1053 51.7208 45.1586L71.5635 52.3816Z" fill="white"/>
<path d="M71.5635 52.3816C74.457 53.4349 75.1252 57.2255 72.7663 59.2046L56.5896 72.7775C54.2307 74.7566 50.6139 73.4401 50.0793 70.4076L46.4133 49.6118C45.8787 46.5793 48.8273 44.1053 51.7208 45.1586L71.5635 52.3816Z" fill="url(#paint0_linear)"/>
<defs>
<linearGradient id="paint0_linear" x1="54.6654" y1="51.8592" x2="66.7244" y2="70.5025" gradientUnits="userSpaceOnUse">
<stop stop-color="white"/>
<stop offset="1" stop-color="#FFC6BB"/>
</linearGradient>
</defs>
</svg>
