<svg width="113" height="114" viewBox="0 0 113 114" fill="none" xmlns="http://www.w3.org/2000/svg">
<path fill-rule="evenodd" clip-rule="evenodd" d="M56.5 113.59C87.7041 113.59 113 88.2939 113 57.0898C113 25.8858 87.7041 0.589844 56.5 0.589844C25.2959 0.589844 0 25.8858 0 57.0898C0 68.9389 3.64751 79.9361 9.88097 89.0198L2 113.59L25.739 104.49C34.5905 110.246 45.1547 113.59 56.5 113.59Z" fill="#FF9E4A"/>
<g filter="url(#filter0_di)">
<path d="M45.117 50.6297C50.8174 51.7563 54.7912 53.7223 57.0382 56.5276C59.3237 59.3405 60.0897 62.6535 59.3361 66.4666C58.8489 68.9317 57.7873 71.0631 56.1514 72.8608C54.523 74.6201 52.316 75.8648 49.5304 76.5949C46.7908 77.2941 43.5723 77.2783 39.8747 76.5476C37.0245 75.9843 34.2852 75.0627 31.6566 73.7828C29.0742 72.472 26.9571 70.933 25.3053 69.1658L30.4188 62.7326C31.731 64.1926 33.3239 65.4478 35.1973 66.4985C37.0784 67.5105 39.0781 68.2259 41.1965 68.6446C43.546 69.1089 45.4861 69.0121 47.0169 68.3541C48.5476 67.6962 49.4767 66.5391 49.804 64.8829C50.1465 63.1497 49.6928 61.6993 48.4428 60.5318C47.2313 59.3719 44.8923 58.4494 41.4258 57.7643L31.0842 55.7204L37.6629 33.3684L62.3325 38.244L60.8481 45.7546L43.978 42.4205L41.8239 49.9789L45.117 50.6297Z" fill="white"/>
<path d="M45.117 50.6297C50.8174 51.7563 54.7912 53.7223 57.0382 56.5276C59.3237 59.3405 60.0897 62.6535 59.3361 66.4666C58.8489 68.9317 57.7873 71.0631 56.1514 72.8608C54.523 74.6201 52.316 75.8648 49.5304 76.5949C46.7908 77.2941 43.5723 77.2783 39.8747 76.5476C37.0245 75.9843 34.2852 75.0627 31.6566 73.7828C29.0742 72.472 26.9571 70.933 25.3053 69.1658L30.4188 62.7326C31.731 64.1926 33.3239 65.4478 35.1973 66.4985C37.0784 67.5105 39.0781 68.2259 41.1965 68.6446C43.546 69.1089 45.4861 69.0121 47.0169 68.3541C48.5476 67.6962 49.4767 66.5391 49.804 64.8829C50.1465 63.1497 49.6928 61.6993 48.4428 60.5318C47.2313 59.3719 44.8923 58.4494 41.4258 57.7643L31.0842 55.7204L37.6629 33.3684L62.3325 38.244L60.8481 45.7546L43.978 42.4205L41.8239 49.9789L45.117 50.6297Z" fill="url(#paint0_linear)"/>
<path d="M93.0333 64.4883L82.9805 62.5016L81.0395 72.3232L73.5866 70.8503L75.5277 61.0286L65.5327 59.0533L66.9257 52.0048L76.9207 53.9802L78.8618 44.1585L86.3147 45.6315L84.3736 55.4531L94.4263 57.4399L93.0333 64.4883Z" fill="white"/>
<path d="M93.0333 64.4883L82.9805 62.5016L81.0395 72.3232L73.5866 70.8503L75.5277 61.0286L65.5327 59.0533L66.9257 52.0048L76.9207 53.9802L78.8618 44.1585L86.3147 45.6315L84.3736 55.4531L94.4263 57.4399L93.0333 64.4883Z" fill="url(#paint1_linear)"/>
</g>
<defs>
<filter id="filter0_di" x="19.3177" y="30.6468" width="81.0961" height="55.7143" filterUnits="userSpaceOnUse" color-interpolation-filters="sRGB">
<feFlood flood-opacity="0" result="BackgroundImageFix"/>
<feColorMatrix in="SourceAlpha" type="matrix" values="0 0 0 0 0 0 0 0 0 0 0 0 0 0 0 0 0 0 127 0"/>
<feOffset dy="3.2659"/>
<feGaussianBlur stdDeviation="2.99374"/>
<feColorMatrix type="matrix" values="0 0 0 0 0.945833 0 0 0 0 0.462182 0 0 0 0 0.0433507 0 0 0 1 0"/>
<feBlend mode="normal" in2="BackgroundImageFix" result="effect1_dropShadow"/>
<feBlend mode="normal" in="SourceGraphic" in2="effect1_dropShadow" result="shape"/>
<feColorMatrix in="SourceAlpha" type="matrix" values="0 0 0 0 0 0 0 0 0 0 0 0 0 0 0 0 0 0 127 0" result="hardAlpha"/>
<feOffset dx="2.34763"/>
<feGaussianBlur stdDeviation="1.36079"/>
<feComposite in2="hardAlpha" operator="arithmetic" k2="-1" k3="1"/>
<feColorMatrix type="matrix" values="0 0 0 0 1 0 0 0 0 0.807829 0 0 0 0 0.641667 0 0 0 1 0"/>
<feBlend mode="normal" in2="shape" result="effect2_innerShadow"/>
</filter>
<linearGradient id="paint0_linear" x1="37.6406" y1="35.2351" x2="45.6406" y2="84.7351" gradientUnits="userSpaceOnUse">
<stop stop-color="white"/>
<stop offset="1" stop-color="#FFCDA2"/>
</linearGradient>
<linearGradient id="paint1_linear" x1="73.1387" y1="40.2342" x2="84.6387" y2="84.7342" gradientUnits="userSpaceOnUse">
<stop stop-color="white"/>
<stop offset="1" stop-color="#FFCDA2"/>
</linearGradient>
</defs>
</svg>
