<svg width="210" height="151" viewBox="0 0 210 151" fill="none" xmlns="http://www.w3.org/2000/svg">
<mask id="mask0" mask-type="alpha" maskUnits="userSpaceOnUse" x="0" y="0" width="210" height="151">
<rect y="0.589844" width="210" height="150" rx="16" fill="#FC7704"/>
</mask>
<g mask="url(#mask0)">
<g filter="url(#filter0_di)">
<path d="M93.0267 135.759L36.4108 141.134L28.0631 167.996L-0.854497 170.741L42.0499 45.0129L69.9224 42.3667L135.895 157.758L106.28 160.57L93.0267 135.759ZM82.131 115.417L58.412 71.0925L43.458 119.089L82.131 115.417Z" fill="white"/>
<path d="M93.0267 135.759L36.4108 141.134L28.0631 167.996L-0.854497 170.741L42.0499 45.0129L69.9224 42.3667L135.895 157.758L106.28 160.57L93.0267 135.759ZM82.131 115.417L58.412 71.0925L43.458 119.089L82.131 115.417Z" fill="url(#paint0_linear)"/>
<path d="M177.455 58.9215C191.972 57.5433 203.448 59.9296 211.883 66.0805C220.307 72.1165 225.173 82.0241 226.482 95.8033L231.502 148.681L206.068 151.096L204.973 139.556C200.68 148.653 191.566 153.863 177.63 155.186C170.429 155.87 164.044 155.259 158.473 153.355C153.018 151.44 148.695 148.49 145.504 144.506C142.314 140.522 140.462 135.832 139.95 130.435C139.132 121.823 141.741 114.74 147.775 109.185C153.926 103.619 163.854 100.185 177.558 98.884L199.159 96.8332C198.603 90.9771 196.378 86.6697 192.483 83.9112C188.578 81.0379 183.025 79.943 175.824 80.6266C170.831 81.1007 165.971 82.3731 161.246 84.4438C156.626 86.3886 152.758 88.8414 149.641 91.8021L138.103 73.9542C142.875 69.9094 148.71 66.5747 155.609 63.9501C162.624 61.3144 169.906 59.6382 177.455 58.9215ZM182.707 136.456C187.352 136.015 191.377 134.59 194.781 132.181C198.174 129.658 200.429 126.257 201.546 121.98L200.647 112.507L182.007 114.277C170.858 115.335 165.627 119.481 166.314 126.716C166.641 130.16 168.238 132.789 171.106 134.603C174.078 136.29 177.945 136.908 182.707 136.456Z" fill="white"/>
<path d="M177.455 58.9215C191.972 57.5433 203.448 59.9296 211.883 66.0805C220.307 72.1165 225.173 82.0241 226.482 95.8033L231.502 148.681L206.068 151.096L204.973 139.556C200.68 148.653 191.566 153.863 177.63 155.186C170.429 155.87 164.044 155.259 158.473 153.355C153.018 151.44 148.695 148.49 145.504 144.506C142.314 140.522 140.462 135.832 139.95 130.435C139.132 121.823 141.741 114.74 147.775 109.185C153.926 103.619 163.854 100.185 177.558 98.884L199.159 96.8332C198.603 90.9771 196.378 86.6697 192.483 83.9112C188.578 81.0379 183.025 79.943 175.824 80.6266C170.831 81.1007 165.971 82.3731 161.246 84.4438C156.626 86.3886 152.758 88.8414 149.641 91.8021L138.103 73.9542C142.875 69.9094 148.71 66.5747 155.609 63.9501C162.624 61.3144 169.906 59.6382 177.455 58.9215ZM182.707 136.456C187.352 136.015 191.377 134.59 194.781 132.181C198.174 129.658 200.429 126.257 201.546 121.98L200.647 112.507L182.007 114.277C170.858 115.335 165.627 119.481 166.314 126.716C166.641 130.16 168.238 132.789 171.106 134.603C174.078 136.29 177.945 136.908 182.707 136.456Z" fill="url(#paint1_linear)"/>
</g>
</g>
<defs>
<filter id="filter0_di" x="-20.433" y="24.4168" width="260.197" height="160.269" filterUnits="userSpaceOnUse" color-interpolation-filters="sRGB">
<feFlood flood-opacity="0" result="BackgroundImageFix"/>
<feColorMatrix in="SourceAlpha" type="matrix" values="0 0 0 0 0 0 0 0 0 0 0 0 0 0 0 0 0 0 127 0"/>
<feOffset dy="4.43548"/>
<feGaussianBlur stdDeviation="4.06586"/>
<feColorMatrix type="matrix" values="0 0 0 0 0.95 0 0 0 0 0.685762 0 0 0 0 0 0 0 0 1 0"/>
<feBlend mode="normal" in2="BackgroundImageFix" result="effect1_dropShadow"/>
<feBlend mode="normal" in="SourceGraphic" in2="effect1_dropShadow" result="shape"/>
<feColorMatrix in="SourceAlpha" type="matrix" values="0 0 0 0 0 0 0 0 0 0 0 0 0 0 0 0 0 0 127 0" result="hardAlpha"/>
<feOffset dx="3.18836"/>
<feGaussianBlur stdDeviation="1.84812"/>
<feComposite in2="hardAlpha" operator="arithmetic" k2="-1" k3="1"/>
<feColorMatrix type="matrix" values="0 0 0 0 1 0 0 0 0 0.883987 0 0 0 0 0.583333 0 0 0 1 0"/>
<feBlend mode="normal" in2="shape" result="effect2_innerShadow"/>
</filter>
<linearGradient id="paint0_linear" x1="103.877" y1="39.143" x2="115.454" y2="161.089" gradientUnits="userSpaceOnUse">
<stop stop-color="white"/>
<stop offset="1" stop-color="#FFD568"/>
</linearGradient>
<linearGradient id="paint1_linear" x1="103.877" y1="39.143" x2="115.454" y2="161.089" gradientUnits="userSpaceOnUse">
<stop stop-color="white"/>
<stop offset="1" stop-color="#FFD568"/>
</linearGradient>
</defs>
</svg>
