<svg width="40" height="32" viewBox="0 0 40 32" fill="none" xmlns="http://www.w3.org/2000/svg">
<g clip-path="url(#clip0)">
<g opacity="0.5">
<path opacity="0.5" d="M8.47759 29.9182C8.47775 29.7672 8.51083 29.6182 8.57444 29.4818C8.63804 29.3454 8.73059 29.2251 8.84542 29.1295C8.96025 29.0339 9.09449 28.9654 9.23847 28.929C9.38246 28.8925 9.53259 28.889 9.67806 28.9187C9.82377 28.9486 9.96112 29.0111 10.0801 29.1017C10.1991 29.1924 10.2967 29.3089 10.3658 29.4427C10.4349 29.5766 10.4738 29.7245 10.4796 29.8756C10.4855 30.0267 10.4581 30.1772 10.3996 30.3162C10.3218 30.502 10.1916 30.6602 10.0254 30.7706C9.85916 30.8809 9.66447 30.9386 9.466 30.9362C8.85662 31.0106 8.47881 30.5518 8.47881 29.9182H8.47759ZM11.0028 28.2777H10.3935V28.7489C10.2685 28.5795 10.1066 28.4421 9.92045 28.3474C9.73431 28.2527 9.52907 28.2034 9.32097 28.2033C8.89703 28.2394 8.50197 28.4365 8.2143 28.7553C7.92663 29.0742 7.76741 29.4916 7.76828 29.9244C7.76878 30.3566 7.92831 30.773 8.21546 31.0915C8.5026 31.4101 8.89655 31.6077 9.31975 31.6455C9.51182 31.6587 9.70407 31.6225 9.87875 31.5401C10.0534 31.4578 10.2049 31.332 10.3191 31.1743V31.5587H11.0028V28.2777ZM34.6576 29.9182C34.6581 29.7173 34.7171 29.5211 34.8269 29.3542C34.9367 29.1873 35.0925 29.0571 35.2748 28.9801C35.4571 28.903 35.6577 28.8824 35.8515 28.9209C36.0452 28.9594 36.2234 29.0553 36.3638 29.1965C36.5041 29.3389 36.5998 29.5205 36.6387 29.7182C36.6776 29.9159 36.6579 30.121 36.5823 30.3074C36.5066 30.4937 36.3783 30.6531 36.2136 30.7653C36.0488 30.8774 35.8551 30.9374 35.6569 30.9375C34.9622 31.0119 34.6576 30.5518 34.6576 29.9182ZM37.1938 29.9182V26.9459H36.4991V28.7476C36.3884 28.5812 36.2396 28.4445 36.0655 28.3495C35.8914 28.2544 35.6973 28.2038 35.4997 28.202C35.2831 28.2065 35.0695 28.2545 34.8712 28.3432C34.6729 28.4319 34.4937 28.5596 34.344 28.719C34.1943 28.8783 34.077 29.0662 33.9988 29.2717C33.9207 29.4773 33.8832 29.6966 33.8885 29.9169C33.8751 30.1409 33.9072 30.3653 33.983 30.576C34.0587 30.7867 34.1764 30.9792 34.3287 31.1415C34.481 31.3038 34.6646 31.4323 34.868 31.5191C35.0714 31.6058 35.2902 31.6488 35.5107 31.6455C35.703 31.6591 35.8955 31.623 36.0704 31.5406C36.2454 31.4582 36.397 31.3322 36.5113 31.1743V31.5587H37.206L37.1938 29.9182ZM19.6523 28.8989C19.8647 28.8979 20.0699 28.9775 20.2277 29.1222C20.3855 29.2669 20.4845 29.4663 20.5054 29.6813H18.8357C18.8564 29.4727 18.9504 29.2787 19.1004 29.135C19.2504 28.9912 19.4464 28.9074 19.6523 28.8989ZM19.7376 28.202C19.3137 28.2385 18.9188 28.4358 18.6313 28.755C18.3439 29.0741 18.1849 29.4915 18.1862 29.9244C18.1867 30.3566 18.3462 30.773 18.6333 31.0915C18.9205 31.4101 19.3144 31.6077 19.7376 31.6455C20.2125 31.6425 20.6724 31.4764 21.0429 31.1743L20.7382 30.6262C20.472 30.8317 20.146 30.9408 19.812 30.9362C19.7013 30.9468 19.5896 30.9349 19.4834 30.9012C19.3773 30.8676 19.2787 30.8129 19.1935 30.7402C19.1083 30.6676 19.038 30.5784 18.9869 30.478C18.9357 30.3775 18.9046 30.2678 18.8955 30.155H21.3354V29.9182C21.3486 29.479 21.1908 29.0524 20.8964 28.731C20.602 28.4096 20.1947 28.2195 19.7632 28.202H19.7388H19.7376ZM28.1921 29.9182C28.1927 29.7173 28.2516 29.5211 28.3614 29.3542C28.4712 29.1873 28.627 29.0571 28.8093 28.9801C28.9916 28.903 29.1922 28.8824 29.386 28.9209C29.5797 28.9594 29.758 29.0553 29.8983 29.1965C30.0381 29.3391 30.1332 29.5207 30.1718 29.7182C30.2103 29.9157 30.1906 30.1205 30.115 30.3066C30.0394 30.4927 29.9114 30.652 29.7471 30.7642C29.5827 30.8765 29.3894 30.9368 29.1915 30.9375C28.509 31.0119 28.1921 30.5518 28.1921 29.9182ZM30.8027 29.9182V28.2777H30.108V28.7489C29.997 28.582 29.8478 28.4452 29.6733 28.3502C29.4988 28.2551 29.3041 28.2047 29.1062 28.2033C28.6824 28.2397 28.2877 28.4369 28.0003 28.7557C27.7128 29.0746 27.5538 29.4917 27.5547 29.9244C27.5549 30.3567 27.7143 30.7732 28.0015 31.0918C28.2887 31.4104 28.6829 31.608 29.1062 31.6455C29.2984 31.6589 29.4909 31.6228 29.6658 31.5404C29.8407 31.4581 29.9924 31.3321 30.1067 31.1743V31.5587H30.8014V29.9182H30.8027ZM24.2762 29.9182C24.2584 30.2629 24.3478 30.6046 24.5315 30.8949C24.7152 31.1851 24.9841 31.4091 25.3 31.5351C25.5096 31.6182 25.7339 31.6567 25.9581 31.6455C26.3805 31.6687 26.7955 31.5267 27.1184 31.2487L26.8137 30.7006C26.5638 30.8866 26.2677 30.9933 25.9593 31.0106C25.8276 31.016 25.6963 30.9937 25.5734 30.9452C25.4505 30.8967 25.3387 30.823 25.245 30.7287C25.1513 30.6343 25.0776 30.5214 25.0286 30.397C24.9795 30.2725 24.9562 30.139 24.96 30.005C24.9492 29.8686 24.9676 29.7314 25.0139 29.6029C25.0603 29.4744 25.1335 29.3577 25.2285 29.2608C25.3235 29.1639 25.4381 29.0891 25.5642 29.0416C25.6904 28.9941 25.8252 28.975 25.9593 28.9857C26.2723 28.9737 26.5778 29.0847 26.8125 29.2957L27.1172 28.7501C26.9873 28.5646 26.8123 28.4166 26.6094 28.3205C26.4064 28.2244 26.1824 28.1836 25.9593 28.202C25.7316 28.188 25.5035 28.2224 25.2894 28.3029C25.0754 28.3834 24.8802 28.5083 24.7162 28.6697C24.5522 28.8311 24.423 29.0254 24.3367 29.2403C24.2505 29.4553 24.2091 29.6861 24.2153 29.9182H24.2762ZM33.2536 28.202C33.0834 28.1891 32.9133 28.2269 32.7639 28.3108C32.6146 28.3947 32.4925 28.5211 32.4126 28.6745V28.2777H31.7179V31.5587H32.4126V29.7681C32.4126 29.2225 32.6442 28.8989 33.1073 28.8989C33.2626 28.8854 33.4185 28.9154 33.5582 28.9857L33.7898 28.3521C33.5995 28.2713 33.3981 28.2211 33.1926 28.2033H33.2536V28.202ZM14.6018 28.5877C14.2098 28.3477 13.7536 28.2393 13.2977 28.2777C12.4556 28.2777 11.9912 28.6745 11.9912 29.2957C11.9912 29.9182 12.3691 30.1538 13.0637 30.2282L13.3697 30.315C13.7597 30.3894 13.9059 30.4638 13.9059 30.6262C13.9059 30.7874 13.6743 31.0106 13.1381 31.0106C12.7585 31.0164 12.3855 30.9086 12.0656 30.7006L11.7597 31.2475C12.1594 31.5413 12.6469 31.6815 13.1381 31.6455C14.0643 31.6455 14.6018 31.1743 14.6018 30.5518C14.6018 29.9306 14.2118 29.6813 13.3831 29.6069L13.0772 29.5325C12.7725 29.4457 12.5409 29.4457 12.5409 29.2225C12.5409 28.9981 12.7725 28.8233 13.1503 28.8233C13.5049 28.8344 13.8511 28.9411 14.1497 29.1345L14.6018 28.5889V28.5877ZM23.5803 28.2033C23.4103 28.19 23.2402 28.2276 23.0908 28.3113C22.9414 28.395 22.8193 28.5212 22.7394 28.6745V28.2777H22.0435V31.5587H22.7382V29.7681C22.7382 29.2225 22.9697 28.8989 23.4329 28.8989C23.5886 28.8852 23.745 28.9152 23.885 28.9857L24.1166 28.2764C23.8241 28.2764 23.6778 28.202 23.5194 28.202H23.5803V28.2033ZM17.5902 28.2777H16.4446V27.2584H15.7487V28.2777H15.1393V28.9845H15.7487V30.4774C15.7487 31.2599 16.0533 31.7199 16.9065 31.7199C17.2038 31.7224 17.4951 31.6405 17.7498 31.4843L17.5183 30.8494C17.3368 30.968 17.1229 31.0245 16.9077 31.0106C16.5177 31.0106 16.4446 30.775 16.4446 30.465V28.9857H17.5902V28.2764V28.2777ZM7.17231 31.5587V29.5325C7.18383 29.3624 7.16087 29.1917 7.10487 29.031C7.04886 28.8702 6.961 28.7229 6.84672 28.5982C6.73245 28.4734 6.59421 28.3739 6.44057 28.3058C6.28693 28.2376 6.12117 28.2023 5.95356 28.202C5.73243 28.1989 5.51345 28.2465 5.31282 28.3411C5.11219 28.4358 4.93506 28.5751 4.79453 28.7489C4.67006 28.5787 4.50805 28.4407 4.32155 28.3459C4.13505 28.2512 3.92927 28.2023 3.72081 28.2033C3.54066 28.1892 3.36016 28.2257 3.19898 28.3088C3.03781 28.3918 2.90213 28.5183 2.80675 28.6745V28.2777H2.09865V31.5587H2.79334V29.7681C2.77947 29.6581 2.78909 29.5463 2.82155 29.4404C2.854 29.3345 2.90854 29.237 2.98142 29.1545C3.0543 29.072 3.14382 29.0064 3.24387 28.9623C3.34392 28.9182 3.45214 28.8966 3.56115 28.8989C4.01331 28.8989 4.24487 29.2213 4.24487 29.7681V31.5587H4.93956V29.7681C4.92567 29.658 4.93532 29.5461 4.96785 29.4401C5.00038 29.3341 5.05502 29.2365 5.12803 29.154C5.20105 29.0715 5.29072 29.0059 5.39092 28.9619C5.49112 28.9179 5.59948 28.8964 5.70859 28.8989C6.17172 28.8989 6.40328 29.2213 6.40328 29.7681V31.5587H7.17231ZM15.0296 13.0753C15.0258 11.1975 15.4397 9.34312 16.2402 7.65116C17.0408 5.9592 18.2073 4.47349 19.6523 3.30531C18.1384 2.09533 16.3619 1.27142 14.4712 0.902376C12.5805 0.533328 10.6305 0.629852 8.78396 1.18389C6.93742 1.73792 5.24794 2.73339 3.8566 4.08717C2.46527 5.44095 1.41245 7.11376 0.786059 8.96591C0.157166 10.8187 -0.0282613 12.7973 0.245173 14.7376C0.518607 16.6779 1.24301 18.5239 2.35825 20.1222C3.47294 21.7187 4.9464 23.0211 6.65591 23.9209C8.36542 24.8208 10.2615 25.292 12.1862 25.2955C14.8904 25.3157 17.5217 24.4045 19.6523 22.7101C18.1951 21.5839 17.0177 20.1257 16.2149 18.4526C15.412 16.7796 15.0061 14.9382 15.0296 13.0765V13.0753ZM39.1706 13.0753C39.1813 15.3854 38.5501 17.6516 37.3498 19.6125C36.4541 21.0785 35.2631 22.3347 33.8553 23.298C32.4475 24.2614 30.855 24.9101 29.1828 25.2014C27.5105 25.4927 25.7966 25.42 24.154 24.988C22.5114 24.556 20.9775 23.7745 19.6535 22.6952C21.1013 21.5453 22.2692 20.0715 23.0667 18.3881C23.8641 16.7047 24.2697 14.8571 24.2519 12.9885C24.2663 11.1237 23.8589 9.28049 23.0614 7.60144C22.2638 5.92239 21.0974 4.45246 19.6523 3.30531C21.7712 1.60655 24.3842 0.67108 27.0818 0.645508C30.2901 0.704081 33.349 2.0359 35.6057 4.35683C37.8642 6.68005 39.143 9.80779 39.1706 13.0753Z" fill="#9E9E9E"/>
<path opacity="0.5" d="M19.6521 4.72266C18.5225 5.79388 17.6163 7.08544 16.9875 8.52041C16.3588 9.95539 16.0203 11.5044 15.9922 13.0753C16.0314 14.6478 16.3748 16.1971 17.0028 17.6346C17.6308 19.072 18.531 20.3695 19.6521 21.4527C20.7753 20.3712 21.677 19.0741 22.3052 17.6363C22.9333 16.1984 23.2755 14.6483 23.312 13.0753C23.2874 11.5038 22.9505 9.9537 22.3215 8.51822C21.6925 7.08275 20.7845 5.79165 19.6521 4.72266Z" fill="#9E9E9E"/>
</g>
</g>
<defs>
<clipPath id="clip0">
<rect width="39" height="31" fill="white" transform="translate(0.133789 0.645508)"/>
</clipPath>
</defs>
</svg>
