<svg width="82" height="24" viewBox="0 0 82 24" fill="none" xmlns="http://www.w3.org/2000/svg">
<g opacity="0.4">
<path d="M73.3351 0.264648H57.7407C58.6491 5.41231 63.6454 10.2572 69.0959 10.2572H81.5108C81.6622 9.80297 81.6622 9.04596 81.6622 8.59175C81.6622 4.04969 77.8772 0.264648 73.3351 0.264648Z" fill="url(#paint0_linear)"/>
<path d="M59.103 11.166V23.7324H66.6731V17.0707H73.3348C76.9684 17.0707 80.1479 14.4969 81.2077 11.166H59.103Z" fill="#9E9E9E"/>
<path d="M32.4565 0.264648V23.5806H39.1183C39.1183 23.5806 40.7837 23.5805 41.6921 21.9151C46.2341 12.9824 47.5967 10.2572 47.5967 10.2572H48.5051V23.5806H56.0752V0.264648H49.4136C49.4136 0.264648 47.7481 0.41606 46.8397 1.93008C43.0547 9.65157 40.9351 13.588 40.9351 13.588H40.0266V0.264648H32.4565Z" fill="#9E9E9E"/>
<path d="M0.662109 23.7319V0.416016H8.2322C8.2322 0.416016 10.3518 0.416011 11.5631 3.74685C14.5911 12.5282 14.8939 13.7394 14.8939 13.7394C14.8939 13.7394 15.4995 11.6197 18.2247 3.74685C19.4359 0.416011 21.5556 0.416016 21.5556 0.416016H29.1257V23.7319H21.5556V11.1656H20.6472L16.4079 23.7319H13.0771L8.83785 11.1656H7.92943V23.7319H0.662109Z" fill="#9E9E9E"/>
</g>
<defs>
<linearGradient id="paint0_linear" x1="57.7138" y1="5.33253" x2="81.6086" y2="5.33253" gradientUnits="userSpaceOnUse">
<stop stop-color="#9B9B9B"/>
<stop offset="0.979167" stop-color="#4B4D4F"/>
</linearGradient>
</defs>
</svg>
