<svg width="66" height="67" viewBox="0 0 66 67" fill="none" xmlns="http://www.w3.org/2000/svg">
<circle cx="33" cy="33.5898" r="33" fill="#64D47F"/>
<mask id="mask0" mask-type="alpha" maskUnits="userSpaceOnUse" x="0" y="0" width="66" height="67">
<circle cx="33" cy="33.5898" r="33" fill="#64D47F"/>
</mask>
<g mask="url(#mask0)">
<g filter="url(#filter0_di)">
<path d="M45.269 54.621C52.8747 54.621 59.0619 48.4338 59.0619 40.8281C59.0619 33.2225 52.8747 26.9331 45.269 26.9331C37.6634 26.9331 31.374 33.2225 31.374 40.8281C31.374 48.4338 37.6634 54.621 45.269 54.621ZM37.6063 39.2956H43.7365V33.0633H46.8016V39.2956H52.9317V42.3607H46.8016V48.4908H43.7365V42.3607H37.6063V39.2956Z" fill="white"/>
<path d="M45.269 54.621C52.8747 54.621 59.0619 48.4338 59.0619 40.8281C59.0619 33.2225 52.8747 26.9331 45.269 26.9331C37.6634 26.9331 31.374 33.2225 31.374 40.8281C31.374 48.4338 37.6634 54.621 45.269 54.621ZM37.6063 39.2956H43.7365V33.0633H46.8016V39.2956H52.9317V42.3607H46.8016V48.4908H43.7365V42.3607H37.6063V39.2956Z" fill="url(#paint0_linear)"/>
<path d="M45.2686 66.984C59.6346 66.984 71.424 55.1946 71.424 40.8287C71.424 26.4627 59.6346 14.6733 45.2686 14.6733C40.9675 14.6733 36.678 15.7852 32.9157 17.7971C31.5181 15.9129 29.2967 14.6733 26.776 14.6733C22.5511 14.6733 19.1133 18.1112 19.1133 22.336C19.1133 24.8567 20.3529 27.0781 22.237 28.4758C20.2252 32.2385 19.1133 36.5276 19.1133 40.8287C19.1133 55.1946 30.9027 66.984 45.2686 66.984ZM23.7109 20.8035H29.8411V23.8686H23.7109V20.8035ZM26.776 29.9987C31.0008 29.9987 34.4387 26.5609 34.4387 22.336C34.4387 21.7254 34.3485 21.1383 34.2128 20.5688C37.568 18.7437 41.4181 17.7384 45.2686 17.7384C57.9448 17.7384 68.3589 28.1525 68.3589 40.8287C68.3589 53.5049 57.9448 63.9189 45.2686 63.9189C32.5924 63.9189 22.1784 53.5049 22.1784 40.8287C22.1784 36.9782 23.1837 33.1281 25.0088 29.7728C25.5783 29.9085 26.1654 29.9987 26.776 29.9987Z" fill="white"/>
<path d="M45.2686 66.984C59.6346 66.984 71.424 55.1946 71.424 40.8287C71.424 26.4627 59.6346 14.6733 45.2686 14.6733C40.9675 14.6733 36.678 15.7852 32.9157 17.7971C31.5181 15.9129 29.2967 14.6733 26.776 14.6733C22.5511 14.6733 19.1133 18.1112 19.1133 22.336C19.1133 24.8567 20.3529 27.0781 22.237 28.4758C20.2252 32.2385 19.1133 36.5276 19.1133 40.8287C19.1133 55.1946 30.9027 66.984 45.2686 66.984ZM23.7109 20.8035H29.8411V23.8686H23.7109V20.8035ZM26.776 29.9987C31.0008 29.9987 34.4387 26.5609 34.4387 22.336C34.4387 21.7254 34.3485 21.1383 34.2128 20.5688C37.568 18.7437 41.4181 17.7384 45.2686 17.7384C57.9448 17.7384 68.3589 28.1525 68.3589 40.8287C68.3589 53.5049 57.9448 63.9189 45.2686 63.9189C32.5924 63.9189 22.1784 53.5049 22.1784 40.8287C22.1784 36.9782 23.1837 33.1281 25.0088 29.7728C25.5783 29.9085 26.1654 29.9987 26.776 29.9987Z" fill="url(#paint1_linear)"/>
</g>
</g>
<defs>
<filter id="filter0_di" x="12.712" y="11.7608" width="65.1132" height="65.1132" filterUnits="userSpaceOnUse" color-interpolation-filters="sRGB">
<feFlood flood-opacity="0" result="BackgroundImageFix"/>
<feColorMatrix in="SourceAlpha" type="matrix" values="0 0 0 0 0 0 0 0 0 0 0 0 0 0 0 0 0 0 127 0"/>
<feOffset dy="3.48871"/>
<feGaussianBlur stdDeviation="3.20063"/>
<feColorMatrix type="matrix" values="0 0 0 0 0.314236 0 0 0 0 0.754167 0 0 0 0 0.420291 0 0 0 1 0"/>
<feBlend mode="normal" in2="BackgroundImageFix" result="effect1_dropShadow"/>
<feBlend mode="normal" in="SourceGraphic" in2="effect1_dropShadow" result="shape"/>
<feColorMatrix in="SourceAlpha" type="matrix" values="0 0 0 0 0 0 0 0 0 0 0 0 0 0 0 0 0 0 127 0" result="hardAlpha"/>
<feOffset dx="2.50986"/>
<feGaussianBlur stdDeviation="1.45483"/>
<feComposite in2="hardAlpha" operator="arithmetic" k2="-1" k3="1"/>
<feColorMatrix type="matrix" values="0 0 0 0 0.921569 0 0 0 0 0.992157 0 0 0 0 0.937255 0 0 0 1 0"/>
<feBlend mode="normal" in2="shape" result="effect2_innerShadow"/>
</filter>
<linearGradient id="paint0_linear" x1="34.9823" y1="30.5117" x2="56.0344" y2="62.1811" gradientUnits="userSpaceOnUse">
<stop stop-color="#B9ECC5"/>
<stop offset="1" stop-color="#64D47F"/>
</linearGradient>
<linearGradient id="paint1_linear" x1="25.9303" y1="21.4343" x2="65.704" y2="81.2674" gradientUnits="userSpaceOnUse">
<stop stop-color="#B9ECC5"/>
<stop offset="1" stop-color="#64D47F"/>
</linearGradient>
</defs>
</svg>
