<svg width="100" height="100" viewBox="0 0 100 100" fill="none" xmlns="http://www.w3.org/2000/svg">
<rect width="99.2665" height="99.2527" rx="49.6263" transform="matrix(0.999971 0.00755579 -0.00741886 0.999973 0.736404 0)" fill="#FF9E4A"/>
<path d="M63.8119 46.042C66.4602 47.5851 66.4602 51.4112 63.8119 52.9543L45.8089 63.4437C43.1423 64.9975 39.7952 63.0739 39.7952 59.9876L39.7952 39.0086C39.7952 35.9224 43.1423 33.9988 45.8089 35.5525L63.8119 46.042Z" fill="white"/>
<path d="M63.8119 46.042C66.4602 47.5851 66.4602 51.4112 63.8119 52.9543L45.8089 63.4437C43.1423 64.9975 39.7952 63.0739 39.7952 59.9876L39.7952 39.0086C39.7952 35.9224 43.1423 33.9988 45.8089 35.5525L63.8119 46.042Z" fill="url(#paint0_linear)"/>
<defs>
<linearGradient id="paint0_linear" x1="47.4453" y1="42.6004" x2="56.1211" y2="62.9541" gradientUnits="userSpaceOnUse">
<stop stop-color="white"/>
<stop offset="1" stop-color="#FFDCBB"/>
</linearGradient>
</defs>
</svg>
