<svg width="138" height="139" viewBox="0 0 138 139" fill="none" xmlns="http://www.w3.org/2000/svg">
<path d="M78.775 10.1612L87.417 20.4818L100.708 18.3475L104.743 31.1897L117.838 34.3041L116.651 47.7127L127.559 55.6016L121.331 67.5353L128.389 78.9977L118.068 87.6397L120.202 100.931L107.36 104.965L104.246 118.061L90.8373 116.874L82.9484 127.781L71.0146 121.554L59.5523 128.612L50.9102 118.291L37.6194 120.425L33.5847 107.583L20.4889 104.469L21.6758 91.0599L10.7686 83.1711L16.9965 71.2373L9.93846 59.775L20.2591 51.1329L18.1248 37.8421L30.967 33.8074L34.0814 20.7116L47.49 21.8985L55.3789 10.9913L67.3126 17.2192L78.775 10.1612Z" fill="#6E9FFF"/>
<path d="M38.2027 45.9171C39.024 46.0503 39.7283 46.3551 40.3156 46.8313C40.912 47.3009 41.3427 47.8936 41.6074 48.6092C41.8735 49.317 41.9399 50.0815 41.8066 50.9027C41.6733 51.724 41.3679 52.4322 40.8904 53.0274C40.4142 53.6147 39.8183 54.0408 39.1026 54.3055C38.3961 54.5637 37.6323 54.6261 36.811 54.4929C36.0766 54.3737 35.4338 54.1397 34.8826 53.7909C34.3392 53.4434 33.9092 52.9967 33.5925 52.4509L34.9971 51.5118C35.4751 52.2621 36.1366 52.7058 36.9815 52.8429C37.5896 52.9416 38.1317 52.8472 38.6079 52.5597C39.092 52.2736 39.4459 51.8407 39.6696 51.2611L36.3056 50.7151L36.544 49.2463L39.8843 49.7884C39.8423 49.1981 39.6396 48.6992 39.2762 48.2917C38.9128 47.8842 38.4349 47.6324 37.8427 47.5363C36.9977 47.3992 36.2299 47.6109 35.5392 48.1715L34.5037 46.8364C34.9767 46.4188 35.5259 46.131 36.1512 45.9732C36.7845 45.8166 37.4683 45.7979 38.2027 45.9171ZM46.3887 52.473L45.062 52.2577L44.5199 55.598L42.6129 55.2885L43.9585 46.997L45.8655 47.3065L45.3215 50.6586L46.6955 50.8816L49.419 47.8832L51.4445 48.2119L48.0823 51.7753L50.1819 56.5169L48.0024 56.1632L46.3887 52.473ZM54.9793 57.4413C54.1185 57.3016 53.3708 56.9898 52.7361 56.5059C52.1093 56.0233 51.6511 55.4261 51.3613 54.7145C51.0808 53.9963 51.0065 53.2305 51.1385 52.4172C51.2705 51.6038 51.5825 50.9048 52.0745 50.32C52.5757 49.7287 53.1999 49.3032 53.9472 49.0435C54.7023 48.7852 55.5102 48.7258 56.371 48.8655C57.2317 49.0052 57.9755 49.3163 58.6023 49.799C59.229 50.2816 59.6867 50.8827 59.9751 51.6022C60.2649 52.3138 60.3438 53.0763 60.2118 53.8896C60.0798 54.703 59.7632 55.4053 59.262 55.9967C58.7621 56.5801 58.1385 57.0017 57.3912 57.2613C56.644 57.521 55.84 57.581 54.9793 57.4413ZM55.2445 55.8067C55.7341 55.8861 56.1943 55.8474 56.625 55.6903C57.057 55.5254 57.4162 55.2595 57.7027 54.8927C57.9971 54.5271 58.1859 54.0877 58.2692 53.5744C58.3525 53.0611 58.3123 52.5845 58.1487 52.1446C57.9929 51.706 57.7356 51.3441 57.3766 51.0589C57.0189 50.7658 56.5953 50.5796 56.1057 50.5001C55.6161 50.4207 55.1553 50.4634 54.7233 50.6283C54.2926 50.7854 53.9301 51.0467 53.6357 51.4122C53.3492 51.7791 53.1644 52.2191 53.0811 52.7324C52.9978 53.2457 53.034 53.7217 53.1897 54.1603C53.3534 54.6002 53.614 54.9667 53.9717 55.2597C54.3307 55.5449 54.7549 55.7272 55.2445 55.8067ZM69.9673 51.2179L68.6217 59.5094L66.7028 59.198L67.2545 55.7984L63.4878 55.1872L62.9361 58.5867L61.0172 58.2753L62.3628 49.9838L64.2817 50.2952L63.7511 53.5644L67.5179 54.1757L68.0484 50.9064L69.9673 51.2179ZM74.6323 60.6307C73.7716 60.491 73.0239 60.1792 72.3892 59.6953C71.7624 59.2127 71.3041 58.6155 71.0144 57.9039C70.7338 57.1857 70.6595 56.4199 70.7915 55.6066C70.9235 54.7932 71.2355 54.0942 71.7275 53.5094C72.2287 52.9181 72.853 52.4926 73.6002 52.2329C74.3553 51.9745 75.1633 51.9152 76.024 52.0549C76.8848 52.1946 77.6285 52.5057 78.2553 52.9884C78.8821 53.471 79.3397 54.0721 79.6282 54.7916C79.9179 55.5032 79.9968 56.2657 79.8648 57.079C79.7328 57.8924 79.4162 58.5947 78.915 59.1861C78.4151 59.7695 77.7915 60.1911 77.0443 60.4507C76.297 60.7104 75.493 60.7704 74.6323 60.6307ZM74.8976 58.9961C75.3872 59.0755 75.8473 59.0367 76.278 58.8797C76.71 58.7148 77.0693 58.4489 77.3557 58.082C77.6501 57.7165 77.8389 57.2771 77.9222 56.7638C78.0055 56.2505 77.9653 55.7739 77.8017 55.334C77.6459 54.8954 77.3886 54.5335 77.0296 54.2483C76.672 53.9552 76.2483 53.769 75.7587 53.6895C75.2692 53.61 74.8084 53.6528 74.3764 53.8177C73.9456 53.9747 73.5831 54.236 73.2887 54.6016C73.0023 54.9685 72.8174 55.4085 72.7341 55.9218C72.6508 56.4351 72.687 56.911 72.8428 57.3497C73.0064 57.7896 73.2671 58.156 73.6248 58.4491C73.9837 58.7343 74.408 58.9166 74.8976 58.9961ZM88.2155 62.6892L89.0091 57.7242L85.9059 61.4147L85.053 61.2763L83.2607 56.8885L82.4707 61.7569L80.6702 61.4647L82.0158 53.1731L83.6031 53.4307L85.8703 59.087L89.7625 54.4303L91.3497 54.6879L90.016 62.9813L88.2155 62.6892ZM93.4213 55.0241L95.3284 55.3336L94.4518 60.7349L99.2846 55.9756L101.085 56.2678L99.7395 64.5593L97.8442 64.2518L98.7189 58.8623L93.888 63.6097L92.0757 63.3156L93.4213 55.0241ZM109.771 57.6774L108.425 65.9689L106.53 65.6613L106.888 63.4582L105.135 63.1737L103.308 65.1385L101.283 64.8098L103.418 62.5911C102.894 62.2711 102.52 61.8578 102.294 61.3511C102.069 60.8365 102.01 60.2554 102.115 59.6079C102.219 58.9682 102.454 58.4431 102.82 58.0325C103.188 57.6141 103.66 57.326 104.237 57.1683C104.815 57.0028 105.467 56.9789 106.194 57.0968L109.771 57.6774ZM105.987 58.6681C105.442 58.5797 105.003 58.6381 104.67 58.8434C104.345 59.0499 104.142 59.4019 104.061 59.8994C103.983 60.3811 104.061 60.7747 104.295 61.0802C104.529 61.3856 104.915 61.5819 105.452 61.669L107.134 61.942L107.622 58.9334L105.987 58.6681Z" fill="white"/>
<path d="M56.4614 84.5714L55.8693 88.2197L41.2486 85.847L41.7195 82.9449L50.3257 77.1082C51.2406 76.4813 51.8796 75.9231 52.2427 75.4336C52.6087 74.9257 52.8351 74.4046 52.9219 73.8702C53.0475 73.0964 52.876 72.4634 52.4074 71.9713C51.9603 71.4638 51.23 71.1278 50.2166 70.9633C49.369 70.8258 48.5774 70.8675 47.8419 71.0885C47.1093 71.2911 46.4603 71.6775 45.895 72.2477L42.9746 69.6179C43.9124 68.6165 45.0955 67.9102 46.5238 67.4991C47.9551 67.0695 49.5276 66.9937 51.2412 67.2718C52.6784 67.505 53.8924 67.9479 54.8834 68.6004C55.8957 69.2374 56.6264 70.0368 57.0755 70.9985C57.546 71.9448 57.6871 72.9983 57.4987 74.1591C57.3282 75.2094 56.9472 76.1593 56.3554 77.0088C55.7637 77.8583 54.7365 78.7695 53.2737 79.7424L48.1422 83.2213L56.4614 84.5714ZM65.9005 90.188C64.2974 89.9278 62.9338 89.2999 61.8094 88.3043C60.685 87.3087 59.8846 86.0063 59.4083 84.3972C58.9533 82.7727 58.8947 80.9194 59.2326 78.8373C59.5705 76.7552 60.2107 75.0247 61.153 73.6459C62.1168 72.2516 63.2895 71.26 64.671 70.671C66.0525 70.082 67.5448 69.9176 69.1478 70.1778C70.7509 70.4379 72.1146 71.0658 73.2389 72.0614C74.3633 73.0571 75.153 74.3672 75.6079 75.9917C76.0843 77.6008 76.1536 79.4464 75.8157 81.5285C75.4778 83.6106 74.8269 85.3487 73.8631 86.743C72.9208 88.1219 71.7588 89.1058 70.3773 89.6948C68.9958 90.2837 67.5035 90.4481 65.9005 90.188ZM66.515 86.4015C67.6942 86.5929 68.6977 86.2357 69.5255 85.3299C70.3717 84.4272 70.9667 82.9163 71.3106 80.7974C71.6545 78.6784 71.5678 77.0569 71.0505 75.9329C70.5516 74.8118 69.7126 74.1556 68.5333 73.9642C67.3725 73.7758 66.369 74.133 65.5228 75.0358C64.695 75.9416 64.1092 77.4539 63.7653 79.5729C63.4215 81.6918 63.4989 83.3118 63.9978 84.4329C64.5151 85.5569 65.3541 86.2131 66.515 86.4015ZM82.343 83.382C80.9242 83.1518 79.8411 82.4843 79.0938 81.3797C78.3678 80.2596 78.1364 78.8888 78.3995 77.2673C78.6627 75.6459 79.3142 74.4279 80.3541 73.6133C81.4155 72.7832 82.6555 72.4833 84.0743 72.7136C85.4931 72.9438 86.5654 73.619 87.2914 74.7391C88.0203 75.8407 88.2532 77.2023 87.9901 78.8237C87.7269 80.4452 87.0739 81.6724 86.031 82.5055C84.9911 83.3201 83.7617 83.6122 82.343 83.382ZM95.5636 74.805L98.8526 75.3388L82.5017 92.5417L79.2127 92.008L95.5636 74.805ZM82.7108 81.1156C83.3372 81.2173 83.8674 81.0386 84.3012 80.5795C84.7534 80.1234 85.0618 79.3886 85.2262 78.3752C85.3907 77.3618 85.3305 76.5672 85.0457 75.9915C84.7794 75.4188 84.333 75.0816 83.7065 74.9799C83.0984 74.8812 82.5668 75.0692 82.1116 75.5437C81.6593 75.9998 81.3525 76.7254 81.191 77.7204C81.0295 78.7153 81.0897 79.5099 81.3715 80.1041C81.6563 80.6798 82.1027 81.017 82.7108 81.1156ZM93.9911 94.6332C93.0698 94.4837 92.275 94.1372 91.6068 93.5938C90.9599 93.035 90.4996 92.3173 90.2258 91.4408C89.952 90.5643 89.9018 89.5917 90.0753 88.523C90.2487 87.4543 90.6039 86.5475 91.1408 85.8026C91.6778 85.0576 92.3399 84.5316 93.1273 84.2244C93.9361 83.9018 94.8011 83.8153 95.7224 83.9648C97.1412 84.195 98.2135 84.8702 98.9395 85.9903C99.6868 87.0949 99.9289 88.458 99.6658 90.0794C99.4027 91.7009 98.7404 92.9266 97.6791 93.7567C96.6392 94.5713 95.4098 94.8634 93.9911 94.6332ZM94.3589 92.3668C94.9853 92.4685 95.5155 92.2898 95.9493 91.8307C96.4045 91.3561 96.7129 90.6214 96.8743 89.6264C97.0358 88.6314 96.9741 87.8461 96.6894 87.2703C96.426 86.6792 95.9811 86.3328 95.3546 86.2311C94.7465 86.1324 94.2164 86.3112 93.7642 86.7673C93.3119 87.2234 93.0036 87.9581 92.8391 88.9716C92.6747 89.985 92.7348 90.7795 93.0196 91.3552C93.3044 91.931 93.7508 92.2682 94.3589 92.3668Z" fill="white"/>
</svg>
