<svg width="139" height="139" viewBox="0 0 139 139" fill="none" xmlns="http://www.w3.org/2000/svg">
<path d="M78.9976 9.97854L87.6397 20.2992L100.931 18.1649L104.965 31.0071L118.061 34.1214L116.874 47.5301L127.781 55.419L121.553 67.3527L128.611 78.8151L118.291 87.4571L120.425 100.748L107.583 104.783L104.469 117.878L91.0599 116.692L83.1711 127.599L71.2373 121.371L59.7749 128.429L51.1329 118.108L37.8421 120.243L33.8074 107.4L20.7115 104.286L21.8985 90.8773L10.9913 82.9885L17.2191 71.0547L10.1611 59.5924L20.4818 50.9503L18.3475 37.6595L31.1897 33.6248L34.304 20.5289L47.7127 21.7159L55.6015 10.8087L67.5353 17.0365L78.9976 9.97854Z" fill="#3E51FF"/>
<path d="M38.4254 45.7344C39.2466 45.8677 39.9509 46.1725 40.5382 46.6487C41.1347 47.1183 41.5653 47.711 41.8301 48.4266C42.0962 49.1344 42.1625 49.8989 42.0293 50.7201C41.896 51.5414 41.5906 52.2496 41.1131 52.8448C40.6369 53.4321 40.0409 53.8581 39.3253 54.1229C38.6188 54.3811 37.8549 54.4435 37.0337 54.3103C36.2993 54.1911 35.6565 53.9571 35.1052 53.6083C34.5619 53.2607 34.1319 52.8141 33.8152 52.2683L35.2198 51.3292C35.6978 52.0794 36.3592 52.5231 37.2042 52.6603C37.8122 52.7589 38.3543 52.6646 38.8305 52.3771C39.3146 52.091 39.6685 51.6581 39.8923 51.0784L36.5283 50.5325L36.7666 49.0637L40.1069 49.6058C40.065 49.0155 39.8623 48.5165 39.4989 48.1091C39.1354 47.7016 38.6576 47.4498 38.0654 47.3537C37.2204 47.2166 36.4526 47.4283 35.7619 47.9889L34.7263 46.6538C35.1994 46.2362 35.7485 45.9484 36.3739 45.7905C37.0072 45.634 37.691 45.6153 38.4254 45.7344ZM46.6113 52.2904L45.2847 52.0751L44.7426 55.4154L42.8355 55.1059L44.1811 46.8144L46.0882 47.1239L45.5442 50.476L46.9182 50.699L49.6417 47.7006L51.6672 48.0293L48.3049 51.5927L50.4045 56.3343L48.225 55.9806L46.6113 52.2904ZM55.2019 57.2587C54.3412 57.119 53.5935 56.8072 52.9588 56.3233C52.332 55.8406 51.8737 55.2435 51.584 54.5319C51.3034 53.8137 51.2291 53.0479 51.3611 52.2346C51.4931 51.4212 51.8051 50.7221 52.2972 50.1374C52.7984 49.5461 53.4226 49.1206 54.1698 48.8609C54.925 48.6025 55.7329 48.5432 56.5936 48.6829C57.4544 48.8226 58.1981 49.1337 58.8249 49.6164C59.4517 50.099 59.9093 50.7001 60.1978 51.4196C60.4875 52.1312 60.5664 52.8937 60.4344 53.707C60.3024 54.5204 59.9858 55.2227 59.4846 55.8141C58.9847 56.3975 58.3611 56.8191 57.6139 57.0787C56.8666 57.3384 56.0627 57.3984 55.2019 57.2587ZM55.4672 55.6241C55.9568 55.7035 56.4169 55.6647 56.8477 55.5077C57.2797 55.3428 57.6389 55.0769 57.9253 54.71C58.2197 54.3445 58.4085 53.905 58.4918 53.3918C58.5751 52.8785 58.535 52.4019 58.3713 51.962C58.2156 51.5234 57.9582 51.1615 57.5993 50.8763C57.2416 50.5832 56.818 50.3969 56.3284 50.3175C55.8388 50.238 55.378 50.2808 54.946 50.4457C54.5153 50.6027 54.1527 50.864 53.8584 51.2296C53.5719 51.5965 53.387 52.0365 53.3037 52.5498C53.2204 53.0631 53.2566 53.539 53.4124 53.9777C53.576 54.4175 53.8367 54.784 54.1944 55.0771C54.5533 55.3623 54.9776 55.5446 55.4672 55.6241ZM70.19 51.0352L68.8444 59.3268L66.9255 59.0154L67.4772 55.6158L63.7104 55.0045L63.1587 58.4041L61.2399 58.0927L62.5854 49.8011L64.5043 50.1125L63.9738 53.3818L67.7405 53.9931L68.2711 50.7238L70.19 51.0352ZM74.855 60.4481C73.9942 60.3084 73.2465 59.9966 72.6118 59.5127C71.985 59.03 71.5268 58.4329 71.237 57.7213C70.9565 57.0031 70.8822 56.2373 71.0142 55.4239C71.1462 54.6106 71.4582 53.9115 71.9502 53.3268C72.4514 52.7355 73.0756 52.31 73.8229 52.0503C74.578 51.7919 75.3859 51.7326 76.2467 51.8723C77.1074 52.012 77.8512 52.3231 78.478 52.8057C79.1047 53.2884 79.5624 53.8895 79.8508 54.609C80.1406 55.3206 80.2195 56.083 80.0875 56.8964C79.9555 57.7098 79.6389 58.4121 79.1377 59.0035C78.6378 59.5869 78.0142 60.0085 77.2669 60.2681C76.5197 60.5278 75.7157 60.5878 74.855 60.4481ZM75.1202 58.8135C75.6098 58.8929 76.07 58.8541 76.5007 58.6971C76.9327 58.5322 77.2919 58.2663 77.5784 57.8994C77.8728 57.5339 78.0616 57.0944 78.1449 56.5811C78.2282 56.0679 78.188 55.5913 78.0244 55.1514C77.8686 54.7128 77.6113 54.3509 77.2523 54.0657C76.8946 53.7726 76.471 53.5863 75.9814 53.5069C75.4918 53.4274 75.031 53.4702 74.599 53.6351C74.1683 53.7921 73.8058 54.0534 73.5114 54.419C73.2249 54.7858 73.0401 55.2259 72.9568 55.7392C72.8735 56.2525 72.9097 56.7284 73.0654 57.167C73.2291 57.6069 73.4897 57.9734 73.8474 58.2665C74.2064 58.5517 74.6306 58.734 75.1202 58.8135ZM88.4382 62.5065L89.2318 57.5415L86.1285 61.2321L85.2757 61.0937L83.4834 56.7059L82.6933 61.5742L80.8929 61.2821L82.2385 52.9905L83.8257 53.2481L86.0929 58.9043L89.9851 54.2477L91.5724 54.5053L90.2386 62.7987L88.4382 62.5065ZM93.644 54.8415L95.551 55.151L94.6745 60.5523L99.5073 55.793L101.308 56.0852L99.9621 64.3767L98.0669 64.0691L98.9415 58.6796L94.1107 63.4271L92.2984 63.133L93.644 54.8415ZM109.994 57.4948L108.648 65.7863L106.753 65.4787L107.11 63.2755L105.357 62.991L103.531 64.9559L101.505 64.6272L103.64 62.4085C103.117 62.0885 102.742 61.6752 102.516 61.1685C102.292 60.6539 102.232 60.0728 102.337 59.4253C102.441 58.7856 102.676 58.2605 103.043 57.8499C103.411 57.4314 103.883 57.1434 104.46 56.9857C105.038 56.8202 105.69 56.7963 106.416 56.9142L109.994 57.4948ZM106.21 58.4855C105.665 58.397 105.226 58.4555 104.893 58.6607C104.568 58.8673 104.365 59.2193 104.284 59.7168C104.206 60.1985 104.284 60.5921 104.518 60.8975C104.752 61.203 105.137 61.3993 105.674 61.4864L107.356 61.7594L107.845 58.7507L106.21 58.4855Z" fill="white"/>
<path d="M52.4822 75.6792C54.1325 76.2307 55.3284 77.0772 56.0698 78.2187C56.8141 79.3418 57.0682 80.6311 56.832 82.0868C56.6496 83.2107 56.1858 84.2039 55.4407 85.0664C54.6986 85.9104 53.6732 86.5193 52.3644 86.8932C51.074 87.27 49.5536 87.3164 47.8032 87.0323C46.4397 86.811 45.123 86.4177 43.8532 85.8523C42.6048 85.2715 41.5738 84.5747 40.7601 83.7619L43.0575 80.6173C43.7048 81.2896 44.4821 81.8602 45.3894 82.3289C46.3182 82.7822 47.2892 83.0911 48.3026 83.2555C49.4266 83.438 50.3454 83.3696 51.0591 83.0505C51.7757 82.7129 52.1984 82.148 52.3269 81.3557C52.5841 79.7711 51.5058 78.7829 49.092 78.3912L47.0468 78.0593L47.5267 75.102L52.2378 71.2428L44.0015 69.9062L44.5846 66.3132L58.1274 68.511L57.6565 71.413L52.4822 75.6792ZM66.1771 90.0141C64.5741 89.754 63.2104 89.1261 62.086 88.1305C60.9617 87.1348 60.1613 85.8325 59.6849 84.2234C59.2299 82.5988 59.1714 80.7455 59.5093 78.6634C59.8472 76.5813 60.4873 74.8509 61.4297 73.472C62.3935 72.0777 63.5661 71.0861 64.9476 70.4971C66.3292 69.9082 67.8214 69.7438 69.4245 70.0039C71.0275 70.2641 72.3912 70.8919 73.5156 71.8876C74.6399 72.8832 75.4296 74.1933 75.8846 75.8178C76.361 77.4269 76.4302 79.2725 76.0923 81.3546C75.7544 83.4367 75.1036 85.1749 74.1398 86.5692C73.1974 87.948 72.0355 88.9319 70.6539 89.5209C69.2724 90.1099 67.7801 90.2743 66.1771 90.0141ZM66.7916 86.2277C67.9708 86.419 68.9743 86.0618 69.8021 85.1561C70.6483 84.2533 71.2434 82.7424 71.5873 80.6235C71.9311 78.5046 71.8444 76.8831 71.3271 75.759C70.8283 74.638 69.9892 73.9817 68.81 73.7904C67.6492 73.602 66.6457 73.9592 65.7994 74.862C64.9717 75.7677 64.3858 77.2801 64.042 79.399C63.6981 81.518 63.7756 83.138 64.2744 84.259C64.7917 85.3831 65.6308 86.0393 66.7916 86.2277ZM82.6196 83.2081C81.2008 82.9779 80.1178 82.3104 79.3704 81.2058C78.6444 80.0857 78.413 78.7149 78.6762 77.0935C78.9393 75.472 79.5908 74.254 80.6308 73.4394C81.6921 72.6094 82.9321 72.3095 84.3509 72.5397C85.7697 72.77 86.8421 73.4451 87.568 74.5652C88.2969 75.6669 88.5298 77.0284 88.2667 78.6499C88.0036 80.2713 87.3505 81.4986 86.3076 82.3316C85.2677 83.1462 84.0384 83.4384 82.6196 83.2081ZM95.8403 74.6312L99.1292 75.1649L82.7784 92.3679L79.4894 91.8341L95.8403 74.6312ZM82.9874 80.9418C83.6139 81.0435 84.144 80.8647 84.5778 80.4056C85.0301 79.9495 85.3384 79.2148 85.5029 78.2014C85.6673 77.1879 85.6072 76.3934 85.3224 75.8177C85.056 75.2449 84.6096 74.9077 83.9831 74.8061C83.3751 74.7074 82.8434 74.8953 82.3882 75.3699C81.936 75.826 81.6291 76.5515 81.4677 77.5465C81.3062 78.5415 81.3663 79.336 81.6481 79.9302C81.9329 80.5059 82.3793 80.8431 82.9874 80.9418ZM94.2677 94.4593C93.3464 94.3098 92.5517 93.9634 91.8834 93.42C91.2366 92.8611 90.7763 92.1435 90.5025 91.267C90.2287 90.3904 90.1785 89.4179 90.3519 88.3492C90.5253 87.2805 90.8805 86.3737 91.4175 85.6287C91.9544 84.8838 92.6165 84.3577 93.4039 84.0506C94.2127 83.7279 95.0777 83.6414 95.999 83.7909C97.4178 84.0212 98.4902 84.6963 99.2161 85.8164C99.9635 86.9211 100.206 88.2841 99.9424 89.9056C99.6793 91.527 99.0171 92.7528 97.9557 93.5828C96.9158 94.3974 95.6865 94.6896 94.2677 94.4593ZM94.6355 92.193C95.262 92.2947 95.7921 92.1159 96.2259 91.6568C96.6811 91.1823 96.9895 90.4475 97.151 89.4525C97.3124 88.4576 97.2508 87.6722 96.966 87.0965C96.7026 86.5053 96.2577 86.1589 95.6312 86.0573C95.0232 85.9586 94.493 86.1373 94.0408 86.5934C93.5886 87.0495 93.2802 87.7843 93.1158 88.7977C92.9513 89.8111 93.0115 90.6057 93.2962 91.1814C93.581 91.7571 94.0274 92.0943 94.6355 92.193Z" fill="white"/>
</svg>
