<svg width="80" height="81" viewBox="0 0 80 81" fill="none" xmlns="http://www.w3.org/2000/svg">
<circle cx="39.2101" cy="40.0441" r="39.2101" fill="#64D47F"/>
<mask id="mask0" mask-type="alpha" maskUnits="userSpaceOnUse" x="0" y="0" width="80" height="81">
<circle cx="40" cy="40.834" r="40" fill="#64D47F"/>
</mask>
<g mask="url(#mask0)">
<g filter="url(#filter0_di)">
<path d="M51.0073 17.1665C33.5699 17.1665 19.3828 31.3535 19.3828 48.791C19.3828 66.2284 33.5699 80.4155 51.0073 80.4155C68.4448 80.4155 82.6318 66.2284 82.6318 48.791C82.6318 31.3535 68.4448 17.1665 51.0073 17.1665ZM75.9995 59.226C72.8907 66.6451 66.5704 72.3976 58.7852 74.7354C58.9247 74.4763 59.0599 74.2143 59.1907 73.9494C59.8595 72.5958 60.5623 71.6415 61.7418 70.6897C62.6445 69.9607 64.4168 68.8316 64.1271 67.408C63.918 66.3791 62.7434 65.9569 61.8557 65.7054C60.4473 65.3063 58.9406 65.2029 57.4872 65.1023C56.2286 65.0144 54.9215 65.0592 53.6927 64.7458C51.8538 64.2777 51.4393 62.6859 51.323 61.0079C51.2193 59.5163 51.2415 57.9827 50.5079 56.6328C49.5633 54.8955 47.3893 54.4015 45.5866 54.2357C44.0648 54.0964 42.5449 54.1698 41.0313 53.9162C39.5751 53.6723 38.196 53.1609 36.7007 53.2189C34.7628 53.2936 33.8924 54.6071 33.0658 56.1261C32.6577 56.8763 30.0804 62.6453 28.5661 63.9388C25.955 60.084 24.3124 55.523 23.9853 50.6077C24.1993 50.55 24.4114 50.4702 24.6267 50.3629C25.4693 49.9446 26.0596 49.1895 26.9764 48.8904C27.8505 48.6057 28.9799 48.8582 29.873 48.9457C30.7617 49.0327 31.6643 49.1247 32.5538 49.0037C34.3293 48.7611 35.2701 47.5347 35.5537 45.8226C35.7222 44.7998 35.5907 43.7714 35.6212 42.7416C35.6693 41.137 36.7223 40.5613 38.1733 40.4248C40.9142 40.1674 47.3078 40.8937 47.4373 36.6754C47.4924 34.8711 45.3449 33.9398 43.9462 33.4583C41.2227 32.5213 38.2469 32.8484 35.4613 32.1975C33.9796 31.8513 32.73 30.9271 31.6821 29.8348C36.6014 24.8221 43.4465 21.7063 51.0073 21.7063C52.6244 21.7063 54.2073 21.849 55.7464 22.1223C54.9595 22.2685 54.1827 22.4762 53.4269 22.7814C49.4398 24.3889 49.3197 28.9124 51.0625 32.3107C52.1433 34.4182 53.8937 36.1839 55.722 37.6521C57.4919 39.0729 59.4259 39.9125 61.3884 40.9902C63.992 42.4218 63.6777 46.1606 64.3364 48.6796C64.8919 50.8041 66.226 52.5962 68.3288 53.3317C69.6001 53.7759 71.0934 53.4292 72.2066 54.315C73.1627 55.0735 73.3873 56.6264 73.9337 57.67C74.478 58.7112 75.2024 59.1496 75.9995 59.226Z" fill="white"/>
<path d="M51.0073 17.1665C33.5699 17.1665 19.3828 31.3535 19.3828 48.791C19.3828 66.2284 33.5699 80.4155 51.0073 80.4155C68.4448 80.4155 82.6318 66.2284 82.6318 48.791C82.6318 31.3535 68.4448 17.1665 51.0073 17.1665ZM75.9995 59.226C72.8907 66.6451 66.5704 72.3976 58.7852 74.7354C58.9247 74.4763 59.0599 74.2143 59.1907 73.9494C59.8595 72.5958 60.5623 71.6415 61.7418 70.6897C62.6445 69.9607 64.4168 68.8316 64.1271 67.408C63.918 66.3791 62.7434 65.9569 61.8557 65.7054C60.4473 65.3063 58.9406 65.2029 57.4872 65.1023C56.2286 65.0144 54.9215 65.0592 53.6927 64.7458C51.8538 64.2777 51.4393 62.6859 51.323 61.0079C51.2193 59.5163 51.2415 57.9827 50.5079 56.6328C49.5633 54.8955 47.3893 54.4015 45.5866 54.2357C44.0648 54.0964 42.5449 54.1698 41.0313 53.9162C39.5751 53.6723 38.196 53.1609 36.7007 53.2189C34.7628 53.2936 33.8924 54.6071 33.0658 56.1261C32.6577 56.8763 30.0804 62.6453 28.5661 63.9388C25.955 60.084 24.3124 55.523 23.9853 50.6077C24.1993 50.55 24.4114 50.4702 24.6267 50.3629C25.4693 49.9446 26.0596 49.1895 26.9764 48.8904C27.8505 48.6057 28.9799 48.8582 29.873 48.9457C30.7617 49.0327 31.6643 49.1247 32.5538 49.0037C34.3293 48.7611 35.2701 47.5347 35.5537 45.8226C35.7222 44.7998 35.5907 43.7714 35.6212 42.7416C35.6693 41.137 36.7223 40.5613 38.1733 40.4248C40.9142 40.1674 47.3078 40.8937 47.4373 36.6754C47.4924 34.8711 45.3449 33.9398 43.9462 33.4583C41.2227 32.5213 38.2469 32.8484 35.4613 32.1975C33.9796 31.8513 32.73 30.9271 31.6821 29.8348C36.6014 24.8221 43.4465 21.7063 51.0073 21.7063C52.6244 21.7063 54.2073 21.849 55.7464 22.1223C54.9595 22.2685 54.1827 22.4762 53.4269 22.7814C49.4398 24.3889 49.3197 28.9124 51.0625 32.3107C52.1433 34.4182 53.8937 36.1839 55.722 37.6521C57.4919 39.0729 59.4259 39.9125 61.3884 40.9902C63.992 42.4218 63.6777 46.1606 64.3364 48.6796C64.8919 50.8041 66.226 52.5962 68.3288 53.3317C69.6001 53.7759 71.0934 53.4292 72.2066 54.315C73.1627 55.0735 73.3873 56.6264 73.9337 57.67C74.478 58.7112 75.2024 59.1496 75.9995 59.226Z" fill="url(#paint0_linear)"/>
</g>
</g>
<defs>
<filter id="filter0_di" x="11.7315" y="13.6852" width="78.5516" height="78.5516" filterUnits="userSpaceOnUse" color-interpolation-filters="sRGB">
<feFlood flood-opacity="0" result="BackgroundImageFix"/>
<feColorMatrix in="SourceAlpha" type="matrix" values="0 0 0 0 0 0 0 0 0 0 0 0 0 0 0 0 0 0 127 0"/>
<feOffset dy="4.17"/>
<feGaussianBlur stdDeviation="3.82566"/>
<feColorMatrix type="matrix" values="0 0 0 0 0.314236 0 0 0 0 0.754167 0 0 0 0 0.420291 0 0 0 1 0"/>
<feBlend mode="normal" in2="BackgroundImageFix" result="effect1_dropShadow"/>
<feBlend mode="normal" in="SourceGraphic" in2="effect1_dropShadow" result="shape"/>
<feColorMatrix in="SourceAlpha" type="matrix" values="0 0 0 0 0 0 0 0 0 0 0 0 0 0 0 0 0 0 127 0" result="hardAlpha"/>
<feOffset dx="3"/>
<feGaussianBlur stdDeviation="1.73894"/>
<feComposite in2="hardAlpha" operator="arithmetic" k2="-1" k3="1"/>
<feColorMatrix type="matrix" values="0 0 0 0 0.921569 0 0 0 0 0.992157 0 0 0 0 0.937255 0 0 0 1 0"/>
<feBlend mode="normal" in2="shape" result="effect2_innerShadow"/>
</filter>
<linearGradient id="paint0_linear" x1="27.6253" y1="25.3412" x2="75.7158" y2="97.6855" gradientUnits="userSpaceOnUse">
<stop stop-color="#B9ECC5"/>
<stop offset="1" stop-color="#64D47F"/>
</linearGradient>
</defs>
</svg>
