<svg width="80" height="81" viewBox="0 0 80 81" fill="none" xmlns="http://www.w3.org/2000/svg">
<circle cx="40" cy="40.5898" r="40" fill="#FFAE68"/>
<mask id="mask0" mask-type="alpha" maskUnits="userSpaceOnUse" x="0" y="0" width="80" height="81">
<circle cx="40" cy="40.5898" r="40" fill="#6E9FFF"/>
</mask>
<g mask="url(#mask0)">
<g filter="url(#filter0_di)">
<path d="M19.7198 69.1065C14.5065 67.1878 15.1323 61.5883 16.0968 59.0283C23.6404 61.8048 40.6015 68.0232 50.4594 71.6514C49.7854 73.606 49.8729 75.182 51.5378 76.7064C51.0499 74.4822 51.74 71.921 53.4587 70.5393L31.1329 62.2261L47.8826 16.7172C48.7795 14.2803 51.8997 10.4955 56.6469 12.2427L91.2968 24.9957C94.3586 26.1226 98.1369 29.4376 96.2647 34.5244C94.3925 39.6112 89.0026 39.2807 86.9068 38.5093C84.811 37.738 80.7841 34.2207 82.5326 29.4702L64.169 79.3639C63.3135 81.6882 60.2034 84.0067 56.2723 82.5598L19.7198 69.1065Z" fill="#C4C4C4"/>
<path d="M19.7198 69.1065C14.5065 67.1878 15.1323 61.5883 16.0968 59.0283C23.6404 61.8048 40.6015 68.0232 50.4594 71.6514C49.7854 73.606 49.8729 75.182 51.5378 76.7064C51.0499 74.4822 51.74 71.921 53.4587 70.5393L31.1329 62.2261L47.8826 16.7172C48.7795 14.2803 51.8997 10.4955 56.6469 12.2427L91.2968 24.9957C94.3586 26.1226 98.1369 29.4376 96.2647 34.5244C94.3925 39.6112 89.0026 39.2807 86.9068 38.5093C84.811 37.738 80.7841 34.2207 82.5326 29.4702L64.169 79.3639C63.3135 81.6882 60.2034 84.0067 56.2723 82.5598L19.7198 69.1065Z" fill="url(#paint0_linear)"/>
<path d="M19.7198 69.1065C14.5065 67.1878 15.1323 61.5883 16.0968 59.0283C23.6404 61.8048 40.6015 68.0232 50.4594 71.6514C49.7854 73.606 49.8729 75.182 51.5378 76.7064C51.0499 74.4822 51.74 71.921 53.4587 70.5393L31.1329 62.2261L47.8826 16.7172C48.7795 14.2803 51.8997 10.4955 56.6469 12.2427L91.2968 24.9957C94.3586 26.1226 98.1369 29.4376 96.2647 34.5244C94.3925 39.6112 89.0026 39.2807 86.9068 38.5093C84.811 37.738 80.7841 34.2207 82.5326 29.4702L64.169 79.3639C63.3135 81.6882 60.2034 84.0067 56.2723 82.5598L19.7198 69.1065Z" fill="url(#paint1_linear)"/>
</g>
<g filter="url(#filter1_di)">
<path d="M55.3561 28.7614C61.8061 38.6631 59.6383 47.8582 56.0719 49.2352C50.7609 50.0632 50.6011 45.4588 48.98 41.8027C47.3589 38.1466 45.0903 38.5169 42.7911 37.2071C33.2362 30.7237 29.9608 20.0923 29.5155 16.0963C28.9085 10.0879 31.9578 12.8875 36.3517 16.6662C42.197 21.6916 50.0654 20.6393 55.3561 28.7614Z" fill="#C4C4C4"/>
<path d="M55.3561 28.7614C61.8061 38.6631 59.6383 47.8582 56.0719 49.2352C50.7609 50.0632 50.6011 45.4588 48.98 41.8027C47.3589 38.1466 45.0903 38.5169 42.7911 37.2071C33.2362 30.7237 29.9608 20.0923 29.5155 16.0963C28.9085 10.0879 31.9578 12.8875 36.3517 16.6662C42.197 21.6916 50.0654 20.6393 55.3561 28.7614Z" fill="url(#paint2_linear)"/>
<path d="M55.3498 57.4136C55.3055 57.8235 55.6018 58.1916 56.0117 58.2359C56.4215 58.2802 56.7897 57.9838 56.834 57.574L55.3498 57.4136ZM55.3561 28.7614L54.7307 29.1688L55.3561 28.7614ZM36.3517 16.6662L35.865 17.2322L35.8651 17.2323L36.3517 16.6662ZM29.5155 16.0963L28.7728 16.1714L28.7737 16.179L29.5155 16.0963ZM42.7911 37.2071L42.372 37.8247L42.3962 37.8412L42.4216 37.8557L42.7911 37.2071ZM56.834 57.574C57.0034 56.0062 57.2407 52.1183 56.8107 49.129L55.3331 49.3415C55.7367 52.1475 55.5144 55.8904 55.3498 57.4136L56.834 57.574ZM56.3407 49.9316C57.4657 49.4972 58.3863 48.49 59.0395 47.181C59.6982 45.861 60.1209 44.1682 60.2157 42.2316C60.4055 38.3525 59.2846 33.4247 55.9815 28.354L54.7307 29.1688C57.8776 33.9998 58.8978 38.6204 58.7246 42.1586C58.6379 43.9305 58.2531 45.4135 57.7038 46.5144C57.149 47.6262 56.4613 48.2848 55.803 48.5389L56.3407 49.9316ZM55.9815 28.354C53.2173 24.1105 49.7672 22.2682 46.3456 20.8621C42.892 19.4429 39.6413 18.5101 36.8383 16.1002L35.8651 17.2323C38.9073 19.8477 42.5135 20.9014 45.7781 22.2429C49.0747 23.5976 52.2041 25.2901 54.7307 29.1688L55.9815 28.354ZM36.8384 16.1003C35.7479 15.1625 34.7162 14.2638 33.8046 13.5503C32.9109 12.8508 32.0489 12.2602 31.2991 12.0046C30.9177 11.8746 30.4821 11.8015 30.0533 11.9208C29.5921 12.049 29.258 12.3653 29.0459 12.7778C28.8457 13.1671 28.7473 13.6499 28.7101 14.1894C28.6723 14.7373 28.6945 15.396 28.7729 16.1714L30.2581 16.0213C30.1847 15.2945 30.1695 14.7264 30.1994 14.2921C30.2299 13.8495 30.3045 13.5947 30.3735 13.4605C30.4054 13.3986 30.43 13.3743 30.438 13.3673C30.4437 13.3623 30.4463 13.361 30.4532 13.359C30.4769 13.3524 30.5811 13.337 30.8175 13.4176C31.3034 13.5832 31.9896 14.0255 32.8844 14.7259C33.7614 15.4123 34.7585 16.2806 35.865 17.2322L36.8384 16.1003ZM28.7737 16.179C29.2351 20.3197 32.584 31.1831 42.372 37.8247L43.2102 36.5894C33.8885 30.2642 30.6865 19.8649 30.2573 16.0137L28.7737 16.179ZM42.4216 37.8557C43.0534 38.2156 43.6756 38.4555 44.2423 38.6641C44.8237 38.8781 45.3242 39.0519 45.8063 39.2928C46.7075 39.743 47.557 40.4349 48.2977 42.1053L49.6624 41.5002C48.7819 39.5144 47.6866 38.5634 46.4734 37.9573C45.8983 37.67 45.2993 37.4623 44.7579 37.2631C44.202 37.0585 43.6783 36.8535 43.1605 36.5585L42.4216 37.8557ZM48.2977 42.1053C48.6869 42.983 48.9862 43.9122 49.3205 44.8691C49.6466 45.8025 50.0058 46.7607 50.5029 47.5857C51.0066 48.4217 51.6734 49.1587 52.632 49.6121C53.5892 50.0649 54.7548 50.196 56.1868 49.9728L55.9569 48.4977C54.7335 48.6885 53.8874 48.5545 53.2703 48.2626C52.6546 47.9713 52.1844 47.4839 51.7816 46.8153C51.3722 46.1357 51.0555 45.309 50.7298 44.3767C50.4123 43.4679 50.0837 42.4505 49.6624 41.5002L48.2977 42.1053Z" fill="black"/>
<path d="M55.3498 57.4136C55.3055 57.8235 55.6018 58.1916 56.0117 58.2359C56.4215 58.2802 56.7897 57.9838 56.834 57.574L55.3498 57.4136ZM55.3561 28.7614L54.7307 29.1688L55.3561 28.7614ZM36.3517 16.6662L35.865 17.2322L35.8651 17.2323L36.3517 16.6662ZM29.5155 16.0963L28.7728 16.1714L28.7737 16.179L29.5155 16.0963ZM42.7911 37.2071L42.372 37.8247L42.3962 37.8412L42.4216 37.8557L42.7911 37.2071ZM56.834 57.574C57.0034 56.0062 57.2407 52.1183 56.8107 49.129L55.3331 49.3415C55.7367 52.1475 55.5144 55.8904 55.3498 57.4136L56.834 57.574ZM56.3407 49.9316C57.4657 49.4972 58.3863 48.49 59.0395 47.181C59.6982 45.861 60.1209 44.1682 60.2157 42.2316C60.4055 38.3525 59.2846 33.4247 55.9815 28.354L54.7307 29.1688C57.8776 33.9998 58.8978 38.6204 58.7246 42.1586C58.6379 43.9305 58.2531 45.4135 57.7038 46.5144C57.149 47.6262 56.4613 48.2848 55.803 48.5389L56.3407 49.9316ZM55.9815 28.354C53.2173 24.1105 49.7672 22.2682 46.3456 20.8621C42.892 19.4429 39.6413 18.5101 36.8383 16.1002L35.8651 17.2323C38.9073 19.8477 42.5135 20.9014 45.7781 22.2429C49.0747 23.5976 52.2041 25.2901 54.7307 29.1688L55.9815 28.354ZM36.8384 16.1003C35.7479 15.1625 34.7162 14.2638 33.8046 13.5503C32.9109 12.8508 32.0489 12.2602 31.2991 12.0046C30.9177 11.8746 30.4821 11.8015 30.0533 11.9208C29.5921 12.049 29.258 12.3653 29.0459 12.7778C28.8457 13.1671 28.7473 13.6499 28.7101 14.1894C28.6723 14.7373 28.6945 15.396 28.7729 16.1714L30.2581 16.0213C30.1847 15.2945 30.1695 14.7264 30.1994 14.2921C30.2299 13.8495 30.3045 13.5947 30.3735 13.4605C30.4054 13.3986 30.43 13.3743 30.438 13.3673C30.4437 13.3623 30.4463 13.361 30.4532 13.359C30.4769 13.3524 30.5811 13.337 30.8175 13.4176C31.3034 13.5832 31.9896 14.0255 32.8844 14.7259C33.7614 15.4123 34.7585 16.2806 35.865 17.2322L36.8384 16.1003ZM28.7737 16.179C29.2351 20.3197 32.584 31.1831 42.372 37.8247L43.2102 36.5894C33.8885 30.2642 30.6865 19.8649 30.2573 16.0137L28.7737 16.179ZM42.4216 37.8557C43.0534 38.2156 43.6756 38.4555 44.2423 38.6641C44.8237 38.8781 45.3242 39.0519 45.8063 39.2928C46.7075 39.743 47.557 40.4349 48.2977 42.1053L49.6624 41.5002C48.7819 39.5144 47.6866 38.5634 46.4734 37.9573C45.8983 37.67 45.2993 37.4623 44.7579 37.2631C44.202 37.0585 43.6783 36.8535 43.1605 36.5585L42.4216 37.8557ZM48.2977 42.1053C48.6869 42.983 48.9862 43.9122 49.3205 44.8691C49.6466 45.8025 50.0058 46.7607 50.5029 47.5857C51.0066 48.4217 51.6734 49.1587 52.632 49.6121C53.5892 50.0649 54.7548 50.196 56.1868 49.9728L55.9569 48.4977C54.7335 48.6885 53.8874 48.5545 53.2703 48.2626C52.6546 47.9713 52.1844 47.4839 51.7816 46.8153C51.3722 46.1357 51.0555 45.309 50.7298 44.3767C50.4123 43.4679 50.0837 42.4505 49.6624 41.5002L48.2977 42.1053Z" fill="url(#paint3_linear)"/>
</g>
</g>
<defs>
<filter id="filter0_di" x="8.94743" y="8.84418" width="94.3124" height="84.2034" filterUnits="userSpaceOnUse" color-interpolation-filters="sRGB">
<feFlood flood-opacity="0" result="BackgroundImageFix"/>
<feColorMatrix in="SourceAlpha" type="matrix" values="0 0 0 0 0 0 0 0 0 0 0 0 0 0 0 0 0 0 127 0"/>
<feOffset dy="3.54323"/>
<feGaussianBlur stdDeviation="3.24797"/>
<feColorMatrix type="matrix" values="0 0 0 0 0.945833 0 0 0 0 0.462182 0 0 0 0 0.0433507 0 0 0 1 0"/>
<feBlend mode="normal" in2="BackgroundImageFix" result="effect1_dropShadow"/>
<feBlend mode="normal" in="SourceGraphic" in2="effect1_dropShadow" result="shape"/>
<feColorMatrix in="SourceAlpha" type="matrix" values="0 0 0 0 0 0 0 0 0 0 0 0 0 0 0 0 0 0 127 0" result="hardAlpha"/>
<feOffset dx="2.54698"/>
<feGaussianBlur stdDeviation="1.47635"/>
<feComposite in2="hardAlpha" operator="arithmetic" k2="-1" k3="1"/>
<feColorMatrix type="matrix" values="0 0 0 0 1 0 0 0 0 0.807829 0 0 0 0 0.641667 0 0 0 1 0"/>
<feBlend mode="normal" in2="shape" result="effect2_innerShadow"/>
</filter>
<filter id="filter1_di" x="22.196" y="8.90766" width="44.5357" height="59.3717" filterUnits="userSpaceOnUse" color-interpolation-filters="sRGB">
<feFlood flood-opacity="0" result="BackgroundImageFix"/>
<feColorMatrix in="SourceAlpha" type="matrix" values="0 0 0 0 0 0 0 0 0 0 0 0 0 0 0 0 0 0 127 0"/>
<feOffset dy="3.54323"/>
<feGaussianBlur stdDeviation="3.24797"/>
<feColorMatrix type="matrix" values="0 0 0 0 0.945833 0 0 0 0 0.462182 0 0 0 0 0.0433507 0 0 0 1 0"/>
<feBlend mode="normal" in2="BackgroundImageFix" result="effect1_dropShadow"/>
<feBlend mode="normal" in="SourceGraphic" in2="effect1_dropShadow" result="shape"/>
<feColorMatrix in="SourceAlpha" type="matrix" values="0 0 0 0 0 0 0 0 0 0 0 0 0 0 0 0 0 0 127 0" result="hardAlpha"/>
<feOffset dx="-0.44039"/>
<feGaussianBlur stdDeviation="1.47635"/>
<feComposite in2="hardAlpha" operator="arithmetic" k2="-1" k3="1"/>
<feColorMatrix type="matrix" values="0 0 0 0 1 0 0 0 0 0.807829 0 0 0 0 0.641667 0 0 0 1 0"/>
<feBlend mode="normal" in2="shape" result="effect2_innerShadow"/>
</filter>
<linearGradient id="paint0_linear" x1="67.4302" y1="16.2115" x2="44.5926" y2="78.2611" gradientUnits="userSpaceOnUse">
<stop stop-color="#C7D9FF"/>
<stop offset="1" stop-color="#85AFFF"/>
</linearGradient>
<linearGradient id="paint1_linear" x1="67.4302" y1="16.2115" x2="44.5926" y2="78.2611" gradientUnits="userSpaceOnUse">
<stop stop-color="white"/>
<stop offset="1" stop-color="#FF9E4A"/>
</linearGradient>
<linearGradient id="paint2_linear" x1="48.8069" y1="19.2427" x2="37.2771" y2="50.569" gradientUnits="userSpaceOnUse">
<stop stop-color="white"/>
<stop offset="1" stop-color="#FF9E4A"/>
</linearGradient>
<linearGradient id="paint3_linear" x1="48.8069" y1="19.2427" x2="37.2771" y2="50.569" gradientUnits="userSpaceOnUse">
<stop stop-color="white"/>
<stop offset="1" stop-color="#FF9E4A"/>
</linearGradient>
</defs>
</svg>
