<svg width="80" height="81" viewBox="0 0 80 81" fill="none" xmlns="http://www.w3.org/2000/svg">
<circle cx="40" cy="40.5898" r="40" fill="#6E9FFF"/>
<mask id="mask0" mask-type="alpha" maskUnits="userSpaceOnUse" x="0" y="0" width="80" height="81">
<circle cx="40" cy="40.5898" r="40" fill="#6E9FFF"/>
</mask>
<g mask="url(#mask0)">
<g filter="url(#filter0_di)">
<path fill-rule="evenodd" clip-rule="evenodd" d="M42.0293 13.8457C40.3026 13.0731 38.2765 13.8465 37.5039 15.5732L18.0763 58.993C17.3037 60.7197 18.0771 62.7458 19.8038 63.5184L63.3436 82.9998C65.0703 83.7723 67.0964 82.9989 67.869 81.2722L87.2966 37.8524C88.0692 36.1257 87.2958 34.0996 85.5691 33.327L42.0293 13.8457ZM49.724 26.4721C50.1103 25.6088 49.7235 24.5957 48.8602 24.2094C47.9968 23.8232 46.9838 24.2099 46.5975 25.0732L44.3188 30.166L39.2253 27.8869C38.362 27.5006 37.3489 27.8874 36.9626 28.7507C36.5764 29.614 36.9631 30.6271 37.8264 31.0134L42.9199 33.2924L40.6409 38.3859C40.2546 39.2493 40.6413 40.2623 41.5047 40.6486C42.368 41.0349 43.3811 40.6482 43.7674 39.7848L46.0464 34.6913L51.1391 36.97C52.0025 37.3563 53.0155 36.9696 53.4018 36.1062C53.7881 35.2429 53.4014 34.2298 52.538 33.8435L47.4453 31.5648L49.724 26.4721ZM31.6776 47.0224C32.5612 46.685 33.551 47.1279 33.8883 48.0115L35.8781 53.2238L41.0904 51.234C41.974 50.8966 42.9638 51.3395 43.3011 52.2231C43.6384 53.1068 43.1956 54.0965 42.3119 54.4339L37.0996 56.4237L39.0899 61.637C39.4272 62.5206 38.9843 63.5104 38.1007 63.8478C37.2171 64.1851 36.2273 63.7422 35.8899 62.8586L33.8997 57.6452L28.6865 59.6354C27.8028 59.9727 26.813 59.5299 26.4757 58.6462C26.1384 57.7626 26.5813 56.7728 27.4649 56.4355L32.6782 54.4453L30.6884 49.2331C30.3511 48.3495 30.7939 47.3597 31.6776 47.0224ZM75.361 47.8075C76.2243 48.1938 77.2374 47.8071 77.6237 46.9438C78.01 46.0804 77.6232 45.0674 76.7599 44.6811L63.4472 38.7245C62.5838 38.3382 61.5708 38.7249 61.1845 39.5882C60.7982 40.4516 61.1849 41.4646 62.0483 41.8509L75.361 47.8075ZM69.2716 66.1706C68.8853 67.0339 67.8723 67.4207 67.0089 67.0344L53.6962 61.0778C52.8329 60.6915 52.4461 59.6784 52.8324 58.8151C53.2187 57.9517 54.2318 57.565 55.0951 57.9513L68.4078 63.9079C69.2712 64.2942 69.6579 65.3073 69.2716 66.1706ZM63.3453 75.2224C64.2086 75.6087 65.2216 75.222 65.6079 74.3587C65.9942 73.4953 65.6075 72.4823 64.7442 72.096L51.4314 66.1394C50.5681 65.7531 49.5551 66.1398 49.1688 67.0031C48.7825 67.8665 49.1692 68.8795 50.0325 69.2658L63.3453 75.2224Z" fill="white"/>
<path fill-rule="evenodd" clip-rule="evenodd" d="M42.0293 13.8457C40.3026 13.0731 38.2765 13.8465 37.5039 15.5732L18.0763 58.993C17.3037 60.7197 18.0771 62.7458 19.8038 63.5184L63.3436 82.9998C65.0703 83.7723 67.0964 82.9989 67.869 81.2722L87.2966 37.8524C88.0692 36.1257 87.2958 34.0996 85.5691 33.327L42.0293 13.8457ZM49.724 26.4721C50.1103 25.6088 49.7235 24.5957 48.8602 24.2094C47.9968 23.8232 46.9838 24.2099 46.5975 25.0732L44.3188 30.166L39.2253 27.8869C38.362 27.5006 37.3489 27.8874 36.9626 28.7507C36.5764 29.614 36.9631 30.6271 37.8264 31.0134L42.9199 33.2924L40.6409 38.3859C40.2546 39.2493 40.6413 40.2623 41.5047 40.6486C42.368 41.0349 43.3811 40.6482 43.7674 39.7848L46.0464 34.6913L51.1391 36.97C52.0025 37.3563 53.0155 36.9696 53.4018 36.1062C53.7881 35.2429 53.4014 34.2298 52.538 33.8435L47.4453 31.5648L49.724 26.4721ZM31.6776 47.0224C32.5612 46.685 33.551 47.1279 33.8883 48.0115L35.8781 53.2238L41.0904 51.234C41.974 50.8966 42.9638 51.3395 43.3011 52.2231C43.6384 53.1068 43.1956 54.0965 42.3119 54.4339L37.0996 56.4237L39.0899 61.637C39.4272 62.5206 38.9843 63.5104 38.1007 63.8478C37.2171 64.1851 36.2273 63.7422 35.8899 62.8586L33.8997 57.6452L28.6865 59.6354C27.8028 59.9727 26.813 59.5299 26.4757 58.6462C26.1384 57.7626 26.5813 56.7728 27.4649 56.4355L32.6782 54.4453L30.6884 49.2331C30.3511 48.3495 30.7939 47.3597 31.6776 47.0224ZM75.361 47.8075C76.2243 48.1938 77.2374 47.8071 77.6237 46.9438C78.01 46.0804 77.6232 45.0674 76.7599 44.6811L63.4472 38.7245C62.5838 38.3382 61.5708 38.7249 61.1845 39.5882C60.7982 40.4516 61.1849 41.4646 62.0483 41.8509L75.361 47.8075ZM69.2716 66.1706C68.8853 67.0339 67.8723 67.4207 67.0089 67.0344L53.6962 61.0778C52.8329 60.6915 52.4461 59.6784 52.8324 58.8151C53.2187 57.9517 54.2318 57.565 55.0951 57.9513L68.4078 63.9079C69.2712 64.2942 69.6579 65.3073 69.2716 66.1706ZM63.3453 75.2224C64.2086 75.6087 65.2216 75.222 65.6079 74.3587C65.9942 73.4953 65.6075 72.4823 64.7442 72.096L51.4314 66.1394C50.5681 65.7531 49.5551 66.1398 49.1688 67.0031C48.7825 67.8665 49.1692 68.8795 50.0325 69.2658L63.3453 75.2224Z" fill="url(#paint0_linear)"/>
</g>
</g>
<defs>
<filter id="filter0_di" x="14.3517" y="7.83732" width="83.5201" height="83.4538" filterUnits="userSpaceOnUse" color-interpolation-filters="sRGB">
<feFlood flood-opacity="0" result="BackgroundImageFix"/>
<feColorMatrix in="SourceAlpha" type="matrix" values="0 0 0 0 0 0 0 0 0 0 0 0 0 0 0 0 0 0 127 0"/>
<feOffset dx="3.42515" dy="1.14172"/>
<feGaussianBlur stdDeviation="3.42515"/>
<feColorMatrix type="matrix" values="0 0 0 0 0.191667 0 0 0 0 0.464828 0 0 0 0 1 0 0 0 1 0"/>
<feBlend mode="normal" in2="BackgroundImageFix" result="effect1_dropShadow"/>
<feBlend mode="normal" in="SourceGraphic" in2="effect1_dropShadow" result="shape"/>
<feColorMatrix in="SourceAlpha" type="matrix" values="0 0 0 0 0 0 0 0 0 0 0 0 0 0 0 0 0 0 127 0" result="hardAlpha"/>
<feOffset dx="2.28343"/>
<feGaussianBlur stdDeviation="1.71257"/>
<feComposite in2="hardAlpha" operator="arithmetic" k2="-1" k3="1"/>
<feColorMatrix type="matrix" values="0 0 0 0 0.6875 0 0 0 0 0.793478 0 0 0 0 1 0 0 0 1 0"/>
<feBlend mode="normal" in2="shape" result="effect2_innerShadow"/>
</filter>
<linearGradient id="paint0_linear" x1="41.367" y1="17.9091" x2="63.1363" y2="74.7439" gradientUnits="userSpaceOnUse">
<stop stop-color="white"/>
<stop offset="1" stop-color="#6E9FFF"/>
</linearGradient>
</defs>
</svg>
