<svg width="70" height="24" viewBox="0 0 70 24" fill="none" xmlns="http://www.w3.org/2000/svg">
<g clip-path="url(#clip0)">
<path opacity="0.5" d="M45.5796 1.68848C40.77 1.68848 36.4701 4.13108 36.4701 8.63448C36.4701 13.7987 44.093 14.1575 44.093 16.7504C44.093 17.8452 42.8118 18.8204 40.6273 18.8204C37.5223 18.8204 35.2014 17.4527 35.2014 17.4527L34.2056 22.0021C34.2056 22.0021 36.8778 23.1567 40.425 23.1567C45.6878 23.1567 49.8247 20.596 49.8247 16.0144C49.8247 10.5557 42.1673 10.2123 42.1673 7.79728C42.1673 6.94168 43.2179 6.00021 45.4024 6.00021C47.8645 6.00021 49.8717 6.99534 49.8717 6.99534L50.844 2.60541C50.844 2.61154 48.6595 1.69001 45.5812 1.69001L45.5796 1.68848ZM1.56077 2.02274L1.44629 2.68514C1.44629 2.68514 3.46768 3.05008 5.29147 3.77228C7.63904 4.60028 7.8084 5.08481 8.20202 6.58441L12.5082 22.8178H18.2792L27.1802 2.02121H21.4218L15.7042 16.1601L13.3707 4.17708C13.1606 2.80474 12.0739 2.02121 10.7456 2.02121H1.56233L1.56077 2.02274ZM29.4979 2.02274L24.9816 22.8132H30.4749L34.9709 2.02121H29.4979V2.02274ZM60.1339 2.02274C58.8119 2.02274 58.1063 2.71888 57.5903 3.92561L49.5456 22.8132H55.3055L56.4189 19.6637H63.4365L64.1155 22.8132H69.2027L64.7663 2.02121H60.1339V2.02274ZM60.8867 7.63934L62.596 15.444H58.0169L60.8867 7.63934Z" fill="#9E9E9E"/>
</g>
<defs>
<clipPath id="clip0">
<rect width="69" height="23" fill="white" transform="translate(0.662109 0.645508)"/>
</clipPath>
</defs>
</svg>
