<svg width="46" height="47" viewBox="0 0 46 47" fill="none" xmlns="http://www.w3.org/2000/svg">
<circle cx="23" cy="23.2578" r="23" fill="white"/>
<path d="M18.9398 26.9833C21.1683 29.1962 23.6962 29.0511 23.6962 29.0511H24.8448C24.8448 29.0511 25.1934 29.0137 25.3701 28.8313C25.5321 28.6628 25.5271 28.3494 25.5271 28.3494C25.5271 28.3494 25.5026 26.885 26.2193 26.6651C26.9212 26.4546 27.8293 28.0827 28.7865 28.7096C29.5129 29.1821 30.0627 29.0792 30.0627 29.0792L32.6201 29.0465C32.6201 29.0465 33.9601 28.9669 33.3269 27.9657C33.2729 27.8815 32.9588 27.2219 31.4224 25.8651C29.8173 24.4428 30.0333 24.6721 31.9672 22.2159C33.1453 20.7188 33.6165 19.8065 33.4693 19.4135C33.3269 19.0392 32.463 19.1374 32.463 19.1374L29.5768 19.1562C29.5768 19.1562 29.3608 19.1281 29.2037 19.217C29.0466 19.3059 28.9484 19.5117 28.9484 19.5117C28.9484 19.5117 28.4919 20.672 27.8833 21.6545C26.5972 23.7317 26.0867 23.844 25.8757 23.713C25.3897 23.4136 25.5075 22.506 25.5075 21.8603C25.5075 19.8439 25.8266 19.0065 24.8841 18.7866C24.57 18.7164 24.3393 18.6649 23.5392 18.6602C22.5083 18.6509 21.6395 18.6649 21.1438 18.8942C20.8149 19.0486 20.5645 19.3901 20.7167 19.4088C20.9081 19.4322 21.3401 19.5211 21.5659 19.8158C21.8604 20.1995 21.8506 21.0603 21.8506 21.0603C21.8506 21.0603 22.0224 23.4323 21.453 23.727C21.0652 23.9282 20.5302 23.5165 19.3865 21.6311C18.7974 20.6673 18.3557 19.5959 18.3557 19.5959C18.3557 19.5959 18.2722 19.3948 18.12 19.2918C17.9335 19.1608 17.6783 19.1234 17.6783 19.1234L14.9393 19.1421C14.9393 19.1421 14.5269 19.1515 14.3748 19.3246C14.2373 19.4696 14.365 19.7831 14.365 19.7831C14.365 19.7831 16.51 24.5692 18.9398 26.9833Z" fill="#1A1A1A"/>
</svg>
