<svg width="45" height="47" viewBox="0 0 45 47" fill="none" xmlns="http://www.w3.org/2000/svg">
<ellipse cx="22.5" cy="23.2578" rx="22.5" ry="23" fill="white"/>
<g clip-path="url(#clip0)">
<path fill-rule="evenodd" clip-rule="evenodd" d="M30.0803 15.0994C28.063 13.0797 25.3802 11.967 22.5221 11.9658C16.6327 11.9658 11.8396 16.7588 11.8372 22.6498C11.8364 24.533 12.3283 26.3713 13.2634 27.9916L11.7476 33.5283L17.4118 32.0425C18.9725 32.8938 20.7296 33.3425 22.5178 33.343H22.5222C28.411 33.343 33.2046 28.5496 33.2069 22.6584C33.2081 19.8033 32.0977 17.1189 30.0803 15.0994ZM22.5221 31.5386H22.5184C20.9249 31.5379 19.3621 31.1096 17.9984 30.3007L17.6742 30.1081L14.313 30.9899L15.2101 27.7127L14.9989 27.3767C14.1099 25.9628 13.6405 24.3285 13.6413 22.6505C13.6431 17.754 17.6271 13.7704 22.5256 13.7704C24.8977 13.7712 27.1276 14.6961 28.8042 16.3748C30.4809 18.0534 31.4037 20.2847 31.4029 22.6577C31.4008 27.5545 27.4171 31.5386 22.5221 31.5386ZM27.3934 24.8873C27.1265 24.7536 25.8138 24.1079 25.5691 24.0187C25.3245 23.9296 25.1463 23.8852 24.9685 24.1524C24.7905 24.4195 24.2789 25.021 24.1231 25.199C23.9673 25.3772 23.8117 25.3996 23.5447 25.2659C23.2776 25.1323 22.4175 24.8503 21.3976 23.9407C20.6041 23.2328 20.0683 22.3586 19.9125 22.0914C19.7569 21.824 19.9111 21.6934 20.0296 21.5465C20.3186 21.1877 20.608 20.8114 20.697 20.6333C20.7861 20.4551 20.7415 20.2992 20.6746 20.1656C20.608 20.032 20.0741 18.7179 19.8517 18.1832C19.6348 17.6628 19.4149 17.7331 19.2509 17.7249C19.0953 17.7172 18.9172 17.7156 18.7392 17.7156C18.5612 17.7156 18.272 17.7823 18.0272 18.0498C17.7825 18.317 17.0929 18.9628 17.0929 20.2769C17.0929 21.591 18.0496 22.8605 18.183 23.0387C18.3165 23.2169 20.0656 25.9135 22.7437 27.0698C23.3807 27.3452 23.8779 27.5093 24.2658 27.6323C24.9054 27.8355 25.4872 27.8068 25.9473 27.7381C26.4603 27.6614 27.5267 27.0922 27.7494 26.4687C27.9718 25.845 27.9718 25.3105 27.905 25.199C27.8384 25.0877 27.6603 25.021 27.3934 24.8873Z" fill="#1A1A1A"/>
</g>
<defs>
<clipPath id="clip0">
<rect width="23" height="23" fill="white" transform="translate(10.9531 11.2578)"/>
</clipPath>
</defs>
</svg>
